M48
; DRILL file {KiCad (6.0.1)} date Sun 30 Jan 2022 07:22:42 PM
; FORMAT={-:-/ absolute / metric / decimal}
; #@! TF.CreationDate,2022-01-30T19:22:42-07:00
; #@! TF.GenerationSoftware,Kicad,Pcbnew,(6.0.1)
; #@! TF.FileFunction,Plated,1,2,PTH
FMAT,2
METRIC
; #@! TA.AperFunction,Plated,PTH,ViaDrill
T1C0.300
; #@! TA.AperFunction,Plated,PTH,ViaDrill
T2C0.500
; #@! TA.AperFunction,Plated,PTH,ComponentDrill
T3C0.800
; #@! TA.AperFunction,Plated,PTH,ComponentDrill
T4C1.000
%
G90
G05
T1
X72.136Y-80.264
X72.136Y-81.788
X72.136Y-85.09
X72.136Y-87.63
X72.136Y-90.17
X72.136Y-92.71
X72.136Y-95.25
X72.136Y-97.79
X72.136Y-100.33
X72.136Y-102.87
X72.136Y-105.41
X72.136Y-107.95
X72.136Y-113.03
X72.898Y-79.248
X73.66Y-80.264
X73.66Y-81.788
X74.422Y-79.248
X74.93Y-115.57
X74.93Y-118.11
X75.184Y-80.264
X75.184Y-81.788
X75.565Y-104.775
X75.565Y-107.95
X75.565Y-109.22
X75.565Y-110.49
X75.565Y-120.65
X75.692Y-86.106
X75.946Y-79.248
X76.2Y-89.662
X76.2Y-92.456
X76.2Y-94.996
X76.2Y-99.695
X76.2Y-120.015
X76.2Y-127.254
X76.454Y-122.428
X76.835Y-104.775
X76.835Y-110.49
X76.962Y-80.264
X76.962Y-81.788
X77.089Y-85.725
X77.216Y-114.554
X77.47Y-87.63
X77.47Y-118.11
X77.47Y-119.38
X77.47Y-121.412
X77.47Y-123.19
X77.724Y-79.248
X77.724Y-127.254
X78.105Y-101.6
X78.105Y-104.14
X78.105Y-105.41
X78.105Y-124.46
X78.105Y-125.73
X78.486Y-99.695
X78.486Y-108.458
X78.74Y-80.264
X78.74Y-81.788
X78.74Y-109.22
X78.74Y-118.11
X78.74Y-119.38
X78.994Y-110.49
X79.756Y-79.248
X79.756Y-86.106
X79.756Y-99.695
X80.518Y-87.63
X80.772Y-80.264
X80.772Y-81.788
X81.491Y-118.153
X81.491Y-119.423
X81.491Y-124.249
X81.491Y-126.789
X81.534Y-86.106
X81.534Y-106.299
X82.042Y-81.788
X82.296Y-87.63
X82.296Y-92.71
X82.296Y-93.98
X82.296Y-95.25
X82.296Y-96.52
X82.55Y-100.965
X82.55Y-121.285
X82.55Y-123.19
X82.55Y-124.46
X83.312Y-86.106
X83.312Y-124.206
X83.82Y-118.11
X83.82Y-119.38
X84.328Y-87.63
X84.582Y-82.042
X85.09Y-99.695
X85.344Y-86.106
X86.868Y-82.296
X86.868Y-91.186
X86.986Y-124.978
X86.995Y-88.265
X86.995Y-105.41
X86.995Y-106.68
X86.995Y-125.73
X86.995Y-127.0
X87.122Y-118.11
X87.122Y-119.126
X87.609Y-104.902
X87.63Y-123.825
X88.265Y-103.505
X88.9Y-86.233
X88.9Y-104.14
X88.9Y-105.41
X88.9Y-107.696
X88.9Y-110.236
X88.9Y-118.11
X88.9Y-119.126
X88.9Y-124.46
X88.9Y-125.73
X89.662Y-99.695
X90.17Y-118.11
X90.17Y-119.126
X91.186Y-87.63
X91.186Y-99.695
X91.44Y-86.614
X92.18Y-118.131
X92.18Y-119.401
X92.18Y-126.471
X92.413Y-106.383
X93.23Y-100.363
X93.23Y-103.513
X93.472Y-86.106
X93.472Y-111.76
X93.472Y-123.825
X93.726Y-125.73
X93.98Y-118.11
X93.98Y-119.38
X93.98Y-127.762
X94.498Y-84.387
X95.25Y-84.387
X95.25Y-85.542
X95.25Y-100.33
X95.25Y-107.915
X95.504Y-98.044
X95.504Y-118.11
X95.504Y-119.38
X97.155Y-76.835
X97.155Y-85.542
X97.155Y-89.535
X97.79Y-75.565
X97.79Y-105.41
X97.79Y-106.68
X97.79Y-107.696
X97.79Y-125.73
X97.79Y-127.0
X97.807Y-85.078
X98.171Y-128.905
X98.425Y-81.28
X98.425Y-88.265
X98.425Y-89.535
X98.425Y-102.87
X98.87Y-123.215
X99.06Y-102.235
X99.06Y-125.73
X99.314Y-127.762
X99.695Y-75.565
X99.695Y-81.28
X99.695Y-84.455
X99.695Y-90.17
X99.695Y-91.44
X99.695Y-92.71
X99.695Y-93.98
X99.695Y-95.25
X99.695Y-96.52
X99.695Y-111.76
X99.695Y-113.03
X99.695Y-114.3
X99.695Y-115.57
X99.695Y-116.84
X99.695Y-123.19
X100.076Y-118.11
X100.076Y-119.38
X100.495Y-85.542
X100.965Y-76.835
X100.965Y-88.9
X100.965Y-90.17
X101.049Y-83.428
X101.219Y-128.905
X101.346Y-118.11
X101.346Y-119.38
X101.6Y-87.177
X101.6Y-89.535
X101.618Y-77.419
X101.854Y-84.582
X101.919Y-97.893
X102.362Y-118.618
X102.87Y-87.177
X103.124Y-97.79
X103.124Y-106.426
X103.124Y-118.11
X103.124Y-119.38
X103.124Y-126.746
X103.124Y-128.905
X103.398Y-85.591
X104.14Y-76.2
X104.14Y-85.09
X104.14Y-91.44
X104.14Y-99.557
X104.14Y-103.505
X104.14Y-123.825
X104.775Y-120.015
X104.775Y-125.095
X105.156Y-118.11
X105.537Y-128.905
X106.045Y-81.28
X106.172Y-119.126
X106.68Y-98.044
X106.934Y-118.11
X106.934Y-119.888
X107.569Y-128.905
X107.95Y-85.09
X107.95Y-89.535
X108.585Y-83.738
X108.585Y-105.41
X108.585Y-106.68
X108.585Y-125.73
X108.585Y-127.0
X108.893Y-102.87
X109.22Y-76.835
X109.22Y-104.14
X109.577Y-124.46
X109.601Y-128.905
X109.855Y-89.535
X109.855Y-103.505
X109.855Y-105.41
X109.982Y-127.762
X110.482Y-116.213
X110.49Y-85.542
X110.49Y-92.075
X110.49Y-93.345
X110.49Y-94.615
X110.49Y-95.885
X110.49Y-102.235
X110.49Y-112.395
X110.49Y-113.665
X110.49Y-114.935
X110.49Y-120.65
X110.49Y-122.555
X110.49Y-125.73
X111.125Y-85.09
X111.252Y-76.962
X111.252Y-117.856
X111.252Y-119.126
X111.76Y-89.535
X111.887Y-128.905
X112.268Y-120.65
X112.395Y-85.09
X112.522Y-118.364
X113.284Y-119.634
X113.538Y-97.282
X113.566Y-84.292
X113.665Y-88.265
X113.792Y-76.962
X114.024Y-106.404
X114.024Y-118.385
X114.024Y-121.179
X114.024Y-126.64
X114.046Y-107.95
X114.173Y-128.905
X114.3Y-84.455
X114.808Y-108.458
X114.808Y-127.508
X114.935Y-88.9
X114.935Y-91.44
X114.935Y-97.79
X114.935Y-100.965
X114.935Y-106.68
X115.062Y-84.328
X115.189Y-122.555
X115.189Y-123.825
X115.316Y-126.492
X116.205Y-76.2
X116.332Y-81.056
X116.332Y-82.804
X116.459Y-128.905
X116.84Y-100.33
X116.84Y-105.41
X117.348Y-118.618
X117.475Y-99.695
X117.602Y-76.962
X118.364Y-73.406
X118.364Y-75.438
X118.491Y-128.905
X119.126Y-77.216
X119.26Y-123.82
X119.38Y-116.205
X119.38Y-117.475
X119.38Y-118.872
X119.38Y-121.92
X119.888Y-84.074
X120.015Y-95.885
X120.015Y-105.41
X120.015Y-125.73
X120.015Y-127.0
X120.142Y-81.026
X120.142Y-88.392
X120.142Y-100.584
X120.269Y-128.651
X120.396Y-98.044
X120.65Y-91.186
X120.65Y-106.68
X120.671Y-73.406
X120.671Y-75.438
X120.904Y-104.14
X121.412Y-107.95
X121.412Y-120.65
X121.412Y-123.19
X123.952Y-97.79
X123.952Y-102.87
X123.952Y-118.11
X123.952Y-123.19
T2
X85.09Y-90.17
X85.09Y-109.855
X90.551Y-90.17
X95.885Y-90.17
X95.885Y-109.855
X106.68Y-90.17
X106.68Y-109.855
X117.475Y-90.17
X117.475Y-109.855
T3
X80.645Y-83.82
X83.185Y-83.82
X85.725Y-83.82
X88.265Y-83.82
X90.805Y-83.82
X93.345Y-83.82
X98.66Y-71.38
X98.66Y-79.0
X101.2Y-71.38
X101.2Y-79.0
X103.74Y-71.38
X103.74Y-79.0
X106.28Y-71.38
X106.28Y-79.0
X108.82Y-71.38
X108.82Y-79.0
X111.36Y-71.38
X111.36Y-79.0
X113.9Y-71.38
X113.9Y-79.0
X116.44Y-71.38
X116.44Y-79.0
X118.98Y-71.38
X118.98Y-79.0
X121.52Y-71.38
X121.52Y-79.0
T4
X73.66Y-83.82
X73.66Y-86.36
X73.66Y-88.9
X73.66Y-91.44
X73.66Y-93.98
X73.66Y-96.52
X73.66Y-99.06
X73.66Y-101.6
X73.66Y-104.14
X73.66Y-106.68
X73.66Y-109.22
X73.66Y-111.76
X73.66Y-114.3
X73.66Y-116.84
X73.66Y-119.38
X73.66Y-121.92
X73.66Y-124.46
X73.66Y-127.0
X83.185Y-80.01
X85.725Y-80.01
X88.265Y-80.01
X90.805Y-80.01
X93.345Y-80.01
X122.66Y-83.82
X122.66Y-86.36
X122.66Y-88.9
X122.66Y-91.44
X122.66Y-93.98
X122.66Y-96.52
X122.66Y-99.06
X122.66Y-101.6
X122.66Y-104.14
X122.66Y-106.68
X122.66Y-109.22
X122.66Y-111.76
X122.66Y-114.3
X122.66Y-116.84
X122.66Y-119.38
X122.66Y-121.92
X122.66Y-124.46
X122.66Y-127.0
T0
M30
