%TF.GenerationSoftware,KiCad,Pcbnew,(6.0.1)*%
%TF.CreationDate,2022-01-30T19:22:39-07:00*%
%TF.ProjectId,Bondwell1MB,426f6e64-7765-46c6-9c31-4d422e6b6963,rev?*%
%TF.SameCoordinates,Original*%
%TF.FileFunction,Legend,Top*%
%TF.FilePolarity,Positive*%
%FSLAX46Y46*%
G04 Gerber Fmt 4.6, Leading zero omitted, Abs format (unit mm)*
G04 Created by KiCad (PCBNEW (6.0.1)) date 2022-01-30 19:22:39*
%MOMM*%
%LPD*%
G01*
G04 APERTURE LIST*
G04 Aperture macros list*
%AMRoundRect*
0 Rectangle with rounded corners*
0 $1 Rounding radius*
0 $2 $3 $4 $5 $6 $7 $8 $9 X,Y pos of 4 corners*
0 Add a 4 corners polygon primitive as box body*
4,1,4,$2,$3,$4,$5,$6,$7,$8,$9,$2,$3,0*
0 Add four circle primitives for the rounded corners*
1,1,$1+$1,$2,$3*
1,1,$1+$1,$4,$5*
1,1,$1+$1,$6,$7*
1,1,$1+$1,$8,$9*
0 Add four rect primitives between the rounded corners*
20,1,$1+$1,$2,$3,$4,$5,0*
20,1,$1+$1,$4,$5,$6,$7,0*
20,1,$1+$1,$6,$7,$8,$9,0*
20,1,$1+$1,$8,$9,$2,$3,0*%
G04 Aperture macros list end*
%ADD10C,0.300000*%
%ADD11C,0.150000*%
%ADD12C,0.153000*%
%ADD13C,0.120000*%
%ADD14R,1.000000X1.500000*%
%ADD15RoundRect,0.250000X0.550000X-1.050000X0.550000X1.050000X-0.550000X1.050000X-0.550000X-1.050000X0*%
%ADD16R,1.500000X1.000000*%
%ADD17O,1.600000X2.400000*%
%ADD18R,1.600000X2.400000*%
%ADD19R,1.900000X0.600000*%
%ADD20R,1.700000X1.700000*%
%ADD21O,1.700000X1.700000*%
%ADD22R,1.600000X1.600000*%
%ADD23O,1.600000X1.600000*%
G04 APERTURE END LIST*
D10*
X82801999Y-109366857D02*
X83016285Y-109438285D01*
X83087714Y-109509714D01*
X83159142Y-109652571D01*
X83159142Y-109866857D01*
X83087714Y-110009714D01*
X83016285Y-110081142D01*
X82873428Y-110152571D01*
X82301999Y-110152571D01*
X82301999Y-108652571D01*
X82801999Y-108652571D01*
X82944857Y-108724000D01*
X83016285Y-108795428D01*
X83087714Y-108938285D01*
X83087714Y-109081142D01*
X83016285Y-109224000D01*
X82944857Y-109295428D01*
X82801999Y-109366857D01*
X82301999Y-109366857D01*
X83659142Y-108652571D02*
X84587714Y-108652571D01*
X84087714Y-109224000D01*
X84301999Y-109224000D01*
X84444857Y-109295428D01*
X84516285Y-109366857D01*
X84587714Y-109509714D01*
X84587714Y-109866857D01*
X84516285Y-110009714D01*
X84444857Y-110081142D01*
X84301999Y-110152571D01*
X83873428Y-110152571D01*
X83730571Y-110081142D01*
X83659142Y-110009714D01*
X86016285Y-110152571D02*
X85159142Y-110152571D01*
X85587714Y-110152571D02*
X85587714Y-108652571D01*
X85444857Y-108866857D01*
X85301999Y-109009714D01*
X85159142Y-109081142D01*
X86944857Y-108652571D02*
X87087714Y-108652571D01*
X87230571Y-108724000D01*
X87301999Y-108795428D01*
X87373428Y-108938285D01*
X87444857Y-109224000D01*
X87444857Y-109581142D01*
X87373428Y-109866857D01*
X87301999Y-110009714D01*
X87230571Y-110081142D01*
X87087714Y-110152571D01*
X86944857Y-110152571D01*
X86801999Y-110081142D01*
X86730571Y-110009714D01*
X86659142Y-109866857D01*
X86587714Y-109581142D01*
X86587714Y-109224000D01*
X86659142Y-108938285D01*
X86730571Y-108795428D01*
X86801999Y-108724000D01*
X86944857Y-108652571D01*
X90016285Y-110152571D02*
X89159142Y-110152571D01*
X89587714Y-110152571D02*
X89587714Y-108652571D01*
X89444857Y-108866857D01*
X89301999Y-109009714D01*
X89159142Y-109081142D01*
X90659142Y-110152571D02*
X90659142Y-108652571D01*
X91159142Y-109724000D01*
X91659142Y-108652571D01*
X91659142Y-110152571D01*
X92873428Y-109366857D02*
X93087714Y-109438285D01*
X93159142Y-109509714D01*
X93230571Y-109652571D01*
X93230571Y-109866857D01*
X93159142Y-110009714D01*
X93087714Y-110081142D01*
X92944857Y-110152571D01*
X92373428Y-110152571D01*
X92373428Y-108652571D01*
X92873428Y-108652571D01*
X93016285Y-108724000D01*
X93087714Y-108795428D01*
X93159142Y-108938285D01*
X93159142Y-109081142D01*
X93087714Y-109224000D01*
X93016285Y-109295428D01*
X92873428Y-109366857D01*
X92373428Y-109366857D01*
X95016285Y-109366857D02*
X95516285Y-109366857D01*
X95730571Y-110152571D02*
X95016285Y-110152571D01*
X95016285Y-108652571D01*
X95730571Y-108652571D01*
X96230571Y-110152571D02*
X97016285Y-109152571D01*
X96230571Y-109152571D02*
X97016285Y-110152571D01*
X97587714Y-109152571D02*
X97587714Y-110652571D01*
X97587714Y-109224000D02*
X97730571Y-109152571D01*
X98016285Y-109152571D01*
X98159142Y-109224000D01*
X98230571Y-109295428D01*
X98301999Y-109438285D01*
X98301999Y-109866857D01*
X98230571Y-110009714D01*
X98159142Y-110081142D01*
X98016285Y-110152571D01*
X97730571Y-110152571D01*
X97587714Y-110081142D01*
X99587714Y-110152571D02*
X99587714Y-109366857D01*
X99516285Y-109224000D01*
X99373428Y-109152571D01*
X99087714Y-109152571D01*
X98944857Y-109224000D01*
X99587714Y-110081142D02*
X99444857Y-110152571D01*
X99087714Y-110152571D01*
X98944857Y-110081142D01*
X98873428Y-109938285D01*
X98873428Y-109795428D01*
X98944857Y-109652571D01*
X99087714Y-109581142D01*
X99444857Y-109581142D01*
X99587714Y-109509714D01*
X100301999Y-109152571D02*
X100301999Y-110152571D01*
X100301999Y-109295428D02*
X100373428Y-109224000D01*
X100516285Y-109152571D01*
X100730571Y-109152571D01*
X100873428Y-109224000D01*
X100944857Y-109366857D01*
X100944857Y-110152571D01*
X101587714Y-110081142D02*
X101730571Y-110152571D01*
X102016285Y-110152571D01*
X102159142Y-110081142D01*
X102230571Y-109938285D01*
X102230571Y-109866857D01*
X102159142Y-109724000D01*
X102016285Y-109652571D01*
X101801999Y-109652571D01*
X101659142Y-109581142D01*
X101587714Y-109438285D01*
X101587714Y-109366857D01*
X101659142Y-109224000D01*
X101801999Y-109152571D01*
X102016285Y-109152571D01*
X102159142Y-109224000D01*
X102873428Y-110152571D02*
X102873428Y-109152571D01*
X102873428Y-108652571D02*
X102801999Y-108724000D01*
X102873428Y-108795428D01*
X102944857Y-108724000D01*
X102873428Y-108652571D01*
X102873428Y-108795428D01*
X103801999Y-110152571D02*
X103659142Y-110081142D01*
X103587714Y-110009714D01*
X103516285Y-109866857D01*
X103516285Y-109438285D01*
X103587714Y-109295428D01*
X103659142Y-109224000D01*
X103801999Y-109152571D01*
X104016285Y-109152571D01*
X104159142Y-109224000D01*
X104230571Y-109295428D01*
X104301999Y-109438285D01*
X104301999Y-109866857D01*
X104230571Y-110009714D01*
X104159142Y-110081142D01*
X104016285Y-110152571D01*
X103801999Y-110152571D01*
X104944857Y-109152571D02*
X104944857Y-110152571D01*
X104944857Y-109295428D02*
X105016285Y-109224000D01*
X105159142Y-109152571D01*
X105373428Y-109152571D01*
X105516285Y-109224000D01*
X105587714Y-109366857D01*
X105587714Y-110152571D01*
X107444857Y-110152571D02*
X107444857Y-109152571D01*
X107444857Y-109438285D02*
X107516285Y-109295428D01*
X107587714Y-109224000D01*
X107730571Y-109152571D01*
X107873428Y-109152571D01*
X108944857Y-110081142D02*
X108801999Y-110152571D01*
X108516285Y-110152571D01*
X108373428Y-110081142D01*
X108301999Y-109938285D01*
X108301999Y-109366857D01*
X108373428Y-109224000D01*
X108516285Y-109152571D01*
X108801999Y-109152571D01*
X108944857Y-109224000D01*
X109016285Y-109366857D01*
X109016285Y-109509714D01*
X108301999Y-109652571D01*
X109516285Y-109152571D02*
X109873428Y-110152571D01*
X110230571Y-109152571D01*
X112230571Y-108652571D02*
X112373428Y-108652571D01*
X112516285Y-108724000D01*
X112587714Y-108795428D01*
X112659142Y-108938285D01*
X112730571Y-109224000D01*
X112730571Y-109581142D01*
X112659142Y-109866857D01*
X112587714Y-110009714D01*
X112516285Y-110081142D01*
X112373428Y-110152571D01*
X112230571Y-110152571D01*
X112087714Y-110081142D01*
X112016285Y-110009714D01*
X111944857Y-109866857D01*
X111873428Y-109581142D01*
X111873428Y-109224000D01*
X111944857Y-108938285D01*
X112016285Y-108795428D01*
X112087714Y-108724000D01*
X112230571Y-108652571D01*
X113373428Y-110009714D02*
X113444857Y-110081142D01*
X113373428Y-110152571D01*
X113301999Y-110081142D01*
X113373428Y-110009714D01*
X113373428Y-110152571D01*
X114873428Y-110152571D02*
X114016285Y-110152571D01*
X114444857Y-110152571D02*
X114444857Y-108652571D01*
X114301999Y-108866857D01*
X114159142Y-109009714D01*
X114016285Y-109081142D01*
D11*
X80439517Y-88082380D02*
X80564517Y-87082380D01*
X81010946Y-88082380D02*
X80653803Y-87510952D01*
X81135946Y-87082380D02*
X80493089Y-87653809D01*
X81439517Y-88082380D02*
X81522851Y-87415714D01*
X81564517Y-87082380D02*
X81510946Y-87130000D01*
X81552613Y-87177619D01*
X81606184Y-87130000D01*
X81564517Y-87082380D01*
X81552613Y-87177619D01*
X81856184Y-87415714D02*
X82237136Y-87415714D01*
X82040708Y-87082380D02*
X81933565Y-87939523D01*
X81969279Y-88034761D01*
X82058565Y-88082380D01*
X82153803Y-88082380D01*
X82445470Y-88034761D02*
X82534755Y-88082380D01*
X82725232Y-88082380D01*
X82826422Y-88034761D01*
X82885946Y-87939523D01*
X82891898Y-87891904D01*
X82856184Y-87796666D01*
X82766898Y-87749047D01*
X82624041Y-87749047D01*
X82534755Y-87701428D01*
X82499041Y-87606190D01*
X82504994Y-87558571D01*
X82564517Y-87463333D01*
X82665708Y-87415714D01*
X82808565Y-87415714D01*
X82897851Y-87463333D01*
X83808565Y-87415714D02*
X83725232Y-88082380D01*
X83379994Y-87415714D02*
X83314517Y-87939523D01*
X83350232Y-88034761D01*
X83439517Y-88082380D01*
X83582375Y-88082380D01*
X83683565Y-88034761D01*
X83737136Y-87987142D01*
X84284755Y-87415714D02*
X84201422Y-88082380D01*
X84272851Y-87510952D02*
X84326422Y-87463333D01*
X84427613Y-87415714D01*
X84570470Y-87415714D01*
X84659755Y-87463333D01*
X84695470Y-87558571D01*
X84629994Y-88082380D01*
X85493089Y-88034761D02*
X85391898Y-88082380D01*
X85201422Y-88082380D01*
X85112136Y-88034761D01*
X85076422Y-87939523D01*
X85124041Y-87558571D01*
X85183565Y-87463333D01*
X85284755Y-87415714D01*
X85475232Y-87415714D01*
X85564517Y-87463333D01*
X85600232Y-87558571D01*
X85588327Y-87653809D01*
X85100232Y-87749047D01*
X114315142Y-123745047D02*
X114958000Y-123745047D01*
X115086571Y-123792666D01*
X115172285Y-123887904D01*
X115215142Y-124030761D01*
X115215142Y-124126000D01*
X115215142Y-122792666D02*
X115215142Y-123268857D01*
X114315142Y-123268857D01*
X115129428Y-121887904D02*
X115172285Y-121935523D01*
X115215142Y-122078380D01*
X115215142Y-122173619D01*
X115172285Y-122316476D01*
X115086571Y-122411714D01*
X115000857Y-122459333D01*
X114829428Y-122506952D01*
X114700857Y-122506952D01*
X114529428Y-122459333D01*
X114443714Y-122411714D01*
X114358000Y-122316476D01*
X114315142Y-122173619D01*
X114315142Y-122078380D01*
X114358000Y-121935523D01*
X114400857Y-121887904D01*
X114315142Y-121173619D02*
X114958000Y-121173619D01*
X115086571Y-121221238D01*
X115172285Y-121316476D01*
X115215142Y-121459333D01*
X115215142Y-121554571D01*
X115215142Y-120221238D02*
X115215142Y-120697428D01*
X114315142Y-120697428D01*
X115129428Y-119316476D02*
X115172285Y-119364095D01*
X115215142Y-119506952D01*
X115215142Y-119602190D01*
X115172285Y-119745047D01*
X115086571Y-119840285D01*
X115000857Y-119887904D01*
X114829428Y-119935523D01*
X114700857Y-119935523D01*
X114529428Y-119887904D01*
X114443714Y-119840285D01*
X114358000Y-119745047D01*
X114315142Y-119602190D01*
X114315142Y-119506952D01*
X114358000Y-119364095D01*
X114400857Y-119316476D01*
X114315142Y-118602190D02*
X114958000Y-118602190D01*
X115086571Y-118649809D01*
X115172285Y-118745047D01*
X115215142Y-118887904D01*
X115215142Y-118983142D01*
X115215142Y-117649809D02*
X115215142Y-118126000D01*
X114315142Y-118126000D01*
X115129428Y-116745047D02*
X115172285Y-116792666D01*
X115215142Y-116935523D01*
X115215142Y-117030761D01*
X115172285Y-117173619D01*
X115086571Y-117268857D01*
X115000857Y-117316476D01*
X114829428Y-117364095D01*
X114700857Y-117364095D01*
X114529428Y-117316476D01*
X114443714Y-117268857D01*
X114358000Y-117173619D01*
X114315142Y-117030761D01*
X114315142Y-116935523D01*
X114358000Y-116792666D01*
X114400857Y-116745047D01*
X114315142Y-116030761D02*
X114958000Y-116030761D01*
X115086571Y-116078380D01*
X115172285Y-116173619D01*
X115215142Y-116316476D01*
X115215142Y-116411714D01*
X115215142Y-115078380D02*
X115215142Y-115554571D01*
X114315142Y-115554571D01*
X115129428Y-114173619D02*
X115172285Y-114221238D01*
X115215142Y-114364095D01*
X115215142Y-114459333D01*
X115172285Y-114602190D01*
X115086571Y-114697428D01*
X115000857Y-114745047D01*
X114829428Y-114792666D01*
X114700857Y-114792666D01*
X114529428Y-114745047D01*
X114443714Y-114697428D01*
X114358000Y-114602190D01*
X114315142Y-114459333D01*
X114315142Y-114364095D01*
X114358000Y-114221238D01*
X114400857Y-114173619D01*
X78744946Y-86717142D02*
X78691375Y-86764761D01*
X78542565Y-86812380D01*
X78447327Y-86812380D01*
X78310422Y-86764761D01*
X78227089Y-86669523D01*
X78191375Y-86574285D01*
X78167565Y-86383809D01*
X78185422Y-86240952D01*
X78256851Y-86050476D01*
X78316375Y-85955238D01*
X78423517Y-85860000D01*
X78572327Y-85812380D01*
X78667565Y-85812380D01*
X78804470Y-85860000D01*
X78846136Y-85907619D01*
X79161613Y-86812380D02*
X79286613Y-85812380D01*
X79590184Y-86812380D02*
X79655660Y-86288571D01*
X79619946Y-86193333D01*
X79530660Y-86145714D01*
X79387803Y-86145714D01*
X79286613Y-86193333D01*
X79233041Y-86240952D01*
X80494946Y-86812380D02*
X80560422Y-86288571D01*
X80524708Y-86193333D01*
X80435422Y-86145714D01*
X80244946Y-86145714D01*
X80143755Y-86193333D01*
X80500898Y-86764761D02*
X80399708Y-86812380D01*
X80161613Y-86812380D01*
X80072327Y-86764761D01*
X80036613Y-86669523D01*
X80048517Y-86574285D01*
X80108041Y-86479047D01*
X80209232Y-86431428D01*
X80447327Y-86431428D01*
X80548517Y-86383809D01*
X80971136Y-86812380D02*
X81054470Y-86145714D01*
X81030660Y-86336190D02*
X81090184Y-86240952D01*
X81143755Y-86193333D01*
X81244946Y-86145714D01*
X81340184Y-86145714D01*
X81530660Y-86145714D02*
X81911613Y-86145714D01*
X81715184Y-85812380D02*
X81608041Y-86669523D01*
X81643755Y-86764761D01*
X81733041Y-86812380D01*
X81828279Y-86812380D01*
X82161613Y-86812380D02*
X82244946Y-86145714D01*
X82221136Y-86336190D02*
X82280660Y-86240952D01*
X82334232Y-86193333D01*
X82435422Y-86145714D01*
X82530660Y-86145714D01*
X83167565Y-86764761D02*
X83066375Y-86812380D01*
X82875898Y-86812380D01*
X82786613Y-86764761D01*
X82750898Y-86669523D01*
X82798517Y-86288571D01*
X82858041Y-86193333D01*
X82959232Y-86145714D01*
X83149708Y-86145714D01*
X83238994Y-86193333D01*
X83274708Y-86288571D01*
X83262803Y-86383809D01*
X82774708Y-86479047D01*
X84149708Y-86145714D02*
X84066375Y-86812380D01*
X83721136Y-86145714D02*
X83655660Y-86669523D01*
X83691375Y-86764761D01*
X83780660Y-86812380D01*
X83923517Y-86812380D01*
X84024708Y-86764761D01*
X84078279Y-86717142D01*
X84500898Y-86764761D02*
X84590184Y-86812380D01*
X84780660Y-86812380D01*
X84881851Y-86764761D01*
X84941375Y-86669523D01*
X84947327Y-86621904D01*
X84911613Y-86526666D01*
X84822327Y-86479047D01*
X84679470Y-86479047D01*
X84590184Y-86431428D01*
X84554470Y-86336190D01*
X84560422Y-86288571D01*
X84619946Y-86193333D01*
X84721136Y-86145714D01*
X84863994Y-86145714D01*
X84953279Y-86193333D01*
X85738994Y-86764761D02*
X85637803Y-86812380D01*
X85447327Y-86812380D01*
X85358041Y-86764761D01*
X85322327Y-86669523D01*
X85369946Y-86288571D01*
X85429470Y-86193333D01*
X85530660Y-86145714D01*
X85721136Y-86145714D01*
X85810422Y-86193333D01*
X85846136Y-86288571D01*
X85834232Y-86383809D01*
X85346136Y-86479047D01*
X86950136Y-86669619D02*
X87003708Y-86622000D01*
X87104898Y-86574380D01*
X87342994Y-86574380D01*
X87432279Y-86622000D01*
X87473946Y-86669619D01*
X87509660Y-86764857D01*
X87497755Y-86860095D01*
X87432279Y-87002952D01*
X86789422Y-87574380D01*
X87408470Y-87574380D01*
X88152517Y-86574380D02*
X88247755Y-86574380D01*
X88337041Y-86622000D01*
X88378708Y-86669619D01*
X88414422Y-86764857D01*
X88438232Y-86955333D01*
X88408470Y-87193428D01*
X88337041Y-87383904D01*
X88277517Y-87479142D01*
X88223946Y-87526761D01*
X88122755Y-87574380D01*
X88027517Y-87574380D01*
X87938232Y-87526761D01*
X87896565Y-87479142D01*
X87860851Y-87383904D01*
X87837041Y-87193428D01*
X87866803Y-86955333D01*
X87938232Y-86764857D01*
X87997755Y-86669619D01*
X88051327Y-86622000D01*
X88152517Y-86574380D01*
X88854898Y-86669619D02*
X88908470Y-86622000D01*
X89009660Y-86574380D01*
X89247755Y-86574380D01*
X89337041Y-86622000D01*
X89378708Y-86669619D01*
X89414422Y-86764857D01*
X89402517Y-86860095D01*
X89337041Y-87002952D01*
X88694184Y-87574380D01*
X89313232Y-87574380D01*
X90265613Y-87574380D02*
X89694184Y-87574380D01*
X89979898Y-87574380D02*
X90104898Y-86574380D01*
X89991803Y-86717238D01*
X89884660Y-86812476D01*
X89783470Y-86860095D01*
%TO.C,JOE1*%
X75906476Y-81472380D02*
X75906476Y-82186666D01*
X75858857Y-82329523D01*
X75763619Y-82424761D01*
X75620761Y-82472380D01*
X75525523Y-82472380D01*
X76573142Y-81472380D02*
X76763619Y-81472380D01*
X76858857Y-81520000D01*
X76954095Y-81615238D01*
X77001714Y-81805714D01*
X77001714Y-82139047D01*
X76954095Y-82329523D01*
X76858857Y-82424761D01*
X76763619Y-82472380D01*
X76573142Y-82472380D01*
X76477904Y-82424761D01*
X76382666Y-82329523D01*
X76335047Y-82139047D01*
X76335047Y-81805714D01*
X76382666Y-81615238D01*
X76477904Y-81520000D01*
X76573142Y-81472380D01*
X77430285Y-81948571D02*
X77763619Y-81948571D01*
X77906476Y-82472380D02*
X77430285Y-82472380D01*
X77430285Y-81472380D01*
X77906476Y-81472380D01*
X78858857Y-82472380D02*
X78287428Y-82472380D01*
X78573142Y-82472380D02*
X78573142Y-81472380D01*
X78477904Y-81615238D01*
X78382666Y-81710476D01*
X78287428Y-81758095D01*
%TO.C,C10*%
X117467142Y-89003142D02*
X117419523Y-89050761D01*
X117276666Y-89098380D01*
X117181428Y-89098380D01*
X117038571Y-89050761D01*
X116943333Y-88955523D01*
X116895714Y-88860285D01*
X116848095Y-88669809D01*
X116848095Y-88526952D01*
X116895714Y-88336476D01*
X116943333Y-88241238D01*
X117038571Y-88146000D01*
X117181428Y-88098380D01*
X117276666Y-88098380D01*
X117419523Y-88146000D01*
X117467142Y-88193619D01*
X118419523Y-89098380D02*
X117848095Y-89098380D01*
X118133809Y-89098380D02*
X118133809Y-88098380D01*
X118038571Y-88241238D01*
X117943333Y-88336476D01*
X117848095Y-88384095D01*
X119038571Y-88098380D02*
X119133809Y-88098380D01*
X119229047Y-88146000D01*
X119276666Y-88193619D01*
X119324285Y-88288857D01*
X119371904Y-88479333D01*
X119371904Y-88717428D01*
X119324285Y-88907904D01*
X119276666Y-89003142D01*
X119229047Y-89050761D01*
X119133809Y-89098380D01*
X119038571Y-89098380D01*
X118943333Y-89050761D01*
X118895714Y-89003142D01*
X118848095Y-88907904D01*
X118800476Y-88717428D01*
X118800476Y-88479333D01*
X118848095Y-88288857D01*
X118895714Y-88193619D01*
X118943333Y-88146000D01*
X119038571Y-88098380D01*
D12*
%TO.C,JA9*%
X99020380Y-85699523D02*
X99734666Y-85699523D01*
X99877523Y-85737619D01*
X99972761Y-85813809D01*
X100020380Y-85928095D01*
X100020380Y-86004285D01*
X99734666Y-85356666D02*
X99734666Y-84975714D01*
X100020380Y-85432857D02*
X99020380Y-85166190D01*
X100020380Y-84899523D01*
X100020380Y-84594761D02*
X100020380Y-84442380D01*
X99972761Y-84366190D01*
X99925142Y-84328095D01*
X99782285Y-84251904D01*
X99591809Y-84213809D01*
X99210857Y-84213809D01*
X99115619Y-84251904D01*
X99068000Y-84290000D01*
X99020380Y-84366190D01*
X99020380Y-84518571D01*
X99068000Y-84594761D01*
X99115619Y-84632857D01*
X99210857Y-84670952D01*
X99448952Y-84670952D01*
X99544190Y-84632857D01*
X99591809Y-84594761D01*
X99639428Y-84518571D01*
X99639428Y-84366190D01*
X99591809Y-84290000D01*
X99544190Y-84251904D01*
X99448952Y-84213809D01*
%TO.C,JC0*%
X106132380Y-85756666D02*
X106846666Y-85756666D01*
X106989523Y-85794761D01*
X107084761Y-85870952D01*
X107132380Y-85985238D01*
X107132380Y-86061428D01*
X107037142Y-84918571D02*
X107084761Y-84956666D01*
X107132380Y-85070952D01*
X107132380Y-85147142D01*
X107084761Y-85261428D01*
X106989523Y-85337619D01*
X106894285Y-85375714D01*
X106703809Y-85413809D01*
X106560952Y-85413809D01*
X106370476Y-85375714D01*
X106275238Y-85337619D01*
X106180000Y-85261428D01*
X106132380Y-85147142D01*
X106132380Y-85070952D01*
X106180000Y-84956666D01*
X106227619Y-84918571D01*
X106132380Y-84423333D02*
X106132380Y-84347142D01*
X106180000Y-84270952D01*
X106227619Y-84232857D01*
X106322857Y-84194761D01*
X106513333Y-84156666D01*
X106751428Y-84156666D01*
X106941904Y-84194761D01*
X107037142Y-84232857D01*
X107084761Y-84270952D01*
X107132380Y-84347142D01*
X107132380Y-84423333D01*
X107084761Y-84499523D01*
X107037142Y-84537619D01*
X106941904Y-84575714D01*
X106751428Y-84613809D01*
X106513333Y-84613809D01*
X106322857Y-84575714D01*
X106227619Y-84537619D01*
X106180000Y-84499523D01*
X106132380Y-84423333D01*
%TO.C,JC1*%
X103592380Y-85756666D02*
X104306666Y-85756666D01*
X104449523Y-85794761D01*
X104544761Y-85870952D01*
X104592380Y-85985238D01*
X104592380Y-86061428D01*
X104497142Y-84918571D02*
X104544761Y-84956666D01*
X104592380Y-85070952D01*
X104592380Y-85147142D01*
X104544761Y-85261428D01*
X104449523Y-85337619D01*
X104354285Y-85375714D01*
X104163809Y-85413809D01*
X104020952Y-85413809D01*
X103830476Y-85375714D01*
X103735238Y-85337619D01*
X103640000Y-85261428D01*
X103592380Y-85147142D01*
X103592380Y-85070952D01*
X103640000Y-84956666D01*
X103687619Y-84918571D01*
X104592380Y-84156666D02*
X104592380Y-84613809D01*
X104592380Y-84385238D02*
X103592380Y-84385238D01*
X103735238Y-84461428D01*
X103830476Y-84537619D01*
X103878095Y-84613809D01*
%TO.C,JC2*%
X91654380Y-88296666D02*
X92368666Y-88296666D01*
X92511523Y-88334761D01*
X92606761Y-88410952D01*
X92654380Y-88525238D01*
X92654380Y-88601428D01*
X92559142Y-87458571D02*
X92606761Y-87496666D01*
X92654380Y-87610952D01*
X92654380Y-87687142D01*
X92606761Y-87801428D01*
X92511523Y-87877619D01*
X92416285Y-87915714D01*
X92225809Y-87953809D01*
X92082952Y-87953809D01*
X91892476Y-87915714D01*
X91797238Y-87877619D01*
X91702000Y-87801428D01*
X91654380Y-87687142D01*
X91654380Y-87610952D01*
X91702000Y-87496666D01*
X91749619Y-87458571D01*
X91749619Y-87153809D02*
X91702000Y-87115714D01*
X91654380Y-87039523D01*
X91654380Y-86849047D01*
X91702000Y-86772857D01*
X91749619Y-86734761D01*
X91844857Y-86696666D01*
X91940095Y-86696666D01*
X92082952Y-86734761D01*
X92654380Y-87191904D01*
X92654380Y-86696666D01*
%TO.C,JC3*%
X95972380Y-85629666D02*
X96686666Y-85629666D01*
X96829523Y-85667761D01*
X96924761Y-85743952D01*
X96972380Y-85858238D01*
X96972380Y-85934428D01*
X96877142Y-84791571D02*
X96924761Y-84829666D01*
X96972380Y-84943952D01*
X96972380Y-85020142D01*
X96924761Y-85134428D01*
X96829523Y-85210619D01*
X96734285Y-85248714D01*
X96543809Y-85286809D01*
X96400952Y-85286809D01*
X96210476Y-85248714D01*
X96115238Y-85210619D01*
X96020000Y-85134428D01*
X95972380Y-85020142D01*
X95972380Y-84943952D01*
X96020000Y-84829666D01*
X96067619Y-84791571D01*
X95972380Y-84524904D02*
X95972380Y-84029666D01*
X96353333Y-84296333D01*
X96353333Y-84182047D01*
X96400952Y-84105857D01*
X96448571Y-84067761D01*
X96543809Y-84029666D01*
X96781904Y-84029666D01*
X96877142Y-84067761D01*
X96924761Y-84105857D01*
X96972380Y-84182047D01*
X96972380Y-84410619D01*
X96924761Y-84486809D01*
X96877142Y-84524904D01*
%TO.C,JR0*%
X109180380Y-85756666D02*
X109894666Y-85756666D01*
X110037523Y-85794761D01*
X110132761Y-85870952D01*
X110180380Y-85985238D01*
X110180380Y-86061428D01*
X110180380Y-84918571D02*
X109704190Y-85185238D01*
X110180380Y-85375714D02*
X109180380Y-85375714D01*
X109180380Y-85070952D01*
X109228000Y-84994761D01*
X109275619Y-84956666D01*
X109370857Y-84918571D01*
X109513714Y-84918571D01*
X109608952Y-84956666D01*
X109656571Y-84994761D01*
X109704190Y-85070952D01*
X109704190Y-85375714D01*
X109180380Y-84423333D02*
X109180380Y-84347142D01*
X109228000Y-84270952D01*
X109275619Y-84232857D01*
X109370857Y-84194761D01*
X109561333Y-84156666D01*
X109799428Y-84156666D01*
X109989904Y-84194761D01*
X110085142Y-84232857D01*
X110132761Y-84270952D01*
X110180380Y-84347142D01*
X110180380Y-84423333D01*
X110132761Y-84499523D01*
X110085142Y-84537619D01*
X109989904Y-84575714D01*
X109799428Y-84613809D01*
X109561333Y-84613809D01*
X109370857Y-84575714D01*
X109275619Y-84537619D01*
X109228000Y-84499523D01*
X109180380Y-84423333D01*
D11*
%TO.C,U5*%
X96266095Y-74636380D02*
X96266095Y-75445904D01*
X96313714Y-75541142D01*
X96361333Y-75588761D01*
X96456571Y-75636380D01*
X96647047Y-75636380D01*
X96742285Y-75588761D01*
X96789904Y-75541142D01*
X96837523Y-75445904D01*
X96837523Y-74636380D01*
X97789904Y-74636380D02*
X97313714Y-74636380D01*
X97266095Y-75112571D01*
X97313714Y-75064952D01*
X97408952Y-75017333D01*
X97647047Y-75017333D01*
X97742285Y-75064952D01*
X97789904Y-75112571D01*
X97837523Y-75207809D01*
X97837523Y-75445904D01*
X97789904Y-75541142D01*
X97742285Y-75588761D01*
X97647047Y-75636380D01*
X97408952Y-75636380D01*
X97313714Y-75588761D01*
X97266095Y-75541142D01*
%TO.C,U6*%
X108966095Y-107656380D02*
X108966095Y-108465904D01*
X109013714Y-108561142D01*
X109061333Y-108608761D01*
X109156571Y-108656380D01*
X109347047Y-108656380D01*
X109442285Y-108608761D01*
X109489904Y-108561142D01*
X109537523Y-108465904D01*
X109537523Y-107656380D01*
X110442285Y-107656380D02*
X110251809Y-107656380D01*
X110156571Y-107704000D01*
X110108952Y-107751619D01*
X110013714Y-107894476D01*
X109966095Y-108084952D01*
X109966095Y-108465904D01*
X110013714Y-108561142D01*
X110061333Y-108608761D01*
X110156571Y-108656380D01*
X110347047Y-108656380D01*
X110442285Y-108608761D01*
X110489904Y-108561142D01*
X110537523Y-108465904D01*
X110537523Y-108227809D01*
X110489904Y-108132571D01*
X110442285Y-108084952D01*
X110347047Y-108037333D01*
X110156571Y-108037333D01*
X110061333Y-108084952D01*
X110013714Y-108132571D01*
X109966095Y-108227809D01*
%TO.C,U1*%
X108712095Y-127976380D02*
X108712095Y-128785904D01*
X108759714Y-128881142D01*
X108807333Y-128928761D01*
X108902571Y-128976380D01*
X109093047Y-128976380D01*
X109188285Y-128928761D01*
X109235904Y-128881142D01*
X109283523Y-128785904D01*
X109283523Y-127976380D01*
X110283523Y-128976380D02*
X109712095Y-128976380D01*
X109997809Y-128976380D02*
X109997809Y-127976380D01*
X109902571Y-128119238D01*
X109807333Y-128214476D01*
X109712095Y-128262095D01*
%TO.C,U3*%
X86868095Y-127976380D02*
X86868095Y-128785904D01*
X86915714Y-128881142D01*
X86963333Y-128928761D01*
X87058571Y-128976380D01*
X87249047Y-128976380D01*
X87344285Y-128928761D01*
X87391904Y-128881142D01*
X87439523Y-128785904D01*
X87439523Y-127976380D01*
X87820476Y-127976380D02*
X88439523Y-127976380D01*
X88106190Y-128357333D01*
X88249047Y-128357333D01*
X88344285Y-128404952D01*
X88391904Y-128452571D01*
X88439523Y-128547809D01*
X88439523Y-128785904D01*
X88391904Y-128881142D01*
X88344285Y-128928761D01*
X88249047Y-128976380D01*
X87963333Y-128976380D01*
X87868095Y-128928761D01*
X87820476Y-128881142D01*
%TO.C,U7*%
X98298095Y-107402380D02*
X98298095Y-108211904D01*
X98345714Y-108307142D01*
X98393333Y-108354761D01*
X98488571Y-108402380D01*
X98679047Y-108402380D01*
X98774285Y-108354761D01*
X98821904Y-108307142D01*
X98869523Y-108211904D01*
X98869523Y-107402380D01*
X99250476Y-107402380D02*
X99917142Y-107402380D01*
X99488571Y-108402380D01*
%TO.C,U9*%
X76200095Y-107402380D02*
X76200095Y-108211904D01*
X76247714Y-108307142D01*
X76295333Y-108354761D01*
X76390571Y-108402380D01*
X76581047Y-108402380D01*
X76676285Y-108354761D01*
X76723904Y-108307142D01*
X76771523Y-108211904D01*
X76771523Y-107402380D01*
X77295333Y-108402380D02*
X77485809Y-108402380D01*
X77581047Y-108354761D01*
X77628666Y-108307142D01*
X77723904Y-108164285D01*
X77771523Y-107973809D01*
X77771523Y-107592857D01*
X77723904Y-107497619D01*
X77676285Y-107450000D01*
X77581047Y-107402380D01*
X77390571Y-107402380D01*
X77295333Y-107450000D01*
X77247714Y-107497619D01*
X77200095Y-107592857D01*
X77200095Y-107830952D01*
X77247714Y-107926190D01*
X77295333Y-107973809D01*
X77390571Y-108021428D01*
X77581047Y-108021428D01*
X77676285Y-107973809D01*
X77723904Y-107926190D01*
X77771523Y-107830952D01*
%TO.C,U2*%
X97790095Y-127976380D02*
X97790095Y-128785904D01*
X97837714Y-128881142D01*
X97885333Y-128928761D01*
X97980571Y-128976380D01*
X98171047Y-128976380D01*
X98266285Y-128928761D01*
X98313904Y-128881142D01*
X98361523Y-128785904D01*
X98361523Y-127976380D01*
X98790095Y-128071619D02*
X98837714Y-128024000D01*
X98932952Y-127976380D01*
X99171047Y-127976380D01*
X99266285Y-128024000D01*
X99313904Y-128071619D01*
X99361523Y-128166857D01*
X99361523Y-128262095D01*
X99313904Y-128404952D01*
X98742476Y-128976380D01*
X99361523Y-128976380D01*
%TO.C,J5*%
X120356380Y-128095333D02*
X121070666Y-128095333D01*
X121213523Y-128142952D01*
X121308761Y-128238190D01*
X121356380Y-128381047D01*
X121356380Y-128476285D01*
X120356380Y-127142952D02*
X120356380Y-127619142D01*
X120832571Y-127666761D01*
X120784952Y-127619142D01*
X120737333Y-127523904D01*
X120737333Y-127285809D01*
X120784952Y-127190571D01*
X120832571Y-127142952D01*
X120927809Y-127095333D01*
X121165904Y-127095333D01*
X121261142Y-127142952D01*
X121308761Y-127190571D01*
X121356380Y-127285809D01*
X121356380Y-127523904D01*
X121308761Y-127619142D01*
X121261142Y-127666761D01*
%TO.C,U4*%
X76454095Y-127976380D02*
X76454095Y-128785904D01*
X76501714Y-128881142D01*
X76549333Y-128928761D01*
X76644571Y-128976380D01*
X76835047Y-128976380D01*
X76930285Y-128928761D01*
X76977904Y-128881142D01*
X77025523Y-128785904D01*
X77025523Y-127976380D01*
X77930285Y-128309714D02*
X77930285Y-128976380D01*
X77692190Y-127928761D02*
X77454095Y-128643047D01*
X78073142Y-128643047D01*
%TO.C,RN1*%
X96083523Y-82748380D02*
X95750190Y-82272190D01*
X95512095Y-82748380D02*
X95512095Y-81748380D01*
X95893047Y-81748380D01*
X95988285Y-81796000D01*
X96035904Y-81843619D01*
X96083523Y-81938857D01*
X96083523Y-82081714D01*
X96035904Y-82176952D01*
X95988285Y-82224571D01*
X95893047Y-82272190D01*
X95512095Y-82272190D01*
X96512095Y-82748380D02*
X96512095Y-81748380D01*
X97083523Y-82748380D01*
X97083523Y-81748380D01*
X98083523Y-82748380D02*
X97512095Y-82748380D01*
X97797809Y-82748380D02*
X97797809Y-81748380D01*
X97702571Y-81891238D01*
X97607333Y-81986476D01*
X97512095Y-82034095D01*
%TO.C,J1*%
X95341666Y-79208380D02*
X95341666Y-79922666D01*
X95294047Y-80065523D01*
X95198809Y-80160761D01*
X95055952Y-80208380D01*
X94960714Y-80208380D01*
X96341666Y-80208380D02*
X95770238Y-80208380D01*
X96055952Y-80208380D02*
X96055952Y-79208380D01*
X95960714Y-79351238D01*
X95865476Y-79446476D01*
X95770238Y-79494095D01*
%TO.C,J6*%
X75398380Y-126063333D02*
X76112666Y-126063333D01*
X76255523Y-126110952D01*
X76350761Y-126206190D01*
X76398380Y-126349047D01*
X76398380Y-126444285D01*
X75398380Y-125158571D02*
X75398380Y-125349047D01*
X75446000Y-125444285D01*
X75493619Y-125491904D01*
X75636476Y-125587142D01*
X75826952Y-125634761D01*
X76207904Y-125634761D01*
X76303142Y-125587142D01*
X76350761Y-125539523D01*
X76398380Y-125444285D01*
X76398380Y-125253809D01*
X76350761Y-125158571D01*
X76303142Y-125110952D01*
X76207904Y-125063333D01*
X75969809Y-125063333D01*
X75874571Y-125110952D01*
X75826952Y-125158571D01*
X75779333Y-125253809D01*
X75779333Y-125444285D01*
X75826952Y-125539523D01*
X75874571Y-125587142D01*
X75969809Y-125634761D01*
%TO.C,U8*%
X87122095Y-107402380D02*
X87122095Y-108211904D01*
X87169714Y-108307142D01*
X87217333Y-108354761D01*
X87312571Y-108402380D01*
X87503047Y-108402380D01*
X87598285Y-108354761D01*
X87645904Y-108307142D01*
X87693523Y-108211904D01*
X87693523Y-107402380D01*
X88312571Y-107830952D02*
X88217333Y-107783333D01*
X88169714Y-107735714D01*
X88122095Y-107640476D01*
X88122095Y-107592857D01*
X88169714Y-107497619D01*
X88217333Y-107450000D01*
X88312571Y-107402380D01*
X88503047Y-107402380D01*
X88598285Y-107450000D01*
X88645904Y-107497619D01*
X88693523Y-107592857D01*
X88693523Y-107640476D01*
X88645904Y-107735714D01*
X88598285Y-107783333D01*
X88503047Y-107830952D01*
X88312571Y-107830952D01*
X88217333Y-107878571D01*
X88169714Y-107926190D01*
X88122095Y-108021428D01*
X88122095Y-108211904D01*
X88169714Y-108307142D01*
X88217333Y-108354761D01*
X88312571Y-108402380D01*
X88503047Y-108402380D01*
X88598285Y-108354761D01*
X88645904Y-108307142D01*
X88693523Y-108211904D01*
X88693523Y-108021428D01*
X88645904Y-107926190D01*
X88598285Y-107878571D01*
X88503047Y-107830952D01*
D13*
%TO.C,JOE1*%
X75816000Y-82820000D02*
X78616000Y-82820000D01*
X78616000Y-84820000D02*
X75816000Y-84820000D01*
X75816000Y-84820000D02*
X75816000Y-82820000D01*
X78616000Y-82820000D02*
X78616000Y-84820000D01*
%TO.C,C10*%
X120370000Y-82090000D02*
X119170000Y-82090000D01*
X116550000Y-87350000D02*
X116550000Y-86850000D01*
X119305563Y-86610000D02*
X119170000Y-86610000D01*
X115850000Y-85545563D02*
X115850000Y-82090000D01*
X120370000Y-85545563D02*
X120370000Y-82090000D01*
X119305563Y-86610000D02*
X120370000Y-85545563D01*
X116914437Y-86610000D02*
X115850000Y-85545563D01*
X116300000Y-87100000D02*
X116800000Y-87100000D01*
X115850000Y-82090000D02*
X117050000Y-82090000D01*
X116914437Y-86610000D02*
X117050000Y-86610000D01*
%TO.C,JA9*%
X98695000Y-89030000D02*
X98695000Y-86230000D01*
X98695000Y-86230000D02*
X100695000Y-86230000D01*
X100695000Y-89030000D02*
X98695000Y-89030000D01*
X100695000Y-86230000D02*
X100695000Y-89030000D01*
%TO.C,JC0*%
X105680000Y-89015000D02*
X105680000Y-86215000D01*
X107680000Y-89015000D02*
X105680000Y-89015000D01*
X105680000Y-86215000D02*
X107680000Y-86215000D01*
X107680000Y-86215000D02*
X107680000Y-89015000D01*
%TO.C,JC1*%
X103140000Y-89015000D02*
X103140000Y-86215000D01*
X105140000Y-89015000D02*
X103140000Y-89015000D01*
X105140000Y-86215000D02*
X105140000Y-89015000D01*
X103140000Y-86215000D02*
X105140000Y-86215000D01*
%TO.C,JC2*%
X92980000Y-86245000D02*
X94980000Y-86245000D01*
X94980000Y-86245000D02*
X94980000Y-89045000D01*
X94980000Y-89045000D02*
X92980000Y-89045000D01*
X92980000Y-89045000D02*
X92980000Y-86245000D01*
%TO.C,JC3*%
X97520000Y-89045000D02*
X95520000Y-89045000D01*
X95520000Y-89045000D02*
X95520000Y-86245000D01*
X97520000Y-86245000D02*
X97520000Y-89045000D01*
X95520000Y-86245000D02*
X97520000Y-86245000D01*
%TO.C,JR0*%
X110855000Y-86230000D02*
X110855000Y-89030000D01*
X110855000Y-89030000D02*
X108855000Y-89030000D01*
X108855000Y-86230000D02*
X110855000Y-86230000D01*
X108855000Y-89030000D02*
X108855000Y-86230000D01*
%TO.C,U5*%
X97330000Y-76190000D02*
G75*
G03*
X97330000Y-74190000I0J1000000D01*
G01*
X122850000Y-77440000D02*
X122850000Y-72940000D01*
X97330000Y-76190000D02*
X97330000Y-77440000D01*
X97330000Y-77440000D02*
X122850000Y-77440000D01*
X97330000Y-72940000D02*
X97330000Y-74190000D01*
X122850000Y-72940000D02*
X97330000Y-72940000D01*
%TO.C,U6*%
X119345000Y-107150000D02*
X118545000Y-107950000D01*
X118545000Y-107950000D02*
X110945000Y-107950000D01*
X119345000Y-90424000D02*
X119345000Y-107150000D01*
X110945000Y-107950000D02*
X110945000Y-90394000D01*
X110945000Y-90394000D02*
X119345000Y-90394000D01*
%TO.C,U1*%
X110525000Y-128270000D02*
X110525000Y-110714000D01*
X118925000Y-110744000D02*
X118925000Y-127470000D01*
X118125000Y-128270000D02*
X110525000Y-128270000D01*
X118925000Y-127470000D02*
X118125000Y-128270000D01*
X110525000Y-110714000D02*
X118925000Y-110714000D01*
%TO.C,U3*%
X88935000Y-110714000D02*
X97335000Y-110714000D01*
X96535000Y-128270000D02*
X88935000Y-128270000D01*
X97335000Y-110744000D02*
X97335000Y-127470000D01*
X97335000Y-127470000D02*
X96535000Y-128270000D01*
X88935000Y-128270000D02*
X88935000Y-110714000D01*
%TO.C,U7*%
X100150000Y-107950000D02*
X100150000Y-90394000D01*
X100150000Y-90394000D02*
X108550000Y-90394000D01*
X108550000Y-90424000D02*
X108550000Y-107150000D01*
X108550000Y-107150000D02*
X107750000Y-107950000D01*
X107750000Y-107950000D02*
X100150000Y-107950000D01*
%TO.C,U9*%
X86540000Y-90424000D02*
X86540000Y-107150000D01*
X86540000Y-107150000D02*
X85740000Y-107950000D01*
X78140000Y-107950000D02*
X78140000Y-90394000D01*
X85740000Y-107950000D02*
X78140000Y-107950000D01*
X78140000Y-90394000D02*
X86540000Y-90394000D01*
%TO.C,U2*%
X108340000Y-110744000D02*
X108340000Y-127470000D01*
X99940000Y-110714000D02*
X108340000Y-110714000D01*
X108340000Y-127470000D02*
X107540000Y-128270000D01*
X99940000Y-128270000D02*
X99940000Y-110714000D01*
X107540000Y-128270000D02*
X99940000Y-128270000D01*
%TO.C,J5*%
X123990000Y-125730000D02*
X123990000Y-82490000D01*
X121330000Y-125730000D02*
X121330000Y-82490000D01*
X123990000Y-128330000D02*
X122660000Y-128330000D01*
X123990000Y-82490000D02*
X121330000Y-82490000D01*
X123990000Y-127000000D02*
X123990000Y-128330000D01*
X123990000Y-125730000D02*
X121330000Y-125730000D01*
%TO.C,U4*%
X86750000Y-127470000D02*
X85950000Y-128270000D01*
X78350000Y-128270000D02*
X78350000Y-110714000D01*
X86750000Y-110744000D02*
X86750000Y-127470000D01*
X78350000Y-110714000D02*
X86750000Y-110714000D01*
X85950000Y-128270000D02*
X78350000Y-128270000D01*
%TO.C,RN1*%
X79205000Y-82420000D02*
X79205000Y-85220000D01*
X79205000Y-85220000D02*
X94785000Y-85220000D01*
X94785000Y-85220000D02*
X94785000Y-82420000D01*
X81915000Y-82420000D02*
X81915000Y-85220000D01*
X94785000Y-82420000D02*
X79205000Y-82420000D01*
%TO.C,J1*%
X92075000Y-81340000D02*
X81855000Y-81340000D01*
X92075000Y-78680000D02*
X81855000Y-78680000D01*
X92075000Y-78680000D02*
X92075000Y-81340000D01*
X94675000Y-78680000D02*
X94675000Y-80010000D01*
X93345000Y-78680000D02*
X94675000Y-78680000D01*
X81855000Y-78680000D02*
X81855000Y-81340000D01*
%TO.C,J6*%
X74990000Y-128330000D02*
X73660000Y-128330000D01*
X74990000Y-125730000D02*
X74990000Y-82490000D01*
X74990000Y-125730000D02*
X72330000Y-125730000D01*
X72330000Y-125730000D02*
X72330000Y-82490000D01*
X74990000Y-82490000D02*
X72330000Y-82490000D01*
X74990000Y-127000000D02*
X74990000Y-128330000D01*
%TO.C,U8*%
X88935000Y-107950000D02*
X88935000Y-90394000D01*
X96535000Y-107950000D02*
X88935000Y-107950000D01*
X97335000Y-107150000D02*
X96535000Y-107950000D01*
X97335000Y-90424000D02*
X97335000Y-107150000D01*
X88935000Y-90394000D02*
X97335000Y-90394000D01*
%TD*%
%LPC*%
D14*
%TO.C,JOE1*%
X76566000Y-83820000D03*
X77866000Y-83820000D03*
%TD*%
D15*
%TO.C,C10*%
X118110000Y-86150000D03*
X118110000Y-82550000D03*
%TD*%
D16*
%TO.C,JA9*%
X99695000Y-86980000D03*
X99695000Y-88280000D03*
%TD*%
%TO.C,JC0*%
X106680000Y-86965000D03*
X106680000Y-88265000D03*
%TD*%
%TO.C,JC1*%
X104140000Y-86965000D03*
X104140000Y-88265000D03*
%TD*%
%TO.C,JC2*%
X93980000Y-88295000D03*
X93980000Y-86995000D03*
%TD*%
%TO.C,JC3*%
X96520000Y-88295000D03*
X96520000Y-86995000D03*
%TD*%
%TO.C,JR0*%
X109855000Y-86980000D03*
X109855000Y-88280000D03*
%TD*%
D17*
%TO.C,U5*%
X98660000Y-71380000D03*
X101200000Y-71380000D03*
X103740000Y-71380000D03*
X106280000Y-71380000D03*
X108820000Y-71380000D03*
X111360000Y-71380000D03*
X113900000Y-71380000D03*
X116440000Y-71380000D03*
X118980000Y-71380000D03*
X121520000Y-71380000D03*
X121520000Y-79000000D03*
X118980000Y-79000000D03*
X116440000Y-79000000D03*
X113900000Y-79000000D03*
X111360000Y-79000000D03*
X108820000Y-79000000D03*
X106280000Y-79000000D03*
X103740000Y-79000000D03*
X101200000Y-79000000D03*
D18*
X98660000Y-79000000D03*
%TD*%
D19*
%TO.C,U6*%
X117895000Y-106680000D03*
X117895000Y-105410000D03*
X117895000Y-104140000D03*
X117895000Y-102870000D03*
X117895000Y-101600000D03*
X117895000Y-96520000D03*
X117895000Y-95250000D03*
X117895000Y-93980000D03*
X117895000Y-92710000D03*
X117895000Y-91440000D03*
X112395000Y-91440000D03*
X112395000Y-92710000D03*
X112395000Y-93980000D03*
X112395000Y-95250000D03*
X112395000Y-96520000D03*
X112395000Y-101600000D03*
X112395000Y-102870000D03*
X112395000Y-104140000D03*
X112395000Y-105410000D03*
X112395000Y-106680000D03*
%TD*%
%TO.C,U1*%
X117475000Y-127000000D03*
X117475000Y-125730000D03*
X117475000Y-124460000D03*
X117475000Y-123190000D03*
X117475000Y-121920000D03*
X117475000Y-116840000D03*
X117475000Y-115570000D03*
X117475000Y-114300000D03*
X117475000Y-113030000D03*
X117475000Y-111760000D03*
X111975000Y-111760000D03*
X111975000Y-113030000D03*
X111975000Y-114300000D03*
X111975000Y-115570000D03*
X111975000Y-116840000D03*
X111975000Y-121920000D03*
X111975000Y-123190000D03*
X111975000Y-124460000D03*
X111975000Y-125730000D03*
X111975000Y-127000000D03*
%TD*%
%TO.C,U3*%
X95885000Y-127000000D03*
X95885000Y-125730000D03*
X95885000Y-124460000D03*
X95885000Y-123190000D03*
X95885000Y-121920000D03*
X95885000Y-116840000D03*
X95885000Y-115570000D03*
X95885000Y-114300000D03*
X95885000Y-113030000D03*
X95885000Y-111760000D03*
X90385000Y-111760000D03*
X90385000Y-113030000D03*
X90385000Y-114300000D03*
X90385000Y-115570000D03*
X90385000Y-116840000D03*
X90385000Y-121920000D03*
X90385000Y-123190000D03*
X90385000Y-124460000D03*
X90385000Y-125730000D03*
X90385000Y-127000000D03*
%TD*%
%TO.C,U7*%
X107100000Y-106680000D03*
X107100000Y-105410000D03*
X107100000Y-104140000D03*
X107100000Y-102870000D03*
X107100000Y-101600000D03*
X107100000Y-96520000D03*
X107100000Y-95250000D03*
X107100000Y-93980000D03*
X107100000Y-92710000D03*
X107100000Y-91440000D03*
X101600000Y-91440000D03*
X101600000Y-92710000D03*
X101600000Y-93980000D03*
X101600000Y-95250000D03*
X101600000Y-96520000D03*
X101600000Y-101600000D03*
X101600000Y-102870000D03*
X101600000Y-104140000D03*
X101600000Y-105410000D03*
X101600000Y-106680000D03*
%TD*%
%TO.C,U9*%
X85090000Y-106680000D03*
X85090000Y-105410000D03*
X85090000Y-104140000D03*
X85090000Y-102870000D03*
X85090000Y-101600000D03*
X85090000Y-96520000D03*
X85090000Y-95250000D03*
X85090000Y-93980000D03*
X85090000Y-92710000D03*
X85090000Y-91440000D03*
X79590000Y-91440000D03*
X79590000Y-92710000D03*
X79590000Y-93980000D03*
X79590000Y-95250000D03*
X79590000Y-96520000D03*
X79590000Y-101600000D03*
X79590000Y-102870000D03*
X79590000Y-104140000D03*
X79590000Y-105410000D03*
X79590000Y-106680000D03*
%TD*%
%TO.C,U2*%
X106890000Y-127000000D03*
X106890000Y-125730000D03*
X106890000Y-124460000D03*
X106890000Y-123190000D03*
X106890000Y-121920000D03*
X106890000Y-116840000D03*
X106890000Y-115570000D03*
X106890000Y-114300000D03*
X106890000Y-113030000D03*
X106890000Y-111760000D03*
X101390000Y-111760000D03*
X101390000Y-113030000D03*
X101390000Y-114300000D03*
X101390000Y-115570000D03*
X101390000Y-116840000D03*
X101390000Y-121920000D03*
X101390000Y-123190000D03*
X101390000Y-124460000D03*
X101390000Y-125730000D03*
X101390000Y-127000000D03*
%TD*%
D20*
%TO.C,J5*%
X122660000Y-127000000D03*
D21*
X122660000Y-124460000D03*
X122660000Y-121920000D03*
X122660000Y-119380000D03*
X122660000Y-116840000D03*
X122660000Y-114300000D03*
X122660000Y-111760000D03*
X122660000Y-109220000D03*
X122660000Y-106680000D03*
X122660000Y-104140000D03*
X122660000Y-101600000D03*
X122660000Y-99060000D03*
X122660000Y-96520000D03*
X122660000Y-93980000D03*
X122660000Y-91440000D03*
X122660000Y-88900000D03*
X122660000Y-86360000D03*
X122660000Y-83820000D03*
%TD*%
D19*
%TO.C,U4*%
X85300000Y-127000000D03*
X85300000Y-125730000D03*
X85300000Y-124460000D03*
X85300000Y-123190000D03*
X85300000Y-121920000D03*
X85300000Y-116840000D03*
X85300000Y-115570000D03*
X85300000Y-114300000D03*
X85300000Y-113030000D03*
X85300000Y-111760000D03*
X79800000Y-111760000D03*
X79800000Y-113030000D03*
X79800000Y-114300000D03*
X79800000Y-115570000D03*
X79800000Y-116840000D03*
X79800000Y-121920000D03*
X79800000Y-123190000D03*
X79800000Y-124460000D03*
X79800000Y-125730000D03*
X79800000Y-127000000D03*
%TD*%
D22*
%TO.C,RN1*%
X80645000Y-83820000D03*
D23*
X83185000Y-83820000D03*
X85725000Y-83820000D03*
X88265000Y-83820000D03*
X90805000Y-83820000D03*
X93345000Y-83820000D03*
%TD*%
D20*
%TO.C,J1*%
X93345000Y-80010000D03*
D21*
X90805000Y-80010000D03*
X88265000Y-80010000D03*
X85725000Y-80010000D03*
X83185000Y-80010000D03*
%TD*%
D20*
%TO.C,J6*%
X73660000Y-127000000D03*
D21*
X73660000Y-124460000D03*
X73660000Y-121920000D03*
X73660000Y-119380000D03*
X73660000Y-116840000D03*
X73660000Y-114300000D03*
X73660000Y-111760000D03*
X73660000Y-109220000D03*
X73660000Y-106680000D03*
X73660000Y-104140000D03*
X73660000Y-101600000D03*
X73660000Y-99060000D03*
X73660000Y-96520000D03*
X73660000Y-93980000D03*
X73660000Y-91440000D03*
X73660000Y-88900000D03*
X73660000Y-86360000D03*
X73660000Y-83820000D03*
%TD*%
D19*
%TO.C,U8*%
X95885000Y-106680000D03*
X95885000Y-105410000D03*
X95885000Y-104140000D03*
X95885000Y-102870000D03*
X95885000Y-101600000D03*
X95885000Y-96520000D03*
X95885000Y-95250000D03*
X95885000Y-93980000D03*
X95885000Y-92710000D03*
X95885000Y-91440000D03*
X90385000Y-91440000D03*
X90385000Y-92710000D03*
X90385000Y-93980000D03*
X90385000Y-95250000D03*
X90385000Y-96520000D03*
X90385000Y-101600000D03*
X90385000Y-102870000D03*
X90385000Y-104140000D03*
X90385000Y-105410000D03*
X90385000Y-106680000D03*
%TD*%
M02*
