%TF.GenerationSoftware,KiCad,Pcbnew,(6.0.1)*%
%TF.CreationDate,2022-01-30T19:22:39-07:00*%
%TF.ProjectId,Bondwell1MB,426f6e64-7765-46c6-9c31-4d422e6b6963,rev?*%
%TF.SameCoordinates,Original*%
%TF.FileFunction,Paste,Top*%
%TF.FilePolarity,Positive*%
%FSLAX46Y46*%
G04 Gerber Fmt 4.6, Leading zero omitted, Abs format (unit mm)*
G04 Created by KiCad (PCBNEW (6.0.1)) date 2022-01-30 19:22:39*
%MOMM*%
%LPD*%
G01*
G04 APERTURE LIST*
G04 Aperture macros list*
%AMRoundRect*
0 Rectangle with rounded corners*
0 $1 Rounding radius*
0 $2 $3 $4 $5 $6 $7 $8 $9 X,Y pos of 4 corners*
0 Add a 4 corners polygon primitive as box body*
4,1,4,$2,$3,$4,$5,$6,$7,$8,$9,$2,$3,0*
0 Add four circle primitives for the rounded corners*
1,1,$1+$1,$2,$3*
1,1,$1+$1,$4,$5*
1,1,$1+$1,$6,$7*
1,1,$1+$1,$8,$9*
0 Add four rect primitives between the rounded corners*
20,1,$1+$1,$2,$3,$4,$5,0*
20,1,$1+$1,$4,$5,$6,$7,0*
20,1,$1+$1,$6,$7,$8,$9,0*
20,1,$1+$1,$8,$9,$2,$3,0*%
G04 Aperture macros list end*
%ADD10RoundRect,0.250000X0.550000X-1.050000X0.550000X1.050000X-0.550000X1.050000X-0.550000X-1.050000X0*%
%ADD11R,1.900000X0.600000*%
G04 APERTURE END LIST*
D10*
%TO.C,C10*%
X118110000Y-86150000D03*
X118110000Y-82550000D03*
%TD*%
D11*
%TO.C,U6*%
X117895000Y-106680000D03*
X117895000Y-105410000D03*
X117895000Y-104140000D03*
X117895000Y-102870000D03*
X117895000Y-101600000D03*
X117895000Y-96520000D03*
X117895000Y-95250000D03*
X117895000Y-93980000D03*
X117895000Y-92710000D03*
X117895000Y-91440000D03*
X112395000Y-91440000D03*
X112395000Y-92710000D03*
X112395000Y-93980000D03*
X112395000Y-95250000D03*
X112395000Y-96520000D03*
X112395000Y-101600000D03*
X112395000Y-102870000D03*
X112395000Y-104140000D03*
X112395000Y-105410000D03*
X112395000Y-106680000D03*
%TD*%
%TO.C,U1*%
X117475000Y-127000000D03*
X117475000Y-125730000D03*
X117475000Y-124460000D03*
X117475000Y-123190000D03*
X117475000Y-121920000D03*
X117475000Y-116840000D03*
X117475000Y-115570000D03*
X117475000Y-114300000D03*
X117475000Y-113030000D03*
X117475000Y-111760000D03*
X111975000Y-111760000D03*
X111975000Y-113030000D03*
X111975000Y-114300000D03*
X111975000Y-115570000D03*
X111975000Y-116840000D03*
X111975000Y-121920000D03*
X111975000Y-123190000D03*
X111975000Y-124460000D03*
X111975000Y-125730000D03*
X111975000Y-127000000D03*
%TD*%
%TO.C,U3*%
X95885000Y-127000000D03*
X95885000Y-125730000D03*
X95885000Y-124460000D03*
X95885000Y-123190000D03*
X95885000Y-121920000D03*
X95885000Y-116840000D03*
X95885000Y-115570000D03*
X95885000Y-114300000D03*
X95885000Y-113030000D03*
X95885000Y-111760000D03*
X90385000Y-111760000D03*
X90385000Y-113030000D03*
X90385000Y-114300000D03*
X90385000Y-115570000D03*
X90385000Y-116840000D03*
X90385000Y-121920000D03*
X90385000Y-123190000D03*
X90385000Y-124460000D03*
X90385000Y-125730000D03*
X90385000Y-127000000D03*
%TD*%
%TO.C,U7*%
X107100000Y-106680000D03*
X107100000Y-105410000D03*
X107100000Y-104140000D03*
X107100000Y-102870000D03*
X107100000Y-101600000D03*
X107100000Y-96520000D03*
X107100000Y-95250000D03*
X107100000Y-93980000D03*
X107100000Y-92710000D03*
X107100000Y-91440000D03*
X101600000Y-91440000D03*
X101600000Y-92710000D03*
X101600000Y-93980000D03*
X101600000Y-95250000D03*
X101600000Y-96520000D03*
X101600000Y-101600000D03*
X101600000Y-102870000D03*
X101600000Y-104140000D03*
X101600000Y-105410000D03*
X101600000Y-106680000D03*
%TD*%
%TO.C,U9*%
X85090000Y-106680000D03*
X85090000Y-105410000D03*
X85090000Y-104140000D03*
X85090000Y-102870000D03*
X85090000Y-101600000D03*
X85090000Y-96520000D03*
X85090000Y-95250000D03*
X85090000Y-93980000D03*
X85090000Y-92710000D03*
X85090000Y-91440000D03*
X79590000Y-91440000D03*
X79590000Y-92710000D03*
X79590000Y-93980000D03*
X79590000Y-95250000D03*
X79590000Y-96520000D03*
X79590000Y-101600000D03*
X79590000Y-102870000D03*
X79590000Y-104140000D03*
X79590000Y-105410000D03*
X79590000Y-106680000D03*
%TD*%
%TO.C,U2*%
X106890000Y-127000000D03*
X106890000Y-125730000D03*
X106890000Y-124460000D03*
X106890000Y-123190000D03*
X106890000Y-121920000D03*
X106890000Y-116840000D03*
X106890000Y-115570000D03*
X106890000Y-114300000D03*
X106890000Y-113030000D03*
X106890000Y-111760000D03*
X101390000Y-111760000D03*
X101390000Y-113030000D03*
X101390000Y-114300000D03*
X101390000Y-115570000D03*
X101390000Y-116840000D03*
X101390000Y-121920000D03*
X101390000Y-123190000D03*
X101390000Y-124460000D03*
X101390000Y-125730000D03*
X101390000Y-127000000D03*
%TD*%
%TO.C,U4*%
X85300000Y-127000000D03*
X85300000Y-125730000D03*
X85300000Y-124460000D03*
X85300000Y-123190000D03*
X85300000Y-121920000D03*
X85300000Y-116840000D03*
X85300000Y-115570000D03*
X85300000Y-114300000D03*
X85300000Y-113030000D03*
X85300000Y-111760000D03*
X79800000Y-111760000D03*
X79800000Y-113030000D03*
X79800000Y-114300000D03*
X79800000Y-115570000D03*
X79800000Y-116840000D03*
X79800000Y-121920000D03*
X79800000Y-123190000D03*
X79800000Y-124460000D03*
X79800000Y-125730000D03*
X79800000Y-127000000D03*
%TD*%
%TO.C,U8*%
X95885000Y-106680000D03*
X95885000Y-105410000D03*
X95885000Y-104140000D03*
X95885000Y-102870000D03*
X95885000Y-101600000D03*
X95885000Y-96520000D03*
X95885000Y-95250000D03*
X95885000Y-93980000D03*
X95885000Y-92710000D03*
X95885000Y-91440000D03*
X90385000Y-91440000D03*
X90385000Y-92710000D03*
X90385000Y-93980000D03*
X90385000Y-95250000D03*
X90385000Y-96520000D03*
X90385000Y-101600000D03*
X90385000Y-102870000D03*
X90385000Y-104140000D03*
X90385000Y-105410000D03*
X90385000Y-106680000D03*
%TD*%
M02*
