%TF.GenerationSoftware,KiCad,Pcbnew,5.1.10*%
%TF.CreationDate,2021-12-22T00:08:39-07:00*%
%TF.ProjectId,Bondwell1MB,426f6e64-7765-46c6-9c31-4d422e6b6963,rev?*%
%TF.SameCoordinates,Original*%
%TF.FileFunction,Legend,Bot*%
%TF.FilePolarity,Positive*%
%FSLAX46Y46*%
G04 Gerber Fmt 4.6, Leading zero omitted, Abs format (unit mm)*
G04 Created by KiCad (PCBNEW 5.1.10) date 2021-12-22 00:08:39*
%MOMM*%
%LPD*%
G01*
G04 APERTURE LIST*
%ADD10C,0.300000*%
%ADD11C,0.150000*%
%ADD12C,0.010000*%
%ADD13C,0.120000*%
G04 APERTURE END LIST*
D10*
X112835142Y-102278571D02*
X113335142Y-101564285D01*
X113692285Y-102278571D02*
X113692285Y-100778571D01*
X113120857Y-100778571D01*
X112978000Y-100850000D01*
X112906571Y-100921428D01*
X112835142Y-101064285D01*
X112835142Y-101278571D01*
X112906571Y-101421428D01*
X112978000Y-101492857D01*
X113120857Y-101564285D01*
X113692285Y-101564285D01*
X111620857Y-102207142D02*
X111763714Y-102278571D01*
X112049428Y-102278571D01*
X112192285Y-102207142D01*
X112263714Y-102064285D01*
X112263714Y-101492857D01*
X112192285Y-101350000D01*
X112049428Y-101278571D01*
X111763714Y-101278571D01*
X111620857Y-101350000D01*
X111549428Y-101492857D01*
X111549428Y-101635714D01*
X112263714Y-101778571D01*
X111049428Y-101278571D02*
X110692285Y-102278571D01*
X110335142Y-101278571D01*
X108335142Y-100778571D02*
X108192285Y-100778571D01*
X108049428Y-100850000D01*
X107978000Y-100921428D01*
X107906571Y-101064285D01*
X107835142Y-101350000D01*
X107835142Y-101707142D01*
X107906571Y-101992857D01*
X107978000Y-102135714D01*
X108049428Y-102207142D01*
X108192285Y-102278571D01*
X108335142Y-102278571D01*
X108478000Y-102207142D01*
X108549428Y-102135714D01*
X108620857Y-101992857D01*
X108692285Y-101707142D01*
X108692285Y-101350000D01*
X108620857Y-101064285D01*
X108549428Y-100921428D01*
X108478000Y-100850000D01*
X108335142Y-100778571D01*
X107192285Y-102135714D02*
X107120857Y-102207142D01*
X107192285Y-102278571D01*
X107263714Y-102207142D01*
X107192285Y-102135714D01*
X107192285Y-102278571D01*
X105692285Y-102278571D02*
X106549428Y-102278571D01*
X106120857Y-102278571D02*
X106120857Y-100778571D01*
X106263714Y-100992857D01*
X106406571Y-101135714D01*
X106549428Y-101207142D01*
X120037428Y-94121857D02*
X119823142Y-94193285D01*
X119751714Y-94264714D01*
X119680285Y-94407571D01*
X119680285Y-94621857D01*
X119751714Y-94764714D01*
X119823142Y-94836142D01*
X119966000Y-94907571D01*
X120537428Y-94907571D01*
X120537428Y-93407571D01*
X120037428Y-93407571D01*
X119894571Y-93479000D01*
X119823142Y-93550428D01*
X119751714Y-93693285D01*
X119751714Y-93836142D01*
X119823142Y-93979000D01*
X119894571Y-94050428D01*
X120037428Y-94121857D01*
X120537428Y-94121857D01*
X118823142Y-94907571D02*
X118966000Y-94836142D01*
X119037428Y-94764714D01*
X119108857Y-94621857D01*
X119108857Y-94193285D01*
X119037428Y-94050428D01*
X118966000Y-93979000D01*
X118823142Y-93907571D01*
X118608857Y-93907571D01*
X118466000Y-93979000D01*
X118394571Y-94050428D01*
X118323142Y-94193285D01*
X118323142Y-94621857D01*
X118394571Y-94764714D01*
X118466000Y-94836142D01*
X118608857Y-94907571D01*
X118823142Y-94907571D01*
X117680285Y-93907571D02*
X117680285Y-94907571D01*
X117680285Y-94050428D02*
X117608857Y-93979000D01*
X117466000Y-93907571D01*
X117251714Y-93907571D01*
X117108857Y-93979000D01*
X117037428Y-94121857D01*
X117037428Y-94907571D01*
X115680285Y-94907571D02*
X115680285Y-93407571D01*
X115680285Y-94836142D02*
X115823142Y-94907571D01*
X116108857Y-94907571D01*
X116251714Y-94836142D01*
X116323142Y-94764714D01*
X116394571Y-94621857D01*
X116394571Y-94193285D01*
X116323142Y-94050428D01*
X116251714Y-93979000D01*
X116108857Y-93907571D01*
X115823142Y-93907571D01*
X115680285Y-93979000D01*
X115108857Y-93907571D02*
X114823142Y-94907571D01*
X114537428Y-94193285D01*
X114251714Y-94907571D01*
X113966000Y-93907571D01*
X112823142Y-94836142D02*
X112966000Y-94907571D01*
X113251714Y-94907571D01*
X113394571Y-94836142D01*
X113466000Y-94693285D01*
X113466000Y-94121857D01*
X113394571Y-93979000D01*
X113251714Y-93907571D01*
X112966000Y-93907571D01*
X112823142Y-93979000D01*
X112751714Y-94121857D01*
X112751714Y-94264714D01*
X113466000Y-94407571D01*
X111894571Y-94907571D02*
X112037428Y-94836142D01*
X112108857Y-94693285D01*
X112108857Y-93407571D01*
X111108857Y-94907571D02*
X111251714Y-94836142D01*
X111323142Y-94693285D01*
X111323142Y-93407571D01*
X108894571Y-94121857D02*
X108680285Y-94193285D01*
X108608857Y-94264714D01*
X108537428Y-94407571D01*
X108537428Y-94621857D01*
X108608857Y-94764714D01*
X108680285Y-94836142D01*
X108823142Y-94907571D01*
X109394571Y-94907571D01*
X109394571Y-93407571D01*
X108894571Y-93407571D01*
X108751714Y-93479000D01*
X108680285Y-93550428D01*
X108608857Y-93693285D01*
X108608857Y-93836142D01*
X108680285Y-93979000D01*
X108751714Y-94050428D01*
X108894571Y-94121857D01*
X109394571Y-94121857D01*
X108037428Y-93407571D02*
X107108857Y-93407571D01*
X107608857Y-93979000D01*
X107394571Y-93979000D01*
X107251714Y-94050428D01*
X107180285Y-94121857D01*
X107108857Y-94264714D01*
X107108857Y-94621857D01*
X107180285Y-94764714D01*
X107251714Y-94836142D01*
X107394571Y-94907571D01*
X107823142Y-94907571D01*
X107966000Y-94836142D01*
X108037428Y-94764714D01*
X105680285Y-94907571D02*
X106537428Y-94907571D01*
X106108857Y-94907571D02*
X106108857Y-93407571D01*
X106251714Y-93621857D01*
X106394571Y-93764714D01*
X106537428Y-93836142D01*
X104751714Y-93407571D02*
X104608857Y-93407571D01*
X104466000Y-93479000D01*
X104394571Y-93550428D01*
X104323142Y-93693285D01*
X104251714Y-93979000D01*
X104251714Y-94336142D01*
X104323142Y-94621857D01*
X104394571Y-94764714D01*
X104466000Y-94836142D01*
X104608857Y-94907571D01*
X104751714Y-94907571D01*
X104894571Y-94836142D01*
X104966000Y-94764714D01*
X105037428Y-94621857D01*
X105108857Y-94336142D01*
X105108857Y-93979000D01*
X105037428Y-93693285D01*
X104966000Y-93550428D01*
X104894571Y-93479000D01*
X104751714Y-93407571D01*
X101680285Y-94907571D02*
X102537428Y-94907571D01*
X102108857Y-94907571D02*
X102108857Y-93407571D01*
X102251714Y-93621857D01*
X102394571Y-93764714D01*
X102537428Y-93836142D01*
X101037428Y-94907571D02*
X101037428Y-93407571D01*
X100537428Y-94479000D01*
X100037428Y-93407571D01*
X100037428Y-94907571D01*
X98823142Y-94121857D02*
X98608857Y-94193285D01*
X98537428Y-94264714D01*
X98466000Y-94407571D01*
X98466000Y-94621857D01*
X98537428Y-94764714D01*
X98608857Y-94836142D01*
X98751714Y-94907571D01*
X99323142Y-94907571D01*
X99323142Y-93407571D01*
X98823142Y-93407571D01*
X98680285Y-93479000D01*
X98608857Y-93550428D01*
X98537428Y-93693285D01*
X98537428Y-93836142D01*
X98608857Y-93979000D01*
X98680285Y-94050428D01*
X98823142Y-94121857D01*
X99323142Y-94121857D01*
X116216000Y-97457571D02*
X116716000Y-96743285D01*
X117073142Y-97457571D02*
X117073142Y-95957571D01*
X116501714Y-95957571D01*
X116358857Y-96029000D01*
X116287428Y-96100428D01*
X116216000Y-96243285D01*
X116216000Y-96457571D01*
X116287428Y-96600428D01*
X116358857Y-96671857D01*
X116501714Y-96743285D01*
X117073142Y-96743285D01*
X115644571Y-97029000D02*
X114930285Y-97029000D01*
X115787428Y-97457571D02*
X115287428Y-95957571D01*
X114787428Y-97457571D01*
X114287428Y-97457571D02*
X114287428Y-95957571D01*
X113787428Y-97029000D01*
X113287428Y-95957571D01*
X113287428Y-97457571D01*
X111430285Y-96671857D02*
X110930285Y-96671857D01*
X110716000Y-97457571D02*
X111430285Y-97457571D01*
X111430285Y-95957571D01*
X110716000Y-95957571D01*
X110216000Y-97457571D02*
X109430285Y-96457571D01*
X110216000Y-96457571D02*
X109430285Y-97457571D01*
X108858857Y-96457571D02*
X108858857Y-97957571D01*
X108858857Y-96529000D02*
X108716000Y-96457571D01*
X108430285Y-96457571D01*
X108287428Y-96529000D01*
X108216000Y-96600428D01*
X108144571Y-96743285D01*
X108144571Y-97171857D01*
X108216000Y-97314714D01*
X108287428Y-97386142D01*
X108430285Y-97457571D01*
X108716000Y-97457571D01*
X108858857Y-97386142D01*
X106858857Y-97457571D02*
X106858857Y-96671857D01*
X106930285Y-96529000D01*
X107073142Y-96457571D01*
X107358857Y-96457571D01*
X107501714Y-96529000D01*
X106858857Y-97386142D02*
X107001714Y-97457571D01*
X107358857Y-97457571D01*
X107501714Y-97386142D01*
X107573142Y-97243285D01*
X107573142Y-97100428D01*
X107501714Y-96957571D01*
X107358857Y-96886142D01*
X107001714Y-96886142D01*
X106858857Y-96814714D01*
X106144571Y-96457571D02*
X106144571Y-97457571D01*
X106144571Y-96600428D02*
X106073142Y-96529000D01*
X105930285Y-96457571D01*
X105716000Y-96457571D01*
X105573142Y-96529000D01*
X105501714Y-96671857D01*
X105501714Y-97457571D01*
X104858857Y-97386142D02*
X104716000Y-97457571D01*
X104430285Y-97457571D01*
X104287428Y-97386142D01*
X104216000Y-97243285D01*
X104216000Y-97171857D01*
X104287428Y-97029000D01*
X104430285Y-96957571D01*
X104644571Y-96957571D01*
X104787428Y-96886142D01*
X104858857Y-96743285D01*
X104858857Y-96671857D01*
X104787428Y-96529000D01*
X104644571Y-96457571D01*
X104430285Y-96457571D01*
X104287428Y-96529000D01*
X103573142Y-97457571D02*
X103573142Y-96457571D01*
X103573142Y-95957571D02*
X103644571Y-96029000D01*
X103573142Y-96100428D01*
X103501714Y-96029000D01*
X103573142Y-95957571D01*
X103573142Y-96100428D01*
X102644571Y-97457571D02*
X102787428Y-97386142D01*
X102858857Y-97314714D01*
X102930285Y-97171857D01*
X102930285Y-96743285D01*
X102858857Y-96600428D01*
X102787428Y-96529000D01*
X102644571Y-96457571D01*
X102430285Y-96457571D01*
X102287428Y-96529000D01*
X102216000Y-96600428D01*
X102144571Y-96743285D01*
X102144571Y-97171857D01*
X102216000Y-97314714D01*
X102287428Y-97386142D01*
X102430285Y-97457571D01*
X102644571Y-97457571D01*
X101501714Y-96457571D02*
X101501714Y-97457571D01*
X101501714Y-96600428D02*
X101430285Y-96529000D01*
X101287428Y-96457571D01*
X101073142Y-96457571D01*
X100930285Y-96529000D01*
X100858857Y-96671857D01*
X100858857Y-97457571D01*
D11*
X118721142Y-75906380D02*
X118721142Y-76620666D01*
X118768761Y-76763523D01*
X118864000Y-76858761D01*
X119006857Y-76906380D01*
X119102095Y-76906380D01*
X118244952Y-76906380D02*
X118244952Y-75906380D01*
X117864000Y-75906380D01*
X117768761Y-75954000D01*
X117721142Y-76001619D01*
X117673523Y-76096857D01*
X117673523Y-76239714D01*
X117721142Y-76334952D01*
X117768761Y-76382571D01*
X117864000Y-76430190D01*
X118244952Y-76430190D01*
D12*
%TO.C,REF\u002A\u002A*%
G36*
X84198541Y-93067336D02*
G01*
X84176334Y-93142840D01*
X84162888Y-93223534D01*
X84146310Y-93359913D01*
X84129554Y-93498703D01*
X84122358Y-93558714D01*
X84106579Y-93652237D01*
X84080264Y-93700558D01*
X84031043Y-93722915D01*
X84014425Y-93726559D01*
X83953613Y-93757929D01*
X83863823Y-93827273D01*
X83757091Y-93922832D01*
X83645456Y-94032844D01*
X83540955Y-94145549D01*
X83455626Y-94249185D01*
X83409055Y-94318011D01*
X83346938Y-94422170D01*
X83297489Y-94487385D01*
X83243339Y-94531752D01*
X83167120Y-94573369D01*
X83161147Y-94576332D01*
X83035730Y-94630694D01*
X82873653Y-94690353D01*
X82696688Y-94748338D01*
X82526607Y-94797674D01*
X82385182Y-94831389D01*
X82341032Y-94839006D01*
X82249379Y-94856606D01*
X82203808Y-94883553D01*
X82186022Y-94932508D01*
X82184002Y-94947646D01*
X82200942Y-95052013D01*
X82274988Y-95134360D01*
X82401430Y-95190963D01*
X82520210Y-95213456D01*
X82693280Y-95236534D01*
X82878087Y-95267150D01*
X83057514Y-95301885D01*
X83214444Y-95337319D01*
X83331761Y-95370034D01*
X83365487Y-95382299D01*
X83473126Y-95426743D01*
X83326508Y-95583490D01*
X83247203Y-95672636D01*
X83196809Y-95747324D01*
X83164748Y-95830447D01*
X83140444Y-95944897D01*
X83129765Y-96009308D01*
X83124755Y-96142223D01*
X83141469Y-96309771D01*
X83175872Y-96487485D01*
X83223931Y-96650900D01*
X83243960Y-96701896D01*
X83300482Y-96803510D01*
X83386001Y-96923591D01*
X83482330Y-97036676D01*
X83485406Y-97039914D01*
X83575288Y-97137827D01*
X83628006Y-97209322D01*
X83653219Y-97272301D01*
X83660582Y-97344661D01*
X83660766Y-97364946D01*
X83650267Y-97475826D01*
X83623264Y-97610622D01*
X83598828Y-97697732D01*
X83561270Y-97823764D01*
X83530070Y-97945651D01*
X83516668Y-98010822D01*
X83487179Y-98096613D01*
X83424072Y-98220179D01*
X83334064Y-98369002D01*
X83283114Y-98445974D01*
X83117592Y-98690089D01*
X82984808Y-98887939D01*
X82880641Y-99046150D01*
X82800971Y-99171345D01*
X82741675Y-99270151D01*
X82698632Y-99349191D01*
X82667721Y-99415091D01*
X82646820Y-99468775D01*
X82559198Y-99671360D01*
X82457504Y-99817945D01*
X82335662Y-99916500D01*
X82286584Y-99941366D01*
X82173351Y-100008517D01*
X82117743Y-100078113D01*
X82118974Y-100141216D01*
X82176256Y-100188887D01*
X82288805Y-100212188D01*
X82310493Y-100213030D01*
X82431594Y-100220275D01*
X82549082Y-100234452D01*
X82567876Y-100237726D01*
X82667816Y-100243124D01*
X82747963Y-100208276D01*
X82766026Y-100194814D01*
X82840263Y-100119088D01*
X82933130Y-99997986D01*
X83035723Y-99844424D01*
X83139140Y-99671318D01*
X83186881Y-99584285D01*
X83258501Y-99457925D01*
X83338382Y-99328963D01*
X83383055Y-99262656D01*
X83464427Y-99147908D01*
X83553767Y-99021963D01*
X83588824Y-98972554D01*
X83727404Y-98758297D01*
X83869900Y-98504097D01*
X84004101Y-98232427D01*
X84063513Y-98098851D01*
X84169739Y-97867360D01*
X84265875Y-97693125D01*
X84350804Y-97577833D01*
X84423410Y-97523172D01*
X84447518Y-97518648D01*
X84574727Y-97546435D01*
X84727772Y-97627354D01*
X84901988Y-97757742D01*
X85092709Y-97933937D01*
X85295270Y-98152275D01*
X85376191Y-98247722D01*
X85496972Y-98386135D01*
X85645063Y-98544240D01*
X85810761Y-98712779D01*
X85984365Y-98882496D01*
X86156171Y-99044132D01*
X86316477Y-99188432D01*
X86455582Y-99306139D01*
X86563783Y-99387994D01*
X86587395Y-99403337D01*
X86691590Y-99470516D01*
X86746754Y-99516051D01*
X86760941Y-99548250D01*
X86748562Y-99569633D01*
X86689649Y-99602684D01*
X86573950Y-99640011D01*
X86399400Y-99682136D01*
X86163932Y-99729585D01*
X85999846Y-99759536D01*
X85821541Y-99798850D01*
X85639897Y-99852180D01*
X85469359Y-99913959D01*
X85324371Y-99978620D01*
X85219378Y-100040597D01*
X85180700Y-100075236D01*
X85151012Y-100146828D01*
X85149091Y-100200313D01*
X85158543Y-100236798D01*
X85183133Y-100259601D01*
X85236201Y-100272712D01*
X85331087Y-100280120D01*
X85429061Y-100284032D01*
X85565990Y-100286768D01*
X85653309Y-100281817D01*
X85705648Y-100266908D01*
X85737634Y-100239773D01*
X85740730Y-100235681D01*
X85797474Y-100203216D01*
X85904963Y-100179792D01*
X86050094Y-100165559D01*
X86219762Y-100160669D01*
X86400861Y-100165272D01*
X86580286Y-100179518D01*
X86744933Y-100203559D01*
X86832610Y-100223124D01*
X87146450Y-100281604D01*
X87515202Y-100306394D01*
X87938888Y-100297495D01*
X88051451Y-100290149D01*
X88320246Y-100260650D01*
X88579708Y-100213931D01*
X88812990Y-100153816D01*
X89003246Y-100084133D01*
X89043938Y-100064741D01*
X89130444Y-100003942D01*
X89221906Y-99914673D01*
X89260900Y-99867001D01*
X89333877Y-99770701D01*
X89402500Y-99683707D01*
X89429539Y-99651053D01*
X89494211Y-99575462D01*
X89986181Y-99657089D01*
X90289550Y-99706417D01*
X90544956Y-99744915D01*
X90767761Y-99773840D01*
X90973325Y-99794449D01*
X91177009Y-99808002D01*
X91394175Y-99815754D01*
X91640183Y-99818963D01*
X91930395Y-99818888D01*
X91960893Y-99818755D01*
X92243577Y-99816511D01*
X92470643Y-99812347D01*
X92650925Y-99805792D01*
X92793256Y-99796372D01*
X92906470Y-99783617D01*
X92999399Y-99767055D01*
X93021099Y-99762121D01*
X93320030Y-99665203D01*
X93568328Y-99528507D01*
X93708813Y-99412322D01*
X93845058Y-99279536D01*
X93464647Y-99093998D01*
X93307250Y-99019877D01*
X93156503Y-98953569D01*
X93029084Y-98902119D01*
X92941672Y-98872576D01*
X92938932Y-98871871D01*
X92854420Y-98859735D01*
X92710017Y-98850964D01*
X92504690Y-98845535D01*
X92237408Y-98843425D01*
X91907138Y-98844612D01*
X91775525Y-98845811D01*
X91527141Y-98848157D01*
X91301132Y-98849863D01*
X91105102Y-98850905D01*
X90946655Y-98851261D01*
X90833392Y-98850907D01*
X90772918Y-98849819D01*
X90764878Y-98848927D01*
X90797562Y-98843520D01*
X90885987Y-98832012D01*
X91021819Y-98815403D01*
X91196726Y-98794695D01*
X91402372Y-98770886D01*
X91630425Y-98744977D01*
X91640598Y-98743832D01*
X91960119Y-98707479D01*
X92124015Y-98687901D01*
X90197232Y-98687901D01*
X90191679Y-98697906D01*
X90157715Y-98725627D01*
X90100212Y-98767897D01*
X90077469Y-98771605D01*
X90075233Y-98760772D01*
X90100549Y-98737153D01*
X90147759Y-98710644D01*
X90197232Y-98687901D01*
X92124015Y-98687901D01*
X92223460Y-98676022D01*
X92322667Y-98662938D01*
X90268634Y-98662938D01*
X90252517Y-98679055D01*
X90236401Y-98662938D01*
X90252517Y-98646821D01*
X90268634Y-98662938D01*
X92322667Y-98662938D01*
X92438557Y-98647654D01*
X92547929Y-98630704D01*
X90333101Y-98630704D01*
X90316984Y-98646821D01*
X90300868Y-98630704D01*
X90316984Y-98614587D01*
X90333101Y-98630704D01*
X92547929Y-98630704D01*
X92613347Y-98620566D01*
X92727293Y-98598471D01*
X90397568Y-98598471D01*
X90381451Y-98614587D01*
X90365335Y-98598471D01*
X90381451Y-98582354D01*
X90397568Y-98598471D01*
X92727293Y-98598471D01*
X92755766Y-98592950D01*
X92873752Y-98562998D01*
X92975242Y-98528900D01*
X93068171Y-98488848D01*
X93160477Y-98441034D01*
X93260097Y-98383649D01*
X93284181Y-98369323D01*
X93450150Y-98260809D01*
X93601118Y-98144483D01*
X93727903Y-98029098D01*
X93821318Y-97923405D01*
X93872181Y-97836156D01*
X93878786Y-97802714D01*
X93849676Y-97756905D01*
X93761280Y-97696606D01*
X93631895Y-97630060D01*
X93374739Y-97531836D01*
X93127613Y-97490432D01*
X92873523Y-97504448D01*
X92667467Y-97550686D01*
X92324870Y-97656258D01*
X92004408Y-97773126D01*
X91690421Y-97908293D01*
X91367252Y-98068762D01*
X91019241Y-98261533D01*
X90833281Y-98370873D01*
X90697503Y-98450650D01*
X90580900Y-98516656D01*
X90494951Y-98562575D01*
X90451131Y-98582086D01*
X90449165Y-98582354D01*
X90432844Y-98580337D01*
X90435063Y-98570080D01*
X90463575Y-98545276D01*
X90526132Y-98499620D01*
X90630485Y-98426804D01*
X90696100Y-98381456D01*
X91022911Y-98151768D01*
X91296925Y-97949656D01*
X91521758Y-97771494D01*
X91701027Y-97613659D01*
X91838350Y-97472527D01*
X91937342Y-97344474D01*
X92001623Y-97225877D01*
X92034808Y-97113110D01*
X92041477Y-97033514D01*
X92015047Y-96797875D01*
X91938440Y-96589247D01*
X91815683Y-96418136D01*
X91799597Y-96402115D01*
X91665574Y-96295329D01*
X91497865Y-96193471D01*
X91320837Y-96109325D01*
X91158857Y-96055675D01*
X91126577Y-96049043D01*
X91072017Y-96038805D01*
X91036262Y-96037063D01*
X91018301Y-96053486D01*
X91017121Y-96097744D01*
X91031710Y-96179507D01*
X91061056Y-96308445D01*
X91087539Y-96422018D01*
X91115834Y-96630380D01*
X91095094Y-96822956D01*
X91022405Y-97022421D01*
X91006170Y-97055674D01*
X90910681Y-97212406D01*
X90777465Y-97386244D01*
X90622394Y-97558471D01*
X90461339Y-97710371D01*
X90426348Y-97739471D01*
X90308712Y-97845546D01*
X90169956Y-97987732D01*
X90020883Y-98153143D01*
X89872297Y-98328898D01*
X89735002Y-98502111D01*
X89619801Y-98659899D01*
X89537498Y-98789377D01*
X89522617Y-98817219D01*
X89441550Y-98950265D01*
X89360626Y-99032612D01*
X89285331Y-99060344D01*
X89222788Y-99031281D01*
X89188507Y-98982861D01*
X89134830Y-98892949D01*
X89071220Y-98777700D01*
X89044741Y-98727405D01*
X88893929Y-98467465D01*
X88708966Y-98205307D01*
X88486154Y-97937183D01*
X88221797Y-97659344D01*
X87912199Y-97368042D01*
X87553664Y-97059527D01*
X87142494Y-96730052D01*
X86868000Y-96520000D01*
X86602909Y-96318864D01*
X86385754Y-96150475D01*
X86211921Y-96010236D01*
X86076793Y-95893551D01*
X85975759Y-95795825D01*
X85904202Y-95712461D01*
X85857508Y-95638863D01*
X85831063Y-95570435D01*
X85820252Y-95502580D01*
X85819279Y-95475447D01*
X85801997Y-95287230D01*
X85758183Y-95079296D01*
X85695583Y-94883316D01*
X85648551Y-94777461D01*
X85587617Y-94674401D01*
X85501818Y-94547062D01*
X85408033Y-94420290D01*
X85392515Y-94400590D01*
X85306163Y-94285274D01*
X85231827Y-94173690D01*
X85182680Y-94085945D01*
X85175709Y-94069664D01*
X85134007Y-93997772D01*
X85057877Y-93898392D01*
X84960281Y-93787742D01*
X84904346Y-93730136D01*
X84772662Y-93596445D01*
X84627163Y-93444269D01*
X84494619Y-93301697D01*
X84466604Y-93270802D01*
X84373303Y-93171073D01*
X84293389Y-93092726D01*
X84237990Y-93046315D01*
X84221304Y-93038185D01*
X84198541Y-93067336D01*
G37*
X84198541Y-93067336D02*
X84176334Y-93142840D01*
X84162888Y-93223534D01*
X84146310Y-93359913D01*
X84129554Y-93498703D01*
X84122358Y-93558714D01*
X84106579Y-93652237D01*
X84080264Y-93700558D01*
X84031043Y-93722915D01*
X84014425Y-93726559D01*
X83953613Y-93757929D01*
X83863823Y-93827273D01*
X83757091Y-93922832D01*
X83645456Y-94032844D01*
X83540955Y-94145549D01*
X83455626Y-94249185D01*
X83409055Y-94318011D01*
X83346938Y-94422170D01*
X83297489Y-94487385D01*
X83243339Y-94531752D01*
X83167120Y-94573369D01*
X83161147Y-94576332D01*
X83035730Y-94630694D01*
X82873653Y-94690353D01*
X82696688Y-94748338D01*
X82526607Y-94797674D01*
X82385182Y-94831389D01*
X82341032Y-94839006D01*
X82249379Y-94856606D01*
X82203808Y-94883553D01*
X82186022Y-94932508D01*
X82184002Y-94947646D01*
X82200942Y-95052013D01*
X82274988Y-95134360D01*
X82401430Y-95190963D01*
X82520210Y-95213456D01*
X82693280Y-95236534D01*
X82878087Y-95267150D01*
X83057514Y-95301885D01*
X83214444Y-95337319D01*
X83331761Y-95370034D01*
X83365487Y-95382299D01*
X83473126Y-95426743D01*
X83326508Y-95583490D01*
X83247203Y-95672636D01*
X83196809Y-95747324D01*
X83164748Y-95830447D01*
X83140444Y-95944897D01*
X83129765Y-96009308D01*
X83124755Y-96142223D01*
X83141469Y-96309771D01*
X83175872Y-96487485D01*
X83223931Y-96650900D01*
X83243960Y-96701896D01*
X83300482Y-96803510D01*
X83386001Y-96923591D01*
X83482330Y-97036676D01*
X83485406Y-97039914D01*
X83575288Y-97137827D01*
X83628006Y-97209322D01*
X83653219Y-97272301D01*
X83660582Y-97344661D01*
X83660766Y-97364946D01*
X83650267Y-97475826D01*
X83623264Y-97610622D01*
X83598828Y-97697732D01*
X83561270Y-97823764D01*
X83530070Y-97945651D01*
X83516668Y-98010822D01*
X83487179Y-98096613D01*
X83424072Y-98220179D01*
X83334064Y-98369002D01*
X83283114Y-98445974D01*
X83117592Y-98690089D01*
X82984808Y-98887939D01*
X82880641Y-99046150D01*
X82800971Y-99171345D01*
X82741675Y-99270151D01*
X82698632Y-99349191D01*
X82667721Y-99415091D01*
X82646820Y-99468775D01*
X82559198Y-99671360D01*
X82457504Y-99817945D01*
X82335662Y-99916500D01*
X82286584Y-99941366D01*
X82173351Y-100008517D01*
X82117743Y-100078113D01*
X82118974Y-100141216D01*
X82176256Y-100188887D01*
X82288805Y-100212188D01*
X82310493Y-100213030D01*
X82431594Y-100220275D01*
X82549082Y-100234452D01*
X82567876Y-100237726D01*
X82667816Y-100243124D01*
X82747963Y-100208276D01*
X82766026Y-100194814D01*
X82840263Y-100119088D01*
X82933130Y-99997986D01*
X83035723Y-99844424D01*
X83139140Y-99671318D01*
X83186881Y-99584285D01*
X83258501Y-99457925D01*
X83338382Y-99328963D01*
X83383055Y-99262656D01*
X83464427Y-99147908D01*
X83553767Y-99021963D01*
X83588824Y-98972554D01*
X83727404Y-98758297D01*
X83869900Y-98504097D01*
X84004101Y-98232427D01*
X84063513Y-98098851D01*
X84169739Y-97867360D01*
X84265875Y-97693125D01*
X84350804Y-97577833D01*
X84423410Y-97523172D01*
X84447518Y-97518648D01*
X84574727Y-97546435D01*
X84727772Y-97627354D01*
X84901988Y-97757742D01*
X85092709Y-97933937D01*
X85295270Y-98152275D01*
X85376191Y-98247722D01*
X85496972Y-98386135D01*
X85645063Y-98544240D01*
X85810761Y-98712779D01*
X85984365Y-98882496D01*
X86156171Y-99044132D01*
X86316477Y-99188432D01*
X86455582Y-99306139D01*
X86563783Y-99387994D01*
X86587395Y-99403337D01*
X86691590Y-99470516D01*
X86746754Y-99516051D01*
X86760941Y-99548250D01*
X86748562Y-99569633D01*
X86689649Y-99602684D01*
X86573950Y-99640011D01*
X86399400Y-99682136D01*
X86163932Y-99729585D01*
X85999846Y-99759536D01*
X85821541Y-99798850D01*
X85639897Y-99852180D01*
X85469359Y-99913959D01*
X85324371Y-99978620D01*
X85219378Y-100040597D01*
X85180700Y-100075236D01*
X85151012Y-100146828D01*
X85149091Y-100200313D01*
X85158543Y-100236798D01*
X85183133Y-100259601D01*
X85236201Y-100272712D01*
X85331087Y-100280120D01*
X85429061Y-100284032D01*
X85565990Y-100286768D01*
X85653309Y-100281817D01*
X85705648Y-100266908D01*
X85737634Y-100239773D01*
X85740730Y-100235681D01*
X85797474Y-100203216D01*
X85904963Y-100179792D01*
X86050094Y-100165559D01*
X86219762Y-100160669D01*
X86400861Y-100165272D01*
X86580286Y-100179518D01*
X86744933Y-100203559D01*
X86832610Y-100223124D01*
X87146450Y-100281604D01*
X87515202Y-100306394D01*
X87938888Y-100297495D01*
X88051451Y-100290149D01*
X88320246Y-100260650D01*
X88579708Y-100213931D01*
X88812990Y-100153816D01*
X89003246Y-100084133D01*
X89043938Y-100064741D01*
X89130444Y-100003942D01*
X89221906Y-99914673D01*
X89260900Y-99867001D01*
X89333877Y-99770701D01*
X89402500Y-99683707D01*
X89429539Y-99651053D01*
X89494211Y-99575462D01*
X89986181Y-99657089D01*
X90289550Y-99706417D01*
X90544956Y-99744915D01*
X90767761Y-99773840D01*
X90973325Y-99794449D01*
X91177009Y-99808002D01*
X91394175Y-99815754D01*
X91640183Y-99818963D01*
X91930395Y-99818888D01*
X91960893Y-99818755D01*
X92243577Y-99816511D01*
X92470643Y-99812347D01*
X92650925Y-99805792D01*
X92793256Y-99796372D01*
X92906470Y-99783617D01*
X92999399Y-99767055D01*
X93021099Y-99762121D01*
X93320030Y-99665203D01*
X93568328Y-99528507D01*
X93708813Y-99412322D01*
X93845058Y-99279536D01*
X93464647Y-99093998D01*
X93307250Y-99019877D01*
X93156503Y-98953569D01*
X93029084Y-98902119D01*
X92941672Y-98872576D01*
X92938932Y-98871871D01*
X92854420Y-98859735D01*
X92710017Y-98850964D01*
X92504690Y-98845535D01*
X92237408Y-98843425D01*
X91907138Y-98844612D01*
X91775525Y-98845811D01*
X91527141Y-98848157D01*
X91301132Y-98849863D01*
X91105102Y-98850905D01*
X90946655Y-98851261D01*
X90833392Y-98850907D01*
X90772918Y-98849819D01*
X90764878Y-98848927D01*
X90797562Y-98843520D01*
X90885987Y-98832012D01*
X91021819Y-98815403D01*
X91196726Y-98794695D01*
X91402372Y-98770886D01*
X91630425Y-98744977D01*
X91640598Y-98743832D01*
X91960119Y-98707479D01*
X92124015Y-98687901D01*
X90197232Y-98687901D01*
X90191679Y-98697906D01*
X90157715Y-98725627D01*
X90100212Y-98767897D01*
X90077469Y-98771605D01*
X90075233Y-98760772D01*
X90100549Y-98737153D01*
X90147759Y-98710644D01*
X90197232Y-98687901D01*
X92124015Y-98687901D01*
X92223460Y-98676022D01*
X92322667Y-98662938D01*
X90268634Y-98662938D01*
X90252517Y-98679055D01*
X90236401Y-98662938D01*
X90252517Y-98646821D01*
X90268634Y-98662938D01*
X92322667Y-98662938D01*
X92438557Y-98647654D01*
X92547929Y-98630704D01*
X90333101Y-98630704D01*
X90316984Y-98646821D01*
X90300868Y-98630704D01*
X90316984Y-98614587D01*
X90333101Y-98630704D01*
X92547929Y-98630704D01*
X92613347Y-98620566D01*
X92727293Y-98598471D01*
X90397568Y-98598471D01*
X90381451Y-98614587D01*
X90365335Y-98598471D01*
X90381451Y-98582354D01*
X90397568Y-98598471D01*
X92727293Y-98598471D01*
X92755766Y-98592950D01*
X92873752Y-98562998D01*
X92975242Y-98528900D01*
X93068171Y-98488848D01*
X93160477Y-98441034D01*
X93260097Y-98383649D01*
X93284181Y-98369323D01*
X93450150Y-98260809D01*
X93601118Y-98144483D01*
X93727903Y-98029098D01*
X93821318Y-97923405D01*
X93872181Y-97836156D01*
X93878786Y-97802714D01*
X93849676Y-97756905D01*
X93761280Y-97696606D01*
X93631895Y-97630060D01*
X93374739Y-97531836D01*
X93127613Y-97490432D01*
X92873523Y-97504448D01*
X92667467Y-97550686D01*
X92324870Y-97656258D01*
X92004408Y-97773126D01*
X91690421Y-97908293D01*
X91367252Y-98068762D01*
X91019241Y-98261533D01*
X90833281Y-98370873D01*
X90697503Y-98450650D01*
X90580900Y-98516656D01*
X90494951Y-98562575D01*
X90451131Y-98582086D01*
X90449165Y-98582354D01*
X90432844Y-98580337D01*
X90435063Y-98570080D01*
X90463575Y-98545276D01*
X90526132Y-98499620D01*
X90630485Y-98426804D01*
X90696100Y-98381456D01*
X91022911Y-98151768D01*
X91296925Y-97949656D01*
X91521758Y-97771494D01*
X91701027Y-97613659D01*
X91838350Y-97472527D01*
X91937342Y-97344474D01*
X92001623Y-97225877D01*
X92034808Y-97113110D01*
X92041477Y-97033514D01*
X92015047Y-96797875D01*
X91938440Y-96589247D01*
X91815683Y-96418136D01*
X91799597Y-96402115D01*
X91665574Y-96295329D01*
X91497865Y-96193471D01*
X91320837Y-96109325D01*
X91158857Y-96055675D01*
X91126577Y-96049043D01*
X91072017Y-96038805D01*
X91036262Y-96037063D01*
X91018301Y-96053486D01*
X91017121Y-96097744D01*
X91031710Y-96179507D01*
X91061056Y-96308445D01*
X91087539Y-96422018D01*
X91115834Y-96630380D01*
X91095094Y-96822956D01*
X91022405Y-97022421D01*
X91006170Y-97055674D01*
X90910681Y-97212406D01*
X90777465Y-97386244D01*
X90622394Y-97558471D01*
X90461339Y-97710371D01*
X90426348Y-97739471D01*
X90308712Y-97845546D01*
X90169956Y-97987732D01*
X90020883Y-98153143D01*
X89872297Y-98328898D01*
X89735002Y-98502111D01*
X89619801Y-98659899D01*
X89537498Y-98789377D01*
X89522617Y-98817219D01*
X89441550Y-98950265D01*
X89360626Y-99032612D01*
X89285331Y-99060344D01*
X89222788Y-99031281D01*
X89188507Y-98982861D01*
X89134830Y-98892949D01*
X89071220Y-98777700D01*
X89044741Y-98727405D01*
X88893929Y-98467465D01*
X88708966Y-98205307D01*
X88486154Y-97937183D01*
X88221797Y-97659344D01*
X87912199Y-97368042D01*
X87553664Y-97059527D01*
X87142494Y-96730052D01*
X86868000Y-96520000D01*
X86602909Y-96318864D01*
X86385754Y-96150475D01*
X86211921Y-96010236D01*
X86076793Y-95893551D01*
X85975759Y-95795825D01*
X85904202Y-95712461D01*
X85857508Y-95638863D01*
X85831063Y-95570435D01*
X85820252Y-95502580D01*
X85819279Y-95475447D01*
X85801997Y-95287230D01*
X85758183Y-95079296D01*
X85695583Y-94883316D01*
X85648551Y-94777461D01*
X85587617Y-94674401D01*
X85501818Y-94547062D01*
X85408033Y-94420290D01*
X85392515Y-94400590D01*
X85306163Y-94285274D01*
X85231827Y-94173690D01*
X85182680Y-94085945D01*
X85175709Y-94069664D01*
X85134007Y-93997772D01*
X85057877Y-93898392D01*
X84960281Y-93787742D01*
X84904346Y-93730136D01*
X84772662Y-93596445D01*
X84627163Y-93444269D01*
X84494619Y-93301697D01*
X84466604Y-93270802D01*
X84373303Y-93171073D01*
X84293389Y-93092726D01*
X84237990Y-93046315D01*
X84221304Y-93038185D01*
X84198541Y-93067336D01*
D13*
%TO.C,15*%
X115205000Y-73610000D02*
X115205000Y-75010000D01*
X115905000Y-75710000D02*
X116505000Y-75710000D01*
X117205000Y-75010000D02*
X117205000Y-73610000D01*
X116505000Y-72910000D02*
X115905000Y-72910000D01*
X115905000Y-72910000D02*
G75*
G03*
X115205000Y-73610000I0J-700000D01*
G01*
X117205000Y-73610000D02*
G75*
G03*
X116505000Y-72910000I-700000J0D01*
G01*
X116505000Y-75710000D02*
G75*
G03*
X117205000Y-75010000I0J700000D01*
G01*
X115205000Y-75010000D02*
G75*
G03*
X115905000Y-75710000I700000J0D01*
G01*
%TO.C,14*%
X112665000Y-73610000D02*
X112665000Y-75010000D01*
X113365000Y-75710000D02*
X113965000Y-75710000D01*
X114665000Y-75010000D02*
X114665000Y-73610000D01*
X113965000Y-72910000D02*
X113365000Y-72910000D01*
X113365000Y-72910000D02*
G75*
G03*
X112665000Y-73610000I0J-700000D01*
G01*
X114665000Y-73610000D02*
G75*
G03*
X113965000Y-72910000I-700000J0D01*
G01*
X113965000Y-75710000D02*
G75*
G03*
X114665000Y-75010000I0J700000D01*
G01*
X112665000Y-75010000D02*
G75*
G03*
X113365000Y-75710000I700000J0D01*
G01*
%TO.C,13*%
X110125000Y-73610000D02*
X110125000Y-75010000D01*
X110825000Y-75710000D02*
X111425000Y-75710000D01*
X112125000Y-75010000D02*
X112125000Y-73610000D01*
X111425000Y-72910000D02*
X110825000Y-72910000D01*
X110825000Y-72910000D02*
G75*
G03*
X110125000Y-73610000I0J-700000D01*
G01*
X112125000Y-73610000D02*
G75*
G03*
X111425000Y-72910000I-700000J0D01*
G01*
X111425000Y-75710000D02*
G75*
G03*
X112125000Y-75010000I0J700000D01*
G01*
X110125000Y-75010000D02*
G75*
G03*
X110825000Y-75710000I700000J0D01*
G01*
%TO.C,12*%
X107585000Y-73610000D02*
X107585000Y-75010000D01*
X108285000Y-75710000D02*
X108885000Y-75710000D01*
X109585000Y-75010000D02*
X109585000Y-73610000D01*
X108885000Y-72910000D02*
X108285000Y-72910000D01*
X108285000Y-72910000D02*
G75*
G03*
X107585000Y-73610000I0J-700000D01*
G01*
X109585000Y-73610000D02*
G75*
G03*
X108885000Y-72910000I-700000J0D01*
G01*
X108885000Y-75710000D02*
G75*
G03*
X109585000Y-75010000I0J700000D01*
G01*
X107585000Y-75010000D02*
G75*
G03*
X108285000Y-75710000I700000J0D01*
G01*
%TO.C,11*%
X105045000Y-73610000D02*
X105045000Y-75010000D01*
X105745000Y-75710000D02*
X106345000Y-75710000D01*
X107045000Y-75010000D02*
X107045000Y-73610000D01*
X106345000Y-72910000D02*
X105745000Y-72910000D01*
X105745000Y-72910000D02*
G75*
G03*
X105045000Y-73610000I0J-700000D01*
G01*
X107045000Y-73610000D02*
G75*
G03*
X106345000Y-72910000I-700000J0D01*
G01*
X106345000Y-75710000D02*
G75*
G03*
X107045000Y-75010000I0J700000D01*
G01*
X105045000Y-75010000D02*
G75*
G03*
X105745000Y-75710000I700000J0D01*
G01*
%TO.C,10*%
X102505000Y-73610000D02*
X102505000Y-75010000D01*
X103205000Y-75710000D02*
X103805000Y-75710000D01*
X104505000Y-75010000D02*
X104505000Y-73610000D01*
X103805000Y-72910000D02*
X103205000Y-72910000D01*
X103205000Y-72910000D02*
G75*
G03*
X102505000Y-73610000I0J-700000D01*
G01*
X104505000Y-73610000D02*
G75*
G03*
X103805000Y-72910000I-700000J0D01*
G01*
X103805000Y-75710000D02*
G75*
G03*
X104505000Y-75010000I0J700000D01*
G01*
X102505000Y-75010000D02*
G75*
G03*
X103205000Y-75710000I700000J0D01*
G01*
%TO.C,9*%
X99965000Y-73595000D02*
X99965000Y-74995000D01*
X100665000Y-75695000D02*
X101265000Y-75695000D01*
X101965000Y-74995000D02*
X101965000Y-73595000D01*
X101265000Y-72895000D02*
X100665000Y-72895000D01*
X100665000Y-72895000D02*
G75*
G03*
X99965000Y-73595000I0J-700000D01*
G01*
X101965000Y-73595000D02*
G75*
G03*
X101265000Y-72895000I-700000J0D01*
G01*
X101265000Y-75695000D02*
G75*
G03*
X101965000Y-74995000I0J700000D01*
G01*
X99965000Y-74995000D02*
G75*
G03*
X100665000Y-75695000I700000J0D01*
G01*
%TO.C,JR1*%
X90300000Y-87265000D02*
X87500000Y-87265000D01*
X87500000Y-87265000D02*
X87500000Y-89265000D01*
X87500000Y-89265000D02*
X90300000Y-89265000D01*
X90300000Y-89265000D02*
X90300000Y-87265000D01*
%TO.C,C9*%
X114800748Y-109247000D02*
X115323252Y-109247000D01*
X114800748Y-110717000D02*
X115323252Y-110717000D01*
%TO.C,C8*%
X92956748Y-109247000D02*
X93479252Y-109247000D01*
X92956748Y-110717000D02*
X93479252Y-110717000D01*
%TO.C,C7*%
X114568248Y-89435000D02*
X115090752Y-89435000D01*
X114568248Y-90905000D02*
X115090752Y-90905000D01*
%TO.C,C6*%
X93189248Y-89435000D02*
X93711752Y-89435000D01*
X93189248Y-90905000D02*
X93711752Y-90905000D01*
%TO.C,C5*%
X103900248Y-109247000D02*
X104422752Y-109247000D01*
X103900248Y-110717000D02*
X104422752Y-110717000D01*
%TO.C,C4*%
X82267248Y-109247000D02*
X82789752Y-109247000D01*
X82267248Y-110717000D02*
X82789752Y-110717000D01*
%TO.C,C3*%
X103857248Y-89435000D02*
X104379752Y-89435000D01*
X103857248Y-90905000D02*
X104379752Y-90905000D01*
%TO.C,C2*%
X82310248Y-89435000D02*
X82832752Y-89435000D01*
X82310248Y-90905000D02*
X82832752Y-90905000D01*
%TO.C,C1*%
X121185000Y-75593752D02*
X121185000Y-75071248D01*
X122655000Y-75593752D02*
X122655000Y-75071248D01*
%TO.C,15*%
D11*
X116522476Y-76906380D02*
X117093904Y-76906380D01*
X116808190Y-76906380D02*
X116808190Y-75906380D01*
X116903428Y-76049238D01*
X116998666Y-76144476D01*
X117093904Y-76192095D01*
X115617714Y-75906380D02*
X116093904Y-75906380D01*
X116141523Y-76382571D01*
X116093904Y-76334952D01*
X115998666Y-76287333D01*
X115760571Y-76287333D01*
X115665333Y-76334952D01*
X115617714Y-76382571D01*
X115570095Y-76477809D01*
X115570095Y-76715904D01*
X115617714Y-76811142D01*
X115665333Y-76858761D01*
X115760571Y-76906380D01*
X115998666Y-76906380D01*
X116093904Y-76858761D01*
X116141523Y-76811142D01*
%TO.C,14*%
X113982476Y-76906380D02*
X114553904Y-76906380D01*
X114268190Y-76906380D02*
X114268190Y-75906380D01*
X114363428Y-76049238D01*
X114458666Y-76144476D01*
X114553904Y-76192095D01*
X113125333Y-76239714D02*
X113125333Y-76906380D01*
X113363428Y-75858761D02*
X113601523Y-76573047D01*
X112982476Y-76573047D01*
%TO.C,13*%
X111442476Y-76906380D02*
X112013904Y-76906380D01*
X111728190Y-76906380D02*
X111728190Y-75906380D01*
X111823428Y-76049238D01*
X111918666Y-76144476D01*
X112013904Y-76192095D01*
X111109142Y-75906380D02*
X110490095Y-75906380D01*
X110823428Y-76287333D01*
X110680571Y-76287333D01*
X110585333Y-76334952D01*
X110537714Y-76382571D01*
X110490095Y-76477809D01*
X110490095Y-76715904D01*
X110537714Y-76811142D01*
X110585333Y-76858761D01*
X110680571Y-76906380D01*
X110966285Y-76906380D01*
X111061523Y-76858761D01*
X111109142Y-76811142D01*
%TO.C,12*%
X108902476Y-76906380D02*
X109473904Y-76906380D01*
X109188190Y-76906380D02*
X109188190Y-75906380D01*
X109283428Y-76049238D01*
X109378666Y-76144476D01*
X109473904Y-76192095D01*
X108521523Y-76001619D02*
X108473904Y-75954000D01*
X108378666Y-75906380D01*
X108140571Y-75906380D01*
X108045333Y-75954000D01*
X107997714Y-76001619D01*
X107950095Y-76096857D01*
X107950095Y-76192095D01*
X107997714Y-76334952D01*
X108569142Y-76906380D01*
X107950095Y-76906380D01*
%TO.C,11*%
X106362476Y-76906380D02*
X106933904Y-76906380D01*
X106648190Y-76906380D02*
X106648190Y-75906380D01*
X106743428Y-76049238D01*
X106838666Y-76144476D01*
X106933904Y-76192095D01*
X105410095Y-76906380D02*
X105981523Y-76906380D01*
X105695809Y-76906380D02*
X105695809Y-75906380D01*
X105791047Y-76049238D01*
X105886285Y-76144476D01*
X105981523Y-76192095D01*
%TO.C,10*%
X103314476Y-76906380D02*
X103885904Y-76906380D01*
X103600190Y-76906380D02*
X103600190Y-75906380D01*
X103695428Y-76049238D01*
X103790666Y-76144476D01*
X103885904Y-76192095D01*
X102695428Y-75906380D02*
X102600190Y-75906380D01*
X102504952Y-75954000D01*
X102457333Y-76001619D01*
X102409714Y-76096857D01*
X102362095Y-76287333D01*
X102362095Y-76525428D01*
X102409714Y-76715904D01*
X102457333Y-76811142D01*
X102504952Y-76858761D01*
X102600190Y-76906380D01*
X102695428Y-76906380D01*
X102790666Y-76858761D01*
X102838285Y-76811142D01*
X102885904Y-76715904D01*
X102933523Y-76525428D01*
X102933523Y-76287333D01*
X102885904Y-76096857D01*
X102838285Y-76001619D01*
X102790666Y-75954000D01*
X102695428Y-75906380D01*
%TO.C,9*%
X101028476Y-76906380D02*
X100838000Y-76906380D01*
X100742761Y-76858761D01*
X100695142Y-76811142D01*
X100599904Y-76668285D01*
X100552285Y-76477809D01*
X100552285Y-76096857D01*
X100599904Y-76001619D01*
X100647523Y-75954000D01*
X100742761Y-75906380D01*
X100933238Y-75906380D01*
X101028476Y-75954000D01*
X101076095Y-76001619D01*
X101123714Y-76096857D01*
X101123714Y-76334952D01*
X101076095Y-76430190D01*
X101028476Y-76477809D01*
X100933238Y-76525428D01*
X100742761Y-76525428D01*
X100647523Y-76477809D01*
X100599904Y-76430190D01*
X100552285Y-76334952D01*
%TO.C,JR1*%
X89733333Y-85917380D02*
X89733333Y-86631666D01*
X89780952Y-86774523D01*
X89876190Y-86869761D01*
X90019047Y-86917380D01*
X90114285Y-86917380D01*
X88685714Y-86917380D02*
X89019047Y-86441190D01*
X89257142Y-86917380D02*
X89257142Y-85917380D01*
X88876190Y-85917380D01*
X88780952Y-85965000D01*
X88733333Y-86012619D01*
X88685714Y-86107857D01*
X88685714Y-86250714D01*
X88733333Y-86345952D01*
X88780952Y-86393571D01*
X88876190Y-86441190D01*
X89257142Y-86441190D01*
X87733333Y-86917380D02*
X88304761Y-86917380D01*
X88019047Y-86917380D02*
X88019047Y-85917380D01*
X88114285Y-86060238D01*
X88209523Y-86155476D01*
X88304761Y-86203095D01*
%TO.C,C9*%
X115228666Y-112019142D02*
X115276285Y-112066761D01*
X115419142Y-112114380D01*
X115514380Y-112114380D01*
X115657238Y-112066761D01*
X115752476Y-111971523D01*
X115800095Y-111876285D01*
X115847714Y-111685809D01*
X115847714Y-111542952D01*
X115800095Y-111352476D01*
X115752476Y-111257238D01*
X115657238Y-111162000D01*
X115514380Y-111114380D01*
X115419142Y-111114380D01*
X115276285Y-111162000D01*
X115228666Y-111209619D01*
X114752476Y-112114380D02*
X114562000Y-112114380D01*
X114466761Y-112066761D01*
X114419142Y-112019142D01*
X114323904Y-111876285D01*
X114276285Y-111685809D01*
X114276285Y-111304857D01*
X114323904Y-111209619D01*
X114371523Y-111162000D01*
X114466761Y-111114380D01*
X114657238Y-111114380D01*
X114752476Y-111162000D01*
X114800095Y-111209619D01*
X114847714Y-111304857D01*
X114847714Y-111542952D01*
X114800095Y-111638190D01*
X114752476Y-111685809D01*
X114657238Y-111733428D01*
X114466761Y-111733428D01*
X114371523Y-111685809D01*
X114323904Y-111638190D01*
X114276285Y-111542952D01*
%TO.C,C8*%
X93384666Y-112019142D02*
X93432285Y-112066761D01*
X93575142Y-112114380D01*
X93670380Y-112114380D01*
X93813238Y-112066761D01*
X93908476Y-111971523D01*
X93956095Y-111876285D01*
X94003714Y-111685809D01*
X94003714Y-111542952D01*
X93956095Y-111352476D01*
X93908476Y-111257238D01*
X93813238Y-111162000D01*
X93670380Y-111114380D01*
X93575142Y-111114380D01*
X93432285Y-111162000D01*
X93384666Y-111209619D01*
X92813238Y-111542952D02*
X92908476Y-111495333D01*
X92956095Y-111447714D01*
X93003714Y-111352476D01*
X93003714Y-111304857D01*
X92956095Y-111209619D01*
X92908476Y-111162000D01*
X92813238Y-111114380D01*
X92622761Y-111114380D01*
X92527523Y-111162000D01*
X92479904Y-111209619D01*
X92432285Y-111304857D01*
X92432285Y-111352476D01*
X92479904Y-111447714D01*
X92527523Y-111495333D01*
X92622761Y-111542952D01*
X92813238Y-111542952D01*
X92908476Y-111590571D01*
X92956095Y-111638190D01*
X93003714Y-111733428D01*
X93003714Y-111923904D01*
X92956095Y-112019142D01*
X92908476Y-112066761D01*
X92813238Y-112114380D01*
X92622761Y-112114380D01*
X92527523Y-112066761D01*
X92479904Y-112019142D01*
X92432285Y-111923904D01*
X92432285Y-111733428D01*
X92479904Y-111638190D01*
X92527523Y-111590571D01*
X92622761Y-111542952D01*
%TO.C,C7*%
X114996166Y-92207142D02*
X115043785Y-92254761D01*
X115186642Y-92302380D01*
X115281880Y-92302380D01*
X115424738Y-92254761D01*
X115519976Y-92159523D01*
X115567595Y-92064285D01*
X115615214Y-91873809D01*
X115615214Y-91730952D01*
X115567595Y-91540476D01*
X115519976Y-91445238D01*
X115424738Y-91350000D01*
X115281880Y-91302380D01*
X115186642Y-91302380D01*
X115043785Y-91350000D01*
X114996166Y-91397619D01*
X114662833Y-91302380D02*
X113996166Y-91302380D01*
X114424738Y-92302380D01*
%TO.C,C6*%
X93617166Y-92207142D02*
X93664785Y-92254761D01*
X93807642Y-92302380D01*
X93902880Y-92302380D01*
X94045738Y-92254761D01*
X94140976Y-92159523D01*
X94188595Y-92064285D01*
X94236214Y-91873809D01*
X94236214Y-91730952D01*
X94188595Y-91540476D01*
X94140976Y-91445238D01*
X94045738Y-91350000D01*
X93902880Y-91302380D01*
X93807642Y-91302380D01*
X93664785Y-91350000D01*
X93617166Y-91397619D01*
X92760023Y-91302380D02*
X92950500Y-91302380D01*
X93045738Y-91350000D01*
X93093357Y-91397619D01*
X93188595Y-91540476D01*
X93236214Y-91730952D01*
X93236214Y-92111904D01*
X93188595Y-92207142D01*
X93140976Y-92254761D01*
X93045738Y-92302380D01*
X92855261Y-92302380D01*
X92760023Y-92254761D01*
X92712404Y-92207142D01*
X92664785Y-92111904D01*
X92664785Y-91873809D01*
X92712404Y-91778571D01*
X92760023Y-91730952D01*
X92855261Y-91683333D01*
X93045738Y-91683333D01*
X93140976Y-91730952D01*
X93188595Y-91778571D01*
X93236214Y-91873809D01*
%TO.C,C5*%
X104328166Y-112019142D02*
X104375785Y-112066761D01*
X104518642Y-112114380D01*
X104613880Y-112114380D01*
X104756738Y-112066761D01*
X104851976Y-111971523D01*
X104899595Y-111876285D01*
X104947214Y-111685809D01*
X104947214Y-111542952D01*
X104899595Y-111352476D01*
X104851976Y-111257238D01*
X104756738Y-111162000D01*
X104613880Y-111114380D01*
X104518642Y-111114380D01*
X104375785Y-111162000D01*
X104328166Y-111209619D01*
X103423404Y-111114380D02*
X103899595Y-111114380D01*
X103947214Y-111590571D01*
X103899595Y-111542952D01*
X103804357Y-111495333D01*
X103566261Y-111495333D01*
X103471023Y-111542952D01*
X103423404Y-111590571D01*
X103375785Y-111685809D01*
X103375785Y-111923904D01*
X103423404Y-112019142D01*
X103471023Y-112066761D01*
X103566261Y-112114380D01*
X103804357Y-112114380D01*
X103899595Y-112066761D01*
X103947214Y-112019142D01*
%TO.C,C4*%
X82695166Y-112019142D02*
X82742785Y-112066761D01*
X82885642Y-112114380D01*
X82980880Y-112114380D01*
X83123738Y-112066761D01*
X83218976Y-111971523D01*
X83266595Y-111876285D01*
X83314214Y-111685809D01*
X83314214Y-111542952D01*
X83266595Y-111352476D01*
X83218976Y-111257238D01*
X83123738Y-111162000D01*
X82980880Y-111114380D01*
X82885642Y-111114380D01*
X82742785Y-111162000D01*
X82695166Y-111209619D01*
X81838023Y-111447714D02*
X81838023Y-112114380D01*
X82076119Y-111066761D02*
X82314214Y-111781047D01*
X81695166Y-111781047D01*
%TO.C,C3*%
X104285166Y-92207142D02*
X104332785Y-92254761D01*
X104475642Y-92302380D01*
X104570880Y-92302380D01*
X104713738Y-92254761D01*
X104808976Y-92159523D01*
X104856595Y-92064285D01*
X104904214Y-91873809D01*
X104904214Y-91730952D01*
X104856595Y-91540476D01*
X104808976Y-91445238D01*
X104713738Y-91350000D01*
X104570880Y-91302380D01*
X104475642Y-91302380D01*
X104332785Y-91350000D01*
X104285166Y-91397619D01*
X103951833Y-91302380D02*
X103332785Y-91302380D01*
X103666119Y-91683333D01*
X103523261Y-91683333D01*
X103428023Y-91730952D01*
X103380404Y-91778571D01*
X103332785Y-91873809D01*
X103332785Y-92111904D01*
X103380404Y-92207142D01*
X103428023Y-92254761D01*
X103523261Y-92302380D01*
X103808976Y-92302380D01*
X103904214Y-92254761D01*
X103951833Y-92207142D01*
%TO.C,C2*%
X82738166Y-92207142D02*
X82785785Y-92254761D01*
X82928642Y-92302380D01*
X83023880Y-92302380D01*
X83166738Y-92254761D01*
X83261976Y-92159523D01*
X83309595Y-92064285D01*
X83357214Y-91873809D01*
X83357214Y-91730952D01*
X83309595Y-91540476D01*
X83261976Y-91445238D01*
X83166738Y-91350000D01*
X83023880Y-91302380D01*
X82928642Y-91302380D01*
X82785785Y-91350000D01*
X82738166Y-91397619D01*
X82357214Y-91397619D02*
X82309595Y-91350000D01*
X82214357Y-91302380D01*
X81976261Y-91302380D01*
X81881023Y-91350000D01*
X81833404Y-91397619D01*
X81785785Y-91492857D01*
X81785785Y-91588095D01*
X81833404Y-91730952D01*
X82404833Y-92302380D01*
X81785785Y-92302380D01*
%TO.C,C1*%
X124055142Y-75165833D02*
X124102761Y-75118214D01*
X124150380Y-74975357D01*
X124150380Y-74880119D01*
X124102761Y-74737261D01*
X124007523Y-74642023D01*
X123912285Y-74594404D01*
X123721809Y-74546785D01*
X123578952Y-74546785D01*
X123388476Y-74594404D01*
X123293238Y-74642023D01*
X123198000Y-74737261D01*
X123150380Y-74880119D01*
X123150380Y-74975357D01*
X123198000Y-75118214D01*
X123245619Y-75165833D01*
X124150380Y-76118214D02*
X124150380Y-75546785D01*
X124150380Y-75832500D02*
X123150380Y-75832500D01*
X123293238Y-75737261D01*
X123388476Y-75642023D01*
X123436095Y-75546785D01*
%TD*%
M02*
