%TF.GenerationSoftware,KiCad,Pcbnew,5.1.10*%
%TF.CreationDate,2021-12-22T00:08:39-07:00*%
%TF.ProjectId,Bondwell1MB,426f6e64-7765-46c6-9c31-4d422e6b6963,rev?*%
%TF.SameCoordinates,Original*%
%TF.FileFunction,Paste,Top*%
%TF.FilePolarity,Positive*%
%FSLAX46Y46*%
G04 Gerber Fmt 4.6, Leading zero omitted, Abs format (unit mm)*
G04 Created by KiCad (PCBNEW 5.1.10) date 2021-12-22 00:08:39*
%MOMM*%
%LPD*%
G01*
G04 APERTURE LIST*
%ADD10R,1.900000X0.600000*%
G04 APERTURE END LIST*
D10*
%TO.C,U8*%
X95885000Y-91440000D03*
X90385000Y-91440000D03*
X95885000Y-92710000D03*
X90385000Y-92710000D03*
X95885000Y-93980000D03*
X90385000Y-93980000D03*
X95885000Y-95250000D03*
X90385000Y-95250000D03*
X95885000Y-96520000D03*
X90385000Y-96520000D03*
X95885000Y-101600000D03*
X90385000Y-101600000D03*
X95885000Y-102870000D03*
X90385000Y-102870000D03*
X95885000Y-104140000D03*
X90385000Y-104140000D03*
X95885000Y-105410000D03*
X90385000Y-105410000D03*
X95885000Y-106680000D03*
X90385000Y-106680000D03*
%TD*%
%TO.C,U3*%
X95885000Y-111760000D03*
X90385000Y-111760000D03*
X95885000Y-113030000D03*
X90385000Y-113030000D03*
X95885000Y-114300000D03*
X90385000Y-114300000D03*
X95885000Y-115570000D03*
X90385000Y-115570000D03*
X95885000Y-116840000D03*
X90385000Y-116840000D03*
X95885000Y-121920000D03*
X90385000Y-121920000D03*
X95885000Y-123190000D03*
X90385000Y-123190000D03*
X95885000Y-124460000D03*
X90385000Y-124460000D03*
X95885000Y-125730000D03*
X90385000Y-125730000D03*
X95885000Y-127000000D03*
X90385000Y-127000000D03*
%TD*%
%TO.C,U4*%
X85300000Y-111760000D03*
X79800000Y-111760000D03*
X85300000Y-113030000D03*
X79800000Y-113030000D03*
X85300000Y-114300000D03*
X79800000Y-114300000D03*
X85300000Y-115570000D03*
X79800000Y-115570000D03*
X85300000Y-116840000D03*
X79800000Y-116840000D03*
X85300000Y-121920000D03*
X79800000Y-121920000D03*
X85300000Y-123190000D03*
X79800000Y-123190000D03*
X85300000Y-124460000D03*
X79800000Y-124460000D03*
X85300000Y-125730000D03*
X79800000Y-125730000D03*
X85300000Y-127000000D03*
X79800000Y-127000000D03*
%TD*%
%TO.C,U2*%
X106890000Y-111760000D03*
X101390000Y-111760000D03*
X106890000Y-113030000D03*
X101390000Y-113030000D03*
X106890000Y-114300000D03*
X101390000Y-114300000D03*
X106890000Y-115570000D03*
X101390000Y-115570000D03*
X106890000Y-116840000D03*
X101390000Y-116840000D03*
X106890000Y-121920000D03*
X101390000Y-121920000D03*
X106890000Y-123190000D03*
X101390000Y-123190000D03*
X106890000Y-124460000D03*
X101390000Y-124460000D03*
X106890000Y-125730000D03*
X101390000Y-125730000D03*
X106890000Y-127000000D03*
X101390000Y-127000000D03*
%TD*%
%TO.C,U9*%
X85090000Y-91440000D03*
X79590000Y-91440000D03*
X85090000Y-92710000D03*
X79590000Y-92710000D03*
X85090000Y-93980000D03*
X79590000Y-93980000D03*
X85090000Y-95250000D03*
X79590000Y-95250000D03*
X85090000Y-96520000D03*
X79590000Y-96520000D03*
X85090000Y-101600000D03*
X79590000Y-101600000D03*
X85090000Y-102870000D03*
X79590000Y-102870000D03*
X85090000Y-104140000D03*
X79590000Y-104140000D03*
X85090000Y-105410000D03*
X79590000Y-105410000D03*
X85090000Y-106680000D03*
X79590000Y-106680000D03*
%TD*%
%TO.C,U7*%
X107100000Y-91440000D03*
X101600000Y-91440000D03*
X107100000Y-92710000D03*
X101600000Y-92710000D03*
X107100000Y-93980000D03*
X101600000Y-93980000D03*
X107100000Y-95250000D03*
X101600000Y-95250000D03*
X107100000Y-96520000D03*
X101600000Y-96520000D03*
X107100000Y-101600000D03*
X101600000Y-101600000D03*
X107100000Y-102870000D03*
X101600000Y-102870000D03*
X107100000Y-104140000D03*
X101600000Y-104140000D03*
X107100000Y-105410000D03*
X101600000Y-105410000D03*
X107100000Y-106680000D03*
X101600000Y-106680000D03*
%TD*%
%TO.C,U1*%
X117475000Y-111760000D03*
X111975000Y-111760000D03*
X117475000Y-113030000D03*
X111975000Y-113030000D03*
X117475000Y-114300000D03*
X111975000Y-114300000D03*
X117475000Y-115570000D03*
X111975000Y-115570000D03*
X117475000Y-116840000D03*
X111975000Y-116840000D03*
X117475000Y-121920000D03*
X111975000Y-121920000D03*
X117475000Y-123190000D03*
X111975000Y-123190000D03*
X117475000Y-124460000D03*
X111975000Y-124460000D03*
X117475000Y-125730000D03*
X111975000Y-125730000D03*
X117475000Y-127000000D03*
X111975000Y-127000000D03*
%TD*%
%TO.C,U6*%
X117895000Y-91440000D03*
X112395000Y-91440000D03*
X117895000Y-92710000D03*
X112395000Y-92710000D03*
X117895000Y-93980000D03*
X112395000Y-93980000D03*
X117895000Y-95250000D03*
X112395000Y-95250000D03*
X117895000Y-96520000D03*
X112395000Y-96520000D03*
X117895000Y-101600000D03*
X112395000Y-101600000D03*
X117895000Y-102870000D03*
X112395000Y-102870000D03*
X117895000Y-104140000D03*
X112395000Y-104140000D03*
X117895000Y-105410000D03*
X112395000Y-105410000D03*
X117895000Y-106680000D03*
X112395000Y-106680000D03*
%TD*%
%TO.C,C10*%
G36*
G01*
X118660000Y-83850000D02*
X117560000Y-83850000D01*
G75*
G02*
X117310000Y-83600000I0J250000D01*
G01*
X117310000Y-81500000D01*
G75*
G02*
X117560000Y-81250000I250000J0D01*
G01*
X118660000Y-81250000D01*
G75*
G02*
X118910000Y-81500000I0J-250000D01*
G01*
X118910000Y-83600000D01*
G75*
G02*
X118660000Y-83850000I-250000J0D01*
G01*
G37*
G36*
G01*
X118660000Y-87450000D02*
X117560000Y-87450000D01*
G75*
G02*
X117310000Y-87200000I0J250000D01*
G01*
X117310000Y-85100000D01*
G75*
G02*
X117560000Y-84850000I250000J0D01*
G01*
X118660000Y-84850000D01*
G75*
G02*
X118910000Y-85100000I0J-250000D01*
G01*
X118910000Y-87200000D01*
G75*
G02*
X118660000Y-87450000I-250000J0D01*
G01*
G37*
%TD*%
M02*
