%TF.GenerationSoftware,KiCad,Pcbnew,5.1.10*%
%TF.CreationDate,2021-12-22T00:08:39-07:00*%
%TF.ProjectId,Bondwell1MB,426f6e64-7765-46c6-9c31-4d422e6b6963,rev?*%
%TF.SameCoordinates,Original*%
%TF.FileFunction,Legend,Top*%
%TF.FilePolarity,Positive*%
%FSLAX46Y46*%
G04 Gerber Fmt 4.6, Leading zero omitted, Abs format (unit mm)*
G04 Created by KiCad (PCBNEW 5.1.10) date 2021-12-22 00:08:39*
%MOMM*%
%LPD*%
G01*
G04 APERTURE LIST*
%ADD10C,0.150000*%
%ADD11C,0.300000*%
%ADD12C,0.120000*%
%ADD13C,0.153000*%
G04 APERTURE END LIST*
D10*
X86944824Y-86669619D02*
X86998395Y-86622000D01*
X87099586Y-86574380D01*
X87337681Y-86574380D01*
X87426967Y-86622000D01*
X87468633Y-86669619D01*
X87504348Y-86764857D01*
X87492443Y-86860095D01*
X87426967Y-87002952D01*
X86784110Y-87574380D01*
X87403157Y-87574380D01*
X88147205Y-86574380D02*
X88242443Y-86574380D01*
X88331729Y-86622000D01*
X88373395Y-86669619D01*
X88409110Y-86764857D01*
X88432919Y-86955333D01*
X88403157Y-87193428D01*
X88331729Y-87383904D01*
X88272205Y-87479142D01*
X88218633Y-87526761D01*
X88117443Y-87574380D01*
X88022205Y-87574380D01*
X87932919Y-87526761D01*
X87891252Y-87479142D01*
X87855538Y-87383904D01*
X87831729Y-87193428D01*
X87861491Y-86955333D01*
X87932919Y-86764857D01*
X87992443Y-86669619D01*
X88046014Y-86622000D01*
X88147205Y-86574380D01*
X88849586Y-86669619D02*
X88903157Y-86622000D01*
X89004348Y-86574380D01*
X89242443Y-86574380D01*
X89331729Y-86622000D01*
X89373395Y-86669619D01*
X89409110Y-86764857D01*
X89397205Y-86860095D01*
X89331729Y-87002952D01*
X88688872Y-87574380D01*
X89307919Y-87574380D01*
X90260300Y-87574380D02*
X89688872Y-87574380D01*
X89974586Y-87574380D02*
X90099586Y-86574380D01*
X89986491Y-86717238D01*
X89879348Y-86812476D01*
X89778157Y-86860095D01*
X80434205Y-88082380D02*
X80559205Y-87082380D01*
X81005633Y-88082380D02*
X80648491Y-87510952D01*
X81130633Y-87082380D02*
X80487776Y-87653809D01*
X81434205Y-88082380D02*
X81517538Y-87415714D01*
X81559205Y-87082380D02*
X81505633Y-87130000D01*
X81547300Y-87177619D01*
X81600872Y-87130000D01*
X81559205Y-87082380D01*
X81547300Y-87177619D01*
X81850872Y-87415714D02*
X82231824Y-87415714D01*
X82035395Y-87082380D02*
X81928252Y-87939523D01*
X81963967Y-88034761D01*
X82053252Y-88082380D01*
X82148491Y-88082380D01*
X82440157Y-88034761D02*
X82529443Y-88082380D01*
X82719919Y-88082380D01*
X82821110Y-88034761D01*
X82880633Y-87939523D01*
X82886586Y-87891904D01*
X82850872Y-87796666D01*
X82761586Y-87749047D01*
X82618729Y-87749047D01*
X82529443Y-87701428D01*
X82493729Y-87606190D01*
X82499681Y-87558571D01*
X82559205Y-87463333D01*
X82660395Y-87415714D01*
X82803252Y-87415714D01*
X82892538Y-87463333D01*
X83803252Y-87415714D02*
X83719919Y-88082380D01*
X83374681Y-87415714D02*
X83309205Y-87939523D01*
X83344919Y-88034761D01*
X83434205Y-88082380D01*
X83577062Y-88082380D01*
X83678252Y-88034761D01*
X83731824Y-87987142D01*
X84279443Y-87415714D02*
X84196110Y-88082380D01*
X84267538Y-87510952D02*
X84321110Y-87463333D01*
X84422300Y-87415714D01*
X84565157Y-87415714D01*
X84654443Y-87463333D01*
X84690157Y-87558571D01*
X84624681Y-88082380D01*
X85487776Y-88034761D02*
X85386586Y-88082380D01*
X85196110Y-88082380D01*
X85106824Y-88034761D01*
X85071110Y-87939523D01*
X85118729Y-87558571D01*
X85178252Y-87463333D01*
X85279443Y-87415714D01*
X85469919Y-87415714D01*
X85559205Y-87463333D01*
X85594919Y-87558571D01*
X85583014Y-87653809D01*
X85094919Y-87749047D01*
X78739633Y-86717142D02*
X78686062Y-86764761D01*
X78537252Y-86812380D01*
X78442014Y-86812380D01*
X78305110Y-86764761D01*
X78221776Y-86669523D01*
X78186062Y-86574285D01*
X78162252Y-86383809D01*
X78180110Y-86240952D01*
X78251538Y-86050476D01*
X78311062Y-85955238D01*
X78418205Y-85860000D01*
X78567014Y-85812380D01*
X78662252Y-85812380D01*
X78799157Y-85860000D01*
X78840824Y-85907619D01*
X79156300Y-86812380D02*
X79281300Y-85812380D01*
X79584872Y-86812380D02*
X79650348Y-86288571D01*
X79614633Y-86193333D01*
X79525348Y-86145714D01*
X79382491Y-86145714D01*
X79281300Y-86193333D01*
X79227729Y-86240952D01*
X80489633Y-86812380D02*
X80555110Y-86288571D01*
X80519395Y-86193333D01*
X80430110Y-86145714D01*
X80239633Y-86145714D01*
X80138443Y-86193333D01*
X80495586Y-86764761D02*
X80394395Y-86812380D01*
X80156300Y-86812380D01*
X80067014Y-86764761D01*
X80031300Y-86669523D01*
X80043205Y-86574285D01*
X80102729Y-86479047D01*
X80203919Y-86431428D01*
X80442014Y-86431428D01*
X80543205Y-86383809D01*
X80965824Y-86812380D02*
X81049157Y-86145714D01*
X81025348Y-86336190D02*
X81084872Y-86240952D01*
X81138443Y-86193333D01*
X81239633Y-86145714D01*
X81334872Y-86145714D01*
X81525348Y-86145714D02*
X81906300Y-86145714D01*
X81709872Y-85812380D02*
X81602729Y-86669523D01*
X81638443Y-86764761D01*
X81727729Y-86812380D01*
X81822967Y-86812380D01*
X82156300Y-86812380D02*
X82239633Y-86145714D01*
X82215824Y-86336190D02*
X82275348Y-86240952D01*
X82328919Y-86193333D01*
X82430110Y-86145714D01*
X82525348Y-86145714D01*
X83162252Y-86764761D02*
X83061062Y-86812380D01*
X82870586Y-86812380D01*
X82781300Y-86764761D01*
X82745586Y-86669523D01*
X82793205Y-86288571D01*
X82852729Y-86193333D01*
X82953919Y-86145714D01*
X83144395Y-86145714D01*
X83233681Y-86193333D01*
X83269395Y-86288571D01*
X83257491Y-86383809D01*
X82769395Y-86479047D01*
X84144395Y-86145714D02*
X84061062Y-86812380D01*
X83715824Y-86145714D02*
X83650348Y-86669523D01*
X83686062Y-86764761D01*
X83775348Y-86812380D01*
X83918205Y-86812380D01*
X84019395Y-86764761D01*
X84072967Y-86717142D01*
X84495586Y-86764761D02*
X84584872Y-86812380D01*
X84775348Y-86812380D01*
X84876538Y-86764761D01*
X84936062Y-86669523D01*
X84942014Y-86621904D01*
X84906300Y-86526666D01*
X84817014Y-86479047D01*
X84674157Y-86479047D01*
X84584872Y-86431428D01*
X84549157Y-86336190D01*
X84555110Y-86288571D01*
X84614633Y-86193333D01*
X84715824Y-86145714D01*
X84858681Y-86145714D01*
X84947967Y-86193333D01*
X85733681Y-86764761D02*
X85632491Y-86812380D01*
X85442014Y-86812380D01*
X85352729Y-86764761D01*
X85317014Y-86669523D01*
X85364633Y-86288571D01*
X85424157Y-86193333D01*
X85525348Y-86145714D01*
X85715824Y-86145714D01*
X85805110Y-86193333D01*
X85840824Y-86288571D01*
X85828919Y-86383809D01*
X85340824Y-86479047D01*
D11*
X82801999Y-109366857D02*
X83016285Y-109438285D01*
X83087714Y-109509714D01*
X83159142Y-109652571D01*
X83159142Y-109866857D01*
X83087714Y-110009714D01*
X83016285Y-110081142D01*
X82873428Y-110152571D01*
X82301999Y-110152571D01*
X82301999Y-108652571D01*
X82801999Y-108652571D01*
X82944857Y-108724000D01*
X83016285Y-108795428D01*
X83087714Y-108938285D01*
X83087714Y-109081142D01*
X83016285Y-109224000D01*
X82944857Y-109295428D01*
X82801999Y-109366857D01*
X82301999Y-109366857D01*
X83659142Y-108652571D02*
X84587714Y-108652571D01*
X84087714Y-109224000D01*
X84301999Y-109224000D01*
X84444857Y-109295428D01*
X84516285Y-109366857D01*
X84587714Y-109509714D01*
X84587714Y-109866857D01*
X84516285Y-110009714D01*
X84444857Y-110081142D01*
X84301999Y-110152571D01*
X83873428Y-110152571D01*
X83730571Y-110081142D01*
X83659142Y-110009714D01*
X86016285Y-110152571D02*
X85159142Y-110152571D01*
X85587714Y-110152571D02*
X85587714Y-108652571D01*
X85444857Y-108866857D01*
X85301999Y-109009714D01*
X85159142Y-109081142D01*
X86944857Y-108652571D02*
X87087714Y-108652571D01*
X87230571Y-108724000D01*
X87301999Y-108795428D01*
X87373428Y-108938285D01*
X87444857Y-109224000D01*
X87444857Y-109581142D01*
X87373428Y-109866857D01*
X87301999Y-110009714D01*
X87230571Y-110081142D01*
X87087714Y-110152571D01*
X86944857Y-110152571D01*
X86801999Y-110081142D01*
X86730571Y-110009714D01*
X86659142Y-109866857D01*
X86587714Y-109581142D01*
X86587714Y-109224000D01*
X86659142Y-108938285D01*
X86730571Y-108795428D01*
X86801999Y-108724000D01*
X86944857Y-108652571D01*
X90016285Y-110152571D02*
X89159142Y-110152571D01*
X89587714Y-110152571D02*
X89587714Y-108652571D01*
X89444857Y-108866857D01*
X89301999Y-109009714D01*
X89159142Y-109081142D01*
X90659142Y-110152571D02*
X90659142Y-108652571D01*
X91159142Y-109724000D01*
X91659142Y-108652571D01*
X91659142Y-110152571D01*
X92873428Y-109366857D02*
X93087714Y-109438285D01*
X93159142Y-109509714D01*
X93230571Y-109652571D01*
X93230571Y-109866857D01*
X93159142Y-110009714D01*
X93087714Y-110081142D01*
X92944857Y-110152571D01*
X92373428Y-110152571D01*
X92373428Y-108652571D01*
X92873428Y-108652571D01*
X93016285Y-108724000D01*
X93087714Y-108795428D01*
X93159142Y-108938285D01*
X93159142Y-109081142D01*
X93087714Y-109224000D01*
X93016285Y-109295428D01*
X92873428Y-109366857D01*
X92373428Y-109366857D01*
X95016285Y-109366857D02*
X95516285Y-109366857D01*
X95730571Y-110152571D02*
X95016285Y-110152571D01*
X95016285Y-108652571D01*
X95730571Y-108652571D01*
X96230571Y-110152571D02*
X97016285Y-109152571D01*
X96230571Y-109152571D02*
X97016285Y-110152571D01*
X97587714Y-109152571D02*
X97587714Y-110652571D01*
X97587714Y-109224000D02*
X97730571Y-109152571D01*
X98016285Y-109152571D01*
X98159142Y-109224000D01*
X98230571Y-109295428D01*
X98301999Y-109438285D01*
X98301999Y-109866857D01*
X98230571Y-110009714D01*
X98159142Y-110081142D01*
X98016285Y-110152571D01*
X97730571Y-110152571D01*
X97587714Y-110081142D01*
X99587714Y-110152571D02*
X99587714Y-109366857D01*
X99516285Y-109224000D01*
X99373428Y-109152571D01*
X99087714Y-109152571D01*
X98944857Y-109224000D01*
X99587714Y-110081142D02*
X99444857Y-110152571D01*
X99087714Y-110152571D01*
X98944857Y-110081142D01*
X98873428Y-109938285D01*
X98873428Y-109795428D01*
X98944857Y-109652571D01*
X99087714Y-109581142D01*
X99444857Y-109581142D01*
X99587714Y-109509714D01*
X100301999Y-109152571D02*
X100301999Y-110152571D01*
X100301999Y-109295428D02*
X100373428Y-109224000D01*
X100516285Y-109152571D01*
X100730571Y-109152571D01*
X100873428Y-109224000D01*
X100944857Y-109366857D01*
X100944857Y-110152571D01*
X101587714Y-110081142D02*
X101730571Y-110152571D01*
X102016285Y-110152571D01*
X102159142Y-110081142D01*
X102230571Y-109938285D01*
X102230571Y-109866857D01*
X102159142Y-109724000D01*
X102016285Y-109652571D01*
X101801999Y-109652571D01*
X101659142Y-109581142D01*
X101587714Y-109438285D01*
X101587714Y-109366857D01*
X101659142Y-109224000D01*
X101801999Y-109152571D01*
X102016285Y-109152571D01*
X102159142Y-109224000D01*
X102873428Y-110152571D02*
X102873428Y-109152571D01*
X102873428Y-108652571D02*
X102801999Y-108724000D01*
X102873428Y-108795428D01*
X102944857Y-108724000D01*
X102873428Y-108652571D01*
X102873428Y-108795428D01*
X103801999Y-110152571D02*
X103659142Y-110081142D01*
X103587714Y-110009714D01*
X103516285Y-109866857D01*
X103516285Y-109438285D01*
X103587714Y-109295428D01*
X103659142Y-109224000D01*
X103801999Y-109152571D01*
X104016285Y-109152571D01*
X104159142Y-109224000D01*
X104230571Y-109295428D01*
X104301999Y-109438285D01*
X104301999Y-109866857D01*
X104230571Y-110009714D01*
X104159142Y-110081142D01*
X104016285Y-110152571D01*
X103801999Y-110152571D01*
X104944857Y-109152571D02*
X104944857Y-110152571D01*
X104944857Y-109295428D02*
X105016285Y-109224000D01*
X105159142Y-109152571D01*
X105373428Y-109152571D01*
X105516285Y-109224000D01*
X105587714Y-109366857D01*
X105587714Y-110152571D01*
X107444857Y-110152571D02*
X107444857Y-109152571D01*
X107444857Y-109438285D02*
X107516285Y-109295428D01*
X107587714Y-109224000D01*
X107730571Y-109152571D01*
X107873428Y-109152571D01*
X108944857Y-110081142D02*
X108801999Y-110152571D01*
X108516285Y-110152571D01*
X108373428Y-110081142D01*
X108301999Y-109938285D01*
X108301999Y-109366857D01*
X108373428Y-109224000D01*
X108516285Y-109152571D01*
X108801999Y-109152571D01*
X108944857Y-109224000D01*
X109016285Y-109366857D01*
X109016285Y-109509714D01*
X108301999Y-109652571D01*
X109516285Y-109152571D02*
X109873428Y-110152571D01*
X110230571Y-109152571D01*
X112230571Y-108652571D02*
X112373428Y-108652571D01*
X112516285Y-108724000D01*
X112587714Y-108795428D01*
X112659142Y-108938285D01*
X112730571Y-109224000D01*
X112730571Y-109581142D01*
X112659142Y-109866857D01*
X112587714Y-110009714D01*
X112516285Y-110081142D01*
X112373428Y-110152571D01*
X112230571Y-110152571D01*
X112087714Y-110081142D01*
X112016285Y-110009714D01*
X111944857Y-109866857D01*
X111873428Y-109581142D01*
X111873428Y-109224000D01*
X111944857Y-108938285D01*
X112016285Y-108795428D01*
X112087714Y-108724000D01*
X112230571Y-108652571D01*
X113373428Y-110009714D02*
X113444857Y-110081142D01*
X113373428Y-110152571D01*
X113301999Y-110081142D01*
X113373428Y-110009714D01*
X113373428Y-110152571D01*
X114873428Y-110152571D02*
X114016285Y-110152571D01*
X114444857Y-110152571D02*
X114444857Y-108652571D01*
X114301999Y-108866857D01*
X114159142Y-109009714D01*
X114016285Y-109081142D01*
D10*
X114315142Y-123745047D02*
X114958000Y-123745047D01*
X115086571Y-123792666D01*
X115172285Y-123887904D01*
X115215142Y-124030761D01*
X115215142Y-124126000D01*
X115215142Y-122792666D02*
X115215142Y-123268857D01*
X114315142Y-123268857D01*
X115129428Y-121887904D02*
X115172285Y-121935523D01*
X115215142Y-122078380D01*
X115215142Y-122173619D01*
X115172285Y-122316476D01*
X115086571Y-122411714D01*
X115000857Y-122459333D01*
X114829428Y-122506952D01*
X114700857Y-122506952D01*
X114529428Y-122459333D01*
X114443714Y-122411714D01*
X114358000Y-122316476D01*
X114315142Y-122173619D01*
X114315142Y-122078380D01*
X114358000Y-121935523D01*
X114400857Y-121887904D01*
X114315142Y-121173619D02*
X114958000Y-121173619D01*
X115086571Y-121221238D01*
X115172285Y-121316476D01*
X115215142Y-121459333D01*
X115215142Y-121554571D01*
X115215142Y-120221238D02*
X115215142Y-120697428D01*
X114315142Y-120697428D01*
X115129428Y-119316476D02*
X115172285Y-119364095D01*
X115215142Y-119506952D01*
X115215142Y-119602190D01*
X115172285Y-119745047D01*
X115086571Y-119840285D01*
X115000857Y-119887904D01*
X114829428Y-119935523D01*
X114700857Y-119935523D01*
X114529428Y-119887904D01*
X114443714Y-119840285D01*
X114358000Y-119745047D01*
X114315142Y-119602190D01*
X114315142Y-119506952D01*
X114358000Y-119364095D01*
X114400857Y-119316476D01*
X114315142Y-118602190D02*
X114958000Y-118602190D01*
X115086571Y-118649809D01*
X115172285Y-118745047D01*
X115215142Y-118887904D01*
X115215142Y-118983142D01*
X115215142Y-117649809D02*
X115215142Y-118126000D01*
X114315142Y-118126000D01*
X115129428Y-116745047D02*
X115172285Y-116792666D01*
X115215142Y-116935523D01*
X115215142Y-117030761D01*
X115172285Y-117173619D01*
X115086571Y-117268857D01*
X115000857Y-117316476D01*
X114829428Y-117364095D01*
X114700857Y-117364095D01*
X114529428Y-117316476D01*
X114443714Y-117268857D01*
X114358000Y-117173619D01*
X114315142Y-117030761D01*
X114315142Y-116935523D01*
X114358000Y-116792666D01*
X114400857Y-116745047D01*
X114315142Y-116030761D02*
X114958000Y-116030761D01*
X115086571Y-116078380D01*
X115172285Y-116173619D01*
X115215142Y-116316476D01*
X115215142Y-116411714D01*
X115215142Y-115078380D02*
X115215142Y-115554571D01*
X114315142Y-115554571D01*
X115129428Y-114173619D02*
X115172285Y-114221238D01*
X115215142Y-114364095D01*
X115215142Y-114459333D01*
X115172285Y-114602190D01*
X115086571Y-114697428D01*
X115000857Y-114745047D01*
X114829428Y-114792666D01*
X114700857Y-114792666D01*
X114529428Y-114745047D01*
X114443714Y-114697428D01*
X114358000Y-114602190D01*
X114315142Y-114459333D01*
X114315142Y-114364095D01*
X114358000Y-114221238D01*
X114400857Y-114173619D01*
D12*
%TO.C,J1*%
X94675000Y-78680000D02*
X94675000Y-80010000D01*
X93345000Y-78680000D02*
X94675000Y-78680000D01*
X92075000Y-78680000D02*
X92075000Y-81340000D01*
X92075000Y-81340000D02*
X81855000Y-81340000D01*
X92075000Y-78680000D02*
X81855000Y-78680000D01*
X81855000Y-78680000D02*
X81855000Y-81340000D01*
%TO.C,U5*%
X97330000Y-72940000D02*
X97330000Y-74190000D01*
X122850000Y-72940000D02*
X97330000Y-72940000D01*
X122850000Y-77440000D02*
X122850000Y-72940000D01*
X97330000Y-77440000D02*
X122850000Y-77440000D01*
X97330000Y-76190000D02*
X97330000Y-77440000D01*
X97330000Y-74190000D02*
G75*
G02*
X97330000Y-76190000I0J-1000000D01*
G01*
%TO.C,JC0*%
X107680000Y-86215000D02*
X107680000Y-89015000D01*
X107680000Y-89015000D02*
X105680000Y-89015000D01*
X105680000Y-89015000D02*
X105680000Y-86215000D01*
X105680000Y-86215000D02*
X107680000Y-86215000D01*
%TO.C,JC2*%
X97520000Y-86230000D02*
X97520000Y-89030000D01*
X97520000Y-89030000D02*
X95520000Y-89030000D01*
X95520000Y-89030000D02*
X95520000Y-86230000D01*
X95520000Y-86230000D02*
X97520000Y-86230000D01*
%TO.C,J6*%
X74990000Y-128330000D02*
X73660000Y-128330000D01*
X74990000Y-127000000D02*
X74990000Y-128330000D01*
X74990000Y-125730000D02*
X72330000Y-125730000D01*
X72330000Y-125730000D02*
X72330000Y-82490000D01*
X74990000Y-125730000D02*
X74990000Y-82490000D01*
X74990000Y-82490000D02*
X72330000Y-82490000D01*
%TO.C,U8*%
X97335000Y-90424000D02*
X97335000Y-107150000D01*
X88935000Y-90394000D02*
X97335000Y-90394000D01*
X88935000Y-107950000D02*
X88935000Y-90394000D01*
X96535000Y-107950000D02*
X88935000Y-107950000D01*
X97335000Y-107150000D02*
X96535000Y-107950000D01*
%TO.C,U3*%
X97335000Y-110744000D02*
X97335000Y-127470000D01*
X88935000Y-110714000D02*
X97335000Y-110714000D01*
X88935000Y-128270000D02*
X88935000Y-110714000D01*
X96535000Y-128270000D02*
X88935000Y-128270000D01*
X97335000Y-127470000D02*
X96535000Y-128270000D01*
%TO.C,U4*%
X86750000Y-110744000D02*
X86750000Y-127470000D01*
X78350000Y-110714000D02*
X86750000Y-110714000D01*
X78350000Y-128270000D02*
X78350000Y-110714000D01*
X85950000Y-128270000D02*
X78350000Y-128270000D01*
X86750000Y-127470000D02*
X85950000Y-128270000D01*
%TO.C,U2*%
X108340000Y-110744000D02*
X108340000Y-127470000D01*
X99940000Y-110714000D02*
X108340000Y-110714000D01*
X99940000Y-128270000D02*
X99940000Y-110714000D01*
X107540000Y-128270000D02*
X99940000Y-128270000D01*
X108340000Y-127470000D02*
X107540000Y-128270000D01*
%TO.C,U9*%
X86540000Y-90424000D02*
X86540000Y-107150000D01*
X78140000Y-90394000D02*
X86540000Y-90394000D01*
X78140000Y-107950000D02*
X78140000Y-90394000D01*
X85740000Y-107950000D02*
X78140000Y-107950000D01*
X86540000Y-107150000D02*
X85740000Y-107950000D01*
%TO.C,U7*%
X108550000Y-90424000D02*
X108550000Y-107150000D01*
X100150000Y-90394000D02*
X108550000Y-90394000D01*
X100150000Y-107950000D02*
X100150000Y-90394000D01*
X107750000Y-107950000D02*
X100150000Y-107950000D01*
X108550000Y-107150000D02*
X107750000Y-107950000D01*
%TO.C,U1*%
X118925000Y-110744000D02*
X118925000Y-127470000D01*
X110525000Y-110714000D02*
X118925000Y-110714000D01*
X110525000Y-128270000D02*
X110525000Y-110714000D01*
X118125000Y-128270000D02*
X110525000Y-128270000D01*
X118925000Y-127470000D02*
X118125000Y-128270000D01*
%TO.C,U6*%
X119345000Y-90424000D02*
X119345000Y-107150000D01*
X110945000Y-90394000D02*
X119345000Y-90394000D01*
X110945000Y-107950000D02*
X110945000Y-90394000D01*
X118545000Y-107950000D02*
X110945000Y-107950000D01*
X119345000Y-107150000D02*
X118545000Y-107950000D01*
%TO.C,RN1*%
X81915000Y-82420000D02*
X81915000Y-85220000D01*
X94785000Y-82420000D02*
X79205000Y-82420000D01*
X94785000Y-85220000D02*
X94785000Y-82420000D01*
X79205000Y-85220000D02*
X94785000Y-85220000D01*
X79205000Y-82420000D02*
X79205000Y-85220000D01*
%TO.C,JR0*%
X110855000Y-86230000D02*
X110855000Y-89030000D01*
X110855000Y-89030000D02*
X108855000Y-89030000D01*
X108855000Y-89030000D02*
X108855000Y-86230000D01*
X108855000Y-86230000D02*
X110855000Y-86230000D01*
%TO.C,JC3*%
X94980000Y-86215000D02*
X94980000Y-89015000D01*
X94980000Y-89015000D02*
X92980000Y-89015000D01*
X92980000Y-89015000D02*
X92980000Y-86215000D01*
X92980000Y-86215000D02*
X94980000Y-86215000D01*
%TO.C,JC1*%
X105140000Y-86215000D02*
X105140000Y-89015000D01*
X105140000Y-89015000D02*
X103140000Y-89015000D01*
X103140000Y-89015000D02*
X103140000Y-86215000D01*
X103140000Y-86215000D02*
X105140000Y-86215000D01*
%TO.C,JOE*%
X76070000Y-82820000D02*
X78870000Y-82820000D01*
X78870000Y-82820000D02*
X78870000Y-84820000D01*
X78870000Y-84820000D02*
X76070000Y-84820000D01*
X76070000Y-84820000D02*
X76070000Y-82820000D01*
%TO.C,JA9*%
X100695000Y-86230000D02*
X100695000Y-89030000D01*
X100695000Y-89030000D02*
X98695000Y-89030000D01*
X98695000Y-89030000D02*
X98695000Y-86230000D01*
X98695000Y-86230000D02*
X100695000Y-86230000D01*
%TO.C,J5*%
X123990000Y-128330000D02*
X122660000Y-128330000D01*
X123990000Y-127000000D02*
X123990000Y-128330000D01*
X123990000Y-125730000D02*
X121330000Y-125730000D01*
X121330000Y-125730000D02*
X121330000Y-82490000D01*
X123990000Y-125730000D02*
X123990000Y-82490000D01*
X123990000Y-82490000D02*
X121330000Y-82490000D01*
%TO.C,C10*%
X116300000Y-87100000D02*
X116800000Y-87100000D01*
X116550000Y-87350000D02*
X116550000Y-86850000D01*
X119305563Y-86610000D02*
X120370000Y-85545563D01*
X116914437Y-86610000D02*
X115850000Y-85545563D01*
X116914437Y-86610000D02*
X117050000Y-86610000D01*
X119305563Y-86610000D02*
X119170000Y-86610000D01*
X120370000Y-85545563D02*
X120370000Y-82090000D01*
X115850000Y-85545563D02*
X115850000Y-82090000D01*
X115850000Y-82090000D02*
X117050000Y-82090000D01*
X120370000Y-82090000D02*
X119170000Y-82090000D01*
%TO.C,J1*%
D10*
X95341666Y-79208380D02*
X95341666Y-79922666D01*
X95294047Y-80065523D01*
X95198809Y-80160761D01*
X95055952Y-80208380D01*
X94960714Y-80208380D01*
X96341666Y-80208380D02*
X95770238Y-80208380D01*
X96055952Y-80208380D02*
X96055952Y-79208380D01*
X95960714Y-79351238D01*
X95865476Y-79446476D01*
X95770238Y-79494095D01*
%TO.C,U5*%
X96266095Y-74636380D02*
X96266095Y-75445904D01*
X96313714Y-75541142D01*
X96361333Y-75588761D01*
X96456571Y-75636380D01*
X96647047Y-75636380D01*
X96742285Y-75588761D01*
X96789904Y-75541142D01*
X96837523Y-75445904D01*
X96837523Y-74636380D01*
X97789904Y-74636380D02*
X97313714Y-74636380D01*
X97266095Y-75112571D01*
X97313714Y-75064952D01*
X97408952Y-75017333D01*
X97647047Y-75017333D01*
X97742285Y-75064952D01*
X97789904Y-75112571D01*
X97837523Y-75207809D01*
X97837523Y-75445904D01*
X97789904Y-75541142D01*
X97742285Y-75588761D01*
X97647047Y-75636380D01*
X97408952Y-75636380D01*
X97313714Y-75588761D01*
X97266095Y-75541142D01*
%TO.C,JC0*%
D13*
X106132380Y-85756666D02*
X106846666Y-85756666D01*
X106989523Y-85794761D01*
X107084761Y-85870952D01*
X107132380Y-85985238D01*
X107132380Y-86061428D01*
X107037142Y-84918571D02*
X107084761Y-84956666D01*
X107132380Y-85070952D01*
X107132380Y-85147142D01*
X107084761Y-85261428D01*
X106989523Y-85337619D01*
X106894285Y-85375714D01*
X106703809Y-85413809D01*
X106560952Y-85413809D01*
X106370476Y-85375714D01*
X106275238Y-85337619D01*
X106180000Y-85261428D01*
X106132380Y-85147142D01*
X106132380Y-85070952D01*
X106180000Y-84956666D01*
X106227619Y-84918571D01*
X106132380Y-84423333D02*
X106132380Y-84347142D01*
X106180000Y-84270952D01*
X106227619Y-84232857D01*
X106322857Y-84194761D01*
X106513333Y-84156666D01*
X106751428Y-84156666D01*
X106941904Y-84194761D01*
X107037142Y-84232857D01*
X107084761Y-84270952D01*
X107132380Y-84347142D01*
X107132380Y-84423333D01*
X107084761Y-84499523D01*
X107037142Y-84537619D01*
X106941904Y-84575714D01*
X106751428Y-84613809D01*
X106513333Y-84613809D01*
X106322857Y-84575714D01*
X106227619Y-84537619D01*
X106180000Y-84499523D01*
X106132380Y-84423333D01*
%TO.C,JC2*%
X96226380Y-85756666D02*
X96940666Y-85756666D01*
X97083523Y-85794761D01*
X97178761Y-85870952D01*
X97226380Y-85985238D01*
X97226380Y-86061428D01*
X97131142Y-84918571D02*
X97178761Y-84956666D01*
X97226380Y-85070952D01*
X97226380Y-85147142D01*
X97178761Y-85261428D01*
X97083523Y-85337619D01*
X96988285Y-85375714D01*
X96797809Y-85413809D01*
X96654952Y-85413809D01*
X96464476Y-85375714D01*
X96369238Y-85337619D01*
X96274000Y-85261428D01*
X96226380Y-85147142D01*
X96226380Y-85070952D01*
X96274000Y-84956666D01*
X96321619Y-84918571D01*
X96321619Y-84613809D02*
X96274000Y-84575714D01*
X96226380Y-84499523D01*
X96226380Y-84309047D01*
X96274000Y-84232857D01*
X96321619Y-84194761D01*
X96416857Y-84156666D01*
X96512095Y-84156666D01*
X96654952Y-84194761D01*
X97226380Y-84651904D01*
X97226380Y-84156666D01*
%TO.C,J6*%
D10*
X75398380Y-126063333D02*
X76112666Y-126063333D01*
X76255523Y-126110952D01*
X76350761Y-126206190D01*
X76398380Y-126349047D01*
X76398380Y-126444285D01*
X75398380Y-125158571D02*
X75398380Y-125349047D01*
X75446000Y-125444285D01*
X75493619Y-125491904D01*
X75636476Y-125587142D01*
X75826952Y-125634761D01*
X76207904Y-125634761D01*
X76303142Y-125587142D01*
X76350761Y-125539523D01*
X76398380Y-125444285D01*
X76398380Y-125253809D01*
X76350761Y-125158571D01*
X76303142Y-125110952D01*
X76207904Y-125063333D01*
X75969809Y-125063333D01*
X75874571Y-125110952D01*
X75826952Y-125158571D01*
X75779333Y-125253809D01*
X75779333Y-125444285D01*
X75826952Y-125539523D01*
X75874571Y-125587142D01*
X75969809Y-125634761D01*
%TO.C,U8*%
X87122095Y-107402380D02*
X87122095Y-108211904D01*
X87169714Y-108307142D01*
X87217333Y-108354761D01*
X87312571Y-108402380D01*
X87503047Y-108402380D01*
X87598285Y-108354761D01*
X87645904Y-108307142D01*
X87693523Y-108211904D01*
X87693523Y-107402380D01*
X88312571Y-107830952D02*
X88217333Y-107783333D01*
X88169714Y-107735714D01*
X88122095Y-107640476D01*
X88122095Y-107592857D01*
X88169714Y-107497619D01*
X88217333Y-107450000D01*
X88312571Y-107402380D01*
X88503047Y-107402380D01*
X88598285Y-107450000D01*
X88645904Y-107497619D01*
X88693523Y-107592857D01*
X88693523Y-107640476D01*
X88645904Y-107735714D01*
X88598285Y-107783333D01*
X88503047Y-107830952D01*
X88312571Y-107830952D01*
X88217333Y-107878571D01*
X88169714Y-107926190D01*
X88122095Y-108021428D01*
X88122095Y-108211904D01*
X88169714Y-108307142D01*
X88217333Y-108354761D01*
X88312571Y-108402380D01*
X88503047Y-108402380D01*
X88598285Y-108354761D01*
X88645904Y-108307142D01*
X88693523Y-108211904D01*
X88693523Y-108021428D01*
X88645904Y-107926190D01*
X88598285Y-107878571D01*
X88503047Y-107830952D01*
%TO.C,U3*%
X86868095Y-127976380D02*
X86868095Y-128785904D01*
X86915714Y-128881142D01*
X86963333Y-128928761D01*
X87058571Y-128976380D01*
X87249047Y-128976380D01*
X87344285Y-128928761D01*
X87391904Y-128881142D01*
X87439523Y-128785904D01*
X87439523Y-127976380D01*
X87820476Y-127976380D02*
X88439523Y-127976380D01*
X88106190Y-128357333D01*
X88249047Y-128357333D01*
X88344285Y-128404952D01*
X88391904Y-128452571D01*
X88439523Y-128547809D01*
X88439523Y-128785904D01*
X88391904Y-128881142D01*
X88344285Y-128928761D01*
X88249047Y-128976380D01*
X87963333Y-128976380D01*
X87868095Y-128928761D01*
X87820476Y-128881142D01*
%TO.C,U4*%
X76454095Y-127976380D02*
X76454095Y-128785904D01*
X76501714Y-128881142D01*
X76549333Y-128928761D01*
X76644571Y-128976380D01*
X76835047Y-128976380D01*
X76930285Y-128928761D01*
X76977904Y-128881142D01*
X77025523Y-128785904D01*
X77025523Y-127976380D01*
X77930285Y-128309714D02*
X77930285Y-128976380D01*
X77692190Y-127928761D02*
X77454095Y-128643047D01*
X78073142Y-128643047D01*
%TO.C,U2*%
X97790095Y-127976380D02*
X97790095Y-128785904D01*
X97837714Y-128881142D01*
X97885333Y-128928761D01*
X97980571Y-128976380D01*
X98171047Y-128976380D01*
X98266285Y-128928761D01*
X98313904Y-128881142D01*
X98361523Y-128785904D01*
X98361523Y-127976380D01*
X98790095Y-128071619D02*
X98837714Y-128024000D01*
X98932952Y-127976380D01*
X99171047Y-127976380D01*
X99266285Y-128024000D01*
X99313904Y-128071619D01*
X99361523Y-128166857D01*
X99361523Y-128262095D01*
X99313904Y-128404952D01*
X98742476Y-128976380D01*
X99361523Y-128976380D01*
%TO.C,U9*%
X76200095Y-107402380D02*
X76200095Y-108211904D01*
X76247714Y-108307142D01*
X76295333Y-108354761D01*
X76390571Y-108402380D01*
X76581047Y-108402380D01*
X76676285Y-108354761D01*
X76723904Y-108307142D01*
X76771523Y-108211904D01*
X76771523Y-107402380D01*
X77295333Y-108402380D02*
X77485809Y-108402380D01*
X77581047Y-108354761D01*
X77628666Y-108307142D01*
X77723904Y-108164285D01*
X77771523Y-107973809D01*
X77771523Y-107592857D01*
X77723904Y-107497619D01*
X77676285Y-107450000D01*
X77581047Y-107402380D01*
X77390571Y-107402380D01*
X77295333Y-107450000D01*
X77247714Y-107497619D01*
X77200095Y-107592857D01*
X77200095Y-107830952D01*
X77247714Y-107926190D01*
X77295333Y-107973809D01*
X77390571Y-108021428D01*
X77581047Y-108021428D01*
X77676285Y-107973809D01*
X77723904Y-107926190D01*
X77771523Y-107830952D01*
%TO.C,U7*%
X98298095Y-107402380D02*
X98298095Y-108211904D01*
X98345714Y-108307142D01*
X98393333Y-108354761D01*
X98488571Y-108402380D01*
X98679047Y-108402380D01*
X98774285Y-108354761D01*
X98821904Y-108307142D01*
X98869523Y-108211904D01*
X98869523Y-107402380D01*
X99250476Y-107402380D02*
X99917142Y-107402380D01*
X99488571Y-108402380D01*
%TO.C,U1*%
X108712095Y-127976380D02*
X108712095Y-128785904D01*
X108759714Y-128881142D01*
X108807333Y-128928761D01*
X108902571Y-128976380D01*
X109093047Y-128976380D01*
X109188285Y-128928761D01*
X109235904Y-128881142D01*
X109283523Y-128785904D01*
X109283523Y-127976380D01*
X110283523Y-128976380D02*
X109712095Y-128976380D01*
X109997809Y-128976380D02*
X109997809Y-127976380D01*
X109902571Y-128119238D01*
X109807333Y-128214476D01*
X109712095Y-128262095D01*
%TO.C,U6*%
X108966095Y-107656380D02*
X108966095Y-108465904D01*
X109013714Y-108561142D01*
X109061333Y-108608761D01*
X109156571Y-108656380D01*
X109347047Y-108656380D01*
X109442285Y-108608761D01*
X109489904Y-108561142D01*
X109537523Y-108465904D01*
X109537523Y-107656380D01*
X110442285Y-107656380D02*
X110251809Y-107656380D01*
X110156571Y-107704000D01*
X110108952Y-107751619D01*
X110013714Y-107894476D01*
X109966095Y-108084952D01*
X109966095Y-108465904D01*
X110013714Y-108561142D01*
X110061333Y-108608761D01*
X110156571Y-108656380D01*
X110347047Y-108656380D01*
X110442285Y-108608761D01*
X110489904Y-108561142D01*
X110537523Y-108465904D01*
X110537523Y-108227809D01*
X110489904Y-108132571D01*
X110442285Y-108084952D01*
X110347047Y-108037333D01*
X110156571Y-108037333D01*
X110061333Y-108084952D01*
X110013714Y-108132571D01*
X109966095Y-108227809D01*
%TO.C,RN1*%
X96083523Y-82748380D02*
X95750190Y-82272190D01*
X95512095Y-82748380D02*
X95512095Y-81748380D01*
X95893047Y-81748380D01*
X95988285Y-81796000D01*
X96035904Y-81843619D01*
X96083523Y-81938857D01*
X96083523Y-82081714D01*
X96035904Y-82176952D01*
X95988285Y-82224571D01*
X95893047Y-82272190D01*
X95512095Y-82272190D01*
X96512095Y-82748380D02*
X96512095Y-81748380D01*
X97083523Y-82748380D01*
X97083523Y-81748380D01*
X98083523Y-82748380D02*
X97512095Y-82748380D01*
X97797809Y-82748380D02*
X97797809Y-81748380D01*
X97702571Y-81891238D01*
X97607333Y-81986476D01*
X97512095Y-82034095D01*
%TO.C,JR0*%
D13*
X109180380Y-85756666D02*
X109894666Y-85756666D01*
X110037523Y-85794761D01*
X110132761Y-85870952D01*
X110180380Y-85985238D01*
X110180380Y-86061428D01*
X110180380Y-84918571D02*
X109704190Y-85185238D01*
X110180380Y-85375714D02*
X109180380Y-85375714D01*
X109180380Y-85070952D01*
X109228000Y-84994761D01*
X109275619Y-84956666D01*
X109370857Y-84918571D01*
X109513714Y-84918571D01*
X109608952Y-84956666D01*
X109656571Y-84994761D01*
X109704190Y-85070952D01*
X109704190Y-85375714D01*
X109180380Y-84423333D02*
X109180380Y-84347142D01*
X109228000Y-84270952D01*
X109275619Y-84232857D01*
X109370857Y-84194761D01*
X109561333Y-84156666D01*
X109799428Y-84156666D01*
X109989904Y-84194761D01*
X110085142Y-84232857D01*
X110132761Y-84270952D01*
X110180380Y-84347142D01*
X110180380Y-84423333D01*
X110132761Y-84499523D01*
X110085142Y-84537619D01*
X109989904Y-84575714D01*
X109799428Y-84613809D01*
X109561333Y-84613809D01*
X109370857Y-84575714D01*
X109275619Y-84537619D01*
X109228000Y-84499523D01*
X109180380Y-84423333D01*
%TO.C,JC3*%
X91654380Y-88296666D02*
X92368666Y-88296666D01*
X92511523Y-88334761D01*
X92606761Y-88410952D01*
X92654380Y-88525238D01*
X92654380Y-88601428D01*
X92559142Y-87458571D02*
X92606761Y-87496666D01*
X92654380Y-87610952D01*
X92654380Y-87687142D01*
X92606761Y-87801428D01*
X92511523Y-87877619D01*
X92416285Y-87915714D01*
X92225809Y-87953809D01*
X92082952Y-87953809D01*
X91892476Y-87915714D01*
X91797238Y-87877619D01*
X91702000Y-87801428D01*
X91654380Y-87687142D01*
X91654380Y-87610952D01*
X91702000Y-87496666D01*
X91749619Y-87458571D01*
X91654380Y-87191904D02*
X91654380Y-86696666D01*
X92035333Y-86963333D01*
X92035333Y-86849047D01*
X92082952Y-86772857D01*
X92130571Y-86734761D01*
X92225809Y-86696666D01*
X92463904Y-86696666D01*
X92559142Y-86734761D01*
X92606761Y-86772857D01*
X92654380Y-86849047D01*
X92654380Y-87077619D01*
X92606761Y-87153809D01*
X92559142Y-87191904D01*
%TO.C,JC1*%
X103592380Y-85756666D02*
X104306666Y-85756666D01*
X104449523Y-85794761D01*
X104544761Y-85870952D01*
X104592380Y-85985238D01*
X104592380Y-86061428D01*
X104497142Y-84918571D02*
X104544761Y-84956666D01*
X104592380Y-85070952D01*
X104592380Y-85147142D01*
X104544761Y-85261428D01*
X104449523Y-85337619D01*
X104354285Y-85375714D01*
X104163809Y-85413809D01*
X104020952Y-85413809D01*
X103830476Y-85375714D01*
X103735238Y-85337619D01*
X103640000Y-85261428D01*
X103592380Y-85147142D01*
X103592380Y-85070952D01*
X103640000Y-84956666D01*
X103687619Y-84918571D01*
X104592380Y-84156666D02*
X104592380Y-84613809D01*
X104592380Y-84385238D02*
X103592380Y-84385238D01*
X103735238Y-84461428D01*
X103830476Y-84537619D01*
X103878095Y-84613809D01*
%TO.C,JOE*%
X76886666Y-81494380D02*
X76886666Y-82208666D01*
X76853333Y-82351523D01*
X76786666Y-82446761D01*
X76686666Y-82494380D01*
X76620000Y-82494380D01*
X77353333Y-81494380D02*
X77486666Y-81494380D01*
X77553333Y-81542000D01*
X77620000Y-81637238D01*
X77653333Y-81827714D01*
X77653333Y-82161047D01*
X77620000Y-82351523D01*
X77553333Y-82446761D01*
X77486666Y-82494380D01*
X77353333Y-82494380D01*
X77286666Y-82446761D01*
X77220000Y-82351523D01*
X77186666Y-82161047D01*
X77186666Y-81827714D01*
X77220000Y-81637238D01*
X77286666Y-81542000D01*
X77353333Y-81494380D01*
X77953333Y-81970571D02*
X78186666Y-81970571D01*
X78286666Y-82494380D02*
X77953333Y-82494380D01*
X77953333Y-81494380D01*
X78286666Y-81494380D01*
%TO.C,JA9*%
X99020380Y-85699523D02*
X99734666Y-85699523D01*
X99877523Y-85737619D01*
X99972761Y-85813809D01*
X100020380Y-85928095D01*
X100020380Y-86004285D01*
X99734666Y-85356666D02*
X99734666Y-84975714D01*
X100020380Y-85432857D02*
X99020380Y-85166190D01*
X100020380Y-84899523D01*
X100020380Y-84594761D02*
X100020380Y-84442380D01*
X99972761Y-84366190D01*
X99925142Y-84328095D01*
X99782285Y-84251904D01*
X99591809Y-84213809D01*
X99210857Y-84213809D01*
X99115619Y-84251904D01*
X99068000Y-84290000D01*
X99020380Y-84366190D01*
X99020380Y-84518571D01*
X99068000Y-84594761D01*
X99115619Y-84632857D01*
X99210857Y-84670952D01*
X99448952Y-84670952D01*
X99544190Y-84632857D01*
X99591809Y-84594761D01*
X99639428Y-84518571D01*
X99639428Y-84366190D01*
X99591809Y-84290000D01*
X99544190Y-84251904D01*
X99448952Y-84213809D01*
%TO.C,J5*%
D10*
X120356380Y-128095333D02*
X121070666Y-128095333D01*
X121213523Y-128142952D01*
X121308761Y-128238190D01*
X121356380Y-128381047D01*
X121356380Y-128476285D01*
X120356380Y-127142952D02*
X120356380Y-127619142D01*
X120832571Y-127666761D01*
X120784952Y-127619142D01*
X120737333Y-127523904D01*
X120737333Y-127285809D01*
X120784952Y-127190571D01*
X120832571Y-127142952D01*
X120927809Y-127095333D01*
X121165904Y-127095333D01*
X121261142Y-127142952D01*
X121308761Y-127190571D01*
X121356380Y-127285809D01*
X121356380Y-127523904D01*
X121308761Y-127619142D01*
X121261142Y-127666761D01*
%TO.C,C10*%
X117467142Y-89003142D02*
X117419523Y-89050761D01*
X117276666Y-89098380D01*
X117181428Y-89098380D01*
X117038571Y-89050761D01*
X116943333Y-88955523D01*
X116895714Y-88860285D01*
X116848095Y-88669809D01*
X116848095Y-88526952D01*
X116895714Y-88336476D01*
X116943333Y-88241238D01*
X117038571Y-88146000D01*
X117181428Y-88098380D01*
X117276666Y-88098380D01*
X117419523Y-88146000D01*
X117467142Y-88193619D01*
X118419523Y-89098380D02*
X117848095Y-89098380D01*
X118133809Y-89098380D02*
X118133809Y-88098380D01*
X118038571Y-88241238D01*
X117943333Y-88336476D01*
X117848095Y-88384095D01*
X119038571Y-88098380D02*
X119133809Y-88098380D01*
X119229047Y-88146000D01*
X119276666Y-88193619D01*
X119324285Y-88288857D01*
X119371904Y-88479333D01*
X119371904Y-88717428D01*
X119324285Y-88907904D01*
X119276666Y-89003142D01*
X119229047Y-89050761D01*
X119133809Y-89098380D01*
X119038571Y-89098380D01*
X118943333Y-89050761D01*
X118895714Y-89003142D01*
X118848095Y-88907904D01*
X118800476Y-88717428D01*
X118800476Y-88479333D01*
X118848095Y-88288857D01*
X118895714Y-88193619D01*
X118943333Y-88146000D01*
X119038571Y-88098380D01*
%TD*%
M02*
