%TF.GenerationSoftware,KiCad,Pcbnew,5.1.10*%
%TF.CreationDate,2021-12-22T00:08:39-07:00*%
%TF.ProjectId,Bondwell1MB,426f6e64-7765-46c6-9c31-4d422e6b6963,rev?*%
%TF.SameCoordinates,Original*%
%TF.FileFunction,Soldermask,Top*%
%TF.FilePolarity,Negative*%
%FSLAX46Y46*%
G04 Gerber Fmt 4.6, Leading zero omitted, Abs format (unit mm)*
G04 Created by KiCad (PCBNEW 5.1.10) date 2021-12-22 00:08:39*
%MOMM*%
%LPD*%
G01*
G04 APERTURE LIST*
%ADD10O,1.700000X1.700000*%
%ADD11R,1.700000X1.700000*%
%ADD12O,1.600000X2.400000*%
%ADD13R,1.600000X2.400000*%
%ADD14R,1.500000X1.000000*%
%ADD15R,1.900000X0.600000*%
%ADD16O,1.600000X1.600000*%
%ADD17R,1.600000X1.600000*%
%ADD18R,1.000000X1.500000*%
G04 APERTURE END LIST*
D10*
%TO.C,J1*%
X83185000Y-80010000D03*
X85725000Y-80010000D03*
X88265000Y-80010000D03*
X90805000Y-80010000D03*
D11*
X93345000Y-80010000D03*
%TD*%
D12*
%TO.C,U5*%
X98660000Y-71380000D03*
X121520000Y-79000000D03*
X101200000Y-71380000D03*
X118980000Y-79000000D03*
X103740000Y-71380000D03*
X116440000Y-79000000D03*
X106280000Y-71380000D03*
X113900000Y-79000000D03*
X108820000Y-71380000D03*
X111360000Y-79000000D03*
X111360000Y-71380000D03*
X108820000Y-79000000D03*
X113900000Y-71380000D03*
X106280000Y-79000000D03*
X116440000Y-71380000D03*
X103740000Y-79000000D03*
X118980000Y-71380000D03*
X101200000Y-79000000D03*
X121520000Y-71380000D03*
D13*
X98660000Y-79000000D03*
%TD*%
D14*
%TO.C,JC0*%
X106680000Y-88265000D03*
X106680000Y-86965000D03*
%TD*%
%TO.C,JC2*%
X96520000Y-88280000D03*
X96520000Y-86980000D03*
%TD*%
D10*
%TO.C,J6*%
X73660000Y-83820000D03*
X73660000Y-86360000D03*
X73660000Y-88900000D03*
X73660000Y-91440000D03*
X73660000Y-93980000D03*
X73660000Y-96520000D03*
X73660000Y-99060000D03*
X73660000Y-101600000D03*
X73660000Y-104140000D03*
X73660000Y-106680000D03*
X73660000Y-109220000D03*
X73660000Y-111760000D03*
X73660000Y-114300000D03*
X73660000Y-116840000D03*
X73660000Y-119380000D03*
X73660000Y-121920000D03*
X73660000Y-124460000D03*
D11*
X73660000Y-127000000D03*
%TD*%
D15*
%TO.C,U8*%
X95885000Y-91440000D03*
X90385000Y-91440000D03*
X95885000Y-92710000D03*
X90385000Y-92710000D03*
X95885000Y-93980000D03*
X90385000Y-93980000D03*
X95885000Y-95250000D03*
X90385000Y-95250000D03*
X95885000Y-96520000D03*
X90385000Y-96520000D03*
X95885000Y-101600000D03*
X90385000Y-101600000D03*
X95885000Y-102870000D03*
X90385000Y-102870000D03*
X95885000Y-104140000D03*
X90385000Y-104140000D03*
X95885000Y-105410000D03*
X90385000Y-105410000D03*
X95885000Y-106680000D03*
X90385000Y-106680000D03*
%TD*%
%TO.C,U3*%
X95885000Y-111760000D03*
X90385000Y-111760000D03*
X95885000Y-113030000D03*
X90385000Y-113030000D03*
X95885000Y-114300000D03*
X90385000Y-114300000D03*
X95885000Y-115570000D03*
X90385000Y-115570000D03*
X95885000Y-116840000D03*
X90385000Y-116840000D03*
X95885000Y-121920000D03*
X90385000Y-121920000D03*
X95885000Y-123190000D03*
X90385000Y-123190000D03*
X95885000Y-124460000D03*
X90385000Y-124460000D03*
X95885000Y-125730000D03*
X90385000Y-125730000D03*
X95885000Y-127000000D03*
X90385000Y-127000000D03*
%TD*%
%TO.C,U4*%
X85300000Y-111760000D03*
X79800000Y-111760000D03*
X85300000Y-113030000D03*
X79800000Y-113030000D03*
X85300000Y-114300000D03*
X79800000Y-114300000D03*
X85300000Y-115570000D03*
X79800000Y-115570000D03*
X85300000Y-116840000D03*
X79800000Y-116840000D03*
X85300000Y-121920000D03*
X79800000Y-121920000D03*
X85300000Y-123190000D03*
X79800000Y-123190000D03*
X85300000Y-124460000D03*
X79800000Y-124460000D03*
X85300000Y-125730000D03*
X79800000Y-125730000D03*
X85300000Y-127000000D03*
X79800000Y-127000000D03*
%TD*%
%TO.C,U2*%
X106890000Y-111760000D03*
X101390000Y-111760000D03*
X106890000Y-113030000D03*
X101390000Y-113030000D03*
X106890000Y-114300000D03*
X101390000Y-114300000D03*
X106890000Y-115570000D03*
X101390000Y-115570000D03*
X106890000Y-116840000D03*
X101390000Y-116840000D03*
X106890000Y-121920000D03*
X101390000Y-121920000D03*
X106890000Y-123190000D03*
X101390000Y-123190000D03*
X106890000Y-124460000D03*
X101390000Y-124460000D03*
X106890000Y-125730000D03*
X101390000Y-125730000D03*
X106890000Y-127000000D03*
X101390000Y-127000000D03*
%TD*%
%TO.C,U9*%
X85090000Y-91440000D03*
X79590000Y-91440000D03*
X85090000Y-92710000D03*
X79590000Y-92710000D03*
X85090000Y-93980000D03*
X79590000Y-93980000D03*
X85090000Y-95250000D03*
X79590000Y-95250000D03*
X85090000Y-96520000D03*
X79590000Y-96520000D03*
X85090000Y-101600000D03*
X79590000Y-101600000D03*
X85090000Y-102870000D03*
X79590000Y-102870000D03*
X85090000Y-104140000D03*
X79590000Y-104140000D03*
X85090000Y-105410000D03*
X79590000Y-105410000D03*
X85090000Y-106680000D03*
X79590000Y-106680000D03*
%TD*%
%TO.C,U7*%
X107100000Y-91440000D03*
X101600000Y-91440000D03*
X107100000Y-92710000D03*
X101600000Y-92710000D03*
X107100000Y-93980000D03*
X101600000Y-93980000D03*
X107100000Y-95250000D03*
X101600000Y-95250000D03*
X107100000Y-96520000D03*
X101600000Y-96520000D03*
X107100000Y-101600000D03*
X101600000Y-101600000D03*
X107100000Y-102870000D03*
X101600000Y-102870000D03*
X107100000Y-104140000D03*
X101600000Y-104140000D03*
X107100000Y-105410000D03*
X101600000Y-105410000D03*
X107100000Y-106680000D03*
X101600000Y-106680000D03*
%TD*%
%TO.C,U1*%
X117475000Y-111760000D03*
X111975000Y-111760000D03*
X117475000Y-113030000D03*
X111975000Y-113030000D03*
X117475000Y-114300000D03*
X111975000Y-114300000D03*
X117475000Y-115570000D03*
X111975000Y-115570000D03*
X117475000Y-116840000D03*
X111975000Y-116840000D03*
X117475000Y-121920000D03*
X111975000Y-121920000D03*
X117475000Y-123190000D03*
X111975000Y-123190000D03*
X117475000Y-124460000D03*
X111975000Y-124460000D03*
X117475000Y-125730000D03*
X111975000Y-125730000D03*
X117475000Y-127000000D03*
X111975000Y-127000000D03*
%TD*%
%TO.C,U6*%
X117895000Y-91440000D03*
X112395000Y-91440000D03*
X117895000Y-92710000D03*
X112395000Y-92710000D03*
X117895000Y-93980000D03*
X112395000Y-93980000D03*
X117895000Y-95250000D03*
X112395000Y-95250000D03*
X117895000Y-96520000D03*
X112395000Y-96520000D03*
X117895000Y-101600000D03*
X112395000Y-101600000D03*
X117895000Y-102870000D03*
X112395000Y-102870000D03*
X117895000Y-104140000D03*
X112395000Y-104140000D03*
X117895000Y-105410000D03*
X112395000Y-105410000D03*
X117895000Y-106680000D03*
X112395000Y-106680000D03*
%TD*%
D16*
%TO.C,RN1*%
X93345000Y-83820000D03*
X90805000Y-83820000D03*
X88265000Y-83820000D03*
X85725000Y-83820000D03*
X83185000Y-83820000D03*
D17*
X80645000Y-83820000D03*
%TD*%
D14*
%TO.C,JR0*%
X109855000Y-88280000D03*
X109855000Y-86980000D03*
%TD*%
%TO.C,JC3*%
X93980000Y-88265000D03*
X93980000Y-86965000D03*
%TD*%
%TO.C,JC1*%
X104140000Y-88265000D03*
X104140000Y-86965000D03*
%TD*%
D18*
%TO.C,JOE*%
X78120000Y-83820000D03*
X76820000Y-83820000D03*
%TD*%
D14*
%TO.C,JA9*%
X99695000Y-88280000D03*
X99695000Y-86980000D03*
%TD*%
D10*
%TO.C,J5*%
X122660000Y-83820000D03*
X122660000Y-86360000D03*
X122660000Y-88900000D03*
X122660000Y-91440000D03*
X122660000Y-93980000D03*
X122660000Y-96520000D03*
X122660000Y-99060000D03*
X122660000Y-101600000D03*
X122660000Y-104140000D03*
X122660000Y-106680000D03*
X122660000Y-109220000D03*
X122660000Y-111760000D03*
X122660000Y-114300000D03*
X122660000Y-116840000D03*
X122660000Y-119380000D03*
X122660000Y-121920000D03*
X122660000Y-124460000D03*
D11*
X122660000Y-127000000D03*
%TD*%
%TO.C,C10*%
G36*
G01*
X118660000Y-83850000D02*
X117560000Y-83850000D01*
G75*
G02*
X117310000Y-83600000I0J250000D01*
G01*
X117310000Y-81500000D01*
G75*
G02*
X117560000Y-81250000I250000J0D01*
G01*
X118660000Y-81250000D01*
G75*
G02*
X118910000Y-81500000I0J-250000D01*
G01*
X118910000Y-83600000D01*
G75*
G02*
X118660000Y-83850000I-250000J0D01*
G01*
G37*
G36*
G01*
X118660000Y-87450000D02*
X117560000Y-87450000D01*
G75*
G02*
X117310000Y-87200000I0J250000D01*
G01*
X117310000Y-85100000D01*
G75*
G02*
X117560000Y-84850000I250000J0D01*
G01*
X118660000Y-84850000D01*
G75*
G02*
X118910000Y-85100000I0J-250000D01*
G01*
X118910000Y-87200000D01*
G75*
G02*
X118660000Y-87450000I-250000J0D01*
G01*
G37*
%TD*%
M02*
