M48
; DRILL file {KiCad 5.1.10} date Wed Dec 22 00:09:05 2021
; FORMAT={-:-/ absolute / inch / decimal}
; #@! TF.CreationDate,2021-12-22T00:09:05-07:00
; #@! TF.GenerationSoftware,Kicad,Pcbnew,5.1.10
FMAT,2
INCH
T1C0.0118
T2C0.0197
T3C0.0315
T4C0.0394
%
G90
G05
T1
X2.84Y-3.16
X2.84Y-3.22
X2.84Y-3.35
X2.84Y-3.45
X2.84Y-3.55
X2.84Y-3.65
X2.84Y-3.75
X2.84Y-3.85
X2.84Y-3.95
X2.84Y-4.05
X2.84Y-4.15
X2.84Y-4.25
X2.84Y-4.45
X2.87Y-3.12
X2.9Y-3.16
X2.9Y-3.22
X2.93Y-3.12
X2.95Y-4.55
X2.95Y-4.65
X2.96Y-3.16
X2.96Y-3.22
X2.975Y-4.125
X2.975Y-4.25
X2.975Y-4.3
X2.975Y-4.35
X2.975Y-4.75
X2.98Y-3.39
X2.99Y-3.12
X3.0Y-3.53
X3.0Y-3.64
X3.0Y-3.74
X3.0Y-3.9295
X3.0Y-4.725
X3.0Y-5.01
X3.01Y-4.82
X3.025Y-4.125
X3.025Y-4.35
X3.03Y-3.16
X3.03Y-3.22
X3.035Y-3.375
X3.04Y-4.51
X3.05Y-3.45
X3.05Y-4.65
X3.05Y-4.7
X3.05Y-4.78
X3.05Y-4.85
X3.06Y-3.12
X3.06Y-5.01
X3.075Y-4.0
X3.075Y-4.1
X3.075Y-4.15
X3.075Y-4.9
X3.075Y-4.95
X3.09Y-3.93
X3.09Y-4.27
X3.1Y-3.16
X3.1Y-3.22
X3.1Y-4.3
X3.1Y-4.65
X3.1Y-4.7
X3.11Y-4.35
X3.14Y-3.12
X3.14Y-3.39
X3.14Y-3.93
X3.17Y-3.45
X3.18Y-3.16
X3.18Y-3.22
X3.2083Y-4.6517
X3.2083Y-4.7017
X3.2083Y-4.8917
X3.2083Y-4.9917
X3.21Y-3.39
X3.21Y-4.185
X3.23Y-3.22
X3.24Y-3.45
X3.24Y-3.65
X3.24Y-3.7
X3.24Y-3.75
X3.24Y-3.8
X3.25Y-3.975
X3.25Y-4.775
X3.25Y-4.85
X3.25Y-4.9
X3.28Y-3.39
X3.28Y-4.89
X3.3Y-4.65
X3.3Y-4.7
X3.32Y-3.45
X3.33Y-3.23
X3.35Y-3.92
X3.36Y-3.39
X3.42Y-3.24
X3.42Y-3.59
X3.425Y-3.475
X3.425Y-4.15
X3.425Y-4.2
X3.425Y-4.95
X3.425Y-5.0
X3.43Y-4.65
X3.43Y-4.69
X3.45Y-4.875
X3.475Y-4.075
X3.49Y-3.39
X3.5Y-4.1
X3.5Y-4.15
X3.5Y-4.24
X3.5Y-4.34
X3.5Y-4.65
X3.5Y-4.69
X3.5Y-4.9
X3.5Y-4.95
X3.53Y-3.92
X3.55Y-4.65
X3.55Y-4.69
X3.59Y-3.45
X3.59Y-3.93
X3.6Y-3.41
X3.6292Y-4.6508
X3.6292Y-4.7008
X3.6292Y-4.7008
X3.6292Y-4.9792
X3.6383Y-4.1883
X3.6705Y-3.9513
X3.6705Y-4.0753
X3.68Y-3.39
X3.68Y-4.4
X3.68Y-4.87
X3.69Y-4.95
X3.7Y-4.65
X3.7Y-4.7
X3.7Y-5.03
X3.7204Y-3.3223
X3.75Y-3.3223
X3.75Y-3.3678
X3.75Y-3.95
X3.75Y-4.2486
X3.76Y-3.86
X3.76Y-4.65
X3.76Y-4.7
X3.825Y-3.025
X3.825Y-3.3678
X3.825Y-3.525
X3.85Y-2.975
X3.85Y-4.15
X3.85Y-4.2
X3.85Y-4.24
X3.85Y-4.95
X3.85Y-5.0
X3.8506Y-3.3495
X3.865Y-5.075
X3.875Y-3.2
X3.875Y-3.475
X3.875Y-3.525
X3.875Y-4.05
X3.8925Y-4.851
X3.9Y-4.025
X3.9Y-4.95
X3.91Y-5.03
X3.925Y-2.975
X3.925Y-3.2
X3.925Y-3.325
X3.925Y-3.55
X3.925Y-3.6
X3.925Y-3.65
X3.925Y-3.7
X3.925Y-3.75
X3.925Y-3.8
X3.925Y-4.4
X3.925Y-4.45
X3.925Y-4.5
X3.925Y-4.55
X3.925Y-4.6
X3.925Y-4.85
X3.94Y-4.65
X3.94Y-4.7
X3.9565Y-3.3678
X3.975Y-3.025
X3.975Y-3.5
X3.975Y-3.55
X3.9783Y-3.2846
X3.985Y-5.075
X3.99Y-4.65
X3.99Y-4.7
X4.0Y-3.4322
X4.0Y-3.525
X4.0007Y-3.048
X4.01Y-3.33
X4.0125Y-3.854
X4.03Y-4.67
X4.05Y-3.4322
X4.06Y-3.85
X4.06Y-4.19
X4.06Y-4.65
X4.06Y-4.7
X4.06Y-4.99
X4.075Y-5.075
X4.1Y-3.0
X4.1Y-3.35
X4.1Y-3.6
X4.1Y-3.9196
X4.1Y-4.075
X4.1Y-4.875
X4.125Y-4.725
X4.125Y-4.925
X4.135Y-3.365
X4.14Y-4.65
X4.155Y-5.075
X4.175Y-3.2
X4.18Y-4.69
X4.2Y-3.86
X4.21Y-4.65
X4.21Y-4.72
X4.235Y-5.075
X4.25Y-3.35
X4.25Y-3.525
X4.275Y-3.225
X4.275Y-3.2968
X4.275Y-4.15
X4.275Y-4.2
X4.275Y-4.95
X4.275Y-5.0
X4.2871Y-4.05
X4.3Y-3.025
X4.3Y-4.1
X4.3141Y-4.9
X4.315Y-5.075
X4.325Y-3.525
X4.325Y-4.075
X4.325Y-4.15
X4.33Y-5.03
X4.3497Y-4.5753
X4.35Y-3.3678
X4.35Y-3.625
X4.35Y-3.675
X4.35Y-3.725
X4.35Y-3.775
X4.35Y-4.025
X4.35Y-4.425
X4.35Y-4.475
X4.35Y-4.525
X4.35Y-4.75
X4.35Y-4.825
X4.35Y-4.95
X4.375Y-3.35
X4.38Y-3.03
X4.38Y-4.64
X4.38Y-4.69
X4.4Y-3.525
X4.405Y-5.075
X4.42Y-4.75
X4.425Y-3.35
X4.43Y-4.66
X4.46Y-4.71
X4.47Y-3.83
X4.4711Y-3.3186
X4.475Y-3.475
X4.48Y-3.03
X4.4892Y-4.1892
X4.4892Y-4.6608
X4.4892Y-4.7708
X4.4892Y-4.9858
X4.49Y-4.25
X4.495Y-5.075
X4.5Y-3.325
X4.52Y-4.27
X4.52Y-5.02
X4.525Y-3.5
X4.525Y-3.6
X4.525Y-3.85
X4.525Y-3.975
X4.525Y-4.2
X4.53Y-3.32
X4.53Y-4.82
X4.54Y-4.87
X4.54Y-4.98
X4.575Y-3.0
X4.58Y-3.1912
X4.58Y-3.26
X4.585Y-5.075
X4.6Y-3.95
X4.6Y-4.15
X4.62Y-4.67
X4.625Y-3.925
X4.63Y-3.03
X4.66Y-2.89
X4.66Y-2.97
X4.665Y-5.075
X4.69Y-3.04
X4.6953Y-4.8748
X4.7Y-4.575
X4.7Y-4.625
X4.7Y-4.68
X4.7Y-4.8
X4.72Y-3.31
X4.725Y-3.775
X4.725Y-4.15
X4.725Y-4.95
X4.725Y-5.0
X4.73Y-3.19
X4.73Y-3.48
X4.73Y-3.96
X4.735Y-5.065
X4.74Y-3.86
X4.75Y-3.59
X4.75Y-4.2
X4.7508Y-2.89
X4.7508Y-2.97
X4.76Y-4.1
X4.78Y-4.25
X4.78Y-4.75
X4.78Y-4.85
X4.88Y-3.85
X4.88Y-4.05
X4.88Y-4.65
X4.88Y-4.85
T2
X3.35Y-3.55
X3.35Y-4.325
X3.5636Y-3.55
X3.775Y-3.55
X3.775Y-4.325
X4.2Y-3.55
X4.2Y-4.325
X4.625Y-3.55
X4.625Y-4.325
T3
X3.175Y-3.3
X3.275Y-3.3
X3.375Y-3.3
X3.475Y-3.3
X3.575Y-3.3
X3.675Y-3.3
X3.8843Y-2.8102
X3.8843Y-3.1102
X3.9843Y-2.8102
X3.9843Y-3.1102
X4.0843Y-2.8102
X4.0843Y-3.1102
X4.1843Y-2.8102
X4.1843Y-3.1102
X4.2843Y-2.8102
X4.2843Y-3.1102
X4.3843Y-2.8102
X4.3843Y-3.1102
X4.4843Y-2.8102
X4.4843Y-3.1102
X4.5843Y-2.8102
X4.5843Y-3.1102
X4.6843Y-2.8102
X4.6843Y-3.1102
X4.7843Y-2.8102
X4.7843Y-3.1102
T4
X2.9Y-3.3
X2.9Y-3.4
X2.9Y-3.5
X2.9Y-3.6
X2.9Y-3.7
X2.9Y-3.8
X2.9Y-3.9
X2.9Y-4.0
X2.9Y-4.1
X2.9Y-4.2
X2.9Y-4.3
X2.9Y-4.4
X2.9Y-4.5
X2.9Y-4.6
X2.9Y-4.7
X2.9Y-4.8
X2.9Y-4.9
X2.9Y-5.0
X3.275Y-3.15
X3.375Y-3.15
X3.475Y-3.15
X3.575Y-3.15
X3.675Y-3.15
X4.8291Y-3.3
X4.8291Y-3.4
X4.8291Y-3.5
X4.8291Y-3.6
X4.8291Y-3.7
X4.8291Y-3.8
X4.8291Y-3.9
X4.8291Y-4.0
X4.8291Y-4.1
X4.8291Y-4.2
X4.8291Y-4.3
X4.8291Y-4.4
X4.8291Y-4.5
X4.8291Y-4.6
X4.8291Y-4.7
X4.8291Y-4.8
X4.8291Y-4.9
X4.8291Y-5.0
T0
M30
