%TF.GenerationSoftware,KiCad,Pcbnew,5.1.10*%
%TF.CreationDate,2021-12-22T00:08:39-07:00*%
%TF.ProjectId,Bondwell1MB,426f6e64-7765-46c6-9c31-4d422e6b6963,rev?*%
%TF.SameCoordinates,Original*%
%TF.FileFunction,Copper,L2,Bot*%
%TF.FilePolarity,Positive*%
%FSLAX46Y46*%
G04 Gerber Fmt 4.6, Leading zero omitted, Abs format (unit mm)*
G04 Created by KiCad (PCBNEW 5.1.10) date 2021-12-22 00:08:39*
%MOMM*%
%LPD*%
G01*
G04 APERTURE LIST*
%TA.AperFunction,EtchedComponent*%
%ADD10C,0.100000*%
%TD*%
%TA.AperFunction,ComponentPad*%
%ADD11O,1.700000X1.700000*%
%TD*%
%TA.AperFunction,ComponentPad*%
%ADD12R,1.700000X1.700000*%
%TD*%
%TA.AperFunction,ComponentPad*%
%ADD13O,1.600000X2.400000*%
%TD*%
%TA.AperFunction,ComponentPad*%
%ADD14R,1.600000X2.400000*%
%TD*%
%TA.AperFunction,ComponentPad*%
%ADD15O,1.600000X1.600000*%
%TD*%
%TA.AperFunction,ComponentPad*%
%ADD16R,1.600000X1.600000*%
%TD*%
%TA.AperFunction,SMDPad,CuDef*%
%ADD17C,0.100000*%
%TD*%
%TA.AperFunction,SMDPad,CuDef*%
%ADD18R,1.000000X1.500000*%
%TD*%
%TA.AperFunction,ViaPad*%
%ADD19C,1.000000*%
%TD*%
%TA.AperFunction,ViaPad*%
%ADD20C,0.600000*%
%TD*%
%TA.AperFunction,Conductor*%
%ADD21C,0.635000*%
%TD*%
%TA.AperFunction,Conductor*%
%ADD22C,0.381000*%
%TD*%
%TA.AperFunction,Conductor*%
%ADD23C,0.203200*%
%TD*%
%TA.AperFunction,Conductor*%
%ADD24C,0.152400*%
%TD*%
%TA.AperFunction,Conductor*%
%ADD25C,0.254000*%
%TD*%
%TA.AperFunction,Conductor*%
%ADD26C,0.100000*%
%TD*%
G04 APERTURE END LIST*
D10*
%TO.C,JR1*%
G36*
X89150000Y-87965000D02*
G01*
X88650000Y-87965000D01*
X88650000Y-88565000D01*
X89150000Y-88565000D01*
X89150000Y-87965000D01*
G37*
%TD*%
D11*
%TO.P,J1,5*%
%TO.N,Net-(J1-Pad5)*%
X83185000Y-80010000D03*
%TO.P,J1,4*%
%TO.N,Net-(J1-Pad4)*%
X85725000Y-80010000D03*
%TO.P,J1,3*%
%TO.N,Net-(J1-Pad3)*%
X88265000Y-80010000D03*
%TO.P,J1,2*%
%TO.N,Net-(J1-Pad2)*%
X90805000Y-80010000D03*
D12*
%TO.P,J1,1*%
%TO.N,Net-(J1-Pad1)*%
X93345000Y-80010000D03*
%TD*%
D13*
%TO.P,U5,20*%
%TO.N,VCC*%
X98660000Y-71380000D03*
%TO.P,U5,10*%
%TO.N,GND*%
X121520000Y-79000000D03*
%TO.P,U5,19*%
%TO.N,Net-(JP9-Pad1)*%
X101200000Y-71380000D03*
%TO.P,U5,9*%
%TO.N,Net-(J1-Pad3)*%
X118980000Y-79000000D03*
%TO.P,U5,18*%
%TO.N,Net-(JP10-Pad1)*%
X103740000Y-71380000D03*
%TO.P,U5,8*%
%TO.N,Net-(J1-Pad4)*%
X116440000Y-79000000D03*
%TO.P,U5,17*%
%TO.N,Net-(JP11-Pad1)*%
X106280000Y-71380000D03*
%TO.P,U5,7*%
%TO.N,/~WE*%
X113900000Y-79000000D03*
%TO.P,U5,16*%
%TO.N,Net-(JP12-Pad1)*%
X108820000Y-71380000D03*
%TO.P,U5,6*%
%TO.N,/UNK_J5_14*%
X111360000Y-79000000D03*
%TO.P,U5,15*%
%TO.N,Net-(JP13-Pad1)*%
X111360000Y-71380000D03*
%TO.P,U5,5*%
%TO.N,/UNK_J5_16*%
X108820000Y-79000000D03*
%TO.P,U5,14*%
%TO.N,Net-(JP14-Pad1)*%
X113900000Y-71380000D03*
%TO.P,U5,4*%
%TO.N,/UNK_J5_15*%
X106280000Y-79000000D03*
%TO.P,U5,13*%
%TO.N,Net-(JP15-Pad1)*%
X116440000Y-71380000D03*
%TO.P,U5,3*%
%TO.N,/UNK_J5_3*%
X103740000Y-79000000D03*
%TO.P,U5,12*%
%TO.N,Net-(J1-Pad1)*%
X118980000Y-71380000D03*
%TO.P,U5,2*%
%TO.N,/UNK_J6_17*%
X101200000Y-79000000D03*
%TO.P,U5,11*%
%TO.N,Net-(J1-Pad2)*%
X121520000Y-71380000D03*
D14*
%TO.P,U5,1*%
%TO.N,Net-(J1-Pad5)*%
X98660000Y-79000000D03*
%TD*%
D11*
%TO.P,J6,18*%
%TO.N,GND*%
X73660000Y-83820000D03*
%TO.P,J6,17*%
%TO.N,/UNK_J6_17*%
X73660000Y-86360000D03*
%TO.P,J6,16*%
%TO.N,/D3_IC1*%
X73660000Y-88900000D03*
%TO.P,J6,15*%
%TO.N,/D2_IC1*%
X73660000Y-91440000D03*
%TO.P,J6,14*%
%TO.N,/D1_IC1*%
X73660000Y-93980000D03*
%TO.P,J6,13*%
%TO.N,/D0_IC1*%
X73660000Y-96520000D03*
%TO.P,J6,12*%
%TO.N,/D3_IC2*%
X73660000Y-99060000D03*
%TO.P,J6,11*%
%TO.N,/D2_IC2*%
X73660000Y-101600000D03*
%TO.P,J6,10*%
%TO.N,/D1_IC2*%
X73660000Y-104140000D03*
%TO.P,J6,9*%
%TO.N,/D0_IC2*%
X73660000Y-106680000D03*
%TO.P,J6,8*%
%TO.N,/D3_IC3*%
X73660000Y-109220000D03*
%TO.P,J6,7*%
%TO.N,/D2_IC3*%
X73660000Y-111760000D03*
%TO.P,J6,6*%
%TO.N,/D1_IC3*%
X73660000Y-114300000D03*
%TO.P,J6,5*%
%TO.N,/D0_IC3*%
X73660000Y-116840000D03*
%TO.P,J6,4*%
%TO.N,/D3_IC4*%
X73660000Y-119380000D03*
%TO.P,J6,3*%
%TO.N,/D2_IC4*%
X73660000Y-121920000D03*
%TO.P,J6,2*%
%TO.N,/D1_IC4*%
X73660000Y-124460000D03*
D12*
%TO.P,J6,1*%
%TO.N,/D0_IC4*%
X73660000Y-127000000D03*
%TD*%
D15*
%TO.P,RN1,6*%
%TO.N,Net-(J1-Pad1)*%
X93345000Y-83820000D03*
%TO.P,RN1,5*%
%TO.N,Net-(J1-Pad2)*%
X90805000Y-83820000D03*
%TO.P,RN1,4*%
%TO.N,Net-(J1-Pad3)*%
X88265000Y-83820000D03*
%TO.P,RN1,3*%
%TO.N,Net-(J1-Pad4)*%
X85725000Y-83820000D03*
%TO.P,RN1,2*%
%TO.N,Net-(J1-Pad5)*%
X83185000Y-83820000D03*
D16*
%TO.P,RN1,1*%
%TO.N,GND*%
X80645000Y-83820000D03*
%TD*%
%TA.AperFunction,SMDPad,CuDef*%
D17*
%TO.P,15,2*%
%TO.N,/~RAS0*%
G36*
X116954398Y-74960000D02*
G01*
X116954398Y-74984534D01*
X116949588Y-75033365D01*
X116940016Y-75081490D01*
X116925772Y-75128445D01*
X116906995Y-75173778D01*
X116883864Y-75217051D01*
X116856604Y-75257850D01*
X116825476Y-75295779D01*
X116790779Y-75330476D01*
X116752850Y-75361604D01*
X116712051Y-75388864D01*
X116668778Y-75411995D01*
X116623445Y-75430772D01*
X116576490Y-75445016D01*
X116528365Y-75454588D01*
X116479534Y-75459398D01*
X116455000Y-75459398D01*
X116455000Y-75460000D01*
X115955000Y-75460000D01*
X115955000Y-75459398D01*
X115930466Y-75459398D01*
X115881635Y-75454588D01*
X115833510Y-75445016D01*
X115786555Y-75430772D01*
X115741222Y-75411995D01*
X115697949Y-75388864D01*
X115657150Y-75361604D01*
X115619221Y-75330476D01*
X115584524Y-75295779D01*
X115553396Y-75257850D01*
X115526136Y-75217051D01*
X115503005Y-75173778D01*
X115484228Y-75128445D01*
X115469984Y-75081490D01*
X115460412Y-75033365D01*
X115455602Y-74984534D01*
X115455602Y-74960000D01*
X115455000Y-74960000D01*
X115455000Y-74460000D01*
X116955000Y-74460000D01*
X116955000Y-74960000D01*
X116954398Y-74960000D01*
G37*
%TD.AperFunction*%
%TA.AperFunction,SMDPad,CuDef*%
%TO.P,15,1*%
%TO.N,Net-(JP15-Pad1)*%
G36*
X115455000Y-74160000D02*
G01*
X115455000Y-73660000D01*
X115455602Y-73660000D01*
X115455602Y-73635466D01*
X115460412Y-73586635D01*
X115469984Y-73538510D01*
X115484228Y-73491555D01*
X115503005Y-73446222D01*
X115526136Y-73402949D01*
X115553396Y-73362150D01*
X115584524Y-73324221D01*
X115619221Y-73289524D01*
X115657150Y-73258396D01*
X115697949Y-73231136D01*
X115741222Y-73208005D01*
X115786555Y-73189228D01*
X115833510Y-73174984D01*
X115881635Y-73165412D01*
X115930466Y-73160602D01*
X115955000Y-73160602D01*
X115955000Y-73160000D01*
X116455000Y-73160000D01*
X116455000Y-73160602D01*
X116479534Y-73160602D01*
X116528365Y-73165412D01*
X116576490Y-73174984D01*
X116623445Y-73189228D01*
X116668778Y-73208005D01*
X116712051Y-73231136D01*
X116752850Y-73258396D01*
X116790779Y-73289524D01*
X116825476Y-73324221D01*
X116856604Y-73362150D01*
X116883864Y-73402949D01*
X116906995Y-73446222D01*
X116925772Y-73491555D01*
X116940016Y-73538510D01*
X116949588Y-73586635D01*
X116954398Y-73635466D01*
X116954398Y-73660000D01*
X116955000Y-73660000D01*
X116955000Y-74160000D01*
X115455000Y-74160000D01*
G37*
%TD.AperFunction*%
%TD*%
%TA.AperFunction,SMDPad,CuDef*%
%TO.P,14,2*%
%TO.N,/~CAS0*%
G36*
X114414398Y-74960000D02*
G01*
X114414398Y-74984534D01*
X114409588Y-75033365D01*
X114400016Y-75081490D01*
X114385772Y-75128445D01*
X114366995Y-75173778D01*
X114343864Y-75217051D01*
X114316604Y-75257850D01*
X114285476Y-75295779D01*
X114250779Y-75330476D01*
X114212850Y-75361604D01*
X114172051Y-75388864D01*
X114128778Y-75411995D01*
X114083445Y-75430772D01*
X114036490Y-75445016D01*
X113988365Y-75454588D01*
X113939534Y-75459398D01*
X113915000Y-75459398D01*
X113915000Y-75460000D01*
X113415000Y-75460000D01*
X113415000Y-75459398D01*
X113390466Y-75459398D01*
X113341635Y-75454588D01*
X113293510Y-75445016D01*
X113246555Y-75430772D01*
X113201222Y-75411995D01*
X113157949Y-75388864D01*
X113117150Y-75361604D01*
X113079221Y-75330476D01*
X113044524Y-75295779D01*
X113013396Y-75257850D01*
X112986136Y-75217051D01*
X112963005Y-75173778D01*
X112944228Y-75128445D01*
X112929984Y-75081490D01*
X112920412Y-75033365D01*
X112915602Y-74984534D01*
X112915602Y-74960000D01*
X112915000Y-74960000D01*
X112915000Y-74460000D01*
X114415000Y-74460000D01*
X114415000Y-74960000D01*
X114414398Y-74960000D01*
G37*
%TD.AperFunction*%
%TA.AperFunction,SMDPad,CuDef*%
%TO.P,14,1*%
%TO.N,Net-(JP14-Pad1)*%
G36*
X112915000Y-74160000D02*
G01*
X112915000Y-73660000D01*
X112915602Y-73660000D01*
X112915602Y-73635466D01*
X112920412Y-73586635D01*
X112929984Y-73538510D01*
X112944228Y-73491555D01*
X112963005Y-73446222D01*
X112986136Y-73402949D01*
X113013396Y-73362150D01*
X113044524Y-73324221D01*
X113079221Y-73289524D01*
X113117150Y-73258396D01*
X113157949Y-73231136D01*
X113201222Y-73208005D01*
X113246555Y-73189228D01*
X113293510Y-73174984D01*
X113341635Y-73165412D01*
X113390466Y-73160602D01*
X113415000Y-73160602D01*
X113415000Y-73160000D01*
X113915000Y-73160000D01*
X113915000Y-73160602D01*
X113939534Y-73160602D01*
X113988365Y-73165412D01*
X114036490Y-73174984D01*
X114083445Y-73189228D01*
X114128778Y-73208005D01*
X114172051Y-73231136D01*
X114212850Y-73258396D01*
X114250779Y-73289524D01*
X114285476Y-73324221D01*
X114316604Y-73362150D01*
X114343864Y-73402949D01*
X114366995Y-73446222D01*
X114385772Y-73491555D01*
X114400016Y-73538510D01*
X114409588Y-73586635D01*
X114414398Y-73635466D01*
X114414398Y-73660000D01*
X114415000Y-73660000D01*
X114415000Y-74160000D01*
X112915000Y-74160000D01*
G37*
%TD.AperFunction*%
%TD*%
%TA.AperFunction,SMDPad,CuDef*%
%TO.P,13,2*%
%TO.N,/~CAS1*%
G36*
X111874398Y-74960000D02*
G01*
X111874398Y-74984534D01*
X111869588Y-75033365D01*
X111860016Y-75081490D01*
X111845772Y-75128445D01*
X111826995Y-75173778D01*
X111803864Y-75217051D01*
X111776604Y-75257850D01*
X111745476Y-75295779D01*
X111710779Y-75330476D01*
X111672850Y-75361604D01*
X111632051Y-75388864D01*
X111588778Y-75411995D01*
X111543445Y-75430772D01*
X111496490Y-75445016D01*
X111448365Y-75454588D01*
X111399534Y-75459398D01*
X111375000Y-75459398D01*
X111375000Y-75460000D01*
X110875000Y-75460000D01*
X110875000Y-75459398D01*
X110850466Y-75459398D01*
X110801635Y-75454588D01*
X110753510Y-75445016D01*
X110706555Y-75430772D01*
X110661222Y-75411995D01*
X110617949Y-75388864D01*
X110577150Y-75361604D01*
X110539221Y-75330476D01*
X110504524Y-75295779D01*
X110473396Y-75257850D01*
X110446136Y-75217051D01*
X110423005Y-75173778D01*
X110404228Y-75128445D01*
X110389984Y-75081490D01*
X110380412Y-75033365D01*
X110375602Y-74984534D01*
X110375602Y-74960000D01*
X110375000Y-74960000D01*
X110375000Y-74460000D01*
X111875000Y-74460000D01*
X111875000Y-74960000D01*
X111874398Y-74960000D01*
G37*
%TD.AperFunction*%
%TA.AperFunction,SMDPad,CuDef*%
%TO.P,13,1*%
%TO.N,Net-(JP13-Pad1)*%
G36*
X110375000Y-74160000D02*
G01*
X110375000Y-73660000D01*
X110375602Y-73660000D01*
X110375602Y-73635466D01*
X110380412Y-73586635D01*
X110389984Y-73538510D01*
X110404228Y-73491555D01*
X110423005Y-73446222D01*
X110446136Y-73402949D01*
X110473396Y-73362150D01*
X110504524Y-73324221D01*
X110539221Y-73289524D01*
X110577150Y-73258396D01*
X110617949Y-73231136D01*
X110661222Y-73208005D01*
X110706555Y-73189228D01*
X110753510Y-73174984D01*
X110801635Y-73165412D01*
X110850466Y-73160602D01*
X110875000Y-73160602D01*
X110875000Y-73160000D01*
X111375000Y-73160000D01*
X111375000Y-73160602D01*
X111399534Y-73160602D01*
X111448365Y-73165412D01*
X111496490Y-73174984D01*
X111543445Y-73189228D01*
X111588778Y-73208005D01*
X111632051Y-73231136D01*
X111672850Y-73258396D01*
X111710779Y-73289524D01*
X111745476Y-73324221D01*
X111776604Y-73362150D01*
X111803864Y-73402949D01*
X111826995Y-73446222D01*
X111845772Y-73491555D01*
X111860016Y-73538510D01*
X111869588Y-73586635D01*
X111874398Y-73635466D01*
X111874398Y-73660000D01*
X111875000Y-73660000D01*
X111875000Y-74160000D01*
X110375000Y-74160000D01*
G37*
%TD.AperFunction*%
%TD*%
%TA.AperFunction,SMDPad,CuDef*%
%TO.P,12,2*%
%TO.N,/A9*%
G36*
X109334398Y-74960000D02*
G01*
X109334398Y-74984534D01*
X109329588Y-75033365D01*
X109320016Y-75081490D01*
X109305772Y-75128445D01*
X109286995Y-75173778D01*
X109263864Y-75217051D01*
X109236604Y-75257850D01*
X109205476Y-75295779D01*
X109170779Y-75330476D01*
X109132850Y-75361604D01*
X109092051Y-75388864D01*
X109048778Y-75411995D01*
X109003445Y-75430772D01*
X108956490Y-75445016D01*
X108908365Y-75454588D01*
X108859534Y-75459398D01*
X108835000Y-75459398D01*
X108835000Y-75460000D01*
X108335000Y-75460000D01*
X108335000Y-75459398D01*
X108310466Y-75459398D01*
X108261635Y-75454588D01*
X108213510Y-75445016D01*
X108166555Y-75430772D01*
X108121222Y-75411995D01*
X108077949Y-75388864D01*
X108037150Y-75361604D01*
X107999221Y-75330476D01*
X107964524Y-75295779D01*
X107933396Y-75257850D01*
X107906136Y-75217051D01*
X107883005Y-75173778D01*
X107864228Y-75128445D01*
X107849984Y-75081490D01*
X107840412Y-75033365D01*
X107835602Y-74984534D01*
X107835602Y-74960000D01*
X107835000Y-74960000D01*
X107835000Y-74460000D01*
X109335000Y-74460000D01*
X109335000Y-74960000D01*
X109334398Y-74960000D01*
G37*
%TD.AperFunction*%
%TA.AperFunction,SMDPad,CuDef*%
%TO.P,12,1*%
%TO.N,Net-(JP12-Pad1)*%
G36*
X107835000Y-74160000D02*
G01*
X107835000Y-73660000D01*
X107835602Y-73660000D01*
X107835602Y-73635466D01*
X107840412Y-73586635D01*
X107849984Y-73538510D01*
X107864228Y-73491555D01*
X107883005Y-73446222D01*
X107906136Y-73402949D01*
X107933396Y-73362150D01*
X107964524Y-73324221D01*
X107999221Y-73289524D01*
X108037150Y-73258396D01*
X108077949Y-73231136D01*
X108121222Y-73208005D01*
X108166555Y-73189228D01*
X108213510Y-73174984D01*
X108261635Y-73165412D01*
X108310466Y-73160602D01*
X108335000Y-73160602D01*
X108335000Y-73160000D01*
X108835000Y-73160000D01*
X108835000Y-73160602D01*
X108859534Y-73160602D01*
X108908365Y-73165412D01*
X108956490Y-73174984D01*
X109003445Y-73189228D01*
X109048778Y-73208005D01*
X109092051Y-73231136D01*
X109132850Y-73258396D01*
X109170779Y-73289524D01*
X109205476Y-73324221D01*
X109236604Y-73362150D01*
X109263864Y-73402949D01*
X109286995Y-73446222D01*
X109305772Y-73491555D01*
X109320016Y-73538510D01*
X109329588Y-73586635D01*
X109334398Y-73635466D01*
X109334398Y-73660000D01*
X109335000Y-73660000D01*
X109335000Y-74160000D01*
X107835000Y-74160000D01*
G37*
%TD.AperFunction*%
%TD*%
%TA.AperFunction,SMDPad,CuDef*%
%TO.P,11,2*%
%TO.N,/~CAS2*%
G36*
X106794398Y-74960000D02*
G01*
X106794398Y-74984534D01*
X106789588Y-75033365D01*
X106780016Y-75081490D01*
X106765772Y-75128445D01*
X106746995Y-75173778D01*
X106723864Y-75217051D01*
X106696604Y-75257850D01*
X106665476Y-75295779D01*
X106630779Y-75330476D01*
X106592850Y-75361604D01*
X106552051Y-75388864D01*
X106508778Y-75411995D01*
X106463445Y-75430772D01*
X106416490Y-75445016D01*
X106368365Y-75454588D01*
X106319534Y-75459398D01*
X106295000Y-75459398D01*
X106295000Y-75460000D01*
X105795000Y-75460000D01*
X105795000Y-75459398D01*
X105770466Y-75459398D01*
X105721635Y-75454588D01*
X105673510Y-75445016D01*
X105626555Y-75430772D01*
X105581222Y-75411995D01*
X105537949Y-75388864D01*
X105497150Y-75361604D01*
X105459221Y-75330476D01*
X105424524Y-75295779D01*
X105393396Y-75257850D01*
X105366136Y-75217051D01*
X105343005Y-75173778D01*
X105324228Y-75128445D01*
X105309984Y-75081490D01*
X105300412Y-75033365D01*
X105295602Y-74984534D01*
X105295602Y-74960000D01*
X105295000Y-74960000D01*
X105295000Y-74460000D01*
X106795000Y-74460000D01*
X106795000Y-74960000D01*
X106794398Y-74960000D01*
G37*
%TD.AperFunction*%
%TA.AperFunction,SMDPad,CuDef*%
%TO.P,11,1*%
%TO.N,Net-(JP11-Pad1)*%
G36*
X105295000Y-74160000D02*
G01*
X105295000Y-73660000D01*
X105295602Y-73660000D01*
X105295602Y-73635466D01*
X105300412Y-73586635D01*
X105309984Y-73538510D01*
X105324228Y-73491555D01*
X105343005Y-73446222D01*
X105366136Y-73402949D01*
X105393396Y-73362150D01*
X105424524Y-73324221D01*
X105459221Y-73289524D01*
X105497150Y-73258396D01*
X105537949Y-73231136D01*
X105581222Y-73208005D01*
X105626555Y-73189228D01*
X105673510Y-73174984D01*
X105721635Y-73165412D01*
X105770466Y-73160602D01*
X105795000Y-73160602D01*
X105795000Y-73160000D01*
X106295000Y-73160000D01*
X106295000Y-73160602D01*
X106319534Y-73160602D01*
X106368365Y-73165412D01*
X106416490Y-73174984D01*
X106463445Y-73189228D01*
X106508778Y-73208005D01*
X106552051Y-73231136D01*
X106592850Y-73258396D01*
X106630779Y-73289524D01*
X106665476Y-73324221D01*
X106696604Y-73362150D01*
X106723864Y-73402949D01*
X106746995Y-73446222D01*
X106765772Y-73491555D01*
X106780016Y-73538510D01*
X106789588Y-73586635D01*
X106794398Y-73635466D01*
X106794398Y-73660000D01*
X106795000Y-73660000D01*
X106795000Y-74160000D01*
X105295000Y-74160000D01*
G37*
%TD.AperFunction*%
%TD*%
%TA.AperFunction,SMDPad,CuDef*%
%TO.P,10,2*%
%TO.N,/~CAS3*%
G36*
X104254398Y-74960000D02*
G01*
X104254398Y-74984534D01*
X104249588Y-75033365D01*
X104240016Y-75081490D01*
X104225772Y-75128445D01*
X104206995Y-75173778D01*
X104183864Y-75217051D01*
X104156604Y-75257850D01*
X104125476Y-75295779D01*
X104090779Y-75330476D01*
X104052850Y-75361604D01*
X104012051Y-75388864D01*
X103968778Y-75411995D01*
X103923445Y-75430772D01*
X103876490Y-75445016D01*
X103828365Y-75454588D01*
X103779534Y-75459398D01*
X103755000Y-75459398D01*
X103755000Y-75460000D01*
X103255000Y-75460000D01*
X103255000Y-75459398D01*
X103230466Y-75459398D01*
X103181635Y-75454588D01*
X103133510Y-75445016D01*
X103086555Y-75430772D01*
X103041222Y-75411995D01*
X102997949Y-75388864D01*
X102957150Y-75361604D01*
X102919221Y-75330476D01*
X102884524Y-75295779D01*
X102853396Y-75257850D01*
X102826136Y-75217051D01*
X102803005Y-75173778D01*
X102784228Y-75128445D01*
X102769984Y-75081490D01*
X102760412Y-75033365D01*
X102755602Y-74984534D01*
X102755602Y-74960000D01*
X102755000Y-74960000D01*
X102755000Y-74460000D01*
X104255000Y-74460000D01*
X104255000Y-74960000D01*
X104254398Y-74960000D01*
G37*
%TD.AperFunction*%
%TA.AperFunction,SMDPad,CuDef*%
%TO.P,10,1*%
%TO.N,Net-(JP10-Pad1)*%
G36*
X102755000Y-74160000D02*
G01*
X102755000Y-73660000D01*
X102755602Y-73660000D01*
X102755602Y-73635466D01*
X102760412Y-73586635D01*
X102769984Y-73538510D01*
X102784228Y-73491555D01*
X102803005Y-73446222D01*
X102826136Y-73402949D01*
X102853396Y-73362150D01*
X102884524Y-73324221D01*
X102919221Y-73289524D01*
X102957150Y-73258396D01*
X102997949Y-73231136D01*
X103041222Y-73208005D01*
X103086555Y-73189228D01*
X103133510Y-73174984D01*
X103181635Y-73165412D01*
X103230466Y-73160602D01*
X103255000Y-73160602D01*
X103255000Y-73160000D01*
X103755000Y-73160000D01*
X103755000Y-73160602D01*
X103779534Y-73160602D01*
X103828365Y-73165412D01*
X103876490Y-73174984D01*
X103923445Y-73189228D01*
X103968778Y-73208005D01*
X104012051Y-73231136D01*
X104052850Y-73258396D01*
X104090779Y-73289524D01*
X104125476Y-73324221D01*
X104156604Y-73362150D01*
X104183864Y-73402949D01*
X104206995Y-73446222D01*
X104225772Y-73491555D01*
X104240016Y-73538510D01*
X104249588Y-73586635D01*
X104254398Y-73635466D01*
X104254398Y-73660000D01*
X104255000Y-73660000D01*
X104255000Y-74160000D01*
X102755000Y-74160000D01*
G37*
%TD.AperFunction*%
%TD*%
%TA.AperFunction,SMDPad,CuDef*%
%TO.P,9,2*%
%TO.N,/~RAS1*%
G36*
X101714398Y-74945000D02*
G01*
X101714398Y-74969534D01*
X101709588Y-75018365D01*
X101700016Y-75066490D01*
X101685772Y-75113445D01*
X101666995Y-75158778D01*
X101643864Y-75202051D01*
X101616604Y-75242850D01*
X101585476Y-75280779D01*
X101550779Y-75315476D01*
X101512850Y-75346604D01*
X101472051Y-75373864D01*
X101428778Y-75396995D01*
X101383445Y-75415772D01*
X101336490Y-75430016D01*
X101288365Y-75439588D01*
X101239534Y-75444398D01*
X101215000Y-75444398D01*
X101215000Y-75445000D01*
X100715000Y-75445000D01*
X100715000Y-75444398D01*
X100690466Y-75444398D01*
X100641635Y-75439588D01*
X100593510Y-75430016D01*
X100546555Y-75415772D01*
X100501222Y-75396995D01*
X100457949Y-75373864D01*
X100417150Y-75346604D01*
X100379221Y-75315476D01*
X100344524Y-75280779D01*
X100313396Y-75242850D01*
X100286136Y-75202051D01*
X100263005Y-75158778D01*
X100244228Y-75113445D01*
X100229984Y-75066490D01*
X100220412Y-75018365D01*
X100215602Y-74969534D01*
X100215602Y-74945000D01*
X100215000Y-74945000D01*
X100215000Y-74445000D01*
X101715000Y-74445000D01*
X101715000Y-74945000D01*
X101714398Y-74945000D01*
G37*
%TD.AperFunction*%
%TA.AperFunction,SMDPad,CuDef*%
%TO.P,9,1*%
%TO.N,Net-(JP9-Pad1)*%
G36*
X100215000Y-74145000D02*
G01*
X100215000Y-73645000D01*
X100215602Y-73645000D01*
X100215602Y-73620466D01*
X100220412Y-73571635D01*
X100229984Y-73523510D01*
X100244228Y-73476555D01*
X100263005Y-73431222D01*
X100286136Y-73387949D01*
X100313396Y-73347150D01*
X100344524Y-73309221D01*
X100379221Y-73274524D01*
X100417150Y-73243396D01*
X100457949Y-73216136D01*
X100501222Y-73193005D01*
X100546555Y-73174228D01*
X100593510Y-73159984D01*
X100641635Y-73150412D01*
X100690466Y-73145602D01*
X100715000Y-73145602D01*
X100715000Y-73145000D01*
X101215000Y-73145000D01*
X101215000Y-73145602D01*
X101239534Y-73145602D01*
X101288365Y-73150412D01*
X101336490Y-73159984D01*
X101383445Y-73174228D01*
X101428778Y-73193005D01*
X101472051Y-73216136D01*
X101512850Y-73243396D01*
X101550779Y-73274524D01*
X101585476Y-73309221D01*
X101616604Y-73347150D01*
X101643864Y-73387949D01*
X101666995Y-73431222D01*
X101685772Y-73476555D01*
X101700016Y-73523510D01*
X101709588Y-73571635D01*
X101714398Y-73620466D01*
X101714398Y-73645000D01*
X101715000Y-73645000D01*
X101715000Y-74145000D01*
X100215000Y-74145000D01*
G37*
%TD.AperFunction*%
%TD*%
D18*
%TO.P,JR1,2*%
%TO.N,/~RAS1*%
X88250000Y-88265000D03*
%TO.P,JR1,1*%
%TO.N,/~RAS0*%
X89550000Y-88265000D03*
%TD*%
D11*
%TO.P,J5,18*%
%TO.N,GND*%
X122660000Y-83820000D03*
%TO.P,J5,17*%
%TO.N,VCC*%
X122660000Y-86360000D03*
%TO.P,J5,16*%
%TO.N,/UNK_J5_16*%
X122660000Y-88900000D03*
%TO.P,J5,15*%
%TO.N,/UNK_J5_15*%
X122660000Y-91440000D03*
%TO.P,J5,14*%
%TO.N,/UNK_J5_14*%
X122660000Y-93980000D03*
%TO.P,J5,13*%
%TO.N,/~WE*%
X122660000Y-96520000D03*
%TO.P,J5,12*%
%TO.N,/A8*%
X122660000Y-99060000D03*
%TO.P,J5,11*%
%TO.N,/A7*%
X122660000Y-101600000D03*
%TO.P,J5,10*%
%TO.N,/A6*%
X122660000Y-104140000D03*
%TO.P,J5,9*%
%TO.N,/A5*%
X122660000Y-106680000D03*
%TO.P,J5,8*%
%TO.N,/A4*%
X122660000Y-109220000D03*
%TO.P,J5,7*%
%TO.N,/A3*%
X122660000Y-111760000D03*
%TO.P,J5,6*%
%TO.N,/A2*%
X122660000Y-114300000D03*
%TO.P,J5,5*%
%TO.N,/A1*%
X122660000Y-116840000D03*
%TO.P,J5,4*%
%TO.N,/A0*%
X122660000Y-119380000D03*
%TO.P,J5,3*%
%TO.N,/UNK_J5_3*%
X122660000Y-121920000D03*
%TO.P,J5,2*%
%TO.N,VCC*%
X122660000Y-124460000D03*
D12*
%TO.P,J5,1*%
%TO.N,GND*%
X122660000Y-127000000D03*
%TD*%
%TO.P,C9,2*%
%TO.N,VCC*%
%TA.AperFunction,SMDPad,CuDef*%
G36*
G01*
X115512000Y-110457000D02*
X115512000Y-109507000D01*
G75*
G02*
X115762000Y-109257000I250000J0D01*
G01*
X116437000Y-109257000D01*
G75*
G02*
X116687000Y-109507000I0J-250000D01*
G01*
X116687000Y-110457000D01*
G75*
G02*
X116437000Y-110707000I-250000J0D01*
G01*
X115762000Y-110707000D01*
G75*
G02*
X115512000Y-110457000I0J250000D01*
G01*
G37*
%TD.AperFunction*%
%TO.P,C9,1*%
%TO.N,GND*%
%TA.AperFunction,SMDPad,CuDef*%
G36*
G01*
X113437000Y-110457000D02*
X113437000Y-109507000D01*
G75*
G02*
X113687000Y-109257000I250000J0D01*
G01*
X114362000Y-109257000D01*
G75*
G02*
X114612000Y-109507000I0J-250000D01*
G01*
X114612000Y-110457000D01*
G75*
G02*
X114362000Y-110707000I-250000J0D01*
G01*
X113687000Y-110707000D01*
G75*
G02*
X113437000Y-110457000I0J250000D01*
G01*
G37*
%TD.AperFunction*%
%TD*%
%TO.P,C8,2*%
%TO.N,VCC*%
%TA.AperFunction,SMDPad,CuDef*%
G36*
G01*
X93668000Y-110457000D02*
X93668000Y-109507000D01*
G75*
G02*
X93918000Y-109257000I250000J0D01*
G01*
X94593000Y-109257000D01*
G75*
G02*
X94843000Y-109507000I0J-250000D01*
G01*
X94843000Y-110457000D01*
G75*
G02*
X94593000Y-110707000I-250000J0D01*
G01*
X93918000Y-110707000D01*
G75*
G02*
X93668000Y-110457000I0J250000D01*
G01*
G37*
%TD.AperFunction*%
%TO.P,C8,1*%
%TO.N,GND*%
%TA.AperFunction,SMDPad,CuDef*%
G36*
G01*
X91593000Y-110457000D02*
X91593000Y-109507000D01*
G75*
G02*
X91843000Y-109257000I250000J0D01*
G01*
X92518000Y-109257000D01*
G75*
G02*
X92768000Y-109507000I0J-250000D01*
G01*
X92768000Y-110457000D01*
G75*
G02*
X92518000Y-110707000I-250000J0D01*
G01*
X91843000Y-110707000D01*
G75*
G02*
X91593000Y-110457000I0J250000D01*
G01*
G37*
%TD.AperFunction*%
%TD*%
%TO.P,C7,2*%
%TO.N,VCC*%
%TA.AperFunction,SMDPad,CuDef*%
G36*
G01*
X115279500Y-90645000D02*
X115279500Y-89695000D01*
G75*
G02*
X115529500Y-89445000I250000J0D01*
G01*
X116204500Y-89445000D01*
G75*
G02*
X116454500Y-89695000I0J-250000D01*
G01*
X116454500Y-90645000D01*
G75*
G02*
X116204500Y-90895000I-250000J0D01*
G01*
X115529500Y-90895000D01*
G75*
G02*
X115279500Y-90645000I0J250000D01*
G01*
G37*
%TD.AperFunction*%
%TO.P,C7,1*%
%TO.N,GND*%
%TA.AperFunction,SMDPad,CuDef*%
G36*
G01*
X113204500Y-90645000D02*
X113204500Y-89695000D01*
G75*
G02*
X113454500Y-89445000I250000J0D01*
G01*
X114129500Y-89445000D01*
G75*
G02*
X114379500Y-89695000I0J-250000D01*
G01*
X114379500Y-90645000D01*
G75*
G02*
X114129500Y-90895000I-250000J0D01*
G01*
X113454500Y-90895000D01*
G75*
G02*
X113204500Y-90645000I0J250000D01*
G01*
G37*
%TD.AperFunction*%
%TD*%
%TO.P,C6,2*%
%TO.N,VCC*%
%TA.AperFunction,SMDPad,CuDef*%
G36*
G01*
X93900500Y-90645000D02*
X93900500Y-89695000D01*
G75*
G02*
X94150500Y-89445000I250000J0D01*
G01*
X94825500Y-89445000D01*
G75*
G02*
X95075500Y-89695000I0J-250000D01*
G01*
X95075500Y-90645000D01*
G75*
G02*
X94825500Y-90895000I-250000J0D01*
G01*
X94150500Y-90895000D01*
G75*
G02*
X93900500Y-90645000I0J250000D01*
G01*
G37*
%TD.AperFunction*%
%TO.P,C6,1*%
%TO.N,GND*%
%TA.AperFunction,SMDPad,CuDef*%
G36*
G01*
X91825500Y-90645000D02*
X91825500Y-89695000D01*
G75*
G02*
X92075500Y-89445000I250000J0D01*
G01*
X92750500Y-89445000D01*
G75*
G02*
X93000500Y-89695000I0J-250000D01*
G01*
X93000500Y-90645000D01*
G75*
G02*
X92750500Y-90895000I-250000J0D01*
G01*
X92075500Y-90895000D01*
G75*
G02*
X91825500Y-90645000I0J250000D01*
G01*
G37*
%TD.AperFunction*%
%TD*%
%TO.P,C5,2*%
%TO.N,VCC*%
%TA.AperFunction,SMDPad,CuDef*%
G36*
G01*
X104611500Y-110457000D02*
X104611500Y-109507000D01*
G75*
G02*
X104861500Y-109257000I250000J0D01*
G01*
X105536500Y-109257000D01*
G75*
G02*
X105786500Y-109507000I0J-250000D01*
G01*
X105786500Y-110457000D01*
G75*
G02*
X105536500Y-110707000I-250000J0D01*
G01*
X104861500Y-110707000D01*
G75*
G02*
X104611500Y-110457000I0J250000D01*
G01*
G37*
%TD.AperFunction*%
%TO.P,C5,1*%
%TO.N,GND*%
%TA.AperFunction,SMDPad,CuDef*%
G36*
G01*
X102536500Y-110457000D02*
X102536500Y-109507000D01*
G75*
G02*
X102786500Y-109257000I250000J0D01*
G01*
X103461500Y-109257000D01*
G75*
G02*
X103711500Y-109507000I0J-250000D01*
G01*
X103711500Y-110457000D01*
G75*
G02*
X103461500Y-110707000I-250000J0D01*
G01*
X102786500Y-110707000D01*
G75*
G02*
X102536500Y-110457000I0J250000D01*
G01*
G37*
%TD.AperFunction*%
%TD*%
%TO.P,C4,2*%
%TO.N,VCC*%
%TA.AperFunction,SMDPad,CuDef*%
G36*
G01*
X82978500Y-110457000D02*
X82978500Y-109507000D01*
G75*
G02*
X83228500Y-109257000I250000J0D01*
G01*
X83903500Y-109257000D01*
G75*
G02*
X84153500Y-109507000I0J-250000D01*
G01*
X84153500Y-110457000D01*
G75*
G02*
X83903500Y-110707000I-250000J0D01*
G01*
X83228500Y-110707000D01*
G75*
G02*
X82978500Y-110457000I0J250000D01*
G01*
G37*
%TD.AperFunction*%
%TO.P,C4,1*%
%TO.N,GND*%
%TA.AperFunction,SMDPad,CuDef*%
G36*
G01*
X80903500Y-110457000D02*
X80903500Y-109507000D01*
G75*
G02*
X81153500Y-109257000I250000J0D01*
G01*
X81828500Y-109257000D01*
G75*
G02*
X82078500Y-109507000I0J-250000D01*
G01*
X82078500Y-110457000D01*
G75*
G02*
X81828500Y-110707000I-250000J0D01*
G01*
X81153500Y-110707000D01*
G75*
G02*
X80903500Y-110457000I0J250000D01*
G01*
G37*
%TD.AperFunction*%
%TD*%
%TO.P,C3,2*%
%TO.N,VCC*%
%TA.AperFunction,SMDPad,CuDef*%
G36*
G01*
X104568500Y-90645000D02*
X104568500Y-89695000D01*
G75*
G02*
X104818500Y-89445000I250000J0D01*
G01*
X105493500Y-89445000D01*
G75*
G02*
X105743500Y-89695000I0J-250000D01*
G01*
X105743500Y-90645000D01*
G75*
G02*
X105493500Y-90895000I-250000J0D01*
G01*
X104818500Y-90895000D01*
G75*
G02*
X104568500Y-90645000I0J250000D01*
G01*
G37*
%TD.AperFunction*%
%TO.P,C3,1*%
%TO.N,GND*%
%TA.AperFunction,SMDPad,CuDef*%
G36*
G01*
X102493500Y-90645000D02*
X102493500Y-89695000D01*
G75*
G02*
X102743500Y-89445000I250000J0D01*
G01*
X103418500Y-89445000D01*
G75*
G02*
X103668500Y-89695000I0J-250000D01*
G01*
X103668500Y-90645000D01*
G75*
G02*
X103418500Y-90895000I-250000J0D01*
G01*
X102743500Y-90895000D01*
G75*
G02*
X102493500Y-90645000I0J250000D01*
G01*
G37*
%TD.AperFunction*%
%TD*%
%TO.P,C2,2*%
%TO.N,VCC*%
%TA.AperFunction,SMDPad,CuDef*%
G36*
G01*
X83021500Y-90645000D02*
X83021500Y-89695000D01*
G75*
G02*
X83271500Y-89445000I250000J0D01*
G01*
X83946500Y-89445000D01*
G75*
G02*
X84196500Y-89695000I0J-250000D01*
G01*
X84196500Y-90645000D01*
G75*
G02*
X83946500Y-90895000I-250000J0D01*
G01*
X83271500Y-90895000D01*
G75*
G02*
X83021500Y-90645000I0J250000D01*
G01*
G37*
%TD.AperFunction*%
%TO.P,C2,1*%
%TO.N,GND*%
%TA.AperFunction,SMDPad,CuDef*%
G36*
G01*
X80946500Y-90645000D02*
X80946500Y-89695000D01*
G75*
G02*
X81196500Y-89445000I250000J0D01*
G01*
X81871500Y-89445000D01*
G75*
G02*
X82121500Y-89695000I0J-250000D01*
G01*
X82121500Y-90645000D01*
G75*
G02*
X81871500Y-90895000I-250000J0D01*
G01*
X81196500Y-90895000D01*
G75*
G02*
X80946500Y-90645000I0J250000D01*
G01*
G37*
%TD.AperFunction*%
%TD*%
%TO.P,C1,2*%
%TO.N,VCC*%
%TA.AperFunction,SMDPad,CuDef*%
G36*
G01*
X122395000Y-74882500D02*
X121445000Y-74882500D01*
G75*
G02*
X121195000Y-74632500I0J250000D01*
G01*
X121195000Y-73957500D01*
G75*
G02*
X121445000Y-73707500I250000J0D01*
G01*
X122395000Y-73707500D01*
G75*
G02*
X122645000Y-73957500I0J-250000D01*
G01*
X122645000Y-74632500D01*
G75*
G02*
X122395000Y-74882500I-250000J0D01*
G01*
G37*
%TD.AperFunction*%
%TO.P,C1,1*%
%TO.N,GND*%
%TA.AperFunction,SMDPad,CuDef*%
G36*
G01*
X122395000Y-76957500D02*
X121445000Y-76957500D01*
G75*
G02*
X121195000Y-76707500I0J250000D01*
G01*
X121195000Y-76032500D01*
G75*
G02*
X121445000Y-75782500I250000J0D01*
G01*
X122395000Y-75782500D01*
G75*
G02*
X122645000Y-76032500I0J-250000D01*
G01*
X122645000Y-76707500D01*
G75*
G02*
X122395000Y-76957500I-250000J0D01*
G01*
G37*
%TD.AperFunction*%
%TD*%
D19*
%TO.N,VCC*%
X85090000Y-109855000D03*
X95885000Y-109855000D03*
X106680000Y-109855000D03*
X117475000Y-109855000D03*
X85090000Y-90170000D03*
X95885000Y-90170000D03*
X106680000Y-90170000D03*
X117475000Y-90170000D03*
X90515074Y-90170000D03*
D20*
X119260000Y-123820000D03*
%TO.N,GND*%
X114024500Y-106404500D03*
X103124000Y-106426000D03*
X92413000Y-106383000D03*
X81534000Y-106299000D03*
X92180500Y-126470500D03*
X103124000Y-126746000D03*
X114024500Y-126640500D03*
X81491000Y-126789000D03*
X111760000Y-89535000D03*
X112395000Y-85090000D03*
X116332000Y-82804000D03*
X119888000Y-84074000D03*
X123952000Y-97790000D03*
X123952000Y-102870000D03*
X123952000Y-118110000D03*
X123952000Y-123190000D03*
X111252000Y-117856000D03*
X111252000Y-119126000D03*
X112268000Y-120650000D03*
X112522000Y-118364000D03*
X114024500Y-118385500D03*
X113284000Y-119634000D03*
X100076000Y-118110000D03*
X100076000Y-119380000D03*
X101346000Y-118110000D03*
X101346000Y-119380000D03*
X103124000Y-118110000D03*
X103124000Y-119380000D03*
X102362000Y-118618000D03*
X105156000Y-118110000D03*
X106172000Y-119126000D03*
X106934000Y-118110000D03*
X106934000Y-119888000D03*
X92180500Y-118131500D03*
X93980000Y-118110000D03*
X95504000Y-118110000D03*
X95504000Y-119380000D03*
X93980000Y-119380000D03*
X92180500Y-119401500D03*
X83820000Y-118110000D03*
X83820000Y-119380000D03*
X81491000Y-118153000D03*
X81491000Y-119423000D03*
X78740000Y-118110000D03*
X78740000Y-119380000D03*
X77470000Y-118110000D03*
X77470000Y-119380000D03*
X77470000Y-121412000D03*
X77470000Y-123190000D03*
X76454000Y-122428000D03*
X76200000Y-127254000D03*
X77724000Y-127254000D03*
X81491000Y-124249000D03*
X83312000Y-124206000D03*
X82550000Y-123190000D03*
X82550000Y-124460000D03*
X93472000Y-123698000D03*
X93726000Y-125730000D03*
X93980000Y-127762000D03*
X98171000Y-128905000D03*
X99314000Y-127762000D03*
X101219000Y-128905000D03*
X103505000Y-128905000D03*
X105537000Y-128905000D03*
X107569000Y-128905000D03*
X109601000Y-128905000D03*
X111887000Y-128905000D03*
X114173000Y-128905000D03*
X116459000Y-128905000D03*
X118491000Y-128905000D03*
X120269000Y-128651000D03*
X115316000Y-126492000D03*
X114808000Y-127508000D03*
X109982000Y-127762000D03*
X72136000Y-113030000D03*
X72136000Y-107950000D03*
X72136000Y-102870000D03*
X72136000Y-100330000D03*
X72136000Y-105410000D03*
X72136000Y-97790000D03*
X72136000Y-95250000D03*
X72136000Y-92710000D03*
X72136000Y-90170000D03*
X72136000Y-87630000D03*
X72136000Y-85090000D03*
X72136000Y-81788000D03*
X73660000Y-81788000D03*
X75184000Y-81788000D03*
X75692000Y-86106000D03*
X77089000Y-85725000D03*
X79756000Y-86106000D03*
X81534000Y-86106000D03*
X83312000Y-86106000D03*
X85344000Y-86106000D03*
X84328000Y-87630000D03*
X82296000Y-87630000D03*
X80518000Y-87630000D03*
X76962000Y-81788000D03*
X78740000Y-81788000D03*
X80772000Y-81788000D03*
X80772000Y-80264000D03*
X78740000Y-80264000D03*
X76962000Y-80264000D03*
X75184000Y-80264000D03*
X73660000Y-80264000D03*
X72136000Y-80264000D03*
X72898000Y-79248000D03*
X74422000Y-79248000D03*
X75946000Y-79248000D03*
X77724000Y-79248000D03*
X79756000Y-79248000D03*
X84582000Y-82042000D03*
X82042000Y-81788000D03*
X86868000Y-82296000D03*
X91440000Y-86614000D03*
X91186000Y-87630000D03*
X88646000Y-86106000D03*
X86868000Y-91186000D03*
X82296000Y-92710000D03*
X82296000Y-93980000D03*
X82296000Y-95250000D03*
X82296000Y-96520000D03*
X78486000Y-99822000D03*
X79756000Y-99822000D03*
X85090000Y-99568000D03*
X89662000Y-99568000D03*
X91186000Y-99822000D03*
X103124000Y-97790000D03*
X106680000Y-98044000D03*
X113538000Y-97282000D03*
X117348000Y-118618000D03*
X119380000Y-118872000D03*
X121412000Y-120650000D03*
X121412000Y-123190000D03*
X115062000Y-122428000D03*
X115316000Y-123698000D03*
X87122000Y-118110000D03*
X87122000Y-119126000D03*
X88900000Y-119126000D03*
X88900000Y-118110000D03*
X90170000Y-118110000D03*
X90170000Y-119126000D03*
X92180500Y-119401500D03*
X78994000Y-110490000D03*
X77216000Y-114554000D03*
X74930000Y-115570000D03*
X74930000Y-118110000D03*
X95504000Y-98044000D03*
X88900000Y-107696000D03*
X88900000Y-110236000D03*
X93472000Y-111760000D03*
X120396000Y-98044000D03*
X120650000Y-91186000D03*
X120142000Y-88392000D03*
X120142000Y-100584000D03*
X120904000Y-104140000D03*
X121412000Y-107950000D03*
X120670600Y-75438000D03*
X118364000Y-75438000D03*
X118364000Y-73406000D03*
X120670600Y-73406000D03*
X117602000Y-76962000D03*
X113792000Y-76962000D03*
X111252000Y-76962000D03*
X101854000Y-84582000D03*
X114024500Y-121179500D03*
X114046000Y-107950000D03*
X114808000Y-108458000D03*
X76200000Y-99809400D03*
X76200000Y-94996000D03*
X76200000Y-92456000D03*
X76200000Y-89662000D03*
%TO.N,Net-(J1-Pad4)*%
X98425000Y-81280000D03*
X100965000Y-76835000D03*
X116205000Y-76200000D03*
%TO.N,Net-(J1-Pad3)*%
X116332000Y-81055610D03*
%TO.N,Net-(J1-Pad2)*%
X120142000Y-81026000D03*
%TO.N,Net-(J1-Pad1)*%
X119126000Y-77216000D03*
%TO.N,/UNK_J5_16*%
X108585000Y-81915000D03*
X108585000Y-83737699D03*
X94497597Y-84386899D03*
X93472000Y-86106000D03*
%TO.N,/UNK_J5_15*%
X101918656Y-97892864D03*
X100965000Y-90170000D03*
X100965000Y-88900000D03*
X98425000Y-88265000D03*
X99695000Y-84455000D03*
X99695000Y-81280000D03*
X106045000Y-81280000D03*
%TO.N,/UNK_J5_14*%
X111125000Y-85090000D03*
%TO.N,/~WE*%
X114300000Y-84455000D03*
X114935000Y-91440000D03*
X114935000Y-97790000D03*
X120015000Y-95885000D03*
%TO.N,/A8*%
X99695000Y-96520000D03*
X99695000Y-116840000D03*
X119380000Y-117475000D03*
%TO.N,/A7*%
X99695000Y-95250000D03*
X99695000Y-115570000D03*
X119380000Y-116205000D03*
%TO.N,/A6*%
X99695000Y-93980000D03*
X99695000Y-114300000D03*
%TO.N,/A5*%
X99695000Y-92710000D03*
X99695000Y-113030000D03*
%TO.N,/A4*%
X99695000Y-91440000D03*
X99695000Y-111760000D03*
%TO.N,/A3*%
X110490000Y-92075000D03*
X110490000Y-112395000D03*
%TO.N,/A2*%
X110490000Y-93345000D03*
X110490000Y-113665000D03*
%TO.N,/A1*%
X110490000Y-94615000D03*
X110490000Y-114935000D03*
%TO.N,/A0*%
X110490000Y-95885000D03*
X110482001Y-116212999D03*
%TO.N,/UNK_J5_3*%
X104140000Y-91440000D03*
X104140000Y-99556980D03*
X117475000Y-99695000D03*
X119380000Y-121920000D03*
X104140000Y-85090000D03*
%TO.N,/UNK_J6_17*%
X95250000Y-85542499D03*
X105029000Y-85471000D03*
X101049003Y-83428127D03*
X95250000Y-84386899D03*
%TO.N,/D3_IC1*%
X109855000Y-105410000D03*
X110490000Y-125730000D03*
X76835000Y-104775000D03*
X76835000Y-110490000D03*
X76200000Y-120015000D03*
X104775000Y-120015000D03*
X104775000Y-125095000D03*
%TO.N,/D2_IC1*%
X109220000Y-104140000D03*
X109577432Y-124460001D03*
X75565000Y-104775000D03*
X75565000Y-110490000D03*
X75565000Y-120650000D03*
X110490000Y-120650000D03*
%TO.N,/D1_IC1*%
X120015000Y-105410000D03*
X120015000Y-125730000D03*
X116840000Y-100330000D03*
X116840000Y-105410000D03*
%TO.N,/D0_IC1*%
X120650000Y-106680000D03*
X120015000Y-127000000D03*
X114935000Y-100965000D03*
X114935000Y-106680000D03*
%TO.N,/D3_IC2*%
X97790000Y-107696000D03*
X99060000Y-125730000D03*
X95250000Y-100330000D03*
X95250000Y-107915191D03*
%TO.N,/D2_IC2*%
X104140000Y-103505000D03*
X104140000Y-123825000D03*
X93230500Y-100363400D03*
X93230500Y-103513000D03*
%TO.N,/D1_IC2*%
X108585000Y-105410000D03*
X108585000Y-125730000D03*
X78486000Y-108458000D03*
X75565000Y-107950000D03*
%TO.N,/D0_IC2*%
X108585000Y-106680000D03*
X108585000Y-127000000D03*
X75565000Y-109220000D03*
X78740000Y-109220000D03*
%TO.N,/D3_IC3*%
X88900000Y-105410000D03*
X88900000Y-125730000D03*
%TO.N,/D2_IC3*%
X88900000Y-104140000D03*
X88900000Y-124460000D03*
%TO.N,/D1_IC3*%
X97790000Y-105410000D03*
X97790000Y-125730000D03*
%TO.N,/D0_IC3*%
X97790000Y-106680000D03*
X97790000Y-127000000D03*
%TO.N,/D3_IC4*%
X78105000Y-125730000D03*
X78105000Y-105410000D03*
%TO.N,/D2_IC4*%
X78105000Y-124460000D03*
X78105000Y-104140000D03*
%TO.N,/D1_IC4*%
X86995000Y-105410000D03*
X86995000Y-125730000D03*
%TO.N,/D0_IC4*%
X86995000Y-106680000D03*
X86995000Y-127000000D03*
%TO.N,/A9*%
X110490000Y-122555000D03*
X110490000Y-102235000D03*
X99060000Y-102235000D03*
X99695000Y-90170000D03*
X100495003Y-85542500D03*
X109220000Y-76835000D03*
X101617917Y-77419384D03*
%TO.N,/~OE*%
X78105000Y-101600000D03*
X77470000Y-87630000D03*
X82550000Y-100965000D03*
X82550000Y-121285000D03*
%TO.N,/~CAS0*%
X107950000Y-89535000D03*
X108892882Y-102870000D03*
X113665000Y-88265000D03*
X113565534Y-84291699D03*
%TO.N,/~CAS1*%
X98425000Y-102870000D03*
X101600000Y-89535000D03*
X102870000Y-87177500D03*
X110490000Y-85542500D03*
%TO.N,/~CAS2*%
X98425000Y-89535000D03*
X99695000Y-123190000D03*
X101600000Y-87177500D03*
X107950000Y-85090000D03*
%TO.N,/~CAS3*%
X97155000Y-89535000D03*
X98869603Y-123215394D03*
X97155000Y-85542500D03*
X97155000Y-76835000D03*
X104140000Y-76200000D03*
%TO.N,/~RAS0*%
X109855000Y-89535000D03*
X109855000Y-103505000D03*
X88265000Y-103505000D03*
X114935000Y-88900000D03*
X115062000Y-84328000D03*
%TO.N,/~RAS1*%
X87630000Y-123825000D03*
X86995000Y-88265000D03*
X97806508Y-85078237D03*
X97790000Y-75565000D03*
X99695000Y-75565000D03*
%TD*%
D21*
%TO.N,VCC*%
X115867000Y-109749500D02*
X116099500Y-109982000D01*
X122660000Y-86360000D02*
X120015000Y-86360000D01*
X120015000Y-86360000D02*
X119677000Y-86360000D01*
X105156000Y-109939000D02*
X105199000Y-109982000D01*
X105156000Y-90170000D02*
X105156000Y-109939000D01*
X94255500Y-90402500D02*
X94488000Y-90170000D01*
X94255500Y-109982000D02*
X94255500Y-90402500D01*
X83609000Y-109939000D02*
X83566000Y-109982000D01*
X83609000Y-90170000D02*
X83609000Y-109939000D01*
X98660000Y-71380000D02*
X98165000Y-71380000D01*
X96227510Y-86067510D02*
X96520000Y-86360000D01*
X98298000Y-86360000D02*
X96520000Y-86360000D01*
X96520000Y-86360000D02*
X95885000Y-86360000D01*
X96227510Y-86017490D02*
X95885000Y-86360000D01*
X96227510Y-85382490D02*
X96227510Y-86017490D01*
X96227510Y-85382490D02*
X96227510Y-86067510D01*
X96520000Y-86360000D02*
X96520000Y-87630000D01*
X96520000Y-87630000D02*
X97155000Y-86995000D01*
X97155000Y-86995000D02*
X96520000Y-86360000D01*
X97536000Y-86614000D02*
X97155000Y-86995000D01*
X98044000Y-86614000D02*
X97536000Y-86614000D01*
X98298000Y-86360000D02*
X98044000Y-86614000D01*
X96520000Y-88138000D02*
X96139000Y-88519000D01*
X96520000Y-87630000D02*
X96520000Y-88138000D01*
X96139000Y-88519000D02*
X94488000Y-90170000D01*
X98044000Y-86614000D02*
X96139000Y-88519000D01*
X107950000Y-87376000D02*
X107823000Y-87503000D01*
X107823000Y-87503000D02*
X105156000Y-90170000D01*
X108966000Y-86360000D02*
X107823000Y-87503000D01*
X107950000Y-86360000D02*
X107950000Y-87376000D01*
X108966000Y-86360000D02*
X107950000Y-86360000D01*
X107950000Y-86360000D02*
X98298000Y-86360000D01*
X118745000Y-86360000D02*
X118745000Y-87292000D01*
X118576000Y-87461000D02*
X115867000Y-90170000D01*
X119677000Y-86360000D02*
X118576000Y-87461000D01*
X118745000Y-87292000D02*
X118576000Y-87461000D01*
X120015000Y-86360000D02*
X118745000Y-86360000D01*
X118745000Y-86360000D02*
X108966000Y-86360000D01*
X96227510Y-88430490D02*
X96139000Y-88519000D01*
X96227510Y-86017490D02*
X96227510Y-88430490D01*
X84963000Y-109982000D02*
X85090000Y-109855000D01*
X83566000Y-109982000D02*
X84963000Y-109982000D01*
X95758000Y-109982000D02*
X95885000Y-109855000D01*
X94255500Y-109982000D02*
X95758000Y-109982000D01*
X106553000Y-109982000D02*
X106680000Y-109855000D01*
X105199000Y-109982000D02*
X106553000Y-109982000D01*
X117348000Y-109982000D02*
X117475000Y-109855000D01*
X116099500Y-109982000D02*
X117348000Y-109982000D01*
X83609000Y-90170000D02*
X85090000Y-90170000D01*
X94488000Y-90170000D02*
X95885000Y-90170000D01*
X105156000Y-90170000D02*
X106680000Y-90170000D01*
X115867000Y-90170000D02*
X117475000Y-90170000D01*
X94325074Y-86360000D02*
X90515074Y-90170000D01*
X98298000Y-86360000D02*
X94325074Y-86360000D01*
X90515074Y-90170000D02*
X90515074Y-90170000D01*
X119260000Y-123450000D02*
X119260000Y-123820000D01*
X115867000Y-120057000D02*
X119260000Y-123450000D01*
X115867000Y-108253000D02*
X115867000Y-120057000D01*
X115867000Y-90170000D02*
X115867000Y-108253000D01*
X115867000Y-108253000D02*
X115867000Y-109749500D01*
X121920000Y-74295000D02*
X124206000Y-76581000D01*
X124206000Y-84814000D02*
X122660000Y-86360000D01*
X124206000Y-76581000D02*
X124206000Y-84814000D01*
D22*
X96227510Y-82842490D02*
X96520000Y-82550000D01*
X96227510Y-85382490D02*
X96227510Y-82842490D01*
X96512099Y-75891407D02*
X97981506Y-74422000D01*
X96512099Y-78478099D02*
X96512099Y-75891407D01*
X96520000Y-78486000D02*
X96512099Y-78478099D01*
X96520000Y-82550000D02*
X96520000Y-78486000D01*
X98552000Y-71488000D02*
X98660000Y-71380000D01*
X97981506Y-72058494D02*
X98660000Y-71380000D01*
X97981506Y-74422000D02*
X97981506Y-72058494D01*
D21*
%TO.N,GND*%
X122660000Y-80140000D02*
X121520000Y-79000000D01*
X122660000Y-83820000D02*
X122660000Y-80140000D01*
X121520000Y-76770000D02*
X121920000Y-76370000D01*
X121520000Y-79000000D02*
X121520000Y-76770000D01*
X114024500Y-90402500D02*
X113792000Y-90170000D01*
X103124000Y-90213000D02*
X103081000Y-90170000D01*
X92413000Y-109749500D02*
X92180500Y-109982000D01*
X81534000Y-109939000D02*
X81491000Y-109982000D01*
X122660000Y-127000000D02*
X121920000Y-127000000D01*
X121920000Y-127000000D02*
X120269000Y-128651000D01*
X114024500Y-128629500D02*
X114300000Y-128905000D01*
X114300000Y-128905000D02*
X114173000Y-128905000D01*
X120015000Y-128905000D02*
X118491000Y-128905000D01*
X92180500Y-127740500D02*
X92180500Y-128799500D01*
X92180500Y-128799500D02*
X92075000Y-128905000D01*
X93345000Y-128905000D02*
X92075000Y-128905000D01*
X103124000Y-128651000D02*
X102870000Y-128905000D01*
X102870000Y-128905000D02*
X101219000Y-128905000D01*
X103505000Y-128905000D02*
X103505000Y-128905000D01*
X73660000Y-83820000D02*
X75184000Y-83820000D01*
X114024500Y-106404500D02*
X114024500Y-90402500D01*
X103124000Y-106426000D02*
X103124000Y-97790000D01*
X103124000Y-109982000D02*
X103124000Y-106426000D01*
X92413000Y-106383000D02*
X92413000Y-109749500D01*
X92413000Y-90170000D02*
X92413000Y-106383000D01*
X81534000Y-106299000D02*
X81534000Y-109939000D01*
X81534000Y-90170000D02*
X81534000Y-106299000D01*
X92180500Y-126470500D02*
X92180500Y-127740500D01*
X103124000Y-126746000D02*
X103124000Y-128651000D01*
X103124000Y-109982000D02*
X103124000Y-118110000D01*
X114024500Y-126640500D02*
X114024500Y-128629500D01*
X114024500Y-109982000D02*
X114024500Y-118385500D01*
X92075000Y-128905000D02*
X82550000Y-128905000D01*
X82550000Y-128905000D02*
X81491000Y-127846000D01*
X81491000Y-126789000D02*
X81491000Y-124249000D01*
X81491000Y-127846000D02*
X81491000Y-126789000D01*
X76200000Y-83820000D02*
X80645000Y-83820000D01*
X75692000Y-84328000D02*
X76200000Y-83820000D01*
X73660000Y-83820000D02*
X76200000Y-83820000D01*
X75184000Y-83820000D02*
X75692000Y-84328000D01*
X76200000Y-84455000D02*
X76009500Y-84645500D01*
X76200000Y-83820000D02*
X76200000Y-84455000D01*
X75692000Y-84328000D02*
X76009500Y-84645500D01*
X76200000Y-84836000D02*
X76644500Y-85280500D01*
X76200000Y-84455000D02*
X76200000Y-84836000D01*
X76644500Y-85280500D02*
X77089000Y-85725000D01*
X76009500Y-84645500D02*
X76644500Y-85280500D01*
X112395000Y-90170000D02*
X111760000Y-89535000D01*
X113792000Y-90170000D02*
X112395000Y-90170000D01*
X116332000Y-84197454D02*
X116332000Y-82804000D01*
X115139455Y-85389999D02*
X116332000Y-84197454D01*
X112694999Y-85389999D02*
X115139455Y-85389999D01*
X112395000Y-85090000D02*
X112694999Y-85389999D01*
X114024500Y-118385500D02*
X114024500Y-121179500D01*
X114024500Y-121179500D02*
X114024500Y-126640500D01*
X103124000Y-118110000D02*
X103124000Y-119380000D01*
X103124000Y-119380000D02*
X103124000Y-126746000D01*
X92180500Y-118131500D02*
X92180500Y-119401500D01*
X92180500Y-119401500D02*
X92180500Y-126470500D01*
X81491000Y-118153000D02*
X81491000Y-109982000D01*
X81491000Y-119423000D02*
X81491000Y-118153000D01*
X81491000Y-124249000D02*
X81491000Y-119423000D01*
X98171000Y-128905000D02*
X93345000Y-128905000D01*
X101219000Y-128905000D02*
X98171000Y-128905000D01*
X103505000Y-128905000D02*
X102870000Y-128905000D01*
X105537000Y-128905000D02*
X103505000Y-128905000D01*
X107569000Y-128905000D02*
X105537000Y-128905000D01*
X109601000Y-128905000D02*
X107569000Y-128905000D01*
X111887000Y-128905000D02*
X109601000Y-128905000D01*
X114173000Y-128905000D02*
X111887000Y-128905000D01*
X116459000Y-128905000D02*
X114300000Y-128905000D01*
X118491000Y-128905000D02*
X116459000Y-128905000D01*
X120269000Y-128651000D02*
X120015000Y-128905000D01*
X77089000Y-85725000D02*
X81534000Y-90170000D01*
X103124000Y-97790000D02*
X103124000Y-90213000D01*
D23*
X121412000Y-120650000D02*
X121412000Y-123190000D01*
X87122000Y-118110000D02*
X87122000Y-119126000D01*
X88900000Y-118110000D02*
X90170000Y-118110000D01*
X74930000Y-115570000D02*
X74930000Y-118110000D01*
X88900000Y-107696000D02*
X88900000Y-110236000D01*
X92180500Y-110468500D02*
X92180500Y-109982000D01*
X120650000Y-97790000D02*
X120396000Y-98044000D01*
X123952000Y-97790000D02*
X120650000Y-97790000D01*
X120142000Y-90678000D02*
X120142000Y-88392000D01*
X120650000Y-91186000D02*
X120142000Y-90678000D01*
X121026078Y-104140000D02*
X120904000Y-104140000D01*
X122296078Y-102870000D02*
X121026078Y-104140000D01*
X123952000Y-102870000D02*
X122296078Y-102870000D01*
X121602600Y-76370000D02*
X120670600Y-75438000D01*
X121920000Y-76370000D02*
X121602600Y-76370000D01*
X118364000Y-75438000D02*
X118364000Y-73406000D01*
X120670600Y-73406000D02*
X120670600Y-75438000D01*
X118364000Y-76200000D02*
X117602000Y-76962000D01*
X118364000Y-75438000D02*
X118364000Y-76200000D01*
X114024500Y-121390500D02*
X115062000Y-122428000D01*
X114024500Y-121179500D02*
X114024500Y-121390500D01*
X115062000Y-123444000D02*
X115316000Y-123698000D01*
X115062000Y-122428000D02*
X115062000Y-123444000D01*
X78994000Y-112776000D02*
X77216000Y-114554000D01*
X78994000Y-110490000D02*
X78994000Y-112776000D01*
D24*
X114024500Y-107674500D02*
X114024500Y-107928500D01*
D21*
X114024500Y-109982000D02*
X114024500Y-107674500D01*
D24*
X114024500Y-107928500D02*
X114046000Y-107950000D01*
D21*
X114024500Y-107674500D02*
X114024500Y-106404500D01*
D24*
X114300000Y-107950000D02*
X114808000Y-108458000D01*
X114046000Y-107950000D02*
X114300000Y-107950000D01*
X76200000Y-99809400D02*
X76200000Y-94996000D01*
X74338264Y-90170000D02*
X72136000Y-90170000D01*
X76200000Y-92031736D02*
X74338264Y-90170000D01*
X76200000Y-92456000D02*
X76200000Y-92031736D01*
X76200000Y-86614000D02*
X75692000Y-86106000D01*
X76200000Y-89662000D02*
X76200000Y-86614000D01*
D22*
X92434500Y-110722500D02*
X92180500Y-110722500D01*
D21*
X92180500Y-110722500D02*
X92180500Y-118131500D01*
X92180500Y-109982000D02*
X92180500Y-110722500D01*
X93472000Y-111760000D02*
X92434500Y-110722500D01*
X92180500Y-110468500D02*
X93472000Y-111760000D01*
X92180500Y-109982000D02*
X92180500Y-110214500D01*
X93472000Y-111506000D02*
X93472000Y-111760000D01*
X92180500Y-110214500D02*
X93472000Y-111506000D01*
X92180500Y-109982000D02*
X92180500Y-109749500D01*
X92180500Y-109749500D02*
X92964000Y-108966000D01*
X92964000Y-106934000D02*
X92413000Y-106383000D01*
X92964000Y-108966000D02*
X92964000Y-106934000D01*
X92964000Y-108966000D02*
X93218000Y-108712000D01*
X93218000Y-108712000D02*
X93218000Y-104648000D01*
X91186000Y-102616000D02*
X91186000Y-99822000D01*
X93218000Y-104648000D02*
X91186000Y-102616000D01*
D23*
%TO.N,Net-(J1-Pad5)*%
X83185000Y-80010000D02*
X83185000Y-83820000D01*
%TO.N,Net-(J1-Pad4)*%
X85725000Y-80010000D02*
X85725000Y-83820000D01*
D24*
X99688601Y-78111399D02*
X100965000Y-76835000D01*
X99688601Y-80440663D02*
X99688601Y-78111399D01*
X98849264Y-81280000D02*
X99688601Y-80440663D01*
X98425000Y-81280000D02*
X98849264Y-81280000D01*
X116205000Y-78765000D02*
X116440000Y-79000000D01*
X116205000Y-76200000D02*
X116205000Y-78765000D01*
D23*
%TO.N,Net-(J1-Pad3)*%
X88265000Y-80010000D02*
X88265000Y-83820000D01*
D24*
X118387610Y-79000000D02*
X118980000Y-79000000D01*
X116332000Y-81055610D02*
X118387610Y-79000000D01*
D23*
%TO.N,Net-(J1-Pad2)*%
X90805000Y-80010000D02*
X90805000Y-83820000D01*
D24*
X120142000Y-72758000D02*
X121520000Y-71380000D01*
X120142000Y-77978000D02*
X120142000Y-72758000D01*
X120142000Y-81026000D02*
X120142000Y-77978000D01*
X120142000Y-77978000D02*
X120142000Y-77795210D01*
D23*
%TO.N,Net-(J1-Pad1)*%
X93345000Y-80010000D02*
X93345000Y-83820000D01*
X119126000Y-71526000D02*
X118980000Y-71380000D01*
X119126000Y-77216000D02*
X119126000Y-71526000D01*
%TO.N,/UNK_J5_16*%
X108585000Y-79235000D02*
X108820000Y-79000000D01*
X108585000Y-81915000D02*
X108585000Y-79235000D01*
X108585000Y-81915000D02*
X108585000Y-83737699D01*
D24*
X93472000Y-85412496D02*
X93472000Y-86106000D01*
X94497597Y-84386899D02*
X93472000Y-85412496D01*
D23*
%TO.N,/UNK_J5_15*%
X101918656Y-97892864D02*
X100965000Y-96939208D01*
X100965000Y-96939208D02*
X100965000Y-90170000D01*
X99060000Y-88900000D02*
X98425000Y-88265000D01*
X100965000Y-88900000D02*
X99060000Y-88900000D01*
X99695000Y-84455000D02*
X99695000Y-81280000D01*
X106045000Y-79235000D02*
X106280000Y-79000000D01*
X106045000Y-81280000D02*
X106045000Y-79235000D01*
%TO.N,/UNK_J5_14*%
X111125000Y-79235000D02*
X111360000Y-79000000D01*
D24*
X111125000Y-85090000D02*
X111125000Y-79235000D01*
D23*
%TO.N,/~WE*%
X114266601Y-84421601D02*
X114300000Y-84455000D01*
X114266601Y-79366601D02*
X114266601Y-84421601D01*
X113900000Y-79000000D02*
X114266601Y-79366601D01*
X114935000Y-91440000D02*
X114935000Y-97790000D01*
X122025000Y-95885000D02*
X122660000Y-96520000D01*
X120015000Y-95885000D02*
X122025000Y-95885000D01*
%TO.N,/A8*%
X99695000Y-116840000D02*
X100965000Y-116840000D01*
X100965000Y-116840000D02*
X102234890Y-115570110D01*
X102234890Y-107315110D02*
X102235000Y-107315000D01*
X102234890Y-115570110D02*
X102234890Y-107315110D01*
X102235000Y-99060000D02*
X99695000Y-96520000D01*
X102235000Y-107315000D02*
X102235000Y-99060000D01*
X119380000Y-99060000D02*
X122660000Y-99060000D01*
X118745000Y-99695000D02*
X119380000Y-99060000D01*
X118745000Y-116840000D02*
X118745000Y-99695000D01*
X119380000Y-117475000D02*
X118745000Y-116840000D01*
%TO.N,/A7*%
X99695000Y-95250000D02*
X99060000Y-95885000D01*
X99060000Y-96775370D02*
X101600000Y-99315370D01*
X99060000Y-95885000D02*
X99060000Y-96775370D01*
X101600000Y-99315370D02*
X101600000Y-114935000D01*
X100965000Y-115570000D02*
X99695000Y-115570000D01*
X101600000Y-114935000D02*
X100965000Y-115570000D01*
X119380000Y-116205000D02*
X119380000Y-102235000D01*
X120015000Y-101600000D02*
X122660000Y-101600000D01*
X119380000Y-102235000D02*
X120015000Y-101600000D01*
%TO.N,/A6*%
X99695000Y-114300000D02*
X100330000Y-114300000D01*
X100330000Y-114300000D02*
X100965000Y-113665000D01*
X98656790Y-95018210D02*
X99695000Y-93980000D01*
X98656790Y-96942385D02*
X98656790Y-95018210D01*
X100965000Y-99250594D02*
X98656790Y-96942385D01*
X100965000Y-113665000D02*
X100965000Y-99250594D01*
%TO.N,/A5*%
X100330000Y-112395000D02*
X99695000Y-113030000D01*
X100330000Y-99185820D02*
X100330000Y-112395000D01*
X98253580Y-97109400D02*
X100330000Y-99185820D01*
X98253580Y-94151420D02*
X98253580Y-97109400D01*
X99695000Y-92710000D02*
X98253580Y-94151420D01*
%TO.N,/A4*%
X97850370Y-97276415D02*
X98086566Y-97512610D01*
X97850370Y-93284630D02*
X97850370Y-97276415D01*
X99695000Y-91440000D02*
X97850370Y-93284630D01*
X98086566Y-97512610D02*
X99695000Y-99121044D01*
X99695000Y-99121044D02*
X99695000Y-111760000D01*
%TO.N,/A3*%
X109081979Y-93483021D02*
X110490000Y-92075000D01*
X109081979Y-96952204D02*
X109081979Y-93483021D01*
X111125000Y-98995224D02*
X109081979Y-96952204D01*
X111125000Y-111760000D02*
X111125000Y-98995224D01*
X110490000Y-112395000D02*
X111125000Y-111760000D01*
%TO.N,/A2*%
X111760000Y-112395000D02*
X110490000Y-113665000D01*
X109485189Y-96785189D02*
X111760000Y-99060000D01*
X111760000Y-99060000D02*
X111760000Y-112395000D01*
X109485189Y-94349811D02*
X109485189Y-96785189D01*
X110490000Y-93345000D02*
X109485189Y-94349811D01*
%TO.N,/A1*%
X110490000Y-114935000D02*
X112395000Y-113030000D01*
X112395000Y-113030000D02*
X112395000Y-99060000D01*
X109888399Y-95216601D02*
X110490000Y-94615000D01*
X109888399Y-96553399D02*
X109888399Y-95216601D01*
X112395000Y-99060000D02*
X109888399Y-96553399D01*
%TO.N,/A0*%
X110490000Y-95885000D02*
X113030000Y-98425000D01*
X113030000Y-113665000D02*
X110482001Y-116212999D01*
X113030000Y-98425000D02*
X113030000Y-113665000D01*
%TO.N,/UNK_J5_3*%
X104140000Y-91440000D02*
X104140000Y-99556980D01*
X118341790Y-120881790D02*
X119380000Y-121920000D01*
X118341790Y-100561790D02*
X118341790Y-120881790D01*
X117475000Y-99695000D02*
X118341790Y-100561790D01*
X104140000Y-79400000D02*
X103740000Y-79000000D01*
X104140000Y-85090000D02*
X104140000Y-79400000D01*
%TO.N,/UNK_J6_17*%
X101096603Y-79103397D02*
X101200000Y-79000000D01*
D24*
X104881399Y-85618601D02*
X105029000Y-85471000D01*
X101676101Y-85618601D02*
X104881399Y-85618601D01*
X101600000Y-85542500D02*
X101676101Y-85618601D01*
X101096603Y-85039103D02*
X101676101Y-85618601D01*
X101049003Y-84991503D02*
X101096603Y-85039103D01*
X101049003Y-83428127D02*
X101049003Y-84991503D01*
X101049003Y-79150997D02*
X101200000Y-79000000D01*
X101049003Y-83428127D02*
X101049003Y-79150997D01*
X95250000Y-85542499D02*
X95250000Y-84386899D01*
D23*
%TO.N,/D3_IC1*%
X110490000Y-124460000D02*
X110490000Y-125730000D01*
X109477190Y-123447190D02*
X110490000Y-124460000D01*
X109477190Y-111567585D02*
X109477190Y-123447190D01*
X109855000Y-111189776D02*
X109477190Y-111567585D01*
X109855000Y-105410000D02*
X109855000Y-111189776D01*
X76835000Y-92075000D02*
X76835000Y-104775000D01*
X73660000Y-88900000D02*
X76835000Y-92075000D01*
X76835000Y-110490000D02*
X76835000Y-113030000D01*
X76200000Y-113665000D02*
X76200000Y-120015000D01*
X76835000Y-113030000D02*
X76200000Y-113665000D01*
X104775000Y-120015000D02*
X104775000Y-125095000D01*
%TO.N,/D2_IC1*%
X109220000Y-104140000D02*
X109220000Y-105474775D01*
X109073980Y-123956549D02*
X109577432Y-124460001D01*
X109073980Y-111400570D02*
X109073980Y-123956549D01*
X109220000Y-111254550D02*
X109073980Y-111400570D01*
X109220000Y-105474775D02*
X109220000Y-111254550D01*
X75565000Y-94615000D02*
X75565000Y-104775000D01*
X75565000Y-110490000D02*
X75565000Y-120650000D01*
X110778769Y-126331601D02*
X110201231Y-126331601D01*
X111091601Y-126018769D02*
X110778769Y-126331601D01*
X111091601Y-121251601D02*
X111091601Y-126018769D01*
X109877431Y-124760000D02*
X109577432Y-124460001D01*
X109877431Y-126007801D02*
X109877431Y-124760000D01*
X110201231Y-126331601D02*
X109877431Y-126007801D01*
X110490000Y-120650000D02*
X111091601Y-121251601D01*
X75565000Y-93345000D02*
X75565000Y-94615000D01*
X73660000Y-91440000D02*
X75565000Y-93345000D01*
%TO.N,/D1_IC1*%
X120015000Y-105410000D02*
X120015000Y-125730000D01*
X116840000Y-100330000D02*
X116840000Y-105410000D01*
%TO.N,/D0_IC1*%
X120650000Y-126365000D02*
X120015000Y-127000000D01*
X120650000Y-106680000D02*
X120650000Y-126365000D01*
X114935000Y-100965000D02*
X114935000Y-106680000D01*
%TO.N,/D3_IC2*%
X97790000Y-107950000D02*
X97790000Y-123889776D01*
X99060000Y-125159776D02*
X99060000Y-125730000D01*
X97790000Y-123889776D02*
X99060000Y-125159776D01*
X95250000Y-100330000D02*
X95250000Y-107915191D01*
%TO.N,/D2_IC2*%
X104140000Y-103505000D02*
X104140000Y-123825000D01*
X93230500Y-100363400D02*
X93230500Y-103513000D01*
%TO.N,/D1_IC2*%
X107983399Y-125128399D02*
X108585000Y-125730000D01*
X107983399Y-106011601D02*
X107983399Y-125128399D01*
X108585000Y-105410000D02*
X107983399Y-106011601D01*
X76073000Y-108458000D02*
X75565000Y-107950000D01*
X78486000Y-108458000D02*
X76073000Y-108458000D01*
%TO.N,/D0_IC2*%
X108585000Y-106680000D02*
X108585000Y-124460000D01*
X109186601Y-126398399D02*
X108585000Y-127000000D01*
X109186601Y-125061601D02*
X109186601Y-126398399D01*
X108585000Y-124460000D02*
X109186601Y-125061601D01*
X75565000Y-109220000D02*
X78740000Y-109220000D01*
%TO.N,/D3_IC3*%
X88900000Y-105410000D02*
X90170000Y-105410000D01*
X90170000Y-105410000D02*
X90805000Y-106045000D01*
X90805000Y-106045000D02*
X90805000Y-123190000D01*
X90805000Y-123190000D02*
X90170000Y-123825000D01*
X88644630Y-123825000D02*
X88265000Y-124204630D01*
X90170000Y-123825000D02*
X88644630Y-123825000D01*
X88265000Y-125095000D02*
X88900000Y-125730000D01*
X88265000Y-124204630D02*
X88265000Y-125095000D01*
%TO.N,/D2_IC3*%
X88900000Y-104140000D02*
X90170000Y-104140000D01*
X90170000Y-104140000D02*
X90805000Y-104140000D01*
X90805000Y-104140000D02*
X91440000Y-104775000D01*
X91291390Y-109278512D02*
X91291390Y-110976390D01*
X91440000Y-109129902D02*
X91291390Y-109278512D01*
X91440000Y-104775000D02*
X91440000Y-109129902D01*
X91291390Y-110976390D02*
X91440000Y-111125000D01*
X91440000Y-111125000D02*
X91440000Y-123825000D01*
X90805000Y-124460000D02*
X88900000Y-124460000D01*
X91440000Y-123825000D02*
X90805000Y-124460000D01*
%TO.N,/D1_IC3*%
X97790000Y-105410000D02*
X96686601Y-106513399D01*
X96686601Y-110239769D02*
X96520000Y-110406370D01*
X96686601Y-106513399D02*
X96686601Y-110239769D01*
X96520000Y-110406370D02*
X96520000Y-125095000D01*
X97155000Y-125730000D02*
X97790000Y-125730000D01*
X96520000Y-125095000D02*
X97155000Y-125730000D01*
%TO.N,/D0_IC3*%
X97790000Y-106680000D02*
X97155000Y-107315000D01*
X97155000Y-107315000D02*
X97155000Y-123229578D01*
X97155000Y-123229578D02*
X97155000Y-123825000D01*
X98391601Y-126398399D02*
X97790000Y-127000000D01*
X98391601Y-125061601D02*
X98391601Y-126398399D01*
X97155000Y-123825000D02*
X98391601Y-125061601D01*
D25*
%TO.N,/D3_IC4*%
X78105000Y-125730000D02*
X80010000Y-125730000D01*
X80010000Y-125730000D02*
X80576490Y-125163510D01*
X80576490Y-125163510D02*
X80576490Y-105976490D01*
X80010000Y-105410000D02*
X78105000Y-105410000D01*
X80576490Y-105976490D02*
X80010000Y-105410000D01*
%TO.N,/D2_IC4*%
X78105000Y-124460000D02*
X79375000Y-124460000D01*
X79375000Y-124460000D02*
X80010000Y-123825000D01*
X80010000Y-123825000D02*
X80010000Y-106680000D01*
X80010000Y-106680000D02*
X79375000Y-106045000D01*
X79375000Y-106045000D02*
X77470000Y-106045000D01*
X77470000Y-104775000D02*
X78105000Y-104140000D01*
X77470000Y-106045000D02*
X77470000Y-104775000D01*
%TO.N,/D1_IC4*%
X86995000Y-125730000D02*
X86360000Y-125730000D01*
X86360000Y-125730000D02*
X85725000Y-125095000D01*
X85725000Y-125095000D02*
X85725000Y-111125000D01*
X85725000Y-111125000D02*
X86995000Y-109855000D01*
X86995000Y-109816028D02*
X87630000Y-109181028D01*
X86995000Y-109855000D02*
X86995000Y-109816028D01*
X87630000Y-106045000D02*
X86995000Y-105410000D01*
X87630000Y-109181028D02*
X87630000Y-106045000D01*
%TO.N,/D0_IC4*%
X86995000Y-106680000D02*
X86995000Y-107315000D01*
X86995000Y-109173962D02*
X85090000Y-111078962D01*
X86995000Y-107315000D02*
X86995000Y-109173962D01*
X85090000Y-111078962D02*
X85090000Y-126365000D01*
X85725000Y-127000000D02*
X86995000Y-127000000D01*
X85090000Y-126365000D02*
X85725000Y-127000000D01*
D23*
%TO.N,/A9*%
X109880400Y-121945400D02*
X109880400Y-111734600D01*
X110490000Y-122555000D02*
X109880400Y-121945400D01*
X110490000Y-111125000D02*
X110490000Y-102235000D01*
X109880400Y-111734600D02*
X110490000Y-111125000D01*
X99060000Y-102235000D02*
X99060000Y-99695000D01*
X97447160Y-98082160D02*
X97447160Y-92417840D01*
X99060000Y-99695000D02*
X97447160Y-98082160D01*
X97447160Y-92417840D02*
X99695000Y-90170000D01*
X109220000Y-75595000D02*
X108585000Y-74960000D01*
X109220000Y-76835000D02*
X109220000Y-75595000D01*
D24*
X101567301Y-77470000D02*
X101617917Y-77419384D01*
D23*
X100018811Y-79776722D02*
X100495003Y-80252914D01*
X100018811Y-78290594D02*
X100018811Y-79776722D01*
X100839405Y-77470000D02*
X100018811Y-78290594D01*
X100495003Y-80252914D02*
X100495003Y-85542500D01*
X101149922Y-77470000D02*
X100839405Y-77470000D01*
X101200538Y-77419384D02*
X101149922Y-77470000D01*
X101617917Y-77419384D02*
X101200538Y-77419384D01*
%TO.N,/~OE*%
X78105000Y-101600000D02*
X77470000Y-100965000D01*
X77470000Y-100965000D02*
X77470000Y-87630000D01*
X82550000Y-100965000D02*
X82550000Y-121285000D01*
%TO.N,/~CAS0*%
X107950000Y-101927118D02*
X108892882Y-102870000D01*
X107950000Y-89535000D02*
X107950000Y-101927118D01*
X109220000Y-88265000D02*
X113665000Y-88265000D01*
X107950000Y-89535000D02*
X109220000Y-88265000D01*
X112798390Y-75826610D02*
X113665000Y-74960000D01*
X112798390Y-79856301D02*
X112798390Y-75826610D01*
X112798390Y-83524555D02*
X112798390Y-79856301D01*
X113565534Y-84291699D02*
X112798390Y-83524555D01*
%TO.N,/~CAS1*%
X98425000Y-102870000D02*
X98425000Y-100330000D01*
X97043950Y-91930680D02*
X99439630Y-89535000D01*
X97043950Y-98249175D02*
X97043950Y-91930680D01*
X98425000Y-99630224D02*
X97043950Y-98249175D01*
X98425000Y-100330000D02*
X98425000Y-99630224D01*
X99439630Y-89535000D02*
X100330000Y-89535000D01*
X100330000Y-89535000D02*
X101600000Y-89535000D01*
X101600000Y-88447500D02*
X102870000Y-87177500D01*
X101600000Y-89535000D02*
X101600000Y-88447500D01*
X109921610Y-76163390D02*
X111125000Y-74960000D01*
X109921610Y-82256240D02*
X109921610Y-76163390D01*
X110490000Y-82824630D02*
X109921610Y-82256240D01*
X110490000Y-85542500D02*
X110490000Y-82824630D01*
%TO.N,/~CAS2*%
X97790000Y-102870000D02*
X97790000Y-103125370D01*
X96640740Y-91319260D02*
X96640740Y-98545740D01*
X97790000Y-99695000D02*
X97790000Y-102870000D01*
X97790000Y-103125370D02*
X99060000Y-104395370D01*
X98425000Y-89535000D02*
X96640740Y-91319260D01*
X96640740Y-98545740D02*
X97790000Y-99695000D01*
X99060000Y-104395370D02*
X99060000Y-120015000D01*
X99060000Y-122555000D02*
X99695000Y-123190000D01*
X99060000Y-120015000D02*
X99060000Y-122555000D01*
X98622130Y-87177500D02*
X101600000Y-87177500D01*
X97823399Y-87976231D02*
X98622130Y-87177500D01*
X97823399Y-88933399D02*
X97823399Y-87976231D01*
X98425000Y-89535000D02*
X97823399Y-88933399D01*
D24*
X106045000Y-75882220D02*
X106045000Y-74960000D01*
X107791390Y-77628610D02*
X106045000Y-75882220D01*
X107791390Y-79826064D02*
X107791390Y-77628610D01*
X107950000Y-79984674D02*
X107791390Y-79826064D01*
X107950000Y-85090000D02*
X107950000Y-79984674D01*
D23*
%TO.N,/~CAS3*%
X97155000Y-90234776D02*
X96237530Y-91152245D01*
X96520000Y-99060000D02*
X97155000Y-99695000D01*
X97155000Y-89535000D02*
X97155000Y-90234776D01*
X97155000Y-103505000D02*
X98425000Y-104775000D01*
X97155000Y-99695000D02*
X97155000Y-103505000D01*
X96237530Y-98777530D02*
X96520000Y-99060000D01*
X96237530Y-91152245D02*
X96237530Y-98777530D01*
X98425000Y-104775000D02*
X98425000Y-120650000D01*
X98425000Y-122770791D02*
X98869603Y-123215394D01*
X98425000Y-120650000D02*
X98425000Y-122770791D01*
X97155000Y-85542500D02*
X97155000Y-76835000D01*
X104140000Y-75595000D02*
X103505000Y-74960000D01*
X104140000Y-76200000D02*
X104140000Y-75595000D01*
%TO.N,/~RAS0*%
X108678769Y-90711231D02*
X108678769Y-97248769D01*
X109855000Y-89535000D02*
X108678769Y-90711231D01*
X109855000Y-98425000D02*
X109855000Y-103505000D01*
X108678769Y-97248769D02*
X109855000Y-98425000D01*
X89550000Y-88885000D02*
X89550000Y-88265000D01*
X88265000Y-90170000D02*
X89550000Y-88885000D01*
X88265000Y-103505000D02*
X88265000Y-90170000D01*
X116205000Y-74960000D02*
X115338390Y-75826610D01*
X110490000Y-88900000D02*
X109855000Y-89535000D01*
X114935000Y-88900000D02*
X110490000Y-88900000D01*
X115062000Y-76103000D02*
X115338390Y-75826610D01*
X115062000Y-84328000D02*
X115062000Y-76103000D01*
%TO.N,/~RAS1*%
X87630000Y-104775000D02*
X87630000Y-88885000D01*
X88058609Y-105203609D02*
X87630000Y-104775000D01*
X88058609Y-123396391D02*
X88058609Y-105203609D01*
X87630000Y-88885000D02*
X88250000Y-88265000D01*
X87630000Y-123825000D02*
X88058609Y-123396391D01*
X88250000Y-88265000D02*
X86995000Y-88265000D01*
X97806508Y-82295610D02*
X97558399Y-82047501D01*
X97806508Y-85078237D02*
X97806508Y-82295610D01*
X97558399Y-77321971D02*
X97790000Y-77090370D01*
X97790000Y-77090370D02*
X97790000Y-75565000D01*
X97558399Y-77701601D02*
X97558399Y-77321971D01*
X97558399Y-82047501D02*
X97558399Y-77701601D01*
X97558399Y-77701601D02*
X97558399Y-77558719D01*
X100345000Y-75565000D02*
X100965000Y-74945000D01*
X99695000Y-75565000D02*
X100345000Y-75565000D01*
%TO.N,Net-(JP9-Pad1)*%
X100965000Y-71615000D02*
X101200000Y-71380000D01*
X100965000Y-73645000D02*
X100965000Y-71615000D01*
%TO.N,Net-(JP10-Pad1)*%
X103505000Y-71615000D02*
X103740000Y-71380000D01*
X103505000Y-73660000D02*
X103505000Y-71615000D01*
%TO.N,Net-(JP11-Pad1)*%
X106045000Y-71615000D02*
X106280000Y-71380000D01*
X106045000Y-73660000D02*
X106045000Y-71615000D01*
%TO.N,Net-(JP12-Pad1)*%
X108585000Y-71615000D02*
X108820000Y-71380000D01*
X108585000Y-73660000D02*
X108585000Y-71615000D01*
%TO.N,Net-(JP13-Pad1)*%
X111125000Y-71615000D02*
X111360000Y-71380000D01*
X111125000Y-73660000D02*
X111125000Y-71615000D01*
%TO.N,Net-(JP14-Pad1)*%
X113665000Y-71615000D02*
X113900000Y-71380000D01*
X113665000Y-73660000D02*
X113665000Y-71615000D01*
%TO.N,Net-(JP15-Pad1)*%
X116205000Y-71615000D02*
X116440000Y-71380000D01*
X116205000Y-73660000D02*
X116205000Y-71615000D01*
%TD*%
D25*
%TO.N,GND*%
X82481589Y-78694010D02*
X82238368Y-78856525D01*
X82031525Y-79063368D01*
X81869010Y-79306589D01*
X81757068Y-79576842D01*
X81700000Y-79863740D01*
X81700000Y-80156260D01*
X81757068Y-80443158D01*
X81869010Y-80713411D01*
X82031525Y-80956632D01*
X82238368Y-81163475D01*
X82448400Y-81303814D01*
X82448401Y-82586321D01*
X82270241Y-82705363D01*
X82071643Y-82903961D01*
X82070812Y-82895518D01*
X82034502Y-82775820D01*
X81975537Y-82665506D01*
X81896185Y-82568815D01*
X81799494Y-82489463D01*
X81689180Y-82430498D01*
X81569482Y-82394188D01*
X81445000Y-82381928D01*
X80930750Y-82385000D01*
X80772000Y-82543750D01*
X80772000Y-83693000D01*
X80792000Y-83693000D01*
X80792000Y-83947000D01*
X80772000Y-83947000D01*
X80772000Y-85096250D01*
X80930750Y-85255000D01*
X81445000Y-85258072D01*
X81569482Y-85245812D01*
X81689180Y-85209502D01*
X81799494Y-85150537D01*
X81896185Y-85071185D01*
X81975537Y-84974494D01*
X82034502Y-84864180D01*
X82070812Y-84744482D01*
X82071643Y-84736039D01*
X82270241Y-84934637D01*
X82505273Y-85091680D01*
X82766426Y-85199853D01*
X83043665Y-85255000D01*
X83326335Y-85255000D01*
X83603574Y-85199853D01*
X83864727Y-85091680D01*
X84099759Y-84934637D01*
X84299637Y-84734759D01*
X84455000Y-84502241D01*
X84610363Y-84734759D01*
X84810241Y-84934637D01*
X85045273Y-85091680D01*
X85306426Y-85199853D01*
X85583665Y-85255000D01*
X85866335Y-85255000D01*
X86143574Y-85199853D01*
X86404727Y-85091680D01*
X86639759Y-84934637D01*
X86839637Y-84734759D01*
X86995000Y-84502241D01*
X87150363Y-84734759D01*
X87350241Y-84934637D01*
X87585273Y-85091680D01*
X87846426Y-85199853D01*
X88123665Y-85255000D01*
X88406335Y-85255000D01*
X88683574Y-85199853D01*
X88944727Y-85091680D01*
X89179759Y-84934637D01*
X89379637Y-84734759D01*
X89535000Y-84502241D01*
X89690363Y-84734759D01*
X89890241Y-84934637D01*
X90125273Y-85091680D01*
X90386426Y-85199853D01*
X90663665Y-85255000D01*
X90946335Y-85255000D01*
X91223574Y-85199853D01*
X91484727Y-85091680D01*
X91719759Y-84934637D01*
X91919637Y-84734759D01*
X92075000Y-84502241D01*
X92230363Y-84734759D01*
X92430241Y-84934637D01*
X92665273Y-85091680D01*
X92808163Y-85150867D01*
X92771091Y-85273077D01*
X92760800Y-85377561D01*
X92760800Y-85377570D01*
X92757360Y-85412496D01*
X92760800Y-85447422D01*
X92760800Y-85494910D01*
X92745738Y-85509972D01*
X92643414Y-85663111D01*
X92572932Y-85833271D01*
X92537000Y-86013911D01*
X92537000Y-86198089D01*
X92572932Y-86378729D01*
X92643414Y-86548889D01*
X92701786Y-86636250D01*
X90688072Y-88649964D01*
X90688072Y-87515000D01*
X90675812Y-87390518D01*
X90639502Y-87270820D01*
X90580537Y-87160506D01*
X90501185Y-87063815D01*
X90404494Y-86984463D01*
X90294180Y-86925498D01*
X90174482Y-86889188D01*
X90050000Y-86876928D01*
X89050000Y-86876928D01*
X88925518Y-86889188D01*
X88900000Y-86896929D01*
X88874482Y-86889188D01*
X88750000Y-86876928D01*
X87750000Y-86876928D01*
X87625518Y-86889188D01*
X87505820Y-86925498D01*
X87395506Y-86984463D01*
X87298815Y-87063815D01*
X87219463Y-87160506D01*
X87160498Y-87270820D01*
X87139390Y-87340403D01*
X87087089Y-87330000D01*
X86902911Y-87330000D01*
X86722271Y-87365932D01*
X86552111Y-87436414D01*
X86398972Y-87538738D01*
X86268738Y-87668972D01*
X86166414Y-87822111D01*
X86095932Y-87992271D01*
X86060000Y-88172911D01*
X86060000Y-88357089D01*
X86095932Y-88537729D01*
X86166414Y-88707889D01*
X86268738Y-88861028D01*
X86398972Y-88991262D01*
X86552111Y-89093586D01*
X86722271Y-89164068D01*
X86893401Y-89198108D01*
X86893400Y-104476892D01*
X86722271Y-104510932D01*
X86552111Y-104581414D01*
X86398972Y-104683738D01*
X86268738Y-104813972D01*
X86166414Y-104967111D01*
X86095932Y-105137271D01*
X86060000Y-105317911D01*
X86060000Y-105502089D01*
X86095932Y-105682729D01*
X86166414Y-105852889D01*
X86268738Y-106006028D01*
X86307710Y-106045000D01*
X86268738Y-106083972D01*
X86166414Y-106237111D01*
X86095932Y-106407271D01*
X86060000Y-106587911D01*
X86060000Y-106772089D01*
X86095932Y-106952729D01*
X86166414Y-107122889D01*
X86233000Y-107222542D01*
X86233000Y-107277575D01*
X86233001Y-108858330D01*
X85965732Y-109125600D01*
X85813520Y-108973388D01*
X85627624Y-108849176D01*
X85421067Y-108763617D01*
X85201788Y-108720000D01*
X84978212Y-108720000D01*
X84758933Y-108763617D01*
X84561500Y-108845397D01*
X84561500Y-91283600D01*
X84574462Y-91272962D01*
X84628353Y-91207295D01*
X84758933Y-91261383D01*
X84978212Y-91305000D01*
X85201788Y-91305000D01*
X85421067Y-91261383D01*
X85627624Y-91175824D01*
X85813520Y-91051612D01*
X85971612Y-90893520D01*
X86095824Y-90707624D01*
X86181383Y-90501067D01*
X86225000Y-90281788D01*
X86225000Y-90058212D01*
X86181383Y-89838933D01*
X86095824Y-89632376D01*
X85971612Y-89446480D01*
X85813520Y-89288388D01*
X85627624Y-89164176D01*
X85421067Y-89078617D01*
X85201788Y-89035000D01*
X84978212Y-89035000D01*
X84758933Y-89078617D01*
X84628353Y-89132705D01*
X84574462Y-89067038D01*
X84439886Y-88956595D01*
X84286350Y-88874528D01*
X84119754Y-88823992D01*
X83946500Y-88806928D01*
X83271500Y-88806928D01*
X83098246Y-88823992D01*
X82931650Y-88874528D01*
X82778114Y-88956595D01*
X82643538Y-89067038D01*
X82638158Y-89073594D01*
X82572685Y-88993815D01*
X82475994Y-88914463D01*
X82365680Y-88855498D01*
X82245982Y-88819188D01*
X82121500Y-88806928D01*
X81819750Y-88810000D01*
X81661000Y-88968750D01*
X81661000Y-90043000D01*
X81681000Y-90043000D01*
X81681000Y-90297000D01*
X81661000Y-90297000D01*
X81661000Y-91371250D01*
X81819750Y-91530000D01*
X82121500Y-91533072D01*
X82245982Y-91520812D01*
X82365680Y-91484502D01*
X82475994Y-91425537D01*
X82572685Y-91346185D01*
X82638158Y-91266406D01*
X82643538Y-91272962D01*
X82656500Y-91283600D01*
X82656500Y-100032867D01*
X82642089Y-100030000D01*
X82457911Y-100030000D01*
X82277271Y-100065932D01*
X82107111Y-100136414D01*
X81953972Y-100238738D01*
X81823738Y-100368972D01*
X81721414Y-100522111D01*
X81650932Y-100692271D01*
X81615000Y-100872911D01*
X81615000Y-101057089D01*
X81650932Y-101237729D01*
X81721414Y-101407889D01*
X81813400Y-101545556D01*
X81813400Y-108621627D01*
X81776750Y-108622000D01*
X81618000Y-108780750D01*
X81618000Y-109855000D01*
X81638000Y-109855000D01*
X81638000Y-110109000D01*
X81618000Y-110109000D01*
X81618000Y-111183250D01*
X81776750Y-111342000D01*
X81813401Y-111342373D01*
X81813401Y-120704442D01*
X81721414Y-120842111D01*
X81650932Y-121012271D01*
X81615000Y-121192911D01*
X81615000Y-121377089D01*
X81650932Y-121557729D01*
X81721414Y-121727889D01*
X81823738Y-121881028D01*
X81953972Y-122011262D01*
X82107111Y-122113586D01*
X82277271Y-122184068D01*
X82457911Y-122220000D01*
X82642089Y-122220000D01*
X82822729Y-122184068D01*
X82992889Y-122113586D01*
X83146028Y-122011262D01*
X83276262Y-121881028D01*
X83378586Y-121727889D01*
X83449068Y-121557729D01*
X83485000Y-121377089D01*
X83485000Y-121192911D01*
X83449068Y-121012271D01*
X83378586Y-120842111D01*
X83286600Y-120704444D01*
X83286600Y-111345072D01*
X83903500Y-111345072D01*
X84076754Y-111328008D01*
X84243350Y-111277472D01*
X84328000Y-111232225D01*
X84328001Y-126327567D01*
X84324314Y-126365000D01*
X84339027Y-126514378D01*
X84382599Y-126658015D01*
X84453355Y-126790392D01*
X84521150Y-126873000D01*
X84548579Y-126906422D01*
X84577649Y-126930279D01*
X85159716Y-127512346D01*
X85183578Y-127541422D01*
X85250116Y-127596028D01*
X85299607Y-127636645D01*
X85370364Y-127674465D01*
X85431985Y-127707402D01*
X85575622Y-127750974D01*
X85687574Y-127762000D01*
X85687577Y-127762000D01*
X85725000Y-127765686D01*
X85762423Y-127762000D01*
X86452458Y-127762000D01*
X86552111Y-127828586D01*
X86722271Y-127899068D01*
X86902911Y-127935000D01*
X87087089Y-127935000D01*
X87267729Y-127899068D01*
X87437889Y-127828586D01*
X87591028Y-127726262D01*
X87721262Y-127596028D01*
X87823586Y-127442889D01*
X87894068Y-127272729D01*
X87930000Y-127092089D01*
X87930000Y-126907911D01*
X87894068Y-126727271D01*
X87823586Y-126557111D01*
X87721262Y-126403972D01*
X87682290Y-126365000D01*
X87721262Y-126326028D01*
X87823586Y-126172889D01*
X87894068Y-126002729D01*
X87930000Y-125822089D01*
X87930000Y-125801709D01*
X87968630Y-125840340D01*
X88000932Y-126002729D01*
X88071414Y-126172889D01*
X88173738Y-126326028D01*
X88303972Y-126456262D01*
X88457111Y-126558586D01*
X88627271Y-126629068D01*
X88807911Y-126665000D01*
X88992089Y-126665000D01*
X89172729Y-126629068D01*
X89342889Y-126558586D01*
X89496028Y-126456262D01*
X89626262Y-126326028D01*
X89728586Y-126172889D01*
X89799068Y-126002729D01*
X89835000Y-125822089D01*
X89835000Y-125637911D01*
X89799068Y-125457271D01*
X89728586Y-125287111D01*
X89668109Y-125196600D01*
X90768817Y-125196600D01*
X90805000Y-125200164D01*
X90841183Y-125196600D01*
X90841186Y-125196600D01*
X90949399Y-125185942D01*
X91088249Y-125143822D01*
X91216213Y-125075424D01*
X91328375Y-124983375D01*
X91351445Y-124955264D01*
X91935269Y-124371441D01*
X91963375Y-124348375D01*
X92055424Y-124236213D01*
X92123822Y-124108249D01*
X92165942Y-123969399D01*
X92170830Y-123919766D01*
X92180164Y-123825000D01*
X92176600Y-123788814D01*
X92176600Y-111161175D01*
X92180163Y-111124999D01*
X92176600Y-111088823D01*
X92176600Y-111088814D01*
X92165942Y-110980601D01*
X92123822Y-110841751D01*
X92055424Y-110713787D01*
X92053500Y-110711443D01*
X92053500Y-110109000D01*
X92033500Y-110109000D01*
X92033500Y-109855000D01*
X92053500Y-109855000D01*
X92053500Y-109543459D01*
X92055424Y-109541115D01*
X92123822Y-109413151D01*
X92165942Y-109274301D01*
X92176600Y-109166088D01*
X92176600Y-109166079D01*
X92180163Y-109129903D01*
X92176600Y-109093727D01*
X92176600Y-104811185D01*
X92180164Y-104775000D01*
X92165942Y-104630601D01*
X92138388Y-104539768D01*
X92123822Y-104491751D01*
X92055424Y-104363787D01*
X92051646Y-104359184D01*
X91986442Y-104279732D01*
X91986437Y-104279727D01*
X91963374Y-104251625D01*
X91935273Y-104228563D01*
X91351445Y-103644736D01*
X91328375Y-103616625D01*
X91216213Y-103524576D01*
X91088249Y-103456178D01*
X90949399Y-103414058D01*
X90841186Y-103403400D01*
X90841183Y-103403400D01*
X90805000Y-103399836D01*
X90768817Y-103403400D01*
X89480556Y-103403400D01*
X89342889Y-103311414D01*
X89172729Y-103240932D01*
X89165505Y-103239495D01*
X89164068Y-103232271D01*
X89093586Y-103062111D01*
X89001600Y-102924444D01*
X89001600Y-90475109D01*
X89380074Y-90096635D01*
X89380074Y-90281788D01*
X89423691Y-90501067D01*
X89509250Y-90707624D01*
X89633462Y-90893520D01*
X89791554Y-91051612D01*
X89977450Y-91175824D01*
X90184007Y-91261383D01*
X90403286Y-91305000D01*
X90626862Y-91305000D01*
X90846141Y-91261383D01*
X91052698Y-91175824D01*
X91214349Y-91067812D01*
X91235998Y-91139180D01*
X91294963Y-91249494D01*
X91374315Y-91346185D01*
X91471006Y-91425537D01*
X91581320Y-91484502D01*
X91701018Y-91520812D01*
X91825500Y-91533072D01*
X92127250Y-91530000D01*
X92286000Y-91371250D01*
X92286000Y-90297000D01*
X92266000Y-90297000D01*
X92266000Y-90043000D01*
X92286000Y-90043000D01*
X92286000Y-90023000D01*
X92540000Y-90023000D01*
X92540000Y-90043000D01*
X92560000Y-90043000D01*
X92560000Y-90297000D01*
X92540000Y-90297000D01*
X92540000Y-91371250D01*
X92698750Y-91530000D01*
X93000500Y-91533072D01*
X93124982Y-91520812D01*
X93244680Y-91484502D01*
X93303001Y-91453328D01*
X93303001Y-99428400D01*
X93138411Y-99428400D01*
X92957771Y-99464332D01*
X92787611Y-99534814D01*
X92634472Y-99637138D01*
X92504238Y-99767372D01*
X92401914Y-99920511D01*
X92331432Y-100090671D01*
X92295500Y-100271311D01*
X92295500Y-100455489D01*
X92331432Y-100636129D01*
X92401914Y-100806289D01*
X92493900Y-100943956D01*
X92493901Y-102932443D01*
X92401914Y-103070111D01*
X92331432Y-103240271D01*
X92295500Y-103420911D01*
X92295500Y-103605089D01*
X92331432Y-103785729D01*
X92401914Y-103955889D01*
X92504238Y-104109028D01*
X92634472Y-104239262D01*
X92787611Y-104341586D01*
X92957771Y-104412068D01*
X93138411Y-104448000D01*
X93303000Y-104448000D01*
X93303000Y-108868400D01*
X93290038Y-108879038D01*
X93284658Y-108885594D01*
X93219185Y-108805815D01*
X93122494Y-108726463D01*
X93012180Y-108667498D01*
X92892482Y-108631188D01*
X92768000Y-108618928D01*
X92466250Y-108622000D01*
X92307500Y-108780750D01*
X92307500Y-109855000D01*
X92327500Y-109855000D01*
X92327500Y-110109000D01*
X92307500Y-110109000D01*
X92307500Y-111183250D01*
X92466250Y-111342000D01*
X92768000Y-111345072D01*
X92892482Y-111332812D01*
X93012180Y-111296502D01*
X93122494Y-111237537D01*
X93219185Y-111158185D01*
X93284658Y-111078406D01*
X93290038Y-111084962D01*
X93424614Y-111195405D01*
X93578150Y-111277472D01*
X93744746Y-111328008D01*
X93918000Y-111345072D01*
X94593000Y-111345072D01*
X94766254Y-111328008D01*
X94932850Y-111277472D01*
X95086386Y-111195405D01*
X95220962Y-111084962D01*
X95331405Y-110950386D01*
X95339896Y-110934500D01*
X95525245Y-110934500D01*
X95553933Y-110946383D01*
X95773212Y-110990000D01*
X95783400Y-110990000D01*
X95783401Y-125058807D01*
X95779836Y-125095000D01*
X95790831Y-125206625D01*
X95794059Y-125239399D01*
X95807399Y-125283375D01*
X95832988Y-125367729D01*
X95836179Y-125378249D01*
X95841399Y-125388015D01*
X95904576Y-125506212D01*
X95949128Y-125560498D01*
X95996626Y-125618375D01*
X96024732Y-125641441D01*
X96608559Y-126225269D01*
X96631625Y-126253375D01*
X96743787Y-126345424D01*
X96871751Y-126413822D01*
X97010598Y-126455941D01*
X97010601Y-126455942D01*
X97027876Y-126457643D01*
X96961414Y-126557111D01*
X96890932Y-126727271D01*
X96855000Y-126907911D01*
X96855000Y-127092089D01*
X96890932Y-127272729D01*
X96961414Y-127442889D01*
X97063738Y-127596028D01*
X97193972Y-127726262D01*
X97347111Y-127828586D01*
X97517271Y-127899068D01*
X97697911Y-127935000D01*
X97882089Y-127935000D01*
X98062729Y-127899068D01*
X98232889Y-127828586D01*
X98386028Y-127726262D01*
X98516262Y-127596028D01*
X98618586Y-127442889D01*
X98689068Y-127272729D01*
X98721370Y-127110340D01*
X98886870Y-126944840D01*
X98914976Y-126921774D01*
X99007025Y-126809612D01*
X99075423Y-126681648D01*
X99080473Y-126665000D01*
X99152089Y-126665000D01*
X99332729Y-126629068D01*
X99502889Y-126558586D01*
X99656028Y-126456262D01*
X99786262Y-126326028D01*
X99888586Y-126172889D01*
X99959068Y-126002729D01*
X99995000Y-125822089D01*
X99995000Y-125637911D01*
X99959068Y-125457271D01*
X99888586Y-125287111D01*
X99799586Y-125153912D01*
X99796600Y-125123599D01*
X99796600Y-125123590D01*
X99785942Y-125015377D01*
X99743822Y-124876527D01*
X99675424Y-124748563D01*
X99662429Y-124732729D01*
X99606442Y-124664508D01*
X99606437Y-124664503D01*
X99583374Y-124636401D01*
X99555273Y-124613339D01*
X99070654Y-124128720D01*
X99142332Y-124114462D01*
X99312492Y-124043980D01*
X99312846Y-124043743D01*
X99422271Y-124089068D01*
X99602911Y-124125000D01*
X99787089Y-124125000D01*
X99967729Y-124089068D01*
X100137889Y-124018586D01*
X100291028Y-123916262D01*
X100421262Y-123786028D01*
X100523586Y-123632889D01*
X100594068Y-123462729D01*
X100630000Y-123282089D01*
X100630000Y-123097911D01*
X100594068Y-122917271D01*
X100523586Y-122747111D01*
X100421262Y-122593972D01*
X100291028Y-122463738D01*
X100137889Y-122361414D01*
X99967729Y-122290932D01*
X99805340Y-122258630D01*
X99796600Y-122249891D01*
X99796600Y-117773108D01*
X99967729Y-117739068D01*
X100137889Y-117668586D01*
X100275556Y-117576600D01*
X100928817Y-117576600D01*
X100965000Y-117580164D01*
X101001183Y-117576600D01*
X101001186Y-117576600D01*
X101109399Y-117565942D01*
X101248249Y-117523822D01*
X101376213Y-117455424D01*
X101488375Y-117363375D01*
X101511445Y-117335264D01*
X102730163Y-116116547D01*
X102758264Y-116093485D01*
X102781327Y-116065383D01*
X102781332Y-116065378D01*
X102850314Y-115981323D01*
X102891109Y-115905000D01*
X102918712Y-115853359D01*
X102960832Y-115714509D01*
X102971490Y-115606296D01*
X102971490Y-115606295D01*
X102975054Y-115570110D01*
X102971490Y-115533924D01*
X102971490Y-111208760D01*
X102997000Y-111183250D01*
X102997000Y-110109000D01*
X102977000Y-110109000D01*
X102977000Y-109855000D01*
X102997000Y-109855000D01*
X102997000Y-108780750D01*
X102971490Y-108755240D01*
X102971490Y-107352303D01*
X102971600Y-107351186D01*
X102971600Y-107351185D01*
X102975164Y-107315000D01*
X102971600Y-107278814D01*
X102971600Y-99096175D01*
X102975163Y-99059999D01*
X102971600Y-99023823D01*
X102971600Y-99023814D01*
X102960942Y-98915601D01*
X102918822Y-98776751D01*
X102850424Y-98648787D01*
X102758375Y-98536625D01*
X102730263Y-98513554D01*
X102669224Y-98452515D01*
X102747242Y-98335753D01*
X102817724Y-98165593D01*
X102853656Y-97984953D01*
X102853656Y-97800775D01*
X102817724Y-97620135D01*
X102747242Y-97449975D01*
X102644918Y-97296836D01*
X102514684Y-97166602D01*
X102361545Y-97064278D01*
X102191385Y-96993796D01*
X102028996Y-96961494D01*
X101701600Y-96634099D01*
X101701600Y-90750556D01*
X101793586Y-90612889D01*
X101858497Y-90456179D01*
X101855428Y-90895000D01*
X101867688Y-91019482D01*
X101903998Y-91139180D01*
X101962963Y-91249494D01*
X102042315Y-91346185D01*
X102139006Y-91425537D01*
X102249320Y-91484502D01*
X102369018Y-91520812D01*
X102493500Y-91533072D01*
X102795250Y-91530000D01*
X102954000Y-91371250D01*
X102954000Y-90297000D01*
X102934000Y-90297000D01*
X102934000Y-90043000D01*
X102954000Y-90043000D01*
X102954000Y-88968750D01*
X102795250Y-88810000D01*
X102493500Y-88806928D01*
X102369018Y-88819188D01*
X102336600Y-88829022D01*
X102336600Y-88752609D01*
X102980340Y-88108870D01*
X103142729Y-88076568D01*
X103312889Y-88006086D01*
X103466028Y-87903762D01*
X103596262Y-87773528D01*
X103698586Y-87620389D01*
X103769068Y-87450229D01*
X103796464Y-87312500D01*
X106666462Y-87312500D01*
X105172034Y-88806928D01*
X104818500Y-88806928D01*
X104645246Y-88823992D01*
X104478650Y-88874528D01*
X104325114Y-88956595D01*
X104190538Y-89067038D01*
X104185158Y-89073594D01*
X104119685Y-88993815D01*
X104022994Y-88914463D01*
X103912680Y-88855498D01*
X103792982Y-88819188D01*
X103668500Y-88806928D01*
X103366750Y-88810000D01*
X103208000Y-88968750D01*
X103208000Y-90043000D01*
X103228000Y-90043000D01*
X103228000Y-90297000D01*
X103208000Y-90297000D01*
X103208000Y-91332829D01*
X103205000Y-91347911D01*
X103205000Y-91532089D01*
X103240932Y-91712729D01*
X103311414Y-91882889D01*
X103403400Y-92020556D01*
X103403401Y-98976423D01*
X103311414Y-99114091D01*
X103240932Y-99284251D01*
X103205000Y-99464891D01*
X103205000Y-99649069D01*
X103240932Y-99829709D01*
X103311414Y-99999869D01*
X103413738Y-100153008D01*
X103543972Y-100283242D01*
X103697111Y-100385566D01*
X103867271Y-100456048D01*
X104047911Y-100491980D01*
X104203501Y-100491980D01*
X104203501Y-102570000D01*
X104047911Y-102570000D01*
X103867271Y-102605932D01*
X103697111Y-102676414D01*
X103543972Y-102778738D01*
X103413738Y-102908972D01*
X103311414Y-103062111D01*
X103240932Y-103232271D01*
X103205000Y-103412911D01*
X103205000Y-103597089D01*
X103240932Y-103777729D01*
X103311414Y-103947889D01*
X103403400Y-104085556D01*
X103403400Y-108628350D01*
X103251000Y-108780750D01*
X103251000Y-109855000D01*
X103271000Y-109855000D01*
X103271000Y-110109000D01*
X103251000Y-110109000D01*
X103251000Y-111183250D01*
X103403400Y-111335650D01*
X103403401Y-123244442D01*
X103311414Y-123382111D01*
X103240932Y-123552271D01*
X103205000Y-123732911D01*
X103205000Y-123917089D01*
X103240932Y-124097729D01*
X103311414Y-124267889D01*
X103413738Y-124421028D01*
X103543972Y-124551262D01*
X103697111Y-124653586D01*
X103867271Y-124724068D01*
X103912853Y-124733135D01*
X103875932Y-124822271D01*
X103840000Y-125002911D01*
X103840000Y-125187089D01*
X103875932Y-125367729D01*
X103946414Y-125537889D01*
X104048738Y-125691028D01*
X104178972Y-125821262D01*
X104332111Y-125923586D01*
X104502271Y-125994068D01*
X104682911Y-126030000D01*
X104867089Y-126030000D01*
X105047729Y-125994068D01*
X105217889Y-125923586D01*
X105371028Y-125821262D01*
X105501262Y-125691028D01*
X105603586Y-125537889D01*
X105674068Y-125367729D01*
X105710000Y-125187089D01*
X105710000Y-125002911D01*
X105674068Y-124822271D01*
X105603586Y-124652111D01*
X105511600Y-124514444D01*
X105511600Y-120595556D01*
X105603586Y-120457889D01*
X105674068Y-120287729D01*
X105710000Y-120107089D01*
X105710000Y-119922911D01*
X105674068Y-119742271D01*
X105603586Y-119572111D01*
X105501262Y-119418972D01*
X105371028Y-119288738D01*
X105217889Y-119186414D01*
X105047729Y-119115932D01*
X104876600Y-119081892D01*
X104876600Y-111345072D01*
X105536500Y-111345072D01*
X105709754Y-111328008D01*
X105876350Y-111277472D01*
X106029886Y-111195405D01*
X106164462Y-111084962D01*
X106274905Y-110950386D01*
X106283396Y-110934500D01*
X106320245Y-110934500D01*
X106348933Y-110946383D01*
X106568212Y-110990000D01*
X106791788Y-110990000D01*
X107011067Y-110946383D01*
X107217624Y-110860824D01*
X107246799Y-110841330D01*
X107246800Y-125092206D01*
X107243235Y-125128399D01*
X107257458Y-125272797D01*
X107299577Y-125411646D01*
X107367975Y-125539611D01*
X107429047Y-125614027D01*
X107460025Y-125651774D01*
X107488131Y-125674840D01*
X107653630Y-125840340D01*
X107685932Y-126002729D01*
X107756414Y-126172889D01*
X107858738Y-126326028D01*
X107897710Y-126365000D01*
X107858738Y-126403972D01*
X107756414Y-126557111D01*
X107685932Y-126727271D01*
X107650000Y-126907911D01*
X107650000Y-127092089D01*
X107685932Y-127272729D01*
X107756414Y-127442889D01*
X107858738Y-127596028D01*
X107988972Y-127726262D01*
X108142111Y-127828586D01*
X108312271Y-127899068D01*
X108492911Y-127935000D01*
X108677089Y-127935000D01*
X108857729Y-127899068D01*
X109027889Y-127828586D01*
X109181028Y-127726262D01*
X109311262Y-127596028D01*
X109413586Y-127442889D01*
X109484068Y-127272729D01*
X109516370Y-127110340D01*
X109681870Y-126944840D01*
X109709976Y-126921774D01*
X109729806Y-126897611D01*
X109790018Y-126947025D01*
X109917982Y-127015423D01*
X110056832Y-127057543D01*
X110165045Y-127068201D01*
X110165054Y-127068201D01*
X110201230Y-127071764D01*
X110237406Y-127068201D01*
X110742586Y-127068201D01*
X110778769Y-127071765D01*
X110814952Y-127068201D01*
X110814955Y-127068201D01*
X110923168Y-127057543D01*
X111062018Y-127015423D01*
X111189982Y-126947025D01*
X111302144Y-126854976D01*
X111325215Y-126826864D01*
X111586864Y-126565215D01*
X111614976Y-126542144D01*
X111707025Y-126429982D01*
X111775423Y-126302018D01*
X111817543Y-126163168D01*
X111828201Y-126054955D01*
X111828201Y-126054946D01*
X111831764Y-126018770D01*
X111828201Y-125982594D01*
X111828201Y-121287776D01*
X111831764Y-121251600D01*
X111828201Y-121215424D01*
X111828201Y-121215415D01*
X111817543Y-121107202D01*
X111775423Y-120968352D01*
X111707025Y-120840388D01*
X111680389Y-120807932D01*
X111638043Y-120756333D01*
X111638038Y-120756328D01*
X111614975Y-120728226D01*
X111586874Y-120705164D01*
X111421370Y-120539660D01*
X111389068Y-120377271D01*
X111318586Y-120207111D01*
X111216262Y-120053972D01*
X111086028Y-119923738D01*
X110932889Y-119821414D01*
X110762729Y-119750932D01*
X110617000Y-119721944D01*
X110617000Y-117139464D01*
X110754730Y-117112067D01*
X110924890Y-117041585D01*
X111078029Y-116939261D01*
X111208263Y-116809027D01*
X111310587Y-116655888D01*
X111381069Y-116485728D01*
X111413371Y-116323338D01*
X113525269Y-114211441D01*
X113553375Y-114188375D01*
X113645424Y-114076213D01*
X113713822Y-113948249D01*
X113755942Y-113809399D01*
X113766600Y-113701186D01*
X113766600Y-113701185D01*
X113770164Y-113665000D01*
X113766600Y-113628814D01*
X113766600Y-111314150D01*
X113897500Y-111183250D01*
X113897500Y-110109000D01*
X113877500Y-110109000D01*
X113877500Y-109855000D01*
X113897500Y-109855000D01*
X113897500Y-108780750D01*
X113766600Y-108649850D01*
X113766600Y-98461175D01*
X113770163Y-98424999D01*
X113766600Y-98388823D01*
X113766600Y-98388814D01*
X113755942Y-98280601D01*
X113713822Y-98141751D01*
X113645424Y-98013787D01*
X113553374Y-97901625D01*
X113525268Y-97878559D01*
X111421370Y-95774661D01*
X111389068Y-95612271D01*
X111318586Y-95442111D01*
X111216262Y-95288972D01*
X111177290Y-95250000D01*
X111216262Y-95211028D01*
X111318586Y-95057889D01*
X111389068Y-94887729D01*
X111425000Y-94707089D01*
X111425000Y-94522911D01*
X111389068Y-94342271D01*
X111318586Y-94172111D01*
X111216262Y-94018972D01*
X111177290Y-93980000D01*
X111216262Y-93941028D01*
X111318586Y-93787889D01*
X111389068Y-93617729D01*
X111425000Y-93437089D01*
X111425000Y-93252911D01*
X111389068Y-93072271D01*
X111318586Y-92902111D01*
X111216262Y-92748972D01*
X111177290Y-92710000D01*
X111216262Y-92671028D01*
X111318586Y-92517889D01*
X111389068Y-92347729D01*
X111425000Y-92167089D01*
X111425000Y-91982911D01*
X111389068Y-91802271D01*
X111318586Y-91632111D01*
X111216262Y-91478972D01*
X111086028Y-91348738D01*
X110932889Y-91246414D01*
X110762729Y-91175932D01*
X110582089Y-91140000D01*
X110397911Y-91140000D01*
X110217271Y-91175932D01*
X110047111Y-91246414D01*
X109893972Y-91348738D01*
X109763738Y-91478972D01*
X109661414Y-91632111D01*
X109590932Y-91802271D01*
X109558630Y-91964661D01*
X109415369Y-92107922D01*
X109415369Y-91016340D01*
X109536709Y-90895000D01*
X112566428Y-90895000D01*
X112578688Y-91019482D01*
X112614998Y-91139180D01*
X112673963Y-91249494D01*
X112753315Y-91346185D01*
X112850006Y-91425537D01*
X112960320Y-91484502D01*
X113080018Y-91520812D01*
X113204500Y-91533072D01*
X113506250Y-91530000D01*
X113665000Y-91371250D01*
X113665000Y-90297000D01*
X112728250Y-90297000D01*
X112569500Y-90455750D01*
X112566428Y-90895000D01*
X109536709Y-90895000D01*
X109965340Y-90466370D01*
X110127729Y-90434068D01*
X110297889Y-90363586D01*
X110451028Y-90261262D01*
X110581262Y-90131028D01*
X110683586Y-89977889D01*
X110754068Y-89807729D01*
X110786370Y-89645340D01*
X110795110Y-89636600D01*
X112567768Y-89636600D01*
X112569500Y-89884250D01*
X112728250Y-90043000D01*
X113665000Y-90043000D01*
X113665000Y-90023000D01*
X113919000Y-90023000D01*
X113919000Y-90043000D01*
X113939000Y-90043000D01*
X113939000Y-90297000D01*
X113919000Y-90297000D01*
X113919000Y-91371250D01*
X114000000Y-91452250D01*
X114000000Y-91532089D01*
X114035932Y-91712729D01*
X114106414Y-91882889D01*
X114198400Y-92020556D01*
X114198401Y-97209443D01*
X114106414Y-97347111D01*
X114035932Y-97517271D01*
X114000000Y-97697911D01*
X114000000Y-97882089D01*
X114035932Y-98062729D01*
X114106414Y-98232889D01*
X114208738Y-98386028D01*
X114338972Y-98516262D01*
X114492111Y-98618586D01*
X114662271Y-98689068D01*
X114842911Y-98725000D01*
X114914500Y-98725000D01*
X114914501Y-100030000D01*
X114842911Y-100030000D01*
X114662271Y-100065932D01*
X114492111Y-100136414D01*
X114338972Y-100238738D01*
X114208738Y-100368972D01*
X114106414Y-100522111D01*
X114035932Y-100692271D01*
X114000000Y-100872911D01*
X114000000Y-101057089D01*
X114035932Y-101237729D01*
X114106414Y-101407889D01*
X114198400Y-101545556D01*
X114198401Y-106099443D01*
X114106414Y-106237111D01*
X114035932Y-106407271D01*
X114000000Y-106587911D01*
X114000000Y-106772089D01*
X114035932Y-106952729D01*
X114106414Y-107122889D01*
X114208738Y-107276028D01*
X114338972Y-107406262D01*
X114492111Y-107508586D01*
X114662271Y-107579068D01*
X114842911Y-107615000D01*
X114914501Y-107615000D01*
X114914501Y-108206206D01*
X114914500Y-108206216D01*
X114914500Y-108698671D01*
X114856180Y-108667498D01*
X114736482Y-108631188D01*
X114612000Y-108618928D01*
X114310250Y-108622000D01*
X114151500Y-108780750D01*
X114151500Y-109855000D01*
X114171500Y-109855000D01*
X114171500Y-110109000D01*
X114151500Y-110109000D01*
X114151500Y-111183250D01*
X114310250Y-111342000D01*
X114612000Y-111345072D01*
X114736482Y-111332812D01*
X114856180Y-111296502D01*
X114914500Y-111265329D01*
X114914501Y-120010205D01*
X114909892Y-120057000D01*
X114928283Y-120243722D01*
X114982749Y-120423269D01*
X115071194Y-120588740D01*
X115105403Y-120630424D01*
X115190223Y-120733778D01*
X115226565Y-120763603D01*
X118307500Y-123844538D01*
X118307500Y-123866785D01*
X118321283Y-124006723D01*
X118375748Y-124186269D01*
X118464194Y-124351741D01*
X118583223Y-124496778D01*
X118728260Y-124615806D01*
X118893732Y-124704252D01*
X119073278Y-124758717D01*
X119260000Y-124777108D01*
X119278401Y-124775296D01*
X119278401Y-125149442D01*
X119186414Y-125287111D01*
X119115932Y-125457271D01*
X119080000Y-125637911D01*
X119080000Y-125822089D01*
X119115932Y-126002729D01*
X119186414Y-126172889D01*
X119288738Y-126326028D01*
X119327710Y-126365000D01*
X119288738Y-126403972D01*
X119186414Y-126557111D01*
X119115932Y-126727271D01*
X119080000Y-126907911D01*
X119080000Y-127092089D01*
X119115932Y-127272729D01*
X119186414Y-127442889D01*
X119288738Y-127596028D01*
X119418972Y-127726262D01*
X119572111Y-127828586D01*
X119742271Y-127899068D01*
X119922911Y-127935000D01*
X120107089Y-127935000D01*
X120287729Y-127899068D01*
X120406190Y-127850000D01*
X121171928Y-127850000D01*
X121184188Y-127974482D01*
X121220498Y-128094180D01*
X121279463Y-128204494D01*
X121358815Y-128301185D01*
X121455506Y-128380537D01*
X121565820Y-128439502D01*
X121685518Y-128475812D01*
X121810000Y-128488072D01*
X122374250Y-128485000D01*
X122533000Y-128326250D01*
X122533000Y-127127000D01*
X122787000Y-127127000D01*
X122787000Y-128326250D01*
X122945750Y-128485000D01*
X123510000Y-128488072D01*
X123634482Y-128475812D01*
X123754180Y-128439502D01*
X123864494Y-128380537D01*
X123961185Y-128301185D01*
X124040537Y-128204494D01*
X124099502Y-128094180D01*
X124135812Y-127974482D01*
X124148072Y-127850000D01*
X124145000Y-127285750D01*
X123986250Y-127127000D01*
X122787000Y-127127000D01*
X122533000Y-127127000D01*
X121333750Y-127127000D01*
X121175000Y-127285750D01*
X121171928Y-127850000D01*
X120406190Y-127850000D01*
X120457889Y-127828586D01*
X120611028Y-127726262D01*
X120741262Y-127596028D01*
X120843586Y-127442889D01*
X120914068Y-127272729D01*
X120946370Y-127110340D01*
X121145269Y-126911441D01*
X121173375Y-126888375D01*
X121252595Y-126791845D01*
X121333750Y-126873000D01*
X122533000Y-126873000D01*
X122533000Y-126853000D01*
X122787000Y-126853000D01*
X122787000Y-126873000D01*
X123986250Y-126873000D01*
X124145000Y-126714250D01*
X124148072Y-126150000D01*
X124135812Y-126025518D01*
X124099502Y-125905820D01*
X124040537Y-125795506D01*
X123961185Y-125698815D01*
X123864494Y-125619463D01*
X123754180Y-125560498D01*
X123681620Y-125538487D01*
X123813475Y-125406632D01*
X123975990Y-125163411D01*
X124087932Y-124893158D01*
X124145000Y-124606260D01*
X124145000Y-124313740D01*
X124087932Y-124026842D01*
X123975990Y-123756589D01*
X123813475Y-123513368D01*
X123606632Y-123306525D01*
X123432240Y-123190000D01*
X123606632Y-123073475D01*
X123813475Y-122866632D01*
X123975990Y-122623411D01*
X124087932Y-122353158D01*
X124145000Y-122066260D01*
X124145000Y-121773740D01*
X124087932Y-121486842D01*
X123975990Y-121216589D01*
X123813475Y-120973368D01*
X123606632Y-120766525D01*
X123432240Y-120650000D01*
X123606632Y-120533475D01*
X123813475Y-120326632D01*
X123975990Y-120083411D01*
X124087932Y-119813158D01*
X124145000Y-119526260D01*
X124145000Y-119233740D01*
X124087932Y-118946842D01*
X123975990Y-118676589D01*
X123813475Y-118433368D01*
X123606632Y-118226525D01*
X123432240Y-118110000D01*
X123606632Y-117993475D01*
X123813475Y-117786632D01*
X123975990Y-117543411D01*
X124087932Y-117273158D01*
X124145000Y-116986260D01*
X124145000Y-116693740D01*
X124087932Y-116406842D01*
X123975990Y-116136589D01*
X123813475Y-115893368D01*
X123606632Y-115686525D01*
X123432240Y-115570000D01*
X123606632Y-115453475D01*
X123813475Y-115246632D01*
X123975990Y-115003411D01*
X124087932Y-114733158D01*
X124145000Y-114446260D01*
X124145000Y-114153740D01*
X124087932Y-113866842D01*
X123975990Y-113596589D01*
X123813475Y-113353368D01*
X123606632Y-113146525D01*
X123432240Y-113030000D01*
X123606632Y-112913475D01*
X123813475Y-112706632D01*
X123975990Y-112463411D01*
X124087932Y-112193158D01*
X124145000Y-111906260D01*
X124145000Y-111613740D01*
X124087932Y-111326842D01*
X123975990Y-111056589D01*
X123813475Y-110813368D01*
X123606632Y-110606525D01*
X123432240Y-110490000D01*
X123606632Y-110373475D01*
X123813475Y-110166632D01*
X123975990Y-109923411D01*
X124087932Y-109653158D01*
X124145000Y-109366260D01*
X124145000Y-109073740D01*
X124087932Y-108786842D01*
X123975990Y-108516589D01*
X123813475Y-108273368D01*
X123606632Y-108066525D01*
X123432240Y-107950000D01*
X123606632Y-107833475D01*
X123813475Y-107626632D01*
X123975990Y-107383411D01*
X124087932Y-107113158D01*
X124145000Y-106826260D01*
X124145000Y-106533740D01*
X124087932Y-106246842D01*
X123975990Y-105976589D01*
X123813475Y-105733368D01*
X123606632Y-105526525D01*
X123432240Y-105410000D01*
X123606632Y-105293475D01*
X123813475Y-105086632D01*
X123975990Y-104843411D01*
X124087932Y-104573158D01*
X124145000Y-104286260D01*
X124145000Y-103993740D01*
X124087932Y-103706842D01*
X123975990Y-103436589D01*
X123813475Y-103193368D01*
X123606632Y-102986525D01*
X123432240Y-102870000D01*
X123606632Y-102753475D01*
X123813475Y-102546632D01*
X123975990Y-102303411D01*
X124087932Y-102033158D01*
X124145000Y-101746260D01*
X124145000Y-101453740D01*
X124087932Y-101166842D01*
X123975990Y-100896589D01*
X123813475Y-100653368D01*
X123606632Y-100446525D01*
X123432240Y-100330000D01*
X123606632Y-100213475D01*
X123813475Y-100006632D01*
X123975990Y-99763411D01*
X124087932Y-99493158D01*
X124145000Y-99206260D01*
X124145000Y-98913740D01*
X124087932Y-98626842D01*
X123975990Y-98356589D01*
X123813475Y-98113368D01*
X123606632Y-97906525D01*
X123432240Y-97790000D01*
X123606632Y-97673475D01*
X123813475Y-97466632D01*
X123975990Y-97223411D01*
X124087932Y-96953158D01*
X124145000Y-96666260D01*
X124145000Y-96373740D01*
X124087932Y-96086842D01*
X123975990Y-95816589D01*
X123813475Y-95573368D01*
X123606632Y-95366525D01*
X123432240Y-95250000D01*
X123606632Y-95133475D01*
X123813475Y-94926632D01*
X123975990Y-94683411D01*
X124087932Y-94413158D01*
X124145000Y-94126260D01*
X124145000Y-93833740D01*
X124087932Y-93546842D01*
X123975990Y-93276589D01*
X123813475Y-93033368D01*
X123606632Y-92826525D01*
X123432240Y-92710000D01*
X123606632Y-92593475D01*
X123813475Y-92386632D01*
X123975990Y-92143411D01*
X124087932Y-91873158D01*
X124145000Y-91586260D01*
X124145000Y-91293740D01*
X124087932Y-91006842D01*
X123975990Y-90736589D01*
X123813475Y-90493368D01*
X123606632Y-90286525D01*
X123432240Y-90170000D01*
X123606632Y-90053475D01*
X123813475Y-89846632D01*
X123975990Y-89603411D01*
X124087932Y-89333158D01*
X124145000Y-89046260D01*
X124145000Y-88753740D01*
X124087932Y-88466842D01*
X123975990Y-88196589D01*
X123813475Y-87953368D01*
X123606632Y-87746525D01*
X123432240Y-87630000D01*
X123606632Y-87513475D01*
X123813475Y-87306632D01*
X123975990Y-87063411D01*
X124087932Y-86793158D01*
X124145000Y-86506260D01*
X124145000Y-86222039D01*
X124841000Y-85526039D01*
X124841000Y-129413000D01*
X71501000Y-129413000D01*
X71501000Y-126150000D01*
X72171928Y-126150000D01*
X72171928Y-127850000D01*
X72184188Y-127974482D01*
X72220498Y-128094180D01*
X72279463Y-128204494D01*
X72358815Y-128301185D01*
X72455506Y-128380537D01*
X72565820Y-128439502D01*
X72685518Y-128475812D01*
X72810000Y-128488072D01*
X74510000Y-128488072D01*
X74634482Y-128475812D01*
X74754180Y-128439502D01*
X74864494Y-128380537D01*
X74961185Y-128301185D01*
X75040537Y-128204494D01*
X75099502Y-128094180D01*
X75135812Y-127974482D01*
X75148072Y-127850000D01*
X75148072Y-126150000D01*
X75135812Y-126025518D01*
X75099502Y-125905820D01*
X75040537Y-125795506D01*
X74961185Y-125698815D01*
X74864494Y-125619463D01*
X74754180Y-125560498D01*
X74681620Y-125538487D01*
X74813475Y-125406632D01*
X74975990Y-125163411D01*
X75087932Y-124893158D01*
X75145000Y-124606260D01*
X75145000Y-124313740D01*
X75087932Y-124026842D01*
X74975990Y-123756589D01*
X74813475Y-123513368D01*
X74606632Y-123306525D01*
X74432240Y-123190000D01*
X74606632Y-123073475D01*
X74813475Y-122866632D01*
X74975990Y-122623411D01*
X75087932Y-122353158D01*
X75145000Y-122066260D01*
X75145000Y-121773740D01*
X75087932Y-121486842D01*
X75070124Y-121443849D01*
X75122111Y-121478586D01*
X75292271Y-121549068D01*
X75472911Y-121585000D01*
X75657089Y-121585000D01*
X75837729Y-121549068D01*
X76007889Y-121478586D01*
X76161028Y-121376262D01*
X76291262Y-121246028D01*
X76393586Y-121092889D01*
X76464068Y-120922729D01*
X76465505Y-120915505D01*
X76472729Y-120914068D01*
X76642889Y-120843586D01*
X76796028Y-120741262D01*
X76926262Y-120611028D01*
X77028586Y-120457889D01*
X77099068Y-120287729D01*
X77135000Y-120107089D01*
X77135000Y-119922911D01*
X77099068Y-119742271D01*
X77028586Y-119572111D01*
X76936600Y-119434444D01*
X76936600Y-113970109D01*
X77330269Y-113576441D01*
X77358375Y-113553375D01*
X77450424Y-113441213D01*
X77518822Y-113313249D01*
X77560942Y-113174399D01*
X77571600Y-113066186D01*
X77571600Y-113066185D01*
X77575164Y-113030000D01*
X77571600Y-112993814D01*
X77571600Y-111070556D01*
X77663586Y-110932889D01*
X77734068Y-110762729D01*
X77770000Y-110582089D01*
X77770000Y-110397911D01*
X77734068Y-110217271D01*
X77663586Y-110047111D01*
X77603109Y-109956600D01*
X78159444Y-109956600D01*
X78297111Y-110048586D01*
X78467271Y-110119068D01*
X78647911Y-110155000D01*
X78832089Y-110155000D01*
X79012729Y-110119068D01*
X79182889Y-110048586D01*
X79248001Y-110005080D01*
X79248000Y-123509370D01*
X79059370Y-123698000D01*
X78647542Y-123698000D01*
X78547889Y-123631414D01*
X78377729Y-123560932D01*
X78197089Y-123525000D01*
X78012911Y-123525000D01*
X77832271Y-123560932D01*
X77662111Y-123631414D01*
X77508972Y-123733738D01*
X77378738Y-123863972D01*
X77276414Y-124017111D01*
X77205932Y-124187271D01*
X77170000Y-124367911D01*
X77170000Y-124552089D01*
X77205932Y-124732729D01*
X77276414Y-124902889D01*
X77378738Y-125056028D01*
X77417710Y-125095000D01*
X77378738Y-125133972D01*
X77276414Y-125287111D01*
X77205932Y-125457271D01*
X77170000Y-125637911D01*
X77170000Y-125822089D01*
X77205932Y-126002729D01*
X77276414Y-126172889D01*
X77378738Y-126326028D01*
X77508972Y-126456262D01*
X77662111Y-126558586D01*
X77832271Y-126629068D01*
X78012911Y-126665000D01*
X78197089Y-126665000D01*
X78377729Y-126629068D01*
X78547889Y-126558586D01*
X78647542Y-126492000D01*
X79972577Y-126492000D01*
X80010000Y-126495686D01*
X80047423Y-126492000D01*
X80047426Y-126492000D01*
X80159378Y-126480974D01*
X80303015Y-126437402D01*
X80435392Y-126366645D01*
X80551422Y-126271422D01*
X80575283Y-126242347D01*
X81088842Y-125728788D01*
X81117912Y-125704932D01*
X81156757Y-125657599D01*
X81213135Y-125588903D01*
X81260566Y-125500164D01*
X81283892Y-125456525D01*
X81327464Y-125312888D01*
X81338490Y-125200936D01*
X81338490Y-125200933D01*
X81342176Y-125163510D01*
X81338490Y-125126087D01*
X81338490Y-111208760D01*
X81364000Y-111183250D01*
X81364000Y-110109000D01*
X81344000Y-110109000D01*
X81344000Y-109855000D01*
X81364000Y-109855000D01*
X81364000Y-108780750D01*
X81338490Y-108755240D01*
X81338490Y-106013913D01*
X81342176Y-105976490D01*
X81338490Y-105939064D01*
X81327464Y-105827112D01*
X81283892Y-105683475D01*
X81247196Y-105614822D01*
X81213135Y-105551097D01*
X81141769Y-105464138D01*
X81117912Y-105435068D01*
X81088841Y-105411210D01*
X80575283Y-104897653D01*
X80551422Y-104868578D01*
X80435392Y-104773355D01*
X80303015Y-104702598D01*
X80159378Y-104659026D01*
X80047426Y-104648000D01*
X80047423Y-104648000D01*
X80010000Y-104644314D01*
X79972577Y-104648000D01*
X78890080Y-104648000D01*
X78933586Y-104582889D01*
X79004068Y-104412729D01*
X79040000Y-104232089D01*
X79040000Y-104047911D01*
X79004068Y-103867271D01*
X78933586Y-103697111D01*
X78831262Y-103543972D01*
X78701028Y-103413738D01*
X78547889Y-103311414D01*
X78377729Y-103240932D01*
X78197089Y-103205000D01*
X78012911Y-103205000D01*
X77832271Y-103240932D01*
X77662111Y-103311414D01*
X77571600Y-103371891D01*
X77571600Y-102368109D01*
X77662111Y-102428586D01*
X77832271Y-102499068D01*
X78012911Y-102535000D01*
X78197089Y-102535000D01*
X78377729Y-102499068D01*
X78547889Y-102428586D01*
X78701028Y-102326262D01*
X78831262Y-102196028D01*
X78933586Y-102042889D01*
X79004068Y-101872729D01*
X79040000Y-101692089D01*
X79040000Y-101507911D01*
X79004068Y-101327271D01*
X78933586Y-101157111D01*
X78831262Y-101003972D01*
X78701028Y-100873738D01*
X78547889Y-100771414D01*
X78377729Y-100700932D01*
X78215340Y-100668630D01*
X78206600Y-100659891D01*
X78206600Y-90895000D01*
X80308428Y-90895000D01*
X80320688Y-91019482D01*
X80356998Y-91139180D01*
X80415963Y-91249494D01*
X80495315Y-91346185D01*
X80592006Y-91425537D01*
X80702320Y-91484502D01*
X80822018Y-91520812D01*
X80946500Y-91533072D01*
X81248250Y-91530000D01*
X81407000Y-91371250D01*
X81407000Y-90297000D01*
X80470250Y-90297000D01*
X80311500Y-90455750D01*
X80308428Y-90895000D01*
X78206600Y-90895000D01*
X78206600Y-89445000D01*
X80308428Y-89445000D01*
X80311500Y-89884250D01*
X80470250Y-90043000D01*
X81407000Y-90043000D01*
X81407000Y-88968750D01*
X81248250Y-88810000D01*
X80946500Y-88806928D01*
X80822018Y-88819188D01*
X80702320Y-88855498D01*
X80592006Y-88914463D01*
X80495315Y-88993815D01*
X80415963Y-89090506D01*
X80356998Y-89200820D01*
X80320688Y-89320518D01*
X80308428Y-89445000D01*
X78206600Y-89445000D01*
X78206600Y-88210556D01*
X78298586Y-88072889D01*
X78369068Y-87902729D01*
X78405000Y-87722089D01*
X78405000Y-87537911D01*
X78369068Y-87357271D01*
X78298586Y-87187111D01*
X78196262Y-87033972D01*
X78066028Y-86903738D01*
X77912889Y-86801414D01*
X77742729Y-86730932D01*
X77562089Y-86695000D01*
X77377911Y-86695000D01*
X77197271Y-86730932D01*
X77027111Y-86801414D01*
X76873972Y-86903738D01*
X76743738Y-87033972D01*
X76641414Y-87187111D01*
X76570932Y-87357271D01*
X76535000Y-87537911D01*
X76535000Y-87722089D01*
X76570932Y-87902729D01*
X76641414Y-88072889D01*
X76733401Y-88210557D01*
X76733401Y-90931691D01*
X75095719Y-89294010D01*
X75145000Y-89046260D01*
X75145000Y-88753740D01*
X75087932Y-88466842D01*
X74975990Y-88196589D01*
X74813475Y-87953368D01*
X74606632Y-87746525D01*
X74432240Y-87630000D01*
X74606632Y-87513475D01*
X74813475Y-87306632D01*
X74975990Y-87063411D01*
X75087932Y-86793158D01*
X75145000Y-86506260D01*
X75145000Y-86213740D01*
X75087932Y-85926842D01*
X74975990Y-85656589D01*
X74813475Y-85413368D01*
X74606632Y-85206525D01*
X74424466Y-85084805D01*
X74541355Y-85015178D01*
X74757588Y-84820269D01*
X74906966Y-84620000D01*
X79206928Y-84620000D01*
X79219188Y-84744482D01*
X79255498Y-84864180D01*
X79314463Y-84974494D01*
X79393815Y-85071185D01*
X79490506Y-85150537D01*
X79600820Y-85209502D01*
X79720518Y-85245812D01*
X79845000Y-85258072D01*
X80359250Y-85255000D01*
X80518000Y-85096250D01*
X80518000Y-83947000D01*
X79368750Y-83947000D01*
X79210000Y-84105750D01*
X79206928Y-84620000D01*
X74906966Y-84620000D01*
X74931641Y-84586920D01*
X75056825Y-84324099D01*
X75101476Y-84176890D01*
X74980155Y-83947000D01*
X73787000Y-83947000D01*
X73787000Y-83967000D01*
X73533000Y-83967000D01*
X73533000Y-83947000D01*
X72339845Y-83947000D01*
X72218524Y-84176890D01*
X72263175Y-84324099D01*
X72388359Y-84586920D01*
X72562412Y-84820269D01*
X72778645Y-85015178D01*
X72895534Y-85084805D01*
X72713368Y-85206525D01*
X72506525Y-85413368D01*
X72344010Y-85656589D01*
X72232068Y-85926842D01*
X72175000Y-86213740D01*
X72175000Y-86506260D01*
X72232068Y-86793158D01*
X72344010Y-87063411D01*
X72506525Y-87306632D01*
X72713368Y-87513475D01*
X72887760Y-87630000D01*
X72713368Y-87746525D01*
X72506525Y-87953368D01*
X72344010Y-88196589D01*
X72232068Y-88466842D01*
X72175000Y-88753740D01*
X72175000Y-89046260D01*
X72232068Y-89333158D01*
X72344010Y-89603411D01*
X72506525Y-89846632D01*
X72713368Y-90053475D01*
X72887760Y-90170000D01*
X72713368Y-90286525D01*
X72506525Y-90493368D01*
X72344010Y-90736589D01*
X72232068Y-91006842D01*
X72175000Y-91293740D01*
X72175000Y-91586260D01*
X72232068Y-91873158D01*
X72344010Y-92143411D01*
X72506525Y-92386632D01*
X72713368Y-92593475D01*
X72887760Y-92710000D01*
X72713368Y-92826525D01*
X72506525Y-93033368D01*
X72344010Y-93276589D01*
X72232068Y-93546842D01*
X72175000Y-93833740D01*
X72175000Y-94126260D01*
X72232068Y-94413158D01*
X72344010Y-94683411D01*
X72506525Y-94926632D01*
X72713368Y-95133475D01*
X72887760Y-95250000D01*
X72713368Y-95366525D01*
X72506525Y-95573368D01*
X72344010Y-95816589D01*
X72232068Y-96086842D01*
X72175000Y-96373740D01*
X72175000Y-96666260D01*
X72232068Y-96953158D01*
X72344010Y-97223411D01*
X72506525Y-97466632D01*
X72713368Y-97673475D01*
X72887760Y-97790000D01*
X72713368Y-97906525D01*
X72506525Y-98113368D01*
X72344010Y-98356589D01*
X72232068Y-98626842D01*
X72175000Y-98913740D01*
X72175000Y-99206260D01*
X72232068Y-99493158D01*
X72344010Y-99763411D01*
X72506525Y-100006632D01*
X72713368Y-100213475D01*
X72887760Y-100330000D01*
X72713368Y-100446525D01*
X72506525Y-100653368D01*
X72344010Y-100896589D01*
X72232068Y-101166842D01*
X72175000Y-101453740D01*
X72175000Y-101746260D01*
X72232068Y-102033158D01*
X72344010Y-102303411D01*
X72506525Y-102546632D01*
X72713368Y-102753475D01*
X72887760Y-102870000D01*
X72713368Y-102986525D01*
X72506525Y-103193368D01*
X72344010Y-103436589D01*
X72232068Y-103706842D01*
X72175000Y-103993740D01*
X72175000Y-104286260D01*
X72232068Y-104573158D01*
X72344010Y-104843411D01*
X72506525Y-105086632D01*
X72713368Y-105293475D01*
X72887760Y-105410000D01*
X72713368Y-105526525D01*
X72506525Y-105733368D01*
X72344010Y-105976589D01*
X72232068Y-106246842D01*
X72175000Y-106533740D01*
X72175000Y-106826260D01*
X72232068Y-107113158D01*
X72344010Y-107383411D01*
X72506525Y-107626632D01*
X72713368Y-107833475D01*
X72887760Y-107950000D01*
X72713368Y-108066525D01*
X72506525Y-108273368D01*
X72344010Y-108516589D01*
X72232068Y-108786842D01*
X72175000Y-109073740D01*
X72175000Y-109366260D01*
X72232068Y-109653158D01*
X72344010Y-109923411D01*
X72506525Y-110166632D01*
X72713368Y-110373475D01*
X72887760Y-110490000D01*
X72713368Y-110606525D01*
X72506525Y-110813368D01*
X72344010Y-111056589D01*
X72232068Y-111326842D01*
X72175000Y-111613740D01*
X72175000Y-111906260D01*
X72232068Y-112193158D01*
X72344010Y-112463411D01*
X72506525Y-112706632D01*
X72713368Y-112913475D01*
X72887760Y-113030000D01*
X72713368Y-113146525D01*
X72506525Y-113353368D01*
X72344010Y-113596589D01*
X72232068Y-113866842D01*
X72175000Y-114153740D01*
X72175000Y-114446260D01*
X72232068Y-114733158D01*
X72344010Y-115003411D01*
X72506525Y-115246632D01*
X72713368Y-115453475D01*
X72887760Y-115570000D01*
X72713368Y-115686525D01*
X72506525Y-115893368D01*
X72344010Y-116136589D01*
X72232068Y-116406842D01*
X72175000Y-116693740D01*
X72175000Y-116986260D01*
X72232068Y-117273158D01*
X72344010Y-117543411D01*
X72506525Y-117786632D01*
X72713368Y-117993475D01*
X72887760Y-118110000D01*
X72713368Y-118226525D01*
X72506525Y-118433368D01*
X72344010Y-118676589D01*
X72232068Y-118946842D01*
X72175000Y-119233740D01*
X72175000Y-119526260D01*
X72232068Y-119813158D01*
X72344010Y-120083411D01*
X72506525Y-120326632D01*
X72713368Y-120533475D01*
X72887760Y-120650000D01*
X72713368Y-120766525D01*
X72506525Y-120973368D01*
X72344010Y-121216589D01*
X72232068Y-121486842D01*
X72175000Y-121773740D01*
X72175000Y-122066260D01*
X72232068Y-122353158D01*
X72344010Y-122623411D01*
X72506525Y-122866632D01*
X72713368Y-123073475D01*
X72887760Y-123190000D01*
X72713368Y-123306525D01*
X72506525Y-123513368D01*
X72344010Y-123756589D01*
X72232068Y-124026842D01*
X72175000Y-124313740D01*
X72175000Y-124606260D01*
X72232068Y-124893158D01*
X72344010Y-125163411D01*
X72506525Y-125406632D01*
X72638380Y-125538487D01*
X72565820Y-125560498D01*
X72455506Y-125619463D01*
X72358815Y-125698815D01*
X72279463Y-125795506D01*
X72220498Y-125905820D01*
X72184188Y-126025518D01*
X72171928Y-126150000D01*
X71501000Y-126150000D01*
X71501000Y-83463110D01*
X72218524Y-83463110D01*
X72339845Y-83693000D01*
X73533000Y-83693000D01*
X73533000Y-82499186D01*
X73787000Y-82499186D01*
X73787000Y-83693000D01*
X74980155Y-83693000D01*
X75101476Y-83463110D01*
X75056825Y-83315901D01*
X74931641Y-83053080D01*
X74906967Y-83020000D01*
X79206928Y-83020000D01*
X79210000Y-83534250D01*
X79368750Y-83693000D01*
X80518000Y-83693000D01*
X80518000Y-82543750D01*
X80359250Y-82385000D01*
X79845000Y-82381928D01*
X79720518Y-82394188D01*
X79600820Y-82430498D01*
X79490506Y-82489463D01*
X79393815Y-82568815D01*
X79314463Y-82665506D01*
X79255498Y-82775820D01*
X79219188Y-82895518D01*
X79206928Y-83020000D01*
X74906967Y-83020000D01*
X74757588Y-82819731D01*
X74541355Y-82624822D01*
X74291252Y-82475843D01*
X74016891Y-82378519D01*
X73787000Y-82499186D01*
X73533000Y-82499186D01*
X73303109Y-82378519D01*
X73028748Y-82475843D01*
X72778645Y-82624822D01*
X72562412Y-82819731D01*
X72388359Y-83053080D01*
X72263175Y-83315901D01*
X72218524Y-83463110D01*
X71501000Y-83463110D01*
X71501000Y-78685000D01*
X82503341Y-78685000D01*
X82481589Y-78694010D01*
%TA.AperFunction,Conductor*%
D26*
G36*
X82481589Y-78694010D02*
G01*
X82238368Y-78856525D01*
X82031525Y-79063368D01*
X81869010Y-79306589D01*
X81757068Y-79576842D01*
X81700000Y-79863740D01*
X81700000Y-80156260D01*
X81757068Y-80443158D01*
X81869010Y-80713411D01*
X82031525Y-80956632D01*
X82238368Y-81163475D01*
X82448400Y-81303814D01*
X82448401Y-82586321D01*
X82270241Y-82705363D01*
X82071643Y-82903961D01*
X82070812Y-82895518D01*
X82034502Y-82775820D01*
X81975537Y-82665506D01*
X81896185Y-82568815D01*
X81799494Y-82489463D01*
X81689180Y-82430498D01*
X81569482Y-82394188D01*
X81445000Y-82381928D01*
X80930750Y-82385000D01*
X80772000Y-82543750D01*
X80772000Y-83693000D01*
X80792000Y-83693000D01*
X80792000Y-83947000D01*
X80772000Y-83947000D01*
X80772000Y-85096250D01*
X80930750Y-85255000D01*
X81445000Y-85258072D01*
X81569482Y-85245812D01*
X81689180Y-85209502D01*
X81799494Y-85150537D01*
X81896185Y-85071185D01*
X81975537Y-84974494D01*
X82034502Y-84864180D01*
X82070812Y-84744482D01*
X82071643Y-84736039D01*
X82270241Y-84934637D01*
X82505273Y-85091680D01*
X82766426Y-85199853D01*
X83043665Y-85255000D01*
X83326335Y-85255000D01*
X83603574Y-85199853D01*
X83864727Y-85091680D01*
X84099759Y-84934637D01*
X84299637Y-84734759D01*
X84455000Y-84502241D01*
X84610363Y-84734759D01*
X84810241Y-84934637D01*
X85045273Y-85091680D01*
X85306426Y-85199853D01*
X85583665Y-85255000D01*
X85866335Y-85255000D01*
X86143574Y-85199853D01*
X86404727Y-85091680D01*
X86639759Y-84934637D01*
X86839637Y-84734759D01*
X86995000Y-84502241D01*
X87150363Y-84734759D01*
X87350241Y-84934637D01*
X87585273Y-85091680D01*
X87846426Y-85199853D01*
X88123665Y-85255000D01*
X88406335Y-85255000D01*
X88683574Y-85199853D01*
X88944727Y-85091680D01*
X89179759Y-84934637D01*
X89379637Y-84734759D01*
X89535000Y-84502241D01*
X89690363Y-84734759D01*
X89890241Y-84934637D01*
X90125273Y-85091680D01*
X90386426Y-85199853D01*
X90663665Y-85255000D01*
X90946335Y-85255000D01*
X91223574Y-85199853D01*
X91484727Y-85091680D01*
X91719759Y-84934637D01*
X91919637Y-84734759D01*
X92075000Y-84502241D01*
X92230363Y-84734759D01*
X92430241Y-84934637D01*
X92665273Y-85091680D01*
X92808163Y-85150867D01*
X92771091Y-85273077D01*
X92760800Y-85377561D01*
X92760800Y-85377570D01*
X92757360Y-85412496D01*
X92760800Y-85447422D01*
X92760800Y-85494910D01*
X92745738Y-85509972D01*
X92643414Y-85663111D01*
X92572932Y-85833271D01*
X92537000Y-86013911D01*
X92537000Y-86198089D01*
X92572932Y-86378729D01*
X92643414Y-86548889D01*
X92701786Y-86636250D01*
X90688072Y-88649964D01*
X90688072Y-87515000D01*
X90675812Y-87390518D01*
X90639502Y-87270820D01*
X90580537Y-87160506D01*
X90501185Y-87063815D01*
X90404494Y-86984463D01*
X90294180Y-86925498D01*
X90174482Y-86889188D01*
X90050000Y-86876928D01*
X89050000Y-86876928D01*
X88925518Y-86889188D01*
X88900000Y-86896929D01*
X88874482Y-86889188D01*
X88750000Y-86876928D01*
X87750000Y-86876928D01*
X87625518Y-86889188D01*
X87505820Y-86925498D01*
X87395506Y-86984463D01*
X87298815Y-87063815D01*
X87219463Y-87160506D01*
X87160498Y-87270820D01*
X87139390Y-87340403D01*
X87087089Y-87330000D01*
X86902911Y-87330000D01*
X86722271Y-87365932D01*
X86552111Y-87436414D01*
X86398972Y-87538738D01*
X86268738Y-87668972D01*
X86166414Y-87822111D01*
X86095932Y-87992271D01*
X86060000Y-88172911D01*
X86060000Y-88357089D01*
X86095932Y-88537729D01*
X86166414Y-88707889D01*
X86268738Y-88861028D01*
X86398972Y-88991262D01*
X86552111Y-89093586D01*
X86722271Y-89164068D01*
X86893401Y-89198108D01*
X86893400Y-104476892D01*
X86722271Y-104510932D01*
X86552111Y-104581414D01*
X86398972Y-104683738D01*
X86268738Y-104813972D01*
X86166414Y-104967111D01*
X86095932Y-105137271D01*
X86060000Y-105317911D01*
X86060000Y-105502089D01*
X86095932Y-105682729D01*
X86166414Y-105852889D01*
X86268738Y-106006028D01*
X86307710Y-106045000D01*
X86268738Y-106083972D01*
X86166414Y-106237111D01*
X86095932Y-106407271D01*
X86060000Y-106587911D01*
X86060000Y-106772089D01*
X86095932Y-106952729D01*
X86166414Y-107122889D01*
X86233000Y-107222542D01*
X86233000Y-107277575D01*
X86233001Y-108858330D01*
X85965732Y-109125600D01*
X85813520Y-108973388D01*
X85627624Y-108849176D01*
X85421067Y-108763617D01*
X85201788Y-108720000D01*
X84978212Y-108720000D01*
X84758933Y-108763617D01*
X84561500Y-108845397D01*
X84561500Y-91283600D01*
X84574462Y-91272962D01*
X84628353Y-91207295D01*
X84758933Y-91261383D01*
X84978212Y-91305000D01*
X85201788Y-91305000D01*
X85421067Y-91261383D01*
X85627624Y-91175824D01*
X85813520Y-91051612D01*
X85971612Y-90893520D01*
X86095824Y-90707624D01*
X86181383Y-90501067D01*
X86225000Y-90281788D01*
X86225000Y-90058212D01*
X86181383Y-89838933D01*
X86095824Y-89632376D01*
X85971612Y-89446480D01*
X85813520Y-89288388D01*
X85627624Y-89164176D01*
X85421067Y-89078617D01*
X85201788Y-89035000D01*
X84978212Y-89035000D01*
X84758933Y-89078617D01*
X84628353Y-89132705D01*
X84574462Y-89067038D01*
X84439886Y-88956595D01*
X84286350Y-88874528D01*
X84119754Y-88823992D01*
X83946500Y-88806928D01*
X83271500Y-88806928D01*
X83098246Y-88823992D01*
X82931650Y-88874528D01*
X82778114Y-88956595D01*
X82643538Y-89067038D01*
X82638158Y-89073594D01*
X82572685Y-88993815D01*
X82475994Y-88914463D01*
X82365680Y-88855498D01*
X82245982Y-88819188D01*
X82121500Y-88806928D01*
X81819750Y-88810000D01*
X81661000Y-88968750D01*
X81661000Y-90043000D01*
X81681000Y-90043000D01*
X81681000Y-90297000D01*
X81661000Y-90297000D01*
X81661000Y-91371250D01*
X81819750Y-91530000D01*
X82121500Y-91533072D01*
X82245982Y-91520812D01*
X82365680Y-91484502D01*
X82475994Y-91425537D01*
X82572685Y-91346185D01*
X82638158Y-91266406D01*
X82643538Y-91272962D01*
X82656500Y-91283600D01*
X82656500Y-100032867D01*
X82642089Y-100030000D01*
X82457911Y-100030000D01*
X82277271Y-100065932D01*
X82107111Y-100136414D01*
X81953972Y-100238738D01*
X81823738Y-100368972D01*
X81721414Y-100522111D01*
X81650932Y-100692271D01*
X81615000Y-100872911D01*
X81615000Y-101057089D01*
X81650932Y-101237729D01*
X81721414Y-101407889D01*
X81813400Y-101545556D01*
X81813400Y-108621627D01*
X81776750Y-108622000D01*
X81618000Y-108780750D01*
X81618000Y-109855000D01*
X81638000Y-109855000D01*
X81638000Y-110109000D01*
X81618000Y-110109000D01*
X81618000Y-111183250D01*
X81776750Y-111342000D01*
X81813401Y-111342373D01*
X81813401Y-120704442D01*
X81721414Y-120842111D01*
X81650932Y-121012271D01*
X81615000Y-121192911D01*
X81615000Y-121377089D01*
X81650932Y-121557729D01*
X81721414Y-121727889D01*
X81823738Y-121881028D01*
X81953972Y-122011262D01*
X82107111Y-122113586D01*
X82277271Y-122184068D01*
X82457911Y-122220000D01*
X82642089Y-122220000D01*
X82822729Y-122184068D01*
X82992889Y-122113586D01*
X83146028Y-122011262D01*
X83276262Y-121881028D01*
X83378586Y-121727889D01*
X83449068Y-121557729D01*
X83485000Y-121377089D01*
X83485000Y-121192911D01*
X83449068Y-121012271D01*
X83378586Y-120842111D01*
X83286600Y-120704444D01*
X83286600Y-111345072D01*
X83903500Y-111345072D01*
X84076754Y-111328008D01*
X84243350Y-111277472D01*
X84328000Y-111232225D01*
X84328001Y-126327567D01*
X84324314Y-126365000D01*
X84339027Y-126514378D01*
X84382599Y-126658015D01*
X84453355Y-126790392D01*
X84521150Y-126873000D01*
X84548579Y-126906422D01*
X84577649Y-126930279D01*
X85159716Y-127512346D01*
X85183578Y-127541422D01*
X85250116Y-127596028D01*
X85299607Y-127636645D01*
X85370364Y-127674465D01*
X85431985Y-127707402D01*
X85575622Y-127750974D01*
X85687574Y-127762000D01*
X85687577Y-127762000D01*
X85725000Y-127765686D01*
X85762423Y-127762000D01*
X86452458Y-127762000D01*
X86552111Y-127828586D01*
X86722271Y-127899068D01*
X86902911Y-127935000D01*
X87087089Y-127935000D01*
X87267729Y-127899068D01*
X87437889Y-127828586D01*
X87591028Y-127726262D01*
X87721262Y-127596028D01*
X87823586Y-127442889D01*
X87894068Y-127272729D01*
X87930000Y-127092089D01*
X87930000Y-126907911D01*
X87894068Y-126727271D01*
X87823586Y-126557111D01*
X87721262Y-126403972D01*
X87682290Y-126365000D01*
X87721262Y-126326028D01*
X87823586Y-126172889D01*
X87894068Y-126002729D01*
X87930000Y-125822089D01*
X87930000Y-125801709D01*
X87968630Y-125840340D01*
X88000932Y-126002729D01*
X88071414Y-126172889D01*
X88173738Y-126326028D01*
X88303972Y-126456262D01*
X88457111Y-126558586D01*
X88627271Y-126629068D01*
X88807911Y-126665000D01*
X88992089Y-126665000D01*
X89172729Y-126629068D01*
X89342889Y-126558586D01*
X89496028Y-126456262D01*
X89626262Y-126326028D01*
X89728586Y-126172889D01*
X89799068Y-126002729D01*
X89835000Y-125822089D01*
X89835000Y-125637911D01*
X89799068Y-125457271D01*
X89728586Y-125287111D01*
X89668109Y-125196600D01*
X90768817Y-125196600D01*
X90805000Y-125200164D01*
X90841183Y-125196600D01*
X90841186Y-125196600D01*
X90949399Y-125185942D01*
X91088249Y-125143822D01*
X91216213Y-125075424D01*
X91328375Y-124983375D01*
X91351445Y-124955264D01*
X91935269Y-124371441D01*
X91963375Y-124348375D01*
X92055424Y-124236213D01*
X92123822Y-124108249D01*
X92165942Y-123969399D01*
X92170830Y-123919766D01*
X92180164Y-123825000D01*
X92176600Y-123788814D01*
X92176600Y-111161175D01*
X92180163Y-111124999D01*
X92176600Y-111088823D01*
X92176600Y-111088814D01*
X92165942Y-110980601D01*
X92123822Y-110841751D01*
X92055424Y-110713787D01*
X92053500Y-110711443D01*
X92053500Y-110109000D01*
X92033500Y-110109000D01*
X92033500Y-109855000D01*
X92053500Y-109855000D01*
X92053500Y-109543459D01*
X92055424Y-109541115D01*
X92123822Y-109413151D01*
X92165942Y-109274301D01*
X92176600Y-109166088D01*
X92176600Y-109166079D01*
X92180163Y-109129903D01*
X92176600Y-109093727D01*
X92176600Y-104811185D01*
X92180164Y-104775000D01*
X92165942Y-104630601D01*
X92138388Y-104539768D01*
X92123822Y-104491751D01*
X92055424Y-104363787D01*
X92051646Y-104359184D01*
X91986442Y-104279732D01*
X91986437Y-104279727D01*
X91963374Y-104251625D01*
X91935273Y-104228563D01*
X91351445Y-103644736D01*
X91328375Y-103616625D01*
X91216213Y-103524576D01*
X91088249Y-103456178D01*
X90949399Y-103414058D01*
X90841186Y-103403400D01*
X90841183Y-103403400D01*
X90805000Y-103399836D01*
X90768817Y-103403400D01*
X89480556Y-103403400D01*
X89342889Y-103311414D01*
X89172729Y-103240932D01*
X89165505Y-103239495D01*
X89164068Y-103232271D01*
X89093586Y-103062111D01*
X89001600Y-102924444D01*
X89001600Y-90475109D01*
X89380074Y-90096635D01*
X89380074Y-90281788D01*
X89423691Y-90501067D01*
X89509250Y-90707624D01*
X89633462Y-90893520D01*
X89791554Y-91051612D01*
X89977450Y-91175824D01*
X90184007Y-91261383D01*
X90403286Y-91305000D01*
X90626862Y-91305000D01*
X90846141Y-91261383D01*
X91052698Y-91175824D01*
X91214349Y-91067812D01*
X91235998Y-91139180D01*
X91294963Y-91249494D01*
X91374315Y-91346185D01*
X91471006Y-91425537D01*
X91581320Y-91484502D01*
X91701018Y-91520812D01*
X91825500Y-91533072D01*
X92127250Y-91530000D01*
X92286000Y-91371250D01*
X92286000Y-90297000D01*
X92266000Y-90297000D01*
X92266000Y-90043000D01*
X92286000Y-90043000D01*
X92286000Y-90023000D01*
X92540000Y-90023000D01*
X92540000Y-90043000D01*
X92560000Y-90043000D01*
X92560000Y-90297000D01*
X92540000Y-90297000D01*
X92540000Y-91371250D01*
X92698750Y-91530000D01*
X93000500Y-91533072D01*
X93124982Y-91520812D01*
X93244680Y-91484502D01*
X93303001Y-91453328D01*
X93303001Y-99428400D01*
X93138411Y-99428400D01*
X92957771Y-99464332D01*
X92787611Y-99534814D01*
X92634472Y-99637138D01*
X92504238Y-99767372D01*
X92401914Y-99920511D01*
X92331432Y-100090671D01*
X92295500Y-100271311D01*
X92295500Y-100455489D01*
X92331432Y-100636129D01*
X92401914Y-100806289D01*
X92493900Y-100943956D01*
X92493901Y-102932443D01*
X92401914Y-103070111D01*
X92331432Y-103240271D01*
X92295500Y-103420911D01*
X92295500Y-103605089D01*
X92331432Y-103785729D01*
X92401914Y-103955889D01*
X92504238Y-104109028D01*
X92634472Y-104239262D01*
X92787611Y-104341586D01*
X92957771Y-104412068D01*
X93138411Y-104448000D01*
X93303000Y-104448000D01*
X93303000Y-108868400D01*
X93290038Y-108879038D01*
X93284658Y-108885594D01*
X93219185Y-108805815D01*
X93122494Y-108726463D01*
X93012180Y-108667498D01*
X92892482Y-108631188D01*
X92768000Y-108618928D01*
X92466250Y-108622000D01*
X92307500Y-108780750D01*
X92307500Y-109855000D01*
X92327500Y-109855000D01*
X92327500Y-110109000D01*
X92307500Y-110109000D01*
X92307500Y-111183250D01*
X92466250Y-111342000D01*
X92768000Y-111345072D01*
X92892482Y-111332812D01*
X93012180Y-111296502D01*
X93122494Y-111237537D01*
X93219185Y-111158185D01*
X93284658Y-111078406D01*
X93290038Y-111084962D01*
X93424614Y-111195405D01*
X93578150Y-111277472D01*
X93744746Y-111328008D01*
X93918000Y-111345072D01*
X94593000Y-111345072D01*
X94766254Y-111328008D01*
X94932850Y-111277472D01*
X95086386Y-111195405D01*
X95220962Y-111084962D01*
X95331405Y-110950386D01*
X95339896Y-110934500D01*
X95525245Y-110934500D01*
X95553933Y-110946383D01*
X95773212Y-110990000D01*
X95783400Y-110990000D01*
X95783401Y-125058807D01*
X95779836Y-125095000D01*
X95790831Y-125206625D01*
X95794059Y-125239399D01*
X95807399Y-125283375D01*
X95832988Y-125367729D01*
X95836179Y-125378249D01*
X95841399Y-125388015D01*
X95904576Y-125506212D01*
X95949128Y-125560498D01*
X95996626Y-125618375D01*
X96024732Y-125641441D01*
X96608559Y-126225269D01*
X96631625Y-126253375D01*
X96743787Y-126345424D01*
X96871751Y-126413822D01*
X97010598Y-126455941D01*
X97010601Y-126455942D01*
X97027876Y-126457643D01*
X96961414Y-126557111D01*
X96890932Y-126727271D01*
X96855000Y-126907911D01*
X96855000Y-127092089D01*
X96890932Y-127272729D01*
X96961414Y-127442889D01*
X97063738Y-127596028D01*
X97193972Y-127726262D01*
X97347111Y-127828586D01*
X97517271Y-127899068D01*
X97697911Y-127935000D01*
X97882089Y-127935000D01*
X98062729Y-127899068D01*
X98232889Y-127828586D01*
X98386028Y-127726262D01*
X98516262Y-127596028D01*
X98618586Y-127442889D01*
X98689068Y-127272729D01*
X98721370Y-127110340D01*
X98886870Y-126944840D01*
X98914976Y-126921774D01*
X99007025Y-126809612D01*
X99075423Y-126681648D01*
X99080473Y-126665000D01*
X99152089Y-126665000D01*
X99332729Y-126629068D01*
X99502889Y-126558586D01*
X99656028Y-126456262D01*
X99786262Y-126326028D01*
X99888586Y-126172889D01*
X99959068Y-126002729D01*
X99995000Y-125822089D01*
X99995000Y-125637911D01*
X99959068Y-125457271D01*
X99888586Y-125287111D01*
X99799586Y-125153912D01*
X99796600Y-125123599D01*
X99796600Y-125123590D01*
X99785942Y-125015377D01*
X99743822Y-124876527D01*
X99675424Y-124748563D01*
X99662429Y-124732729D01*
X99606442Y-124664508D01*
X99606437Y-124664503D01*
X99583374Y-124636401D01*
X99555273Y-124613339D01*
X99070654Y-124128720D01*
X99142332Y-124114462D01*
X99312492Y-124043980D01*
X99312846Y-124043743D01*
X99422271Y-124089068D01*
X99602911Y-124125000D01*
X99787089Y-124125000D01*
X99967729Y-124089068D01*
X100137889Y-124018586D01*
X100291028Y-123916262D01*
X100421262Y-123786028D01*
X100523586Y-123632889D01*
X100594068Y-123462729D01*
X100630000Y-123282089D01*
X100630000Y-123097911D01*
X100594068Y-122917271D01*
X100523586Y-122747111D01*
X100421262Y-122593972D01*
X100291028Y-122463738D01*
X100137889Y-122361414D01*
X99967729Y-122290932D01*
X99805340Y-122258630D01*
X99796600Y-122249891D01*
X99796600Y-117773108D01*
X99967729Y-117739068D01*
X100137889Y-117668586D01*
X100275556Y-117576600D01*
X100928817Y-117576600D01*
X100965000Y-117580164D01*
X101001183Y-117576600D01*
X101001186Y-117576600D01*
X101109399Y-117565942D01*
X101248249Y-117523822D01*
X101376213Y-117455424D01*
X101488375Y-117363375D01*
X101511445Y-117335264D01*
X102730163Y-116116547D01*
X102758264Y-116093485D01*
X102781327Y-116065383D01*
X102781332Y-116065378D01*
X102850314Y-115981323D01*
X102891109Y-115905000D01*
X102918712Y-115853359D01*
X102960832Y-115714509D01*
X102971490Y-115606296D01*
X102971490Y-115606295D01*
X102975054Y-115570110D01*
X102971490Y-115533924D01*
X102971490Y-111208760D01*
X102997000Y-111183250D01*
X102997000Y-110109000D01*
X102977000Y-110109000D01*
X102977000Y-109855000D01*
X102997000Y-109855000D01*
X102997000Y-108780750D01*
X102971490Y-108755240D01*
X102971490Y-107352303D01*
X102971600Y-107351186D01*
X102971600Y-107351185D01*
X102975164Y-107315000D01*
X102971600Y-107278814D01*
X102971600Y-99096175D01*
X102975163Y-99059999D01*
X102971600Y-99023823D01*
X102971600Y-99023814D01*
X102960942Y-98915601D01*
X102918822Y-98776751D01*
X102850424Y-98648787D01*
X102758375Y-98536625D01*
X102730263Y-98513554D01*
X102669224Y-98452515D01*
X102747242Y-98335753D01*
X102817724Y-98165593D01*
X102853656Y-97984953D01*
X102853656Y-97800775D01*
X102817724Y-97620135D01*
X102747242Y-97449975D01*
X102644918Y-97296836D01*
X102514684Y-97166602D01*
X102361545Y-97064278D01*
X102191385Y-96993796D01*
X102028996Y-96961494D01*
X101701600Y-96634099D01*
X101701600Y-90750556D01*
X101793586Y-90612889D01*
X101858497Y-90456179D01*
X101855428Y-90895000D01*
X101867688Y-91019482D01*
X101903998Y-91139180D01*
X101962963Y-91249494D01*
X102042315Y-91346185D01*
X102139006Y-91425537D01*
X102249320Y-91484502D01*
X102369018Y-91520812D01*
X102493500Y-91533072D01*
X102795250Y-91530000D01*
X102954000Y-91371250D01*
X102954000Y-90297000D01*
X102934000Y-90297000D01*
X102934000Y-90043000D01*
X102954000Y-90043000D01*
X102954000Y-88968750D01*
X102795250Y-88810000D01*
X102493500Y-88806928D01*
X102369018Y-88819188D01*
X102336600Y-88829022D01*
X102336600Y-88752609D01*
X102980340Y-88108870D01*
X103142729Y-88076568D01*
X103312889Y-88006086D01*
X103466028Y-87903762D01*
X103596262Y-87773528D01*
X103698586Y-87620389D01*
X103769068Y-87450229D01*
X103796464Y-87312500D01*
X106666462Y-87312500D01*
X105172034Y-88806928D01*
X104818500Y-88806928D01*
X104645246Y-88823992D01*
X104478650Y-88874528D01*
X104325114Y-88956595D01*
X104190538Y-89067038D01*
X104185158Y-89073594D01*
X104119685Y-88993815D01*
X104022994Y-88914463D01*
X103912680Y-88855498D01*
X103792982Y-88819188D01*
X103668500Y-88806928D01*
X103366750Y-88810000D01*
X103208000Y-88968750D01*
X103208000Y-90043000D01*
X103228000Y-90043000D01*
X103228000Y-90297000D01*
X103208000Y-90297000D01*
X103208000Y-91332829D01*
X103205000Y-91347911D01*
X103205000Y-91532089D01*
X103240932Y-91712729D01*
X103311414Y-91882889D01*
X103403400Y-92020556D01*
X103403401Y-98976423D01*
X103311414Y-99114091D01*
X103240932Y-99284251D01*
X103205000Y-99464891D01*
X103205000Y-99649069D01*
X103240932Y-99829709D01*
X103311414Y-99999869D01*
X103413738Y-100153008D01*
X103543972Y-100283242D01*
X103697111Y-100385566D01*
X103867271Y-100456048D01*
X104047911Y-100491980D01*
X104203501Y-100491980D01*
X104203501Y-102570000D01*
X104047911Y-102570000D01*
X103867271Y-102605932D01*
X103697111Y-102676414D01*
X103543972Y-102778738D01*
X103413738Y-102908972D01*
X103311414Y-103062111D01*
X103240932Y-103232271D01*
X103205000Y-103412911D01*
X103205000Y-103597089D01*
X103240932Y-103777729D01*
X103311414Y-103947889D01*
X103403400Y-104085556D01*
X103403400Y-108628350D01*
X103251000Y-108780750D01*
X103251000Y-109855000D01*
X103271000Y-109855000D01*
X103271000Y-110109000D01*
X103251000Y-110109000D01*
X103251000Y-111183250D01*
X103403400Y-111335650D01*
X103403401Y-123244442D01*
X103311414Y-123382111D01*
X103240932Y-123552271D01*
X103205000Y-123732911D01*
X103205000Y-123917089D01*
X103240932Y-124097729D01*
X103311414Y-124267889D01*
X103413738Y-124421028D01*
X103543972Y-124551262D01*
X103697111Y-124653586D01*
X103867271Y-124724068D01*
X103912853Y-124733135D01*
X103875932Y-124822271D01*
X103840000Y-125002911D01*
X103840000Y-125187089D01*
X103875932Y-125367729D01*
X103946414Y-125537889D01*
X104048738Y-125691028D01*
X104178972Y-125821262D01*
X104332111Y-125923586D01*
X104502271Y-125994068D01*
X104682911Y-126030000D01*
X104867089Y-126030000D01*
X105047729Y-125994068D01*
X105217889Y-125923586D01*
X105371028Y-125821262D01*
X105501262Y-125691028D01*
X105603586Y-125537889D01*
X105674068Y-125367729D01*
X105710000Y-125187089D01*
X105710000Y-125002911D01*
X105674068Y-124822271D01*
X105603586Y-124652111D01*
X105511600Y-124514444D01*
X105511600Y-120595556D01*
X105603586Y-120457889D01*
X105674068Y-120287729D01*
X105710000Y-120107089D01*
X105710000Y-119922911D01*
X105674068Y-119742271D01*
X105603586Y-119572111D01*
X105501262Y-119418972D01*
X105371028Y-119288738D01*
X105217889Y-119186414D01*
X105047729Y-119115932D01*
X104876600Y-119081892D01*
X104876600Y-111345072D01*
X105536500Y-111345072D01*
X105709754Y-111328008D01*
X105876350Y-111277472D01*
X106029886Y-111195405D01*
X106164462Y-111084962D01*
X106274905Y-110950386D01*
X106283396Y-110934500D01*
X106320245Y-110934500D01*
X106348933Y-110946383D01*
X106568212Y-110990000D01*
X106791788Y-110990000D01*
X107011067Y-110946383D01*
X107217624Y-110860824D01*
X107246799Y-110841330D01*
X107246800Y-125092206D01*
X107243235Y-125128399D01*
X107257458Y-125272797D01*
X107299577Y-125411646D01*
X107367975Y-125539611D01*
X107429047Y-125614027D01*
X107460025Y-125651774D01*
X107488131Y-125674840D01*
X107653630Y-125840340D01*
X107685932Y-126002729D01*
X107756414Y-126172889D01*
X107858738Y-126326028D01*
X107897710Y-126365000D01*
X107858738Y-126403972D01*
X107756414Y-126557111D01*
X107685932Y-126727271D01*
X107650000Y-126907911D01*
X107650000Y-127092089D01*
X107685932Y-127272729D01*
X107756414Y-127442889D01*
X107858738Y-127596028D01*
X107988972Y-127726262D01*
X108142111Y-127828586D01*
X108312271Y-127899068D01*
X108492911Y-127935000D01*
X108677089Y-127935000D01*
X108857729Y-127899068D01*
X109027889Y-127828586D01*
X109181028Y-127726262D01*
X109311262Y-127596028D01*
X109413586Y-127442889D01*
X109484068Y-127272729D01*
X109516370Y-127110340D01*
X109681870Y-126944840D01*
X109709976Y-126921774D01*
X109729806Y-126897611D01*
X109790018Y-126947025D01*
X109917982Y-127015423D01*
X110056832Y-127057543D01*
X110165045Y-127068201D01*
X110165054Y-127068201D01*
X110201230Y-127071764D01*
X110237406Y-127068201D01*
X110742586Y-127068201D01*
X110778769Y-127071765D01*
X110814952Y-127068201D01*
X110814955Y-127068201D01*
X110923168Y-127057543D01*
X111062018Y-127015423D01*
X111189982Y-126947025D01*
X111302144Y-126854976D01*
X111325215Y-126826864D01*
X111586864Y-126565215D01*
X111614976Y-126542144D01*
X111707025Y-126429982D01*
X111775423Y-126302018D01*
X111817543Y-126163168D01*
X111828201Y-126054955D01*
X111828201Y-126054946D01*
X111831764Y-126018770D01*
X111828201Y-125982594D01*
X111828201Y-121287776D01*
X111831764Y-121251600D01*
X111828201Y-121215424D01*
X111828201Y-121215415D01*
X111817543Y-121107202D01*
X111775423Y-120968352D01*
X111707025Y-120840388D01*
X111680389Y-120807932D01*
X111638043Y-120756333D01*
X111638038Y-120756328D01*
X111614975Y-120728226D01*
X111586874Y-120705164D01*
X111421370Y-120539660D01*
X111389068Y-120377271D01*
X111318586Y-120207111D01*
X111216262Y-120053972D01*
X111086028Y-119923738D01*
X110932889Y-119821414D01*
X110762729Y-119750932D01*
X110617000Y-119721944D01*
X110617000Y-117139464D01*
X110754730Y-117112067D01*
X110924890Y-117041585D01*
X111078029Y-116939261D01*
X111208263Y-116809027D01*
X111310587Y-116655888D01*
X111381069Y-116485728D01*
X111413371Y-116323338D01*
X113525269Y-114211441D01*
X113553375Y-114188375D01*
X113645424Y-114076213D01*
X113713822Y-113948249D01*
X113755942Y-113809399D01*
X113766600Y-113701186D01*
X113766600Y-113701185D01*
X113770164Y-113665000D01*
X113766600Y-113628814D01*
X113766600Y-111314150D01*
X113897500Y-111183250D01*
X113897500Y-110109000D01*
X113877500Y-110109000D01*
X113877500Y-109855000D01*
X113897500Y-109855000D01*
X113897500Y-108780750D01*
X113766600Y-108649850D01*
X113766600Y-98461175D01*
X113770163Y-98424999D01*
X113766600Y-98388823D01*
X113766600Y-98388814D01*
X113755942Y-98280601D01*
X113713822Y-98141751D01*
X113645424Y-98013787D01*
X113553374Y-97901625D01*
X113525268Y-97878559D01*
X111421370Y-95774661D01*
X111389068Y-95612271D01*
X111318586Y-95442111D01*
X111216262Y-95288972D01*
X111177290Y-95250000D01*
X111216262Y-95211028D01*
X111318586Y-95057889D01*
X111389068Y-94887729D01*
X111425000Y-94707089D01*
X111425000Y-94522911D01*
X111389068Y-94342271D01*
X111318586Y-94172111D01*
X111216262Y-94018972D01*
X111177290Y-93980000D01*
X111216262Y-93941028D01*
X111318586Y-93787889D01*
X111389068Y-93617729D01*
X111425000Y-93437089D01*
X111425000Y-93252911D01*
X111389068Y-93072271D01*
X111318586Y-92902111D01*
X111216262Y-92748972D01*
X111177290Y-92710000D01*
X111216262Y-92671028D01*
X111318586Y-92517889D01*
X111389068Y-92347729D01*
X111425000Y-92167089D01*
X111425000Y-91982911D01*
X111389068Y-91802271D01*
X111318586Y-91632111D01*
X111216262Y-91478972D01*
X111086028Y-91348738D01*
X110932889Y-91246414D01*
X110762729Y-91175932D01*
X110582089Y-91140000D01*
X110397911Y-91140000D01*
X110217271Y-91175932D01*
X110047111Y-91246414D01*
X109893972Y-91348738D01*
X109763738Y-91478972D01*
X109661414Y-91632111D01*
X109590932Y-91802271D01*
X109558630Y-91964661D01*
X109415369Y-92107922D01*
X109415369Y-91016340D01*
X109536709Y-90895000D01*
X112566428Y-90895000D01*
X112578688Y-91019482D01*
X112614998Y-91139180D01*
X112673963Y-91249494D01*
X112753315Y-91346185D01*
X112850006Y-91425537D01*
X112960320Y-91484502D01*
X113080018Y-91520812D01*
X113204500Y-91533072D01*
X113506250Y-91530000D01*
X113665000Y-91371250D01*
X113665000Y-90297000D01*
X112728250Y-90297000D01*
X112569500Y-90455750D01*
X112566428Y-90895000D01*
X109536709Y-90895000D01*
X109965340Y-90466370D01*
X110127729Y-90434068D01*
X110297889Y-90363586D01*
X110451028Y-90261262D01*
X110581262Y-90131028D01*
X110683586Y-89977889D01*
X110754068Y-89807729D01*
X110786370Y-89645340D01*
X110795110Y-89636600D01*
X112567768Y-89636600D01*
X112569500Y-89884250D01*
X112728250Y-90043000D01*
X113665000Y-90043000D01*
X113665000Y-90023000D01*
X113919000Y-90023000D01*
X113919000Y-90043000D01*
X113939000Y-90043000D01*
X113939000Y-90297000D01*
X113919000Y-90297000D01*
X113919000Y-91371250D01*
X114000000Y-91452250D01*
X114000000Y-91532089D01*
X114035932Y-91712729D01*
X114106414Y-91882889D01*
X114198400Y-92020556D01*
X114198401Y-97209443D01*
X114106414Y-97347111D01*
X114035932Y-97517271D01*
X114000000Y-97697911D01*
X114000000Y-97882089D01*
X114035932Y-98062729D01*
X114106414Y-98232889D01*
X114208738Y-98386028D01*
X114338972Y-98516262D01*
X114492111Y-98618586D01*
X114662271Y-98689068D01*
X114842911Y-98725000D01*
X114914500Y-98725000D01*
X114914501Y-100030000D01*
X114842911Y-100030000D01*
X114662271Y-100065932D01*
X114492111Y-100136414D01*
X114338972Y-100238738D01*
X114208738Y-100368972D01*
X114106414Y-100522111D01*
X114035932Y-100692271D01*
X114000000Y-100872911D01*
X114000000Y-101057089D01*
X114035932Y-101237729D01*
X114106414Y-101407889D01*
X114198400Y-101545556D01*
X114198401Y-106099443D01*
X114106414Y-106237111D01*
X114035932Y-106407271D01*
X114000000Y-106587911D01*
X114000000Y-106772089D01*
X114035932Y-106952729D01*
X114106414Y-107122889D01*
X114208738Y-107276028D01*
X114338972Y-107406262D01*
X114492111Y-107508586D01*
X114662271Y-107579068D01*
X114842911Y-107615000D01*
X114914501Y-107615000D01*
X114914501Y-108206206D01*
X114914500Y-108206216D01*
X114914500Y-108698671D01*
X114856180Y-108667498D01*
X114736482Y-108631188D01*
X114612000Y-108618928D01*
X114310250Y-108622000D01*
X114151500Y-108780750D01*
X114151500Y-109855000D01*
X114171500Y-109855000D01*
X114171500Y-110109000D01*
X114151500Y-110109000D01*
X114151500Y-111183250D01*
X114310250Y-111342000D01*
X114612000Y-111345072D01*
X114736482Y-111332812D01*
X114856180Y-111296502D01*
X114914500Y-111265329D01*
X114914501Y-120010205D01*
X114909892Y-120057000D01*
X114928283Y-120243722D01*
X114982749Y-120423269D01*
X115071194Y-120588740D01*
X115105403Y-120630424D01*
X115190223Y-120733778D01*
X115226565Y-120763603D01*
X118307500Y-123844538D01*
X118307500Y-123866785D01*
X118321283Y-124006723D01*
X118375748Y-124186269D01*
X118464194Y-124351741D01*
X118583223Y-124496778D01*
X118728260Y-124615806D01*
X118893732Y-124704252D01*
X119073278Y-124758717D01*
X119260000Y-124777108D01*
X119278401Y-124775296D01*
X119278401Y-125149442D01*
X119186414Y-125287111D01*
X119115932Y-125457271D01*
X119080000Y-125637911D01*
X119080000Y-125822089D01*
X119115932Y-126002729D01*
X119186414Y-126172889D01*
X119288738Y-126326028D01*
X119327710Y-126365000D01*
X119288738Y-126403972D01*
X119186414Y-126557111D01*
X119115932Y-126727271D01*
X119080000Y-126907911D01*
X119080000Y-127092089D01*
X119115932Y-127272729D01*
X119186414Y-127442889D01*
X119288738Y-127596028D01*
X119418972Y-127726262D01*
X119572111Y-127828586D01*
X119742271Y-127899068D01*
X119922911Y-127935000D01*
X120107089Y-127935000D01*
X120287729Y-127899068D01*
X120406190Y-127850000D01*
X121171928Y-127850000D01*
X121184188Y-127974482D01*
X121220498Y-128094180D01*
X121279463Y-128204494D01*
X121358815Y-128301185D01*
X121455506Y-128380537D01*
X121565820Y-128439502D01*
X121685518Y-128475812D01*
X121810000Y-128488072D01*
X122374250Y-128485000D01*
X122533000Y-128326250D01*
X122533000Y-127127000D01*
X122787000Y-127127000D01*
X122787000Y-128326250D01*
X122945750Y-128485000D01*
X123510000Y-128488072D01*
X123634482Y-128475812D01*
X123754180Y-128439502D01*
X123864494Y-128380537D01*
X123961185Y-128301185D01*
X124040537Y-128204494D01*
X124099502Y-128094180D01*
X124135812Y-127974482D01*
X124148072Y-127850000D01*
X124145000Y-127285750D01*
X123986250Y-127127000D01*
X122787000Y-127127000D01*
X122533000Y-127127000D01*
X121333750Y-127127000D01*
X121175000Y-127285750D01*
X121171928Y-127850000D01*
X120406190Y-127850000D01*
X120457889Y-127828586D01*
X120611028Y-127726262D01*
X120741262Y-127596028D01*
X120843586Y-127442889D01*
X120914068Y-127272729D01*
X120946370Y-127110340D01*
X121145269Y-126911441D01*
X121173375Y-126888375D01*
X121252595Y-126791845D01*
X121333750Y-126873000D01*
X122533000Y-126873000D01*
X122533000Y-126853000D01*
X122787000Y-126853000D01*
X122787000Y-126873000D01*
X123986250Y-126873000D01*
X124145000Y-126714250D01*
X124148072Y-126150000D01*
X124135812Y-126025518D01*
X124099502Y-125905820D01*
X124040537Y-125795506D01*
X123961185Y-125698815D01*
X123864494Y-125619463D01*
X123754180Y-125560498D01*
X123681620Y-125538487D01*
X123813475Y-125406632D01*
X123975990Y-125163411D01*
X124087932Y-124893158D01*
X124145000Y-124606260D01*
X124145000Y-124313740D01*
X124087932Y-124026842D01*
X123975990Y-123756589D01*
X123813475Y-123513368D01*
X123606632Y-123306525D01*
X123432240Y-123190000D01*
X123606632Y-123073475D01*
X123813475Y-122866632D01*
X123975990Y-122623411D01*
X124087932Y-122353158D01*
X124145000Y-122066260D01*
X124145000Y-121773740D01*
X124087932Y-121486842D01*
X123975990Y-121216589D01*
X123813475Y-120973368D01*
X123606632Y-120766525D01*
X123432240Y-120650000D01*
X123606632Y-120533475D01*
X123813475Y-120326632D01*
X123975990Y-120083411D01*
X124087932Y-119813158D01*
X124145000Y-119526260D01*
X124145000Y-119233740D01*
X124087932Y-118946842D01*
X123975990Y-118676589D01*
X123813475Y-118433368D01*
X123606632Y-118226525D01*
X123432240Y-118110000D01*
X123606632Y-117993475D01*
X123813475Y-117786632D01*
X123975990Y-117543411D01*
X124087932Y-117273158D01*
X124145000Y-116986260D01*
X124145000Y-116693740D01*
X124087932Y-116406842D01*
X123975990Y-116136589D01*
X123813475Y-115893368D01*
X123606632Y-115686525D01*
X123432240Y-115570000D01*
X123606632Y-115453475D01*
X123813475Y-115246632D01*
X123975990Y-115003411D01*
X124087932Y-114733158D01*
X124145000Y-114446260D01*
X124145000Y-114153740D01*
X124087932Y-113866842D01*
X123975990Y-113596589D01*
X123813475Y-113353368D01*
X123606632Y-113146525D01*
X123432240Y-113030000D01*
X123606632Y-112913475D01*
X123813475Y-112706632D01*
X123975990Y-112463411D01*
X124087932Y-112193158D01*
X124145000Y-111906260D01*
X124145000Y-111613740D01*
X124087932Y-111326842D01*
X123975990Y-111056589D01*
X123813475Y-110813368D01*
X123606632Y-110606525D01*
X123432240Y-110490000D01*
X123606632Y-110373475D01*
X123813475Y-110166632D01*
X123975990Y-109923411D01*
X124087932Y-109653158D01*
X124145000Y-109366260D01*
X124145000Y-109073740D01*
X124087932Y-108786842D01*
X123975990Y-108516589D01*
X123813475Y-108273368D01*
X123606632Y-108066525D01*
X123432240Y-107950000D01*
X123606632Y-107833475D01*
X123813475Y-107626632D01*
X123975990Y-107383411D01*
X124087932Y-107113158D01*
X124145000Y-106826260D01*
X124145000Y-106533740D01*
X124087932Y-106246842D01*
X123975990Y-105976589D01*
X123813475Y-105733368D01*
X123606632Y-105526525D01*
X123432240Y-105410000D01*
X123606632Y-105293475D01*
X123813475Y-105086632D01*
X123975990Y-104843411D01*
X124087932Y-104573158D01*
X124145000Y-104286260D01*
X124145000Y-103993740D01*
X124087932Y-103706842D01*
X123975990Y-103436589D01*
X123813475Y-103193368D01*
X123606632Y-102986525D01*
X123432240Y-102870000D01*
X123606632Y-102753475D01*
X123813475Y-102546632D01*
X123975990Y-102303411D01*
X124087932Y-102033158D01*
X124145000Y-101746260D01*
X124145000Y-101453740D01*
X124087932Y-101166842D01*
X123975990Y-100896589D01*
X123813475Y-100653368D01*
X123606632Y-100446525D01*
X123432240Y-100330000D01*
X123606632Y-100213475D01*
X123813475Y-100006632D01*
X123975990Y-99763411D01*
X124087932Y-99493158D01*
X124145000Y-99206260D01*
X124145000Y-98913740D01*
X124087932Y-98626842D01*
X123975990Y-98356589D01*
X123813475Y-98113368D01*
X123606632Y-97906525D01*
X123432240Y-97790000D01*
X123606632Y-97673475D01*
X123813475Y-97466632D01*
X123975990Y-97223411D01*
X124087932Y-96953158D01*
X124145000Y-96666260D01*
X124145000Y-96373740D01*
X124087932Y-96086842D01*
X123975990Y-95816589D01*
X123813475Y-95573368D01*
X123606632Y-95366525D01*
X123432240Y-95250000D01*
X123606632Y-95133475D01*
X123813475Y-94926632D01*
X123975990Y-94683411D01*
X124087932Y-94413158D01*
X124145000Y-94126260D01*
X124145000Y-93833740D01*
X124087932Y-93546842D01*
X123975990Y-93276589D01*
X123813475Y-93033368D01*
X123606632Y-92826525D01*
X123432240Y-92710000D01*
X123606632Y-92593475D01*
X123813475Y-92386632D01*
X123975990Y-92143411D01*
X124087932Y-91873158D01*
X124145000Y-91586260D01*
X124145000Y-91293740D01*
X124087932Y-91006842D01*
X123975990Y-90736589D01*
X123813475Y-90493368D01*
X123606632Y-90286525D01*
X123432240Y-90170000D01*
X123606632Y-90053475D01*
X123813475Y-89846632D01*
X123975990Y-89603411D01*
X124087932Y-89333158D01*
X124145000Y-89046260D01*
X124145000Y-88753740D01*
X124087932Y-88466842D01*
X123975990Y-88196589D01*
X123813475Y-87953368D01*
X123606632Y-87746525D01*
X123432240Y-87630000D01*
X123606632Y-87513475D01*
X123813475Y-87306632D01*
X123975990Y-87063411D01*
X124087932Y-86793158D01*
X124145000Y-86506260D01*
X124145000Y-86222039D01*
X124841000Y-85526039D01*
X124841000Y-129413000D01*
X71501000Y-129413000D01*
X71501000Y-126150000D01*
X72171928Y-126150000D01*
X72171928Y-127850000D01*
X72184188Y-127974482D01*
X72220498Y-128094180D01*
X72279463Y-128204494D01*
X72358815Y-128301185D01*
X72455506Y-128380537D01*
X72565820Y-128439502D01*
X72685518Y-128475812D01*
X72810000Y-128488072D01*
X74510000Y-128488072D01*
X74634482Y-128475812D01*
X74754180Y-128439502D01*
X74864494Y-128380537D01*
X74961185Y-128301185D01*
X75040537Y-128204494D01*
X75099502Y-128094180D01*
X75135812Y-127974482D01*
X75148072Y-127850000D01*
X75148072Y-126150000D01*
X75135812Y-126025518D01*
X75099502Y-125905820D01*
X75040537Y-125795506D01*
X74961185Y-125698815D01*
X74864494Y-125619463D01*
X74754180Y-125560498D01*
X74681620Y-125538487D01*
X74813475Y-125406632D01*
X74975990Y-125163411D01*
X75087932Y-124893158D01*
X75145000Y-124606260D01*
X75145000Y-124313740D01*
X75087932Y-124026842D01*
X74975990Y-123756589D01*
X74813475Y-123513368D01*
X74606632Y-123306525D01*
X74432240Y-123190000D01*
X74606632Y-123073475D01*
X74813475Y-122866632D01*
X74975990Y-122623411D01*
X75087932Y-122353158D01*
X75145000Y-122066260D01*
X75145000Y-121773740D01*
X75087932Y-121486842D01*
X75070124Y-121443849D01*
X75122111Y-121478586D01*
X75292271Y-121549068D01*
X75472911Y-121585000D01*
X75657089Y-121585000D01*
X75837729Y-121549068D01*
X76007889Y-121478586D01*
X76161028Y-121376262D01*
X76291262Y-121246028D01*
X76393586Y-121092889D01*
X76464068Y-120922729D01*
X76465505Y-120915505D01*
X76472729Y-120914068D01*
X76642889Y-120843586D01*
X76796028Y-120741262D01*
X76926262Y-120611028D01*
X77028586Y-120457889D01*
X77099068Y-120287729D01*
X77135000Y-120107089D01*
X77135000Y-119922911D01*
X77099068Y-119742271D01*
X77028586Y-119572111D01*
X76936600Y-119434444D01*
X76936600Y-113970109D01*
X77330269Y-113576441D01*
X77358375Y-113553375D01*
X77450424Y-113441213D01*
X77518822Y-113313249D01*
X77560942Y-113174399D01*
X77571600Y-113066186D01*
X77571600Y-113066185D01*
X77575164Y-113030000D01*
X77571600Y-112993814D01*
X77571600Y-111070556D01*
X77663586Y-110932889D01*
X77734068Y-110762729D01*
X77770000Y-110582089D01*
X77770000Y-110397911D01*
X77734068Y-110217271D01*
X77663586Y-110047111D01*
X77603109Y-109956600D01*
X78159444Y-109956600D01*
X78297111Y-110048586D01*
X78467271Y-110119068D01*
X78647911Y-110155000D01*
X78832089Y-110155000D01*
X79012729Y-110119068D01*
X79182889Y-110048586D01*
X79248001Y-110005080D01*
X79248000Y-123509370D01*
X79059370Y-123698000D01*
X78647542Y-123698000D01*
X78547889Y-123631414D01*
X78377729Y-123560932D01*
X78197089Y-123525000D01*
X78012911Y-123525000D01*
X77832271Y-123560932D01*
X77662111Y-123631414D01*
X77508972Y-123733738D01*
X77378738Y-123863972D01*
X77276414Y-124017111D01*
X77205932Y-124187271D01*
X77170000Y-124367911D01*
X77170000Y-124552089D01*
X77205932Y-124732729D01*
X77276414Y-124902889D01*
X77378738Y-125056028D01*
X77417710Y-125095000D01*
X77378738Y-125133972D01*
X77276414Y-125287111D01*
X77205932Y-125457271D01*
X77170000Y-125637911D01*
X77170000Y-125822089D01*
X77205932Y-126002729D01*
X77276414Y-126172889D01*
X77378738Y-126326028D01*
X77508972Y-126456262D01*
X77662111Y-126558586D01*
X77832271Y-126629068D01*
X78012911Y-126665000D01*
X78197089Y-126665000D01*
X78377729Y-126629068D01*
X78547889Y-126558586D01*
X78647542Y-126492000D01*
X79972577Y-126492000D01*
X80010000Y-126495686D01*
X80047423Y-126492000D01*
X80047426Y-126492000D01*
X80159378Y-126480974D01*
X80303015Y-126437402D01*
X80435392Y-126366645D01*
X80551422Y-126271422D01*
X80575283Y-126242347D01*
X81088842Y-125728788D01*
X81117912Y-125704932D01*
X81156757Y-125657599D01*
X81213135Y-125588903D01*
X81260566Y-125500164D01*
X81283892Y-125456525D01*
X81327464Y-125312888D01*
X81338490Y-125200936D01*
X81338490Y-125200933D01*
X81342176Y-125163510D01*
X81338490Y-125126087D01*
X81338490Y-111208760D01*
X81364000Y-111183250D01*
X81364000Y-110109000D01*
X81344000Y-110109000D01*
X81344000Y-109855000D01*
X81364000Y-109855000D01*
X81364000Y-108780750D01*
X81338490Y-108755240D01*
X81338490Y-106013913D01*
X81342176Y-105976490D01*
X81338490Y-105939064D01*
X81327464Y-105827112D01*
X81283892Y-105683475D01*
X81247196Y-105614822D01*
X81213135Y-105551097D01*
X81141769Y-105464138D01*
X81117912Y-105435068D01*
X81088841Y-105411210D01*
X80575283Y-104897653D01*
X80551422Y-104868578D01*
X80435392Y-104773355D01*
X80303015Y-104702598D01*
X80159378Y-104659026D01*
X80047426Y-104648000D01*
X80047423Y-104648000D01*
X80010000Y-104644314D01*
X79972577Y-104648000D01*
X78890080Y-104648000D01*
X78933586Y-104582889D01*
X79004068Y-104412729D01*
X79040000Y-104232089D01*
X79040000Y-104047911D01*
X79004068Y-103867271D01*
X78933586Y-103697111D01*
X78831262Y-103543972D01*
X78701028Y-103413738D01*
X78547889Y-103311414D01*
X78377729Y-103240932D01*
X78197089Y-103205000D01*
X78012911Y-103205000D01*
X77832271Y-103240932D01*
X77662111Y-103311414D01*
X77571600Y-103371891D01*
X77571600Y-102368109D01*
X77662111Y-102428586D01*
X77832271Y-102499068D01*
X78012911Y-102535000D01*
X78197089Y-102535000D01*
X78377729Y-102499068D01*
X78547889Y-102428586D01*
X78701028Y-102326262D01*
X78831262Y-102196028D01*
X78933586Y-102042889D01*
X79004068Y-101872729D01*
X79040000Y-101692089D01*
X79040000Y-101507911D01*
X79004068Y-101327271D01*
X78933586Y-101157111D01*
X78831262Y-101003972D01*
X78701028Y-100873738D01*
X78547889Y-100771414D01*
X78377729Y-100700932D01*
X78215340Y-100668630D01*
X78206600Y-100659891D01*
X78206600Y-90895000D01*
X80308428Y-90895000D01*
X80320688Y-91019482D01*
X80356998Y-91139180D01*
X80415963Y-91249494D01*
X80495315Y-91346185D01*
X80592006Y-91425537D01*
X80702320Y-91484502D01*
X80822018Y-91520812D01*
X80946500Y-91533072D01*
X81248250Y-91530000D01*
X81407000Y-91371250D01*
X81407000Y-90297000D01*
X80470250Y-90297000D01*
X80311500Y-90455750D01*
X80308428Y-90895000D01*
X78206600Y-90895000D01*
X78206600Y-89445000D01*
X80308428Y-89445000D01*
X80311500Y-89884250D01*
X80470250Y-90043000D01*
X81407000Y-90043000D01*
X81407000Y-88968750D01*
X81248250Y-88810000D01*
X80946500Y-88806928D01*
X80822018Y-88819188D01*
X80702320Y-88855498D01*
X80592006Y-88914463D01*
X80495315Y-88993815D01*
X80415963Y-89090506D01*
X80356998Y-89200820D01*
X80320688Y-89320518D01*
X80308428Y-89445000D01*
X78206600Y-89445000D01*
X78206600Y-88210556D01*
X78298586Y-88072889D01*
X78369068Y-87902729D01*
X78405000Y-87722089D01*
X78405000Y-87537911D01*
X78369068Y-87357271D01*
X78298586Y-87187111D01*
X78196262Y-87033972D01*
X78066028Y-86903738D01*
X77912889Y-86801414D01*
X77742729Y-86730932D01*
X77562089Y-86695000D01*
X77377911Y-86695000D01*
X77197271Y-86730932D01*
X77027111Y-86801414D01*
X76873972Y-86903738D01*
X76743738Y-87033972D01*
X76641414Y-87187111D01*
X76570932Y-87357271D01*
X76535000Y-87537911D01*
X76535000Y-87722089D01*
X76570932Y-87902729D01*
X76641414Y-88072889D01*
X76733401Y-88210557D01*
X76733401Y-90931691D01*
X75095719Y-89294010D01*
X75145000Y-89046260D01*
X75145000Y-88753740D01*
X75087932Y-88466842D01*
X74975990Y-88196589D01*
X74813475Y-87953368D01*
X74606632Y-87746525D01*
X74432240Y-87630000D01*
X74606632Y-87513475D01*
X74813475Y-87306632D01*
X74975990Y-87063411D01*
X75087932Y-86793158D01*
X75145000Y-86506260D01*
X75145000Y-86213740D01*
X75087932Y-85926842D01*
X74975990Y-85656589D01*
X74813475Y-85413368D01*
X74606632Y-85206525D01*
X74424466Y-85084805D01*
X74541355Y-85015178D01*
X74757588Y-84820269D01*
X74906966Y-84620000D01*
X79206928Y-84620000D01*
X79219188Y-84744482D01*
X79255498Y-84864180D01*
X79314463Y-84974494D01*
X79393815Y-85071185D01*
X79490506Y-85150537D01*
X79600820Y-85209502D01*
X79720518Y-85245812D01*
X79845000Y-85258072D01*
X80359250Y-85255000D01*
X80518000Y-85096250D01*
X80518000Y-83947000D01*
X79368750Y-83947000D01*
X79210000Y-84105750D01*
X79206928Y-84620000D01*
X74906966Y-84620000D01*
X74931641Y-84586920D01*
X75056825Y-84324099D01*
X75101476Y-84176890D01*
X74980155Y-83947000D01*
X73787000Y-83947000D01*
X73787000Y-83967000D01*
X73533000Y-83967000D01*
X73533000Y-83947000D01*
X72339845Y-83947000D01*
X72218524Y-84176890D01*
X72263175Y-84324099D01*
X72388359Y-84586920D01*
X72562412Y-84820269D01*
X72778645Y-85015178D01*
X72895534Y-85084805D01*
X72713368Y-85206525D01*
X72506525Y-85413368D01*
X72344010Y-85656589D01*
X72232068Y-85926842D01*
X72175000Y-86213740D01*
X72175000Y-86506260D01*
X72232068Y-86793158D01*
X72344010Y-87063411D01*
X72506525Y-87306632D01*
X72713368Y-87513475D01*
X72887760Y-87630000D01*
X72713368Y-87746525D01*
X72506525Y-87953368D01*
X72344010Y-88196589D01*
X72232068Y-88466842D01*
X72175000Y-88753740D01*
X72175000Y-89046260D01*
X72232068Y-89333158D01*
X72344010Y-89603411D01*
X72506525Y-89846632D01*
X72713368Y-90053475D01*
X72887760Y-90170000D01*
X72713368Y-90286525D01*
X72506525Y-90493368D01*
X72344010Y-90736589D01*
X72232068Y-91006842D01*
X72175000Y-91293740D01*
X72175000Y-91586260D01*
X72232068Y-91873158D01*
X72344010Y-92143411D01*
X72506525Y-92386632D01*
X72713368Y-92593475D01*
X72887760Y-92710000D01*
X72713368Y-92826525D01*
X72506525Y-93033368D01*
X72344010Y-93276589D01*
X72232068Y-93546842D01*
X72175000Y-93833740D01*
X72175000Y-94126260D01*
X72232068Y-94413158D01*
X72344010Y-94683411D01*
X72506525Y-94926632D01*
X72713368Y-95133475D01*
X72887760Y-95250000D01*
X72713368Y-95366525D01*
X72506525Y-95573368D01*
X72344010Y-95816589D01*
X72232068Y-96086842D01*
X72175000Y-96373740D01*
X72175000Y-96666260D01*
X72232068Y-96953158D01*
X72344010Y-97223411D01*
X72506525Y-97466632D01*
X72713368Y-97673475D01*
X72887760Y-97790000D01*
X72713368Y-97906525D01*
X72506525Y-98113368D01*
X72344010Y-98356589D01*
X72232068Y-98626842D01*
X72175000Y-98913740D01*
X72175000Y-99206260D01*
X72232068Y-99493158D01*
X72344010Y-99763411D01*
X72506525Y-100006632D01*
X72713368Y-100213475D01*
X72887760Y-100330000D01*
X72713368Y-100446525D01*
X72506525Y-100653368D01*
X72344010Y-100896589D01*
X72232068Y-101166842D01*
X72175000Y-101453740D01*
X72175000Y-101746260D01*
X72232068Y-102033158D01*
X72344010Y-102303411D01*
X72506525Y-102546632D01*
X72713368Y-102753475D01*
X72887760Y-102870000D01*
X72713368Y-102986525D01*
X72506525Y-103193368D01*
X72344010Y-103436589D01*
X72232068Y-103706842D01*
X72175000Y-103993740D01*
X72175000Y-104286260D01*
X72232068Y-104573158D01*
X72344010Y-104843411D01*
X72506525Y-105086632D01*
X72713368Y-105293475D01*
X72887760Y-105410000D01*
X72713368Y-105526525D01*
X72506525Y-105733368D01*
X72344010Y-105976589D01*
X72232068Y-106246842D01*
X72175000Y-106533740D01*
X72175000Y-106826260D01*
X72232068Y-107113158D01*
X72344010Y-107383411D01*
X72506525Y-107626632D01*
X72713368Y-107833475D01*
X72887760Y-107950000D01*
X72713368Y-108066525D01*
X72506525Y-108273368D01*
X72344010Y-108516589D01*
X72232068Y-108786842D01*
X72175000Y-109073740D01*
X72175000Y-109366260D01*
X72232068Y-109653158D01*
X72344010Y-109923411D01*
X72506525Y-110166632D01*
X72713368Y-110373475D01*
X72887760Y-110490000D01*
X72713368Y-110606525D01*
X72506525Y-110813368D01*
X72344010Y-111056589D01*
X72232068Y-111326842D01*
X72175000Y-111613740D01*
X72175000Y-111906260D01*
X72232068Y-112193158D01*
X72344010Y-112463411D01*
X72506525Y-112706632D01*
X72713368Y-112913475D01*
X72887760Y-113030000D01*
X72713368Y-113146525D01*
X72506525Y-113353368D01*
X72344010Y-113596589D01*
X72232068Y-113866842D01*
X72175000Y-114153740D01*
X72175000Y-114446260D01*
X72232068Y-114733158D01*
X72344010Y-115003411D01*
X72506525Y-115246632D01*
X72713368Y-115453475D01*
X72887760Y-115570000D01*
X72713368Y-115686525D01*
X72506525Y-115893368D01*
X72344010Y-116136589D01*
X72232068Y-116406842D01*
X72175000Y-116693740D01*
X72175000Y-116986260D01*
X72232068Y-117273158D01*
X72344010Y-117543411D01*
X72506525Y-117786632D01*
X72713368Y-117993475D01*
X72887760Y-118110000D01*
X72713368Y-118226525D01*
X72506525Y-118433368D01*
X72344010Y-118676589D01*
X72232068Y-118946842D01*
X72175000Y-119233740D01*
X72175000Y-119526260D01*
X72232068Y-119813158D01*
X72344010Y-120083411D01*
X72506525Y-120326632D01*
X72713368Y-120533475D01*
X72887760Y-120650000D01*
X72713368Y-120766525D01*
X72506525Y-120973368D01*
X72344010Y-121216589D01*
X72232068Y-121486842D01*
X72175000Y-121773740D01*
X72175000Y-122066260D01*
X72232068Y-122353158D01*
X72344010Y-122623411D01*
X72506525Y-122866632D01*
X72713368Y-123073475D01*
X72887760Y-123190000D01*
X72713368Y-123306525D01*
X72506525Y-123513368D01*
X72344010Y-123756589D01*
X72232068Y-124026842D01*
X72175000Y-124313740D01*
X72175000Y-124606260D01*
X72232068Y-124893158D01*
X72344010Y-125163411D01*
X72506525Y-125406632D01*
X72638380Y-125538487D01*
X72565820Y-125560498D01*
X72455506Y-125619463D01*
X72358815Y-125698815D01*
X72279463Y-125795506D01*
X72220498Y-125905820D01*
X72184188Y-126025518D01*
X72171928Y-126150000D01*
X71501000Y-126150000D01*
X71501000Y-83463110D01*
X72218524Y-83463110D01*
X72339845Y-83693000D01*
X73533000Y-83693000D01*
X73533000Y-82499186D01*
X73787000Y-82499186D01*
X73787000Y-83693000D01*
X74980155Y-83693000D01*
X75101476Y-83463110D01*
X75056825Y-83315901D01*
X74931641Y-83053080D01*
X74906967Y-83020000D01*
X79206928Y-83020000D01*
X79210000Y-83534250D01*
X79368750Y-83693000D01*
X80518000Y-83693000D01*
X80518000Y-82543750D01*
X80359250Y-82385000D01*
X79845000Y-82381928D01*
X79720518Y-82394188D01*
X79600820Y-82430498D01*
X79490506Y-82489463D01*
X79393815Y-82568815D01*
X79314463Y-82665506D01*
X79255498Y-82775820D01*
X79219188Y-82895518D01*
X79206928Y-83020000D01*
X74906967Y-83020000D01*
X74757588Y-82819731D01*
X74541355Y-82624822D01*
X74291252Y-82475843D01*
X74016891Y-82378519D01*
X73787000Y-82499186D01*
X73533000Y-82499186D01*
X73303109Y-82378519D01*
X73028748Y-82475843D01*
X72778645Y-82624822D01*
X72562412Y-82819731D01*
X72388359Y-83053080D01*
X72263175Y-83315901D01*
X72218524Y-83463110D01*
X71501000Y-83463110D01*
X71501000Y-78685000D01*
X82503341Y-78685000D01*
X82481589Y-78694010D01*
G37*
%TD.AperFunction*%
D25*
X74828401Y-118455706D02*
X74813475Y-118433368D01*
X74606632Y-118226525D01*
X74432240Y-118110000D01*
X74606632Y-117993475D01*
X74813475Y-117786632D01*
X74828401Y-117764294D01*
X74828401Y-118455706D01*
%TA.AperFunction,Conductor*%
D26*
G36*
X74828401Y-118455706D02*
G01*
X74813475Y-118433368D01*
X74606632Y-118226525D01*
X74432240Y-118110000D01*
X74606632Y-117993475D01*
X74813475Y-117786632D01*
X74828401Y-117764294D01*
X74828401Y-118455706D01*
G37*
%TD.AperFunction*%
D25*
X74828401Y-115915706D02*
X74813475Y-115893368D01*
X74606632Y-115686525D01*
X74432240Y-115570000D01*
X74606632Y-115453475D01*
X74813475Y-115246632D01*
X74828400Y-115224294D01*
X74828401Y-115915706D01*
%TA.AperFunction,Conductor*%
D26*
G36*
X74828401Y-115915706D02*
G01*
X74813475Y-115893368D01*
X74606632Y-115686525D01*
X74432240Y-115570000D01*
X74606632Y-115453475D01*
X74813475Y-115246632D01*
X74828400Y-115224294D01*
X74828401Y-115915706D01*
G37*
%TD.AperFunction*%
D25*
X76098400Y-92380110D02*
X76098400Y-92833842D01*
X76088374Y-92821625D01*
X76060273Y-92798563D01*
X75095719Y-91834010D01*
X75145000Y-91586260D01*
X75145000Y-91426710D01*
X76098400Y-92380110D01*
%TA.AperFunction,Conductor*%
D26*
G36*
X76098400Y-92380110D02*
G01*
X76098400Y-92833842D01*
X76088374Y-92821625D01*
X76060273Y-92798563D01*
X75095719Y-91834010D01*
X75145000Y-91586260D01*
X75145000Y-91426710D01*
X76098400Y-92380110D01*
G37*
%TD.AperFunction*%
D25*
X87322009Y-122940538D02*
X87187111Y-122996414D01*
X87033972Y-123098738D01*
X86903738Y-123228972D01*
X86801414Y-123382111D01*
X86730932Y-123552271D01*
X86695000Y-123732911D01*
X86695000Y-123917089D01*
X86730932Y-124097729D01*
X86801414Y-124267889D01*
X86903738Y-124421028D01*
X87033972Y-124551262D01*
X87187111Y-124653586D01*
X87357271Y-124724068D01*
X87528400Y-124758108D01*
X87528400Y-124961891D01*
X87437889Y-124901414D01*
X87267729Y-124830932D01*
X87087089Y-124795000D01*
X86902911Y-124795000D01*
X86722271Y-124830932D01*
X86592369Y-124884739D01*
X86487000Y-124779370D01*
X86487000Y-111440630D01*
X87322010Y-110605621D01*
X87322009Y-122940538D01*
%TA.AperFunction,Conductor*%
D26*
G36*
X87322009Y-122940538D02*
G01*
X87187111Y-122996414D01*
X87033972Y-123098738D01*
X86903738Y-123228972D01*
X86801414Y-123382111D01*
X86730932Y-123552271D01*
X86695000Y-123732911D01*
X86695000Y-123917089D01*
X86730932Y-124097729D01*
X86801414Y-124267889D01*
X86903738Y-124421028D01*
X87033972Y-124551262D01*
X87187111Y-124653586D01*
X87357271Y-124724068D01*
X87528400Y-124758108D01*
X87528400Y-124961891D01*
X87437889Y-124901414D01*
X87267729Y-124830932D01*
X87087089Y-124795000D01*
X86902911Y-124795000D01*
X86722271Y-124830932D01*
X86592369Y-124884739D01*
X86487000Y-124779370D01*
X86487000Y-111440630D01*
X87322010Y-110605621D01*
X87322009Y-122940538D01*
G37*
%TD.AperFunction*%
D25*
X121506525Y-122866632D02*
X121713368Y-123073475D01*
X121887760Y-123190000D01*
X121713368Y-123306525D01*
X121506525Y-123513368D01*
X121386600Y-123692849D01*
X121386600Y-122687151D01*
X121506525Y-122866632D01*
%TA.AperFunction,Conductor*%
D26*
G36*
X121506525Y-122866632D02*
G01*
X121713368Y-123073475D01*
X121887760Y-123190000D01*
X121713368Y-123306525D01*
X121506525Y-123513368D01*
X121386600Y-123692849D01*
X121386600Y-122687151D01*
X121506525Y-122866632D01*
G37*
%TD.AperFunction*%
D25*
X90068400Y-106350110D02*
X90068401Y-122884889D01*
X89864891Y-123088400D01*
X88795209Y-123088400D01*
X88795209Y-106342473D01*
X88807911Y-106345000D01*
X88992089Y-106345000D01*
X89172729Y-106309068D01*
X89342889Y-106238586D01*
X89480556Y-106146600D01*
X89864891Y-106146600D01*
X90068400Y-106350110D01*
%TA.AperFunction,Conductor*%
D26*
G36*
X90068400Y-106350110D02*
G01*
X90068401Y-122884889D01*
X89864891Y-123088400D01*
X88795209Y-123088400D01*
X88795209Y-106342473D01*
X88807911Y-106345000D01*
X88992089Y-106345000D01*
X89172729Y-106309068D01*
X89342889Y-106238586D01*
X89480556Y-106146600D01*
X89864891Y-106146600D01*
X90068400Y-106350110D01*
G37*
%TD.AperFunction*%
D25*
X121506525Y-120326632D02*
X121713368Y-120533475D01*
X121887760Y-120650000D01*
X121713368Y-120766525D01*
X121506525Y-120973368D01*
X121386600Y-121152849D01*
X121386600Y-120147151D01*
X121506525Y-120326632D01*
%TA.AperFunction,Conductor*%
D26*
G36*
X121506525Y-120326632D02*
G01*
X121713368Y-120533475D01*
X121887760Y-120650000D01*
X121713368Y-120766525D01*
X121506525Y-120973368D01*
X121386600Y-121152849D01*
X121386600Y-120147151D01*
X121506525Y-120326632D01*
G37*
%TD.AperFunction*%
D25*
X119107271Y-118374068D02*
X119278401Y-118408108D01*
X119278401Y-120776691D01*
X119078390Y-120576681D01*
X119078390Y-118362105D01*
X119107271Y-118374068D01*
%TA.AperFunction,Conductor*%
D26*
G36*
X119107271Y-118374068D02*
G01*
X119278401Y-118408108D01*
X119278401Y-120776691D01*
X119078390Y-120576681D01*
X119078390Y-118362105D01*
X119107271Y-118374068D01*
G37*
%TD.AperFunction*%
D25*
X117363212Y-110990000D02*
X117586788Y-110990000D01*
X117605191Y-110986340D01*
X117605191Y-120448153D01*
X116819500Y-119662462D01*
X116819500Y-111254675D01*
X116930386Y-111195405D01*
X117064962Y-111084962D01*
X117173813Y-110952326D01*
X117363212Y-110990000D01*
%TA.AperFunction,Conductor*%
D26*
G36*
X117363212Y-110990000D02*
G01*
X117586788Y-110990000D01*
X117605191Y-110986340D01*
X117605191Y-120448153D01*
X116819500Y-119662462D01*
X116819500Y-111254675D01*
X116930386Y-111195405D01*
X117064962Y-111084962D01*
X117173813Y-110952326D01*
X117363212Y-110990000D01*
G37*
%TD.AperFunction*%
D25*
X107213401Y-101890925D02*
X107209836Y-101927118D01*
X107220281Y-102033158D01*
X107224059Y-102071517D01*
X107231264Y-102095268D01*
X107266178Y-102210365D01*
X107334576Y-102338330D01*
X107368281Y-102379399D01*
X107426626Y-102450493D01*
X107454732Y-102473559D01*
X107961512Y-102980340D01*
X107993814Y-103142729D01*
X108064296Y-103312889D01*
X108166620Y-103466028D01*
X108296854Y-103596262D01*
X108408813Y-103671071D01*
X108391414Y-103697111D01*
X108320932Y-103867271D01*
X108285000Y-104047911D01*
X108285000Y-104232089D01*
X108320932Y-104412729D01*
X108357853Y-104501865D01*
X108312271Y-104510932D01*
X108142111Y-104581414D01*
X107988972Y-104683738D01*
X107858738Y-104813972D01*
X107756414Y-104967111D01*
X107685932Y-105137271D01*
X107653630Y-105299660D01*
X107488131Y-105465160D01*
X107460024Y-105488227D01*
X107436958Y-105516333D01*
X107436957Y-105516334D01*
X107423568Y-105532649D01*
X107367975Y-105600389D01*
X107299577Y-105728353D01*
X107257457Y-105867203D01*
X107248934Y-105953738D01*
X107243235Y-106011601D01*
X107246799Y-106047784D01*
X107246799Y-108868670D01*
X107217624Y-108849176D01*
X107011067Y-108763617D01*
X106791788Y-108720000D01*
X106568212Y-108720000D01*
X106348933Y-108763617D01*
X106142376Y-108849176D01*
X106134493Y-108854443D01*
X106108500Y-108833111D01*
X106108500Y-91283600D01*
X106121462Y-91272962D01*
X106186262Y-91194002D01*
X106348933Y-91261383D01*
X106568212Y-91305000D01*
X106791788Y-91305000D01*
X107011067Y-91261383D01*
X107213400Y-91177574D01*
X107213401Y-101890925D01*
%TA.AperFunction,Conductor*%
D26*
G36*
X107213401Y-101890925D02*
G01*
X107209836Y-101927118D01*
X107220281Y-102033158D01*
X107224059Y-102071517D01*
X107231264Y-102095268D01*
X107266178Y-102210365D01*
X107334576Y-102338330D01*
X107368281Y-102379399D01*
X107426626Y-102450493D01*
X107454732Y-102473559D01*
X107961512Y-102980340D01*
X107993814Y-103142729D01*
X108064296Y-103312889D01*
X108166620Y-103466028D01*
X108296854Y-103596262D01*
X108408813Y-103671071D01*
X108391414Y-103697111D01*
X108320932Y-103867271D01*
X108285000Y-104047911D01*
X108285000Y-104232089D01*
X108320932Y-104412729D01*
X108357853Y-104501865D01*
X108312271Y-104510932D01*
X108142111Y-104581414D01*
X107988972Y-104683738D01*
X107858738Y-104813972D01*
X107756414Y-104967111D01*
X107685932Y-105137271D01*
X107653630Y-105299660D01*
X107488131Y-105465160D01*
X107460024Y-105488227D01*
X107436958Y-105516333D01*
X107436957Y-105516334D01*
X107423568Y-105532649D01*
X107367975Y-105600389D01*
X107299577Y-105728353D01*
X107257457Y-105867203D01*
X107248934Y-105953738D01*
X107243235Y-106011601D01*
X107246799Y-106047784D01*
X107246799Y-108868670D01*
X107217624Y-108849176D01*
X107011067Y-108763617D01*
X106791788Y-108720000D01*
X106568212Y-108720000D01*
X106348933Y-108763617D01*
X106142376Y-108849176D01*
X106134493Y-108854443D01*
X106108500Y-108833111D01*
X106108500Y-91283600D01*
X106121462Y-91272962D01*
X106186262Y-91194002D01*
X106348933Y-91261383D01*
X106568212Y-91305000D01*
X106791788Y-91305000D01*
X107011067Y-91261383D01*
X107213400Y-91177574D01*
X107213401Y-101890925D01*
G37*
%TD.AperFunction*%
D25*
X121506525Y-107626632D02*
X121713368Y-107833475D01*
X121887760Y-107950000D01*
X121713368Y-108066525D01*
X121506525Y-108273368D01*
X121386600Y-108452849D01*
X121386600Y-107447151D01*
X121506525Y-107626632D01*
%TA.AperFunction,Conductor*%
D26*
G36*
X121506525Y-107626632D02*
G01*
X121713368Y-107833475D01*
X121887760Y-107950000D01*
X121713368Y-108066525D01*
X121506525Y-108273368D01*
X121386600Y-108452849D01*
X121386600Y-107447151D01*
X121506525Y-107626632D01*
G37*
%TD.AperFunction*%
D25*
X95500930Y-91239428D02*
X95500931Y-98741337D01*
X95497366Y-98777530D01*
X95509839Y-98904157D01*
X95511589Y-98921929D01*
X95525886Y-98969058D01*
X95553708Y-99060777D01*
X95622106Y-99188742D01*
X95674112Y-99252111D01*
X95714156Y-99300905D01*
X95742262Y-99323971D01*
X95973558Y-99555267D01*
X96418400Y-100000110D01*
X96418401Y-103468807D01*
X96414836Y-103505000D01*
X96429059Y-103649398D01*
X96471178Y-103788247D01*
X96539576Y-103916212D01*
X96603202Y-103993740D01*
X96631626Y-104028375D01*
X96659732Y-104051441D01*
X97252753Y-104644462D01*
X97193972Y-104683738D01*
X97063738Y-104813972D01*
X96961414Y-104967111D01*
X96890932Y-105137271D01*
X96858630Y-105299660D01*
X96191333Y-105966958D01*
X96163226Y-105990025D01*
X96140160Y-106018131D01*
X96140159Y-106018132D01*
X96087395Y-106082425D01*
X96071177Y-106102187D01*
X96002779Y-106230151D01*
X95986600Y-106283486D01*
X95986600Y-100910556D01*
X96078586Y-100772889D01*
X96149068Y-100602729D01*
X96185000Y-100422089D01*
X96185000Y-100237911D01*
X96149068Y-100057271D01*
X96078586Y-99887111D01*
X95976262Y-99733972D01*
X95846028Y-99603738D01*
X95692889Y-99501414D01*
X95522729Y-99430932D01*
X95342089Y-99395000D01*
X95208000Y-99395000D01*
X95208000Y-91442675D01*
X95318886Y-91383405D01*
X95453462Y-91272962D01*
X95486043Y-91233262D01*
X95500930Y-91239428D01*
%TA.AperFunction,Conductor*%
D26*
G36*
X95500930Y-91239428D02*
G01*
X95500931Y-98741337D01*
X95497366Y-98777530D01*
X95509839Y-98904157D01*
X95511589Y-98921929D01*
X95525886Y-98969058D01*
X95553708Y-99060777D01*
X95622106Y-99188742D01*
X95674112Y-99252111D01*
X95714156Y-99300905D01*
X95742262Y-99323971D01*
X95973558Y-99555267D01*
X96418400Y-100000110D01*
X96418401Y-103468807D01*
X96414836Y-103505000D01*
X96429059Y-103649398D01*
X96471178Y-103788247D01*
X96539576Y-103916212D01*
X96603202Y-103993740D01*
X96631626Y-104028375D01*
X96659732Y-104051441D01*
X97252753Y-104644462D01*
X97193972Y-104683738D01*
X97063738Y-104813972D01*
X96961414Y-104967111D01*
X96890932Y-105137271D01*
X96858630Y-105299660D01*
X96191333Y-105966958D01*
X96163226Y-105990025D01*
X96140160Y-106018131D01*
X96140159Y-106018132D01*
X96087395Y-106082425D01*
X96071177Y-106102187D01*
X96002779Y-106230151D01*
X95986600Y-106283486D01*
X95986600Y-100910556D01*
X96078586Y-100772889D01*
X96149068Y-100602729D01*
X96185000Y-100422089D01*
X96185000Y-100237911D01*
X96149068Y-100057271D01*
X96078586Y-99887111D01*
X95976262Y-99733972D01*
X95846028Y-99603738D01*
X95692889Y-99501414D01*
X95522729Y-99430932D01*
X95342089Y-99395000D01*
X95208000Y-99395000D01*
X95208000Y-91442675D01*
X95318886Y-91383405D01*
X95453462Y-91272962D01*
X95486043Y-91233262D01*
X95500930Y-91239428D01*
G37*
%TD.AperFunction*%
D25*
X121506525Y-102546632D02*
X121713368Y-102753475D01*
X121887760Y-102870000D01*
X121713368Y-102986525D01*
X121506525Y-103193368D01*
X121344010Y-103436589D01*
X121232068Y-103706842D01*
X121175000Y-103993740D01*
X121175000Y-104286260D01*
X121232068Y-104573158D01*
X121344010Y-104843411D01*
X121506525Y-105086632D01*
X121713368Y-105293475D01*
X121887760Y-105410000D01*
X121713368Y-105526525D01*
X121506525Y-105733368D01*
X121344010Y-105976589D01*
X121322005Y-106029715D01*
X121246028Y-105953738D01*
X121092889Y-105851414D01*
X120922729Y-105780932D01*
X120877147Y-105771865D01*
X120914068Y-105682729D01*
X120950000Y-105502089D01*
X120950000Y-105317911D01*
X120914068Y-105137271D01*
X120843586Y-104967111D01*
X120741262Y-104813972D01*
X120611028Y-104683738D01*
X120457889Y-104581414D01*
X120287729Y-104510932D01*
X120116600Y-104476892D01*
X120116600Y-102540109D01*
X120320110Y-102336600D01*
X121366186Y-102336600D01*
X121506525Y-102546632D01*
%TA.AperFunction,Conductor*%
D26*
G36*
X121506525Y-102546632D02*
G01*
X121713368Y-102753475D01*
X121887760Y-102870000D01*
X121713368Y-102986525D01*
X121506525Y-103193368D01*
X121344010Y-103436589D01*
X121232068Y-103706842D01*
X121175000Y-103993740D01*
X121175000Y-104286260D01*
X121232068Y-104573158D01*
X121344010Y-104843411D01*
X121506525Y-105086632D01*
X121713368Y-105293475D01*
X121887760Y-105410000D01*
X121713368Y-105526525D01*
X121506525Y-105733368D01*
X121344010Y-105976589D01*
X121322005Y-106029715D01*
X121246028Y-105953738D01*
X121092889Y-105851414D01*
X120922729Y-105780932D01*
X120877147Y-105771865D01*
X120914068Y-105682729D01*
X120950000Y-105502089D01*
X120950000Y-105317911D01*
X120914068Y-105137271D01*
X120843586Y-104967111D01*
X120741262Y-104813972D01*
X120611028Y-104683738D01*
X120457889Y-104581414D01*
X120287729Y-104510932D01*
X120116600Y-104476892D01*
X120116600Y-102540109D01*
X120320110Y-102336600D01*
X121366186Y-102336600D01*
X121506525Y-102546632D01*
G37*
%TD.AperFunction*%
D25*
X121506525Y-100006632D02*
X121713368Y-100213475D01*
X121887760Y-100330000D01*
X121713368Y-100446525D01*
X121506525Y-100653368D01*
X121366186Y-100863400D01*
X120051186Y-100863400D01*
X120015000Y-100859836D01*
X119978814Y-100863400D01*
X119870601Y-100874058D01*
X119731751Y-100916178D01*
X119603787Y-100984576D01*
X119491625Y-101076625D01*
X119481600Y-101088840D01*
X119481600Y-100000109D01*
X119685110Y-99796600D01*
X121366186Y-99796600D01*
X121506525Y-100006632D01*
%TA.AperFunction,Conductor*%
D26*
G36*
X121506525Y-100006632D02*
G01*
X121713368Y-100213475D01*
X121887760Y-100330000D01*
X121713368Y-100446525D01*
X121506525Y-100653368D01*
X121366186Y-100863400D01*
X120051186Y-100863400D01*
X120015000Y-100859836D01*
X119978814Y-100863400D01*
X119870601Y-100874058D01*
X119731751Y-100916178D01*
X119603787Y-100984576D01*
X119491625Y-101076625D01*
X119481600Y-101088840D01*
X119481600Y-100000109D01*
X119685110Y-99796600D01*
X121366186Y-99796600D01*
X121506525Y-100006632D01*
G37*
%TD.AperFunction*%
D25*
X121713368Y-87513475D02*
X121887760Y-87630000D01*
X121713368Y-87746525D01*
X121506525Y-87953368D01*
X121344010Y-88196589D01*
X121232068Y-88466842D01*
X121175000Y-88753740D01*
X121175000Y-89046260D01*
X121232068Y-89333158D01*
X121344010Y-89603411D01*
X121506525Y-89846632D01*
X121713368Y-90053475D01*
X121887760Y-90170000D01*
X121713368Y-90286525D01*
X121506525Y-90493368D01*
X121344010Y-90736589D01*
X121232068Y-91006842D01*
X121175000Y-91293740D01*
X121175000Y-91586260D01*
X121232068Y-91873158D01*
X121344010Y-92143411D01*
X121506525Y-92386632D01*
X121713368Y-92593475D01*
X121887760Y-92710000D01*
X121713368Y-92826525D01*
X121506525Y-93033368D01*
X121344010Y-93276589D01*
X121232068Y-93546842D01*
X121175000Y-93833740D01*
X121175000Y-94126260D01*
X121232068Y-94413158D01*
X121344010Y-94683411D01*
X121506525Y-94926632D01*
X121713368Y-95133475D01*
X121735705Y-95148400D01*
X120595556Y-95148400D01*
X120457889Y-95056414D01*
X120287729Y-94985932D01*
X120107089Y-94950000D01*
X119922911Y-94950000D01*
X119742271Y-94985932D01*
X119572111Y-95056414D01*
X119418972Y-95158738D01*
X119288738Y-95288972D01*
X119186414Y-95442111D01*
X119115932Y-95612271D01*
X119080000Y-95792911D01*
X119080000Y-95977089D01*
X119115932Y-96157729D01*
X119186414Y-96327889D01*
X119288738Y-96481028D01*
X119418972Y-96611262D01*
X119572111Y-96713586D01*
X119742271Y-96784068D01*
X119922911Y-96820000D01*
X120107089Y-96820000D01*
X120287729Y-96784068D01*
X120457889Y-96713586D01*
X120595556Y-96621600D01*
X121175000Y-96621600D01*
X121175000Y-96666260D01*
X121232068Y-96953158D01*
X121344010Y-97223411D01*
X121506525Y-97466632D01*
X121713368Y-97673475D01*
X121887760Y-97790000D01*
X121713368Y-97906525D01*
X121506525Y-98113368D01*
X121366186Y-98323400D01*
X119416186Y-98323400D01*
X119380000Y-98319836D01*
X119343814Y-98323400D01*
X119235601Y-98334058D01*
X119096751Y-98376178D01*
X118978647Y-98439306D01*
X118968787Y-98444576D01*
X118888544Y-98510430D01*
X118856625Y-98536625D01*
X118833559Y-98564731D01*
X118249733Y-99148558D01*
X118239827Y-99156688D01*
X118201262Y-99098972D01*
X118071028Y-98968738D01*
X117917889Y-98866414D01*
X117747729Y-98795932D01*
X117567089Y-98760000D01*
X117382911Y-98760000D01*
X117202271Y-98795932D01*
X117032111Y-98866414D01*
X116878972Y-98968738D01*
X116819500Y-99028210D01*
X116819500Y-91283600D01*
X116832462Y-91272962D01*
X116921104Y-91164951D01*
X116937376Y-91175824D01*
X117143933Y-91261383D01*
X117363212Y-91305000D01*
X117586788Y-91305000D01*
X117806067Y-91261383D01*
X118012624Y-91175824D01*
X118198520Y-91051612D01*
X118356612Y-90893520D01*
X118480824Y-90707624D01*
X118566383Y-90501067D01*
X118610000Y-90281788D01*
X118610000Y-90058212D01*
X118566383Y-89838933D01*
X118480824Y-89632376D01*
X118356612Y-89446480D01*
X118198520Y-89288388D01*
X118136854Y-89247184D01*
X119385431Y-87998607D01*
X119421778Y-87968778D01*
X119451606Y-87932432D01*
X120071539Y-87312500D01*
X121512393Y-87312500D01*
X121713368Y-87513475D01*
%TA.AperFunction,Conductor*%
D26*
G36*
X121713368Y-87513475D02*
G01*
X121887760Y-87630000D01*
X121713368Y-87746525D01*
X121506525Y-87953368D01*
X121344010Y-88196589D01*
X121232068Y-88466842D01*
X121175000Y-88753740D01*
X121175000Y-89046260D01*
X121232068Y-89333158D01*
X121344010Y-89603411D01*
X121506525Y-89846632D01*
X121713368Y-90053475D01*
X121887760Y-90170000D01*
X121713368Y-90286525D01*
X121506525Y-90493368D01*
X121344010Y-90736589D01*
X121232068Y-91006842D01*
X121175000Y-91293740D01*
X121175000Y-91586260D01*
X121232068Y-91873158D01*
X121344010Y-92143411D01*
X121506525Y-92386632D01*
X121713368Y-92593475D01*
X121887760Y-92710000D01*
X121713368Y-92826525D01*
X121506525Y-93033368D01*
X121344010Y-93276589D01*
X121232068Y-93546842D01*
X121175000Y-93833740D01*
X121175000Y-94126260D01*
X121232068Y-94413158D01*
X121344010Y-94683411D01*
X121506525Y-94926632D01*
X121713368Y-95133475D01*
X121735705Y-95148400D01*
X120595556Y-95148400D01*
X120457889Y-95056414D01*
X120287729Y-94985932D01*
X120107089Y-94950000D01*
X119922911Y-94950000D01*
X119742271Y-94985932D01*
X119572111Y-95056414D01*
X119418972Y-95158738D01*
X119288738Y-95288972D01*
X119186414Y-95442111D01*
X119115932Y-95612271D01*
X119080000Y-95792911D01*
X119080000Y-95977089D01*
X119115932Y-96157729D01*
X119186414Y-96327889D01*
X119288738Y-96481028D01*
X119418972Y-96611262D01*
X119572111Y-96713586D01*
X119742271Y-96784068D01*
X119922911Y-96820000D01*
X120107089Y-96820000D01*
X120287729Y-96784068D01*
X120457889Y-96713586D01*
X120595556Y-96621600D01*
X121175000Y-96621600D01*
X121175000Y-96666260D01*
X121232068Y-96953158D01*
X121344010Y-97223411D01*
X121506525Y-97466632D01*
X121713368Y-97673475D01*
X121887760Y-97790000D01*
X121713368Y-97906525D01*
X121506525Y-98113368D01*
X121366186Y-98323400D01*
X119416186Y-98323400D01*
X119380000Y-98319836D01*
X119343814Y-98323400D01*
X119235601Y-98334058D01*
X119096751Y-98376178D01*
X118978647Y-98439306D01*
X118968787Y-98444576D01*
X118888544Y-98510430D01*
X118856625Y-98536625D01*
X118833559Y-98564731D01*
X118249733Y-99148558D01*
X118239827Y-99156688D01*
X118201262Y-99098972D01*
X118071028Y-98968738D01*
X117917889Y-98866414D01*
X117747729Y-98795932D01*
X117567089Y-98760000D01*
X117382911Y-98760000D01*
X117202271Y-98795932D01*
X117032111Y-98866414D01*
X116878972Y-98968738D01*
X116819500Y-99028210D01*
X116819500Y-91283600D01*
X116832462Y-91272962D01*
X116921104Y-91164951D01*
X116937376Y-91175824D01*
X117143933Y-91261383D01*
X117363212Y-91305000D01*
X117586788Y-91305000D01*
X117806067Y-91261383D01*
X118012624Y-91175824D01*
X118198520Y-91051612D01*
X118356612Y-90893520D01*
X118480824Y-90707624D01*
X118566383Y-90501067D01*
X118610000Y-90281788D01*
X118610000Y-90058212D01*
X118566383Y-89838933D01*
X118480824Y-89632376D01*
X118356612Y-89446480D01*
X118198520Y-89288388D01*
X118136854Y-89247184D01*
X119385431Y-87998607D01*
X119421778Y-87968778D01*
X119451606Y-87932432D01*
X120071539Y-87312500D01*
X121512393Y-87312500D01*
X121713368Y-87513475D01*
G37*
%TD.AperFunction*%
D25*
X123253501Y-82462451D02*
X123016891Y-82378519D01*
X122787000Y-82499186D01*
X122787000Y-83693000D01*
X122807000Y-83693000D01*
X122807000Y-83947000D01*
X122787000Y-83947000D01*
X122787000Y-83967000D01*
X122533000Y-83967000D01*
X122533000Y-83947000D01*
X121339845Y-83947000D01*
X121218524Y-84176890D01*
X121263175Y-84324099D01*
X121388359Y-84586920D01*
X121562412Y-84820269D01*
X121778645Y-85015178D01*
X121895534Y-85084805D01*
X121713368Y-85206525D01*
X121512393Y-85407500D01*
X119723784Y-85407500D01*
X119676999Y-85402892D01*
X119630214Y-85407500D01*
X118791785Y-85407500D01*
X118745000Y-85402892D01*
X118698215Y-85407500D01*
X112005523Y-85407500D01*
X112024068Y-85362729D01*
X112060000Y-85182089D01*
X112060000Y-84997911D01*
X112024068Y-84817271D01*
X111953586Y-84647111D01*
X111851262Y-84493972D01*
X111836200Y-84478910D01*
X111836200Y-80755117D01*
X111911808Y-80732182D01*
X112061791Y-80652014D01*
X112061790Y-83488372D01*
X112058226Y-83524555D01*
X112061790Y-83560738D01*
X112061790Y-83560740D01*
X112072448Y-83668953D01*
X112114568Y-83807803D01*
X112182966Y-83935767D01*
X112275015Y-84047929D01*
X112303122Y-84070996D01*
X112634164Y-84402038D01*
X112666466Y-84564428D01*
X112736948Y-84734588D01*
X112839272Y-84887727D01*
X112969506Y-85017961D01*
X113122645Y-85120285D01*
X113292805Y-85190767D01*
X113473445Y-85226699D01*
X113657623Y-85226699D01*
X113745741Y-85209171D01*
X113857111Y-85283586D01*
X114027271Y-85354068D01*
X114207911Y-85390000D01*
X114392089Y-85390000D01*
X114572729Y-85354068D01*
X114742889Y-85283586D01*
X114818710Y-85232924D01*
X114969911Y-85263000D01*
X115154089Y-85263000D01*
X115334729Y-85227068D01*
X115504889Y-85156586D01*
X115658028Y-85054262D01*
X115788262Y-84924028D01*
X115890586Y-84770889D01*
X115961068Y-84600729D01*
X115997000Y-84420089D01*
X115997000Y-84235911D01*
X115961068Y-84055271D01*
X115890586Y-83885111D01*
X115798600Y-83747444D01*
X115798600Y-83463110D01*
X121218524Y-83463110D01*
X121339845Y-83693000D01*
X122533000Y-83693000D01*
X122533000Y-82499186D01*
X122303109Y-82378519D01*
X122028748Y-82475843D01*
X121778645Y-82624822D01*
X121562412Y-82819731D01*
X121388359Y-83053080D01*
X121263175Y-83315901D01*
X121218524Y-83463110D01*
X115798600Y-83463110D01*
X115798600Y-81823719D01*
X115889111Y-81884196D01*
X116059271Y-81954678D01*
X116239911Y-81990610D01*
X116424089Y-81990610D01*
X116604729Y-81954678D01*
X116774889Y-81884196D01*
X116928028Y-81781872D01*
X117058262Y-81651638D01*
X117160586Y-81498499D01*
X117231068Y-81328339D01*
X117267000Y-81147699D01*
X117267000Y-81126397D01*
X117967751Y-80425647D01*
X118178900Y-80598932D01*
X118428193Y-80732182D01*
X118698692Y-80814236D01*
X118980000Y-80841943D01*
X119230196Y-80817300D01*
X119207000Y-80933911D01*
X119207000Y-81118089D01*
X119242932Y-81298729D01*
X119313414Y-81468889D01*
X119415738Y-81622028D01*
X119545972Y-81752262D01*
X119699111Y-81854586D01*
X119869271Y-81925068D01*
X120049911Y-81961000D01*
X120234089Y-81961000D01*
X120414729Y-81925068D01*
X120584889Y-81854586D01*
X120738028Y-81752262D01*
X120868262Y-81622028D01*
X120970586Y-81468889D01*
X121041068Y-81298729D01*
X121077000Y-81118089D01*
X121077000Y-80933911D01*
X121041292Y-80754398D01*
X121088182Y-80774367D01*
X121170961Y-80791904D01*
X121393000Y-80669915D01*
X121393000Y-79127000D01*
X121647000Y-79127000D01*
X121647000Y-80669915D01*
X121869039Y-80791904D01*
X121951818Y-80774367D01*
X122211646Y-80663715D01*
X122444895Y-80504500D01*
X122642601Y-80302839D01*
X122797166Y-80066483D01*
X122902650Y-79804514D01*
X122955000Y-79527000D01*
X122955000Y-79127000D01*
X121647000Y-79127000D01*
X121393000Y-79127000D01*
X121373000Y-79127000D01*
X121373000Y-78873000D01*
X121393000Y-78873000D01*
X121393000Y-78853000D01*
X121647000Y-78853000D01*
X121647000Y-78873000D01*
X122955000Y-78873000D01*
X122955000Y-78473000D01*
X122902650Y-78195486D01*
X122797166Y-77933517D01*
X122642601Y-77697161D01*
X122542300Y-77594854D01*
X122645000Y-77595572D01*
X122769482Y-77583312D01*
X122889180Y-77547002D01*
X122999494Y-77488037D01*
X123096185Y-77408685D01*
X123175537Y-77311994D01*
X123234502Y-77201680D01*
X123253500Y-77139052D01*
X123253501Y-82462451D01*
%TA.AperFunction,Conductor*%
D26*
G36*
X123253501Y-82462451D02*
G01*
X123016891Y-82378519D01*
X122787000Y-82499186D01*
X122787000Y-83693000D01*
X122807000Y-83693000D01*
X122807000Y-83947000D01*
X122787000Y-83947000D01*
X122787000Y-83967000D01*
X122533000Y-83967000D01*
X122533000Y-83947000D01*
X121339845Y-83947000D01*
X121218524Y-84176890D01*
X121263175Y-84324099D01*
X121388359Y-84586920D01*
X121562412Y-84820269D01*
X121778645Y-85015178D01*
X121895534Y-85084805D01*
X121713368Y-85206525D01*
X121512393Y-85407500D01*
X119723784Y-85407500D01*
X119676999Y-85402892D01*
X119630214Y-85407500D01*
X118791785Y-85407500D01*
X118745000Y-85402892D01*
X118698215Y-85407500D01*
X112005523Y-85407500D01*
X112024068Y-85362729D01*
X112060000Y-85182089D01*
X112060000Y-84997911D01*
X112024068Y-84817271D01*
X111953586Y-84647111D01*
X111851262Y-84493972D01*
X111836200Y-84478910D01*
X111836200Y-80755117D01*
X111911808Y-80732182D01*
X112061791Y-80652014D01*
X112061790Y-83488372D01*
X112058226Y-83524555D01*
X112061790Y-83560738D01*
X112061790Y-83560740D01*
X112072448Y-83668953D01*
X112114568Y-83807803D01*
X112182966Y-83935767D01*
X112275015Y-84047929D01*
X112303122Y-84070996D01*
X112634164Y-84402038D01*
X112666466Y-84564428D01*
X112736948Y-84734588D01*
X112839272Y-84887727D01*
X112969506Y-85017961D01*
X113122645Y-85120285D01*
X113292805Y-85190767D01*
X113473445Y-85226699D01*
X113657623Y-85226699D01*
X113745741Y-85209171D01*
X113857111Y-85283586D01*
X114027271Y-85354068D01*
X114207911Y-85390000D01*
X114392089Y-85390000D01*
X114572729Y-85354068D01*
X114742889Y-85283586D01*
X114818710Y-85232924D01*
X114969911Y-85263000D01*
X115154089Y-85263000D01*
X115334729Y-85227068D01*
X115504889Y-85156586D01*
X115658028Y-85054262D01*
X115788262Y-84924028D01*
X115890586Y-84770889D01*
X115961068Y-84600729D01*
X115997000Y-84420089D01*
X115997000Y-84235911D01*
X115961068Y-84055271D01*
X115890586Y-83885111D01*
X115798600Y-83747444D01*
X115798600Y-83463110D01*
X121218524Y-83463110D01*
X121339845Y-83693000D01*
X122533000Y-83693000D01*
X122533000Y-82499186D01*
X122303109Y-82378519D01*
X122028748Y-82475843D01*
X121778645Y-82624822D01*
X121562412Y-82819731D01*
X121388359Y-83053080D01*
X121263175Y-83315901D01*
X121218524Y-83463110D01*
X115798600Y-83463110D01*
X115798600Y-81823719D01*
X115889111Y-81884196D01*
X116059271Y-81954678D01*
X116239911Y-81990610D01*
X116424089Y-81990610D01*
X116604729Y-81954678D01*
X116774889Y-81884196D01*
X116928028Y-81781872D01*
X117058262Y-81651638D01*
X117160586Y-81498499D01*
X117231068Y-81328339D01*
X117267000Y-81147699D01*
X117267000Y-81126397D01*
X117967751Y-80425647D01*
X118178900Y-80598932D01*
X118428193Y-80732182D01*
X118698692Y-80814236D01*
X118980000Y-80841943D01*
X119230196Y-80817300D01*
X119207000Y-80933911D01*
X119207000Y-81118089D01*
X119242932Y-81298729D01*
X119313414Y-81468889D01*
X119415738Y-81622028D01*
X119545972Y-81752262D01*
X119699111Y-81854586D01*
X119869271Y-81925068D01*
X120049911Y-81961000D01*
X120234089Y-81961000D01*
X120414729Y-81925068D01*
X120584889Y-81854586D01*
X120738028Y-81752262D01*
X120868262Y-81622028D01*
X120970586Y-81468889D01*
X121041068Y-81298729D01*
X121077000Y-81118089D01*
X121077000Y-80933911D01*
X121041292Y-80754398D01*
X121088182Y-80774367D01*
X121170961Y-80791904D01*
X121393000Y-80669915D01*
X121393000Y-79127000D01*
X121647000Y-79127000D01*
X121647000Y-80669915D01*
X121869039Y-80791904D01*
X121951818Y-80774367D01*
X122211646Y-80663715D01*
X122444895Y-80504500D01*
X122642601Y-80302839D01*
X122797166Y-80066483D01*
X122902650Y-79804514D01*
X122955000Y-79527000D01*
X122955000Y-79127000D01*
X121647000Y-79127000D01*
X121393000Y-79127000D01*
X121373000Y-79127000D01*
X121373000Y-78873000D01*
X121393000Y-78873000D01*
X121393000Y-78853000D01*
X121647000Y-78853000D01*
X121647000Y-78873000D01*
X122955000Y-78873000D01*
X122955000Y-78473000D01*
X122902650Y-78195486D01*
X122797166Y-77933517D01*
X122642601Y-77697161D01*
X122542300Y-77594854D01*
X122645000Y-77595572D01*
X122769482Y-77583312D01*
X122889180Y-77547002D01*
X122999494Y-77488037D01*
X123096185Y-77408685D01*
X123175537Y-77311994D01*
X123234502Y-77201680D01*
X123253500Y-77139052D01*
X123253501Y-82462451D01*
G37*
%TD.AperFunction*%
D25*
X102541068Y-80201101D02*
X102720393Y-80419608D01*
X102938900Y-80598932D01*
X103188193Y-80732182D01*
X103403401Y-80797464D01*
X103403400Y-84509444D01*
X103311414Y-84647111D01*
X103240932Y-84817271D01*
X103223004Y-84907401D01*
X101970689Y-84907401D01*
X101760203Y-84696916D01*
X101760203Y-84039217D01*
X101775265Y-84024155D01*
X101877589Y-83871016D01*
X101948071Y-83700856D01*
X101984003Y-83520216D01*
X101984003Y-83336038D01*
X101948071Y-83155398D01*
X101877589Y-82985238D01*
X101775265Y-82832099D01*
X101760203Y-82817037D01*
X101760203Y-80727695D01*
X102001101Y-80598932D01*
X102219608Y-80419608D01*
X102398932Y-80201101D01*
X102470000Y-80068142D01*
X102541068Y-80201101D01*
%TA.AperFunction,Conductor*%
D26*
G36*
X102541068Y-80201101D02*
G01*
X102720393Y-80419608D01*
X102938900Y-80598932D01*
X103188193Y-80732182D01*
X103403401Y-80797464D01*
X103403400Y-84509444D01*
X103311414Y-84647111D01*
X103240932Y-84817271D01*
X103223004Y-84907401D01*
X101970689Y-84907401D01*
X101760203Y-84696916D01*
X101760203Y-84039217D01*
X101775265Y-84024155D01*
X101877589Y-83871016D01*
X101948071Y-83700856D01*
X101984003Y-83520216D01*
X101984003Y-83336038D01*
X101948071Y-83155398D01*
X101877589Y-82985238D01*
X101775265Y-82832099D01*
X101760203Y-82817037D01*
X101760203Y-80727695D01*
X102001101Y-80598932D01*
X102219608Y-80419608D01*
X102398932Y-80201101D01*
X102470000Y-80068142D01*
X102541068Y-80201101D01*
G37*
%TD.AperFunction*%
D25*
X84571525Y-80956632D02*
X84778368Y-81163475D01*
X84988400Y-81303814D01*
X84988401Y-82586321D01*
X84810241Y-82705363D01*
X84610363Y-82905241D01*
X84455000Y-83137759D01*
X84299637Y-82905241D01*
X84099759Y-82705363D01*
X83921600Y-82586321D01*
X83921600Y-81303814D01*
X84131632Y-81163475D01*
X84338475Y-80956632D01*
X84455000Y-80782240D01*
X84571525Y-80956632D01*
%TA.AperFunction,Conductor*%
D26*
G36*
X84571525Y-80956632D02*
G01*
X84778368Y-81163475D01*
X84988400Y-81303814D01*
X84988401Y-82586321D01*
X84810241Y-82705363D01*
X84610363Y-82905241D01*
X84455000Y-83137759D01*
X84299637Y-82905241D01*
X84099759Y-82705363D01*
X83921600Y-82586321D01*
X83921600Y-81303814D01*
X84131632Y-81163475D01*
X84338475Y-80956632D01*
X84455000Y-80782240D01*
X84571525Y-80956632D01*
G37*
%TD.AperFunction*%
D25*
X87111525Y-80956632D02*
X87318368Y-81163475D01*
X87528400Y-81303814D01*
X87528401Y-82586321D01*
X87350241Y-82705363D01*
X87150363Y-82905241D01*
X86995000Y-83137759D01*
X86839637Y-82905241D01*
X86639759Y-82705363D01*
X86461600Y-82586321D01*
X86461600Y-81303814D01*
X86671632Y-81163475D01*
X86878475Y-80956632D01*
X86995000Y-80782240D01*
X87111525Y-80956632D01*
%TA.AperFunction,Conductor*%
D26*
G36*
X87111525Y-80956632D02*
G01*
X87318368Y-81163475D01*
X87528400Y-81303814D01*
X87528401Y-82586321D01*
X87350241Y-82705363D01*
X87150363Y-82905241D01*
X86995000Y-83137759D01*
X86839637Y-82905241D01*
X86639759Y-82705363D01*
X86461600Y-82586321D01*
X86461600Y-81303814D01*
X86671632Y-81163475D01*
X86878475Y-80956632D01*
X86995000Y-80782240D01*
X87111525Y-80956632D01*
G37*
%TD.AperFunction*%
D25*
X117781068Y-72581101D02*
X117960393Y-72799608D01*
X118178900Y-72978932D01*
X118389401Y-73091447D01*
X118389400Y-76635444D01*
X118297414Y-76773111D01*
X118226932Y-76943271D01*
X118191000Y-77123911D01*
X118191000Y-77308089D01*
X118206555Y-77386286D01*
X118178899Y-77401068D01*
X117960392Y-77580393D01*
X117781068Y-77798900D01*
X117710000Y-77931858D01*
X117638932Y-77798899D01*
X117459607Y-77580392D01*
X117241100Y-77401068D01*
X116991807Y-77267818D01*
X116916200Y-77244883D01*
X116916200Y-76811090D01*
X116931262Y-76796028D01*
X117033586Y-76642889D01*
X117104068Y-76472729D01*
X117140000Y-76292089D01*
X117140000Y-76107911D01*
X117104068Y-75927271D01*
X117092677Y-75899770D01*
X117126691Y-75877042D01*
X117223382Y-75797690D01*
X117292690Y-75728382D01*
X117372042Y-75631691D01*
X117426498Y-75550192D01*
X117485464Y-75439875D01*
X117522973Y-75349319D01*
X117559282Y-75229623D01*
X117578404Y-75133490D01*
X117590664Y-75009009D01*
X117590664Y-74984450D01*
X117593072Y-74960000D01*
X117593072Y-74460000D01*
X117580812Y-74335518D01*
X117573071Y-74310000D01*
X117580812Y-74284482D01*
X117593072Y-74160000D01*
X117593072Y-73660000D01*
X117590664Y-73635550D01*
X117590664Y-73610991D01*
X117578404Y-73486510D01*
X117559282Y-73390377D01*
X117522973Y-73270681D01*
X117485464Y-73180125D01*
X117426498Y-73069808D01*
X117372042Y-72988309D01*
X117314746Y-72918493D01*
X117459608Y-72799608D01*
X117638932Y-72581101D01*
X117710000Y-72448142D01*
X117781068Y-72581101D01*
%TA.AperFunction,Conductor*%
D26*
G36*
X117781068Y-72581101D02*
G01*
X117960393Y-72799608D01*
X118178900Y-72978932D01*
X118389401Y-73091447D01*
X118389400Y-76635444D01*
X118297414Y-76773111D01*
X118226932Y-76943271D01*
X118191000Y-77123911D01*
X118191000Y-77308089D01*
X118206555Y-77386286D01*
X118178899Y-77401068D01*
X117960392Y-77580393D01*
X117781068Y-77798900D01*
X117710000Y-77931858D01*
X117638932Y-77798899D01*
X117459607Y-77580392D01*
X117241100Y-77401068D01*
X116991807Y-77267818D01*
X116916200Y-77244883D01*
X116916200Y-76811090D01*
X116931262Y-76796028D01*
X117033586Y-76642889D01*
X117104068Y-76472729D01*
X117140000Y-76292089D01*
X117140000Y-76107911D01*
X117104068Y-75927271D01*
X117092677Y-75899770D01*
X117126691Y-75877042D01*
X117223382Y-75797690D01*
X117292690Y-75728382D01*
X117372042Y-75631691D01*
X117426498Y-75550192D01*
X117485464Y-75439875D01*
X117522973Y-75349319D01*
X117559282Y-75229623D01*
X117578404Y-75133490D01*
X117590664Y-75009009D01*
X117590664Y-74984450D01*
X117593072Y-74960000D01*
X117593072Y-74460000D01*
X117580812Y-74335518D01*
X117573071Y-74310000D01*
X117580812Y-74284482D01*
X117593072Y-74160000D01*
X117593072Y-73660000D01*
X117590664Y-73635550D01*
X117590664Y-73610991D01*
X117578404Y-73486510D01*
X117559282Y-73390377D01*
X117522973Y-73270681D01*
X117485464Y-73180125D01*
X117426498Y-73069808D01*
X117372042Y-72988309D01*
X117314746Y-72918493D01*
X117459608Y-72799608D01*
X117638932Y-72581101D01*
X117710000Y-72448142D01*
X117781068Y-72581101D01*
G37*
%TD.AperFunction*%
D25*
X112061791Y-77347986D02*
X111911807Y-77267818D01*
X111641308Y-77185764D01*
X111360000Y-77158057D01*
X111078691Y-77185764D01*
X110808192Y-77267818D01*
X110658210Y-77347985D01*
X110658210Y-76468499D01*
X111028637Y-76098072D01*
X111375000Y-76098072D01*
X111399450Y-76095664D01*
X111424009Y-76095664D01*
X111548490Y-76083404D01*
X111644623Y-76064282D01*
X111764319Y-76027973D01*
X111854875Y-75990464D01*
X111965192Y-75931498D01*
X112046691Y-75877042D01*
X112061791Y-75864650D01*
X112061791Y-77347986D01*
%TA.AperFunction,Conductor*%
D26*
G36*
X112061791Y-77347986D02*
G01*
X111911807Y-77267818D01*
X111641308Y-77185764D01*
X111360000Y-77158057D01*
X111078691Y-77185764D01*
X110808192Y-77267818D01*
X110658210Y-77347985D01*
X110658210Y-76468499D01*
X111028637Y-76098072D01*
X111375000Y-76098072D01*
X111399450Y-76095664D01*
X111424009Y-76095664D01*
X111548490Y-76083404D01*
X111644623Y-76064282D01*
X111764319Y-76027973D01*
X111854875Y-75990464D01*
X111965192Y-75931498D01*
X112046691Y-75877042D01*
X112061791Y-75864650D01*
X112061791Y-77347986D01*
G37*
%TD.AperFunction*%
D25*
X114321836Y-76103000D02*
X114325401Y-76139193D01*
X114325401Y-77229474D01*
X114181308Y-77185764D01*
X113900000Y-77158057D01*
X113618691Y-77185764D01*
X113534990Y-77211154D01*
X113534990Y-76131719D01*
X113568637Y-76098072D01*
X113915000Y-76098072D01*
X113939450Y-76095664D01*
X113964009Y-76095664D01*
X114088490Y-76083404D01*
X114184623Y-76064282D01*
X114304319Y-76027973D01*
X114330285Y-76017217D01*
X114321836Y-76103000D01*
%TA.AperFunction,Conductor*%
D26*
G36*
X114321836Y-76103000D02*
G01*
X114325401Y-76139193D01*
X114325401Y-77229474D01*
X114181308Y-77185764D01*
X113900000Y-77158057D01*
X113618691Y-77185764D01*
X113534990Y-77211154D01*
X113534990Y-76131719D01*
X113568637Y-76098072D01*
X113915000Y-76098072D01*
X113939450Y-76095664D01*
X113964009Y-76095664D01*
X114088490Y-76083404D01*
X114184623Y-76064282D01*
X114304319Y-76027973D01*
X114330285Y-76017217D01*
X114321836Y-76103000D01*
G37*
%TD.AperFunction*%
D25*
X122047000Y-76243000D02*
X122067000Y-76243000D01*
X122067000Y-76497000D01*
X122047000Y-76497000D01*
X122047000Y-76517000D01*
X121793000Y-76517000D01*
X121793000Y-76497000D01*
X121773000Y-76497000D01*
X121773000Y-76243000D01*
X121793000Y-76243000D01*
X121793000Y-76223000D01*
X122047000Y-76223000D01*
X122047000Y-76243000D01*
%TA.AperFunction,Conductor*%
D26*
G36*
X122047000Y-76243000D02*
G01*
X122067000Y-76243000D01*
X122067000Y-76497000D01*
X122047000Y-76497000D01*
X122047000Y-76517000D01*
X121793000Y-76517000D01*
X121793000Y-76497000D01*
X121773000Y-76497000D01*
X121773000Y-76243000D01*
X121793000Y-76243000D01*
X121793000Y-76223000D01*
X122047000Y-76223000D01*
X122047000Y-76243000D01*
G37*
%TD.AperFunction*%
%TD*%
M02*
