%TF.GenerationSoftware,KiCad,Pcbnew,5.1.10*%
%TF.CreationDate,2021-12-22T00:08:39-07:00*%
%TF.ProjectId,Bondwell1MB,426f6e64-7765-46c6-9c31-4d422e6b6963,rev?*%
%TF.SameCoordinates,Original*%
%TF.FileFunction,Paste,Bot*%
%TF.FilePolarity,Positive*%
%FSLAX46Y46*%
G04 Gerber Fmt 4.6, Leading zero omitted, Abs format (unit mm)*
G04 Created by KiCad (PCBNEW 5.1.10) date 2021-12-22 00:08:39*
%MOMM*%
%LPD*%
G01*
G04 APERTURE LIST*
G04 APERTURE END LIST*
%TO.C,C9*%
G36*
G01*
X115512000Y-110457000D02*
X115512000Y-109507000D01*
G75*
G02*
X115762000Y-109257000I250000J0D01*
G01*
X116437000Y-109257000D01*
G75*
G02*
X116687000Y-109507000I0J-250000D01*
G01*
X116687000Y-110457000D01*
G75*
G02*
X116437000Y-110707000I-250000J0D01*
G01*
X115762000Y-110707000D01*
G75*
G02*
X115512000Y-110457000I0J250000D01*
G01*
G37*
G36*
G01*
X113437000Y-110457000D02*
X113437000Y-109507000D01*
G75*
G02*
X113687000Y-109257000I250000J0D01*
G01*
X114362000Y-109257000D01*
G75*
G02*
X114612000Y-109507000I0J-250000D01*
G01*
X114612000Y-110457000D01*
G75*
G02*
X114362000Y-110707000I-250000J0D01*
G01*
X113687000Y-110707000D01*
G75*
G02*
X113437000Y-110457000I0J250000D01*
G01*
G37*
%TD*%
%TO.C,C8*%
G36*
G01*
X93668000Y-110457000D02*
X93668000Y-109507000D01*
G75*
G02*
X93918000Y-109257000I250000J0D01*
G01*
X94593000Y-109257000D01*
G75*
G02*
X94843000Y-109507000I0J-250000D01*
G01*
X94843000Y-110457000D01*
G75*
G02*
X94593000Y-110707000I-250000J0D01*
G01*
X93918000Y-110707000D01*
G75*
G02*
X93668000Y-110457000I0J250000D01*
G01*
G37*
G36*
G01*
X91593000Y-110457000D02*
X91593000Y-109507000D01*
G75*
G02*
X91843000Y-109257000I250000J0D01*
G01*
X92518000Y-109257000D01*
G75*
G02*
X92768000Y-109507000I0J-250000D01*
G01*
X92768000Y-110457000D01*
G75*
G02*
X92518000Y-110707000I-250000J0D01*
G01*
X91843000Y-110707000D01*
G75*
G02*
X91593000Y-110457000I0J250000D01*
G01*
G37*
%TD*%
%TO.C,C7*%
G36*
G01*
X115279500Y-90645000D02*
X115279500Y-89695000D01*
G75*
G02*
X115529500Y-89445000I250000J0D01*
G01*
X116204500Y-89445000D01*
G75*
G02*
X116454500Y-89695000I0J-250000D01*
G01*
X116454500Y-90645000D01*
G75*
G02*
X116204500Y-90895000I-250000J0D01*
G01*
X115529500Y-90895000D01*
G75*
G02*
X115279500Y-90645000I0J250000D01*
G01*
G37*
G36*
G01*
X113204500Y-90645000D02*
X113204500Y-89695000D01*
G75*
G02*
X113454500Y-89445000I250000J0D01*
G01*
X114129500Y-89445000D01*
G75*
G02*
X114379500Y-89695000I0J-250000D01*
G01*
X114379500Y-90645000D01*
G75*
G02*
X114129500Y-90895000I-250000J0D01*
G01*
X113454500Y-90895000D01*
G75*
G02*
X113204500Y-90645000I0J250000D01*
G01*
G37*
%TD*%
%TO.C,C6*%
G36*
G01*
X93900500Y-90645000D02*
X93900500Y-89695000D01*
G75*
G02*
X94150500Y-89445000I250000J0D01*
G01*
X94825500Y-89445000D01*
G75*
G02*
X95075500Y-89695000I0J-250000D01*
G01*
X95075500Y-90645000D01*
G75*
G02*
X94825500Y-90895000I-250000J0D01*
G01*
X94150500Y-90895000D01*
G75*
G02*
X93900500Y-90645000I0J250000D01*
G01*
G37*
G36*
G01*
X91825500Y-90645000D02*
X91825500Y-89695000D01*
G75*
G02*
X92075500Y-89445000I250000J0D01*
G01*
X92750500Y-89445000D01*
G75*
G02*
X93000500Y-89695000I0J-250000D01*
G01*
X93000500Y-90645000D01*
G75*
G02*
X92750500Y-90895000I-250000J0D01*
G01*
X92075500Y-90895000D01*
G75*
G02*
X91825500Y-90645000I0J250000D01*
G01*
G37*
%TD*%
%TO.C,C5*%
G36*
G01*
X104611500Y-110457000D02*
X104611500Y-109507000D01*
G75*
G02*
X104861500Y-109257000I250000J0D01*
G01*
X105536500Y-109257000D01*
G75*
G02*
X105786500Y-109507000I0J-250000D01*
G01*
X105786500Y-110457000D01*
G75*
G02*
X105536500Y-110707000I-250000J0D01*
G01*
X104861500Y-110707000D01*
G75*
G02*
X104611500Y-110457000I0J250000D01*
G01*
G37*
G36*
G01*
X102536500Y-110457000D02*
X102536500Y-109507000D01*
G75*
G02*
X102786500Y-109257000I250000J0D01*
G01*
X103461500Y-109257000D01*
G75*
G02*
X103711500Y-109507000I0J-250000D01*
G01*
X103711500Y-110457000D01*
G75*
G02*
X103461500Y-110707000I-250000J0D01*
G01*
X102786500Y-110707000D01*
G75*
G02*
X102536500Y-110457000I0J250000D01*
G01*
G37*
%TD*%
%TO.C,C4*%
G36*
G01*
X82978500Y-110457000D02*
X82978500Y-109507000D01*
G75*
G02*
X83228500Y-109257000I250000J0D01*
G01*
X83903500Y-109257000D01*
G75*
G02*
X84153500Y-109507000I0J-250000D01*
G01*
X84153500Y-110457000D01*
G75*
G02*
X83903500Y-110707000I-250000J0D01*
G01*
X83228500Y-110707000D01*
G75*
G02*
X82978500Y-110457000I0J250000D01*
G01*
G37*
G36*
G01*
X80903500Y-110457000D02*
X80903500Y-109507000D01*
G75*
G02*
X81153500Y-109257000I250000J0D01*
G01*
X81828500Y-109257000D01*
G75*
G02*
X82078500Y-109507000I0J-250000D01*
G01*
X82078500Y-110457000D01*
G75*
G02*
X81828500Y-110707000I-250000J0D01*
G01*
X81153500Y-110707000D01*
G75*
G02*
X80903500Y-110457000I0J250000D01*
G01*
G37*
%TD*%
%TO.C,C3*%
G36*
G01*
X104568500Y-90645000D02*
X104568500Y-89695000D01*
G75*
G02*
X104818500Y-89445000I250000J0D01*
G01*
X105493500Y-89445000D01*
G75*
G02*
X105743500Y-89695000I0J-250000D01*
G01*
X105743500Y-90645000D01*
G75*
G02*
X105493500Y-90895000I-250000J0D01*
G01*
X104818500Y-90895000D01*
G75*
G02*
X104568500Y-90645000I0J250000D01*
G01*
G37*
G36*
G01*
X102493500Y-90645000D02*
X102493500Y-89695000D01*
G75*
G02*
X102743500Y-89445000I250000J0D01*
G01*
X103418500Y-89445000D01*
G75*
G02*
X103668500Y-89695000I0J-250000D01*
G01*
X103668500Y-90645000D01*
G75*
G02*
X103418500Y-90895000I-250000J0D01*
G01*
X102743500Y-90895000D01*
G75*
G02*
X102493500Y-90645000I0J250000D01*
G01*
G37*
%TD*%
%TO.C,C2*%
G36*
G01*
X83021500Y-90645000D02*
X83021500Y-89695000D01*
G75*
G02*
X83271500Y-89445000I250000J0D01*
G01*
X83946500Y-89445000D01*
G75*
G02*
X84196500Y-89695000I0J-250000D01*
G01*
X84196500Y-90645000D01*
G75*
G02*
X83946500Y-90895000I-250000J0D01*
G01*
X83271500Y-90895000D01*
G75*
G02*
X83021500Y-90645000I0J250000D01*
G01*
G37*
G36*
G01*
X80946500Y-90645000D02*
X80946500Y-89695000D01*
G75*
G02*
X81196500Y-89445000I250000J0D01*
G01*
X81871500Y-89445000D01*
G75*
G02*
X82121500Y-89695000I0J-250000D01*
G01*
X82121500Y-90645000D01*
G75*
G02*
X81871500Y-90895000I-250000J0D01*
G01*
X81196500Y-90895000D01*
G75*
G02*
X80946500Y-90645000I0J250000D01*
G01*
G37*
%TD*%
%TO.C,C1*%
G36*
G01*
X122395000Y-74882500D02*
X121445000Y-74882500D01*
G75*
G02*
X121195000Y-74632500I0J250000D01*
G01*
X121195000Y-73957500D01*
G75*
G02*
X121445000Y-73707500I250000J0D01*
G01*
X122395000Y-73707500D01*
G75*
G02*
X122645000Y-73957500I0J-250000D01*
G01*
X122645000Y-74632500D01*
G75*
G02*
X122395000Y-74882500I-250000J0D01*
G01*
G37*
G36*
G01*
X122395000Y-76957500D02*
X121445000Y-76957500D01*
G75*
G02*
X121195000Y-76707500I0J250000D01*
G01*
X121195000Y-76032500D01*
G75*
G02*
X121445000Y-75782500I250000J0D01*
G01*
X122395000Y-75782500D01*
G75*
G02*
X122645000Y-76032500I0J-250000D01*
G01*
X122645000Y-76707500D01*
G75*
G02*
X122395000Y-76957500I-250000J0D01*
G01*
G37*
%TD*%
M02*
